<svg width="29" height="20" viewBox="0 0 29 20" fill="none" xmlns="http://www.w3.org/2000/svg">
<path d="M24.7748 0.749573H3.95653C3.0363 0.749573 2.15377 1.09734 1.50307 1.71637C0.852371 2.3354 0.486816 3.17499 0.486816 4.05044V16.4287C0.486816 17.3041 0.852371 18.1437 1.50307 18.7627C2.15377 19.3818 3.0363 19.7295 3.95653 19.7295H24.7748C25.695 19.7295 26.5776 19.3818 27.2282 18.7627C27.8789 18.1437 28.2445 17.3041 28.2445 16.4287V4.05044C28.2445 3.17499 27.8789 2.3354 27.2282 1.71637C26.5776 1.09734 25.695 0.749573 24.7748 0.749573ZM24.4538 6.33628L14.9121 13.7632C14.7576 13.8825 14.5647 13.9476 14.3657 13.9476C14.1667 13.9476 13.9737 13.8825 13.8192 13.7632L4.27748 6.33628C4.17632 6.2726 4.09032 6.18944 4.02504 6.09217C3.95976 5.99491 3.91665 5.88571 3.89849 5.77161C3.88034 5.65751 3.88754 5.54106 3.91963 5.42977C3.95172 5.31848 4.00799 5.21484 4.0848 5.12553C4.16161 5.03621 4.25726 4.96322 4.36557 4.91126C4.47388 4.8593 4.59244 4.82954 4.71359 4.82388C4.83475 4.81821 4.9558 4.83679 5.06894 4.8784C5.18208 4.92001 5.28479 4.98374 5.37043 5.06546L14.3657 12.0633L23.3609 5.06546C23.5401 4.95265 23.7569 4.90713 23.9694 4.93773C24.1819 4.96833 24.3748 5.07287 24.5109 5.2311C24.647 5.38932 24.7165 5.58994 24.7059 5.79413C24.6954 5.99831 24.6056 6.19151 24.4538 6.33628Z" fill="white"/>
</svg>
