<svg width="23" height="29" viewBox="0 0 23 29" fill="none" xmlns="http://www.w3.org/2000/svg">
<path d="M11.5327 10.15C12.9729 10.15 14.1404 8.96837 14.1404 7.51075C14.1404 6.05314 12.9729 4.87151 11.5327 4.87151C10.0925 4.87151 8.92505 6.05314 8.92505 7.51075C8.92505 8.96837 10.0925 10.15 11.5327 10.15Z" fill="white"/>
<path d="M11.5326 0.490021C8.53569 0.490021 5.6615 1.69496 3.54235 3.83977C1.42319 5.98457 0.232666 8.89355 0.232666 11.9268C0.232666 17.3636 6.05649 23.8913 10.9502 28.4133L11.55 28.9675L12.1324 28.3957C17.5477 23.1172 22.8326 17.5132 22.8326 11.9268C22.8326 10.4249 22.5403 8.93768 21.9724 7.55011C21.4046 6.16254 20.5722 4.90177 19.5229 3.83977C18.4736 2.77777 17.2279 1.93534 15.8569 1.36059C14.486 0.785838 13.0166 0.490021 11.5326 0.490021ZM11.5326 16.3255C10.673 16.3255 9.83276 16.0675 9.11804 15.5842C8.40332 15.1008 7.84627 14.4139 7.51732 13.6101C7.18837 12.8063 7.1023 11.9219 7.27 11.0686C7.4377 10.2153 7.85162 9.43156 8.45944 8.81639C9.06726 8.20121 9.84167 7.78226 10.6847 7.61253C11.5278 7.4428 12.4017 7.5299 13.1958 7.86283C13.99 8.19576 14.6688 8.75957 15.1463 9.48294C15.6239 10.2063 15.8788 11.0568 15.8788 11.9268C15.8788 13.0934 15.4209 14.2122 14.6058 15.0371C13.7908 15.8621 12.6853 16.3255 11.5326 16.3255Z" fill="white"/>
</svg>
