<svg width="380" height="293" viewBox="0 0 380 293" fill="none" xmlns="http://www.w3.org/2000/svg">
<path d="M62.9721 186.168C62.3841 186.168 61.8451 186.063 61.3551 185.853C60.8651 185.638 60.4708 185.323 60.1721 184.908C59.8735 184.493 59.7195 183.979 59.7101 183.368H60.7741C60.7741 183.779 60.8745 184.117 61.0751 184.383C61.2758 184.644 61.5418 184.84 61.8731 184.971C62.2045 185.097 62.5661 185.16 62.9581 185.16C63.3828 185.16 63.7515 185.092 64.0641 184.957C64.3768 184.822 64.6171 184.644 64.7851 184.425C64.9578 184.201 65.0441 183.956 65.0441 183.69C65.0441 183.317 64.9298 183.016 64.7011 182.787C64.4725 182.554 64.1341 182.365 63.6861 182.22L62.1321 181.674C61.4041 181.413 60.8535 181.114 60.4801 180.778C60.1068 180.442 59.9201 179.971 59.9201 179.364C59.9201 178.683 60.1815 178.127 60.7041 177.698C61.2315 177.269 61.9781 177.054 62.9441 177.054C63.8401 177.054 64.5401 177.262 65.0441 177.677C65.5481 178.088 65.8375 178.641 65.9121 179.336H64.8341C64.7641 178.93 64.5728 178.615 64.2601 178.391C63.9521 178.162 63.5135 178.048 62.9441 178.048C62.3655 178.048 61.9151 178.176 61.5931 178.433C61.2711 178.69 61.1101 179.014 61.1101 179.406C61.1101 179.728 61.2105 179.985 61.4111 180.176C61.6165 180.363 61.9361 180.531 62.3701 180.68L64.1901 181.31C64.8201 181.52 65.3171 181.814 65.6811 182.192C66.0498 182.57 66.2341 183.06 66.2341 183.662C66.2341 184.129 66.1081 184.551 65.8561 184.929C65.6088 185.307 65.2425 185.608 64.7571 185.832C64.2718 186.056 63.6768 186.168 62.9721 186.168ZM73.381 186V182.066C73.381 181.427 73.227 180.941 72.919 180.61C72.6157 180.274 72.2004 180.106 71.673 180.106C71.2717 180.106 70.924 180.216 70.63 180.435C70.336 180.654 70.1097 180.969 69.951 181.38C69.7924 181.786 69.713 182.271 69.713 182.836H69.293C69.293 182.057 69.3957 181.392 69.601 180.841C69.8064 180.29 70.105 179.87 70.497 179.581C70.8937 179.287 71.3744 179.14 71.939 179.14C72.4664 179.14 72.9167 179.259 73.29 179.497C73.668 179.73 73.9574 180.066 74.158 180.505C74.3587 180.944 74.459 181.464 74.459 182.066V186H73.381ZM68.621 186V176.452H69.713V186H68.621ZM77.0703 186V179.294H78.1623V186H77.0703ZM77.8263 182.976C77.8263 182.127 77.9079 181.422 78.0713 180.862C78.2346 180.297 78.4726 179.877 78.7853 179.602C79.1026 179.322 79.4876 179.182 79.9403 179.182C80.0896 179.182 80.2249 179.194 80.3463 179.217C80.4723 179.236 80.5983 179.266 80.7243 179.308L80.6543 180.386C80.5236 180.344 80.3813 180.309 80.2273 180.281C80.0733 180.248 79.9356 180.232 79.8143 180.232C79.4176 180.232 79.0979 180.346 78.8553 180.575C78.6126 180.799 78.4353 181.116 78.3233 181.527C78.2159 181.938 78.1623 182.421 78.1623 182.976H77.8263ZM82.7448 177.726C82.5208 177.726 82.3435 177.663 82.2128 177.537C82.0822 177.406 82.0168 177.236 82.0168 177.026C82.0168 176.821 82.0822 176.657 82.2128 176.536C82.3435 176.415 82.5208 176.354 82.7448 176.354C82.9688 176.354 83.1462 176.415 83.2768 176.536C83.4075 176.657 83.4728 176.821 83.4728 177.026C83.4728 177.236 83.4075 177.406 83.2768 177.537C83.1462 177.663 82.9688 177.726 82.7448 177.726ZM82.1988 186V179.294H83.2908V186H82.1988ZM95.7068 186V182.066C95.7068 181.427 95.5528 180.941 95.2448 180.61C94.9414 180.274 94.5308 180.106 94.0128 180.106C93.4061 180.106 92.9418 180.342 92.6198 180.813C92.2978 181.28 92.1368 181.926 92.1368 182.752H91.6328C91.6328 182.15 91.6911 181.623 91.8078 181.17C91.9291 180.717 92.1041 180.342 92.3328 180.043C92.5614 179.74 92.8391 179.513 93.1658 179.364C93.4924 179.215 93.8634 179.14 94.2788 179.14C94.8061 179.14 95.2564 179.259 95.6298 179.497C96.0078 179.73 96.2971 180.066 96.4978 180.505C96.6984 180.944 96.7988 181.464 96.7988 182.066V186H95.7068ZM86.2988 186V179.308H87.2368L87.3628 180.652C87.5728 180.167 87.8668 179.793 88.2448 179.532C88.6274 179.271 89.0848 179.14 89.6168 179.14C90.1441 179.14 90.5944 179.259 90.9678 179.497C91.3458 179.73 91.6351 180.066 91.8358 180.505C92.0364 180.944 92.1368 181.464 92.1368 182.066V186H91.0588V182.066C91.0588 181.427 90.9048 180.941 90.5968 180.61C90.2934 180.274 89.8781 180.106 89.3508 180.106C88.9494 180.106 88.6018 180.216 88.3078 180.435C88.0138 180.654 87.7874 180.969 87.6288 181.38C87.4701 181.786 87.3908 182.271 87.3908 182.836V186H86.2988ZM102.434 186.168C101.944 186.168 101.517 186.056 101.153 185.832C100.794 185.608 100.516 185.281 100.32 184.852C100.124 184.418 100.026 183.891 100.026 183.27H100.488C100.488 183.685 100.575 184.035 100.747 184.32C100.92 184.605 101.144 184.822 101.419 184.971C101.699 185.116 101.996 185.188 102.308 185.188C102.644 185.188 102.966 185.092 103.274 184.901C103.582 184.705 103.834 184.418 104.03 184.04C104.226 183.662 104.324 183.195 104.324 182.64C104.324 182.108 104.233 181.653 104.051 181.275C103.874 180.897 103.634 180.608 103.33 180.407C103.027 180.206 102.691 180.106 102.322 180.106C102.005 180.106 101.706 180.183 101.426 180.337C101.146 180.491 100.92 180.717 100.747 181.016C100.575 181.31 100.488 181.674 100.488 182.108H100.026C100.026 181.459 100.134 180.916 100.348 180.477C100.563 180.034 100.855 179.7 101.223 179.476C101.592 179.252 102.005 179.14 102.462 179.14C102.985 179.14 103.473 179.28 103.925 179.56C104.378 179.84 104.744 180.241 105.024 180.764C105.304 181.287 105.444 181.912 105.444 182.64C105.444 183.377 105.302 184.01 105.017 184.537C104.737 185.064 104.369 185.468 103.911 185.748C103.454 186.028 102.962 186.168 102.434 186.168ZM99.3964 189.29V179.308H100.306L100.488 180.876V189.29H99.3964ZM107.418 187.526L106.592 187.12C106.858 186.985 107.082 186.835 107.264 186.672C107.451 186.509 107.572 186.308 107.628 186.07C107.427 186.047 107.255 185.974 107.11 185.853C106.97 185.732 106.9 185.571 106.9 185.37C106.9 185.174 106.972 185.006 107.117 184.866C107.266 184.726 107.455 184.656 107.684 184.656C107.973 184.656 108.207 184.761 108.384 184.971C108.561 185.181 108.65 185.431 108.65 185.72C108.65 186.061 108.545 186.394 108.335 186.721C108.13 187.052 107.824 187.321 107.418 187.526ZM116.256 186.168C115.654 186.168 115.117 186.035 114.646 185.769C114.179 185.503 113.811 185.109 113.54 184.586C113.269 184.063 113.134 183.419 113.134 182.654C113.134 181.884 113.269 181.24 113.54 180.722C113.811 180.199 114.179 179.805 114.646 179.539C115.117 179.273 115.654 179.14 116.256 179.14C116.853 179.14 117.385 179.273 117.852 179.539C118.323 179.805 118.692 180.199 118.958 180.722C119.229 181.24 119.364 181.884 119.364 182.654C119.364 183.419 119.229 184.063 118.958 184.586C118.692 185.109 118.323 185.503 117.852 185.769C117.385 186.035 116.853 186.168 116.256 186.168ZM116.228 185.216C116.662 185.216 117.031 185.113 117.334 184.908C117.637 184.698 117.866 184.402 118.02 184.019C118.179 183.636 118.258 183.181 118.258 182.654C118.258 181.856 118.092 181.228 117.761 180.771C117.43 180.309 116.937 180.078 116.284 180.078C115.845 180.078 115.474 180.183 115.171 180.393C114.872 180.598 114.644 180.895 114.485 181.282C114.331 181.665 114.254 182.122 114.254 182.654C114.254 183.443 114.42 184.068 114.751 184.53C115.087 184.987 115.579 185.216 116.228 185.216ZM126.25 186V182.066C126.25 181.427 126.096 180.941 125.788 180.61C125.485 180.274 125.07 180.106 124.542 180.106C124.141 180.106 123.793 180.216 123.499 180.435C123.205 180.654 122.979 180.969 122.82 181.38C122.662 181.786 122.582 182.271 122.582 182.836H122.162C122.162 182.057 122.265 181.392 122.47 180.841C122.676 180.29 122.974 179.87 123.366 179.581C123.763 179.287 124.244 179.14 124.808 179.14C125.336 179.14 125.786 179.259 126.159 179.497C126.537 179.73 126.827 180.066 127.027 180.505C127.228 180.944 127.328 181.464 127.328 182.066V186H126.25ZM121.49 186V179.308H122.428L122.582 180.848V186H121.49ZM130.555 177.726C130.331 177.726 130.154 177.663 130.023 177.537C129.893 177.406 129.827 177.236 129.827 177.026C129.827 176.821 129.893 176.657 130.023 176.536C130.154 176.415 130.331 176.354 130.555 176.354C130.779 176.354 130.957 176.415 131.087 176.536C131.218 176.657 131.283 176.821 131.283 177.026C131.283 177.236 131.218 177.406 131.087 177.537C130.957 177.663 130.779 177.726 130.555 177.726ZM130.009 186V179.294H131.101V186H130.009ZM136.531 186.168C135.929 186.168 135.393 186.035 134.921 185.769C134.455 185.503 134.086 185.109 133.815 184.586C133.545 184.063 133.409 183.419 133.409 182.654C133.409 181.884 133.545 181.24 133.815 180.722C134.086 180.199 134.455 179.805 134.921 179.539C135.393 179.273 135.929 179.14 136.531 179.14C137.129 179.14 137.661 179.273 138.127 179.539C138.599 179.805 138.967 180.199 139.233 180.722C139.504 181.24 139.639 181.884 139.639 182.654C139.639 183.419 139.504 184.063 139.233 184.586C138.967 185.109 138.599 185.503 138.127 185.769C137.661 186.035 137.129 186.168 136.531 186.168ZM136.503 185.216C136.937 185.216 137.306 185.113 137.609 184.908C137.913 184.698 138.141 184.402 138.295 184.019C138.454 183.636 138.533 183.181 138.533 182.654C138.533 181.856 138.368 181.228 138.036 180.771C137.705 180.309 137.213 180.078 136.559 180.078C136.121 180.078 135.75 180.183 135.446 180.393C135.148 180.598 134.919 180.895 134.76 181.282C134.606 181.665 134.529 182.122 134.529 182.654C134.529 183.443 134.695 184.068 135.026 184.53C135.362 184.987 135.855 185.216 136.503 185.216ZM146.526 186V182.066C146.526 181.427 146.372 180.941 146.064 180.61C145.76 180.274 145.345 180.106 144.818 180.106C144.416 180.106 144.069 180.216 143.775 180.435C143.481 180.654 143.254 180.969 143.096 181.38C142.937 181.786 142.858 182.271 142.858 182.836H142.438C142.438 182.057 142.54 181.392 142.746 180.841C142.951 180.29 143.25 179.87 143.642 179.581C144.038 179.287 144.519 179.14 145.084 179.14C145.611 179.14 146.061 179.259 146.435 179.497C146.813 179.73 147.102 180.066 147.303 180.505C147.503 180.944 147.604 181.464 147.604 182.066V186H146.526ZM141.766 186V179.308H142.704L142.858 180.848V186H141.766ZM152.623 186.168C151.974 186.168 151.433 186.077 150.999 185.895C150.565 185.708 150.236 185.454 150.012 185.132C149.788 184.805 149.669 184.432 149.655 184.012H150.705C150.728 184.437 150.898 184.756 151.216 184.971C151.538 185.181 151.974 185.286 152.525 185.286C152.814 185.286 153.08 185.239 153.323 185.146C153.565 185.053 153.759 184.924 153.904 184.761C154.048 184.598 154.121 184.413 154.121 184.208C154.121 183.947 154.025 183.741 153.834 183.592C153.642 183.443 153.337 183.312 152.917 183.2L151.615 182.78C151.05 182.603 150.616 182.36 150.313 182.052C150.014 181.739 149.865 181.366 149.865 180.932C149.865 180.391 150.103 179.957 150.579 179.63C151.055 179.303 151.68 179.14 152.455 179.14C153.276 179.14 153.913 179.308 154.366 179.644C154.818 179.98 155.054 180.4 155.073 180.904H153.995C153.953 180.61 153.803 180.388 153.547 180.239C153.29 180.085 152.926 180.008 152.455 180.008C152.002 180.008 151.647 180.111 151.391 180.316C151.139 180.517 151.013 180.741 151.013 180.988C151.013 181.45 151.409 181.791 152.203 182.01L153.533 182.458C154.107 182.631 154.545 182.857 154.849 183.137C155.157 183.417 155.311 183.774 155.311 184.208C155.311 184.544 155.201 184.861 154.982 185.16C154.762 185.459 154.452 185.701 154.051 185.888C153.649 186.075 153.173 186.168 152.623 186.168ZM157.402 187.526L156.576 187.12C156.842 186.985 157.066 186.835 157.248 186.672C157.435 186.509 157.556 186.308 157.612 186.07C157.412 186.047 157.239 185.974 157.094 185.853C156.954 185.732 156.884 185.571 156.884 185.37C156.884 185.174 156.957 185.006 157.101 184.866C157.251 184.726 157.44 184.656 157.668 184.656C157.958 184.656 158.191 184.761 158.368 184.971C158.546 185.181 158.634 185.431 158.634 185.72C158.634 186.061 158.529 186.394 158.319 186.721C158.114 187.052 157.808 187.321 157.402 187.526ZM165.876 186.168C165.512 186.168 165.186 186.098 164.896 185.958C164.607 185.818 164.378 185.608 164.21 185.328C164.042 185.048 163.958 184.698 163.958 184.278V177.446H165.036V184.25C165.036 184.941 165.358 185.286 166.002 185.286C166.194 185.286 166.378 185.265 166.555 185.223C166.737 185.181 166.94 185.118 167.164 185.034L167.318 185.818C167.08 185.921 166.842 186.005 166.604 186.07C166.371 186.135 166.128 186.168 165.876 186.168ZM162.88 180.064V179.308H167.15V180.064H162.88ZM171.504 186.168C170.902 186.168 170.365 186.035 169.894 185.769C169.427 185.503 169.059 185.109 168.788 184.586C168.517 184.063 168.382 183.419 168.382 182.654C168.382 181.884 168.517 181.24 168.788 180.722C169.059 180.199 169.427 179.805 169.894 179.539C170.365 179.273 170.902 179.14 171.504 179.14C172.101 179.14 172.633 179.273 173.1 179.539C173.571 179.805 173.94 180.199 174.206 180.722C174.477 181.24 174.612 181.884 174.612 182.654C174.612 183.419 174.477 184.063 174.206 184.586C173.94 185.109 173.571 185.503 173.1 185.769C172.633 186.035 172.101 186.168 171.504 186.168ZM171.476 185.216C171.91 185.216 172.279 185.113 172.582 184.908C172.885 184.698 173.114 184.402 173.268 184.019C173.427 183.636 173.506 183.181 173.506 182.654C173.506 181.856 173.34 181.228 173.009 180.771C172.678 180.309 172.185 180.078 171.532 180.078C171.093 180.078 170.722 180.183 170.419 180.393C170.12 180.598 169.892 180.895 169.733 181.282C169.579 181.665 169.502 182.122 169.502 182.654C169.502 183.443 169.668 184.068 169.999 184.53C170.335 184.987 170.827 185.216 171.476 185.216ZM186.146 186V182.066C186.146 181.427 185.992 180.941 185.684 180.61C185.381 180.274 184.97 180.106 184.452 180.106C183.846 180.106 183.381 180.342 183.059 180.813C182.737 181.28 182.576 181.926 182.576 182.752H182.072C182.072 182.15 182.131 181.623 182.247 181.17C182.369 180.717 182.544 180.342 182.772 180.043C183.001 179.74 183.279 179.513 183.605 179.364C183.932 179.215 184.303 179.14 184.718 179.14C185.246 179.14 185.696 179.259 186.069 179.497C186.447 179.73 186.737 180.066 186.937 180.505C187.138 180.944 187.238 181.464 187.238 182.066V186H186.146ZM176.738 186V179.308H177.676L177.802 180.652C178.012 180.167 178.306 179.793 178.684 179.532C179.067 179.271 179.524 179.14 180.056 179.14C180.584 179.14 181.034 179.259 181.407 179.497C181.785 179.73 182.075 180.066 182.275 180.505C182.476 180.944 182.576 181.464 182.576 182.066V186H181.498V182.066C181.498 181.427 181.344 180.941 181.036 180.61C180.733 180.274 180.318 180.106 179.79 180.106C179.389 180.106 179.041 180.216 178.747 180.435C178.453 180.654 178.227 180.969 178.068 181.38C177.91 181.786 177.83 182.271 177.83 182.836V186H176.738ZM193.98 186L193.84 184.53V181.66C193.84 181.058 193.712 180.626 193.455 180.365C193.198 180.099 192.813 179.966 192.3 179.966C192.011 179.966 191.747 180.008 191.509 180.092C191.276 180.176 191.089 180.307 190.949 180.484C190.814 180.657 190.746 180.881 190.746 181.156H189.528C189.528 180.671 189.647 180.281 189.885 179.987C190.123 179.688 190.45 179.474 190.865 179.343C191.285 179.208 191.763 179.14 192.3 179.14C192.813 179.14 193.268 179.226 193.665 179.399C194.062 179.572 194.372 179.847 194.596 180.225C194.82 180.598 194.932 181.086 194.932 181.688V186H193.98ZM191.698 186.168C191.147 186.168 190.692 186.07 190.333 185.874C189.974 185.678 189.705 185.424 189.528 185.111C189.351 184.798 189.262 184.469 189.262 184.124C189.262 183.671 189.374 183.303 189.598 183.018C189.827 182.733 190.137 182.526 190.529 182.395C190.921 182.26 191.362 182.192 191.852 182.192C192.202 182.192 192.552 182.227 192.902 182.297C193.257 182.367 193.602 182.463 193.938 182.584V183.27C193.658 183.158 193.341 183.069 192.986 183.004C192.636 182.939 192.314 182.906 192.02 182.906C191.572 182.906 191.194 182.999 190.886 183.186C190.578 183.368 190.424 183.681 190.424 184.124C190.424 184.451 190.541 184.731 190.774 184.964C191.012 185.197 191.39 185.314 191.908 185.314C192.272 185.314 192.599 185.23 192.888 185.062C193.182 184.889 193.413 184.675 193.581 184.418C193.754 184.161 193.84 183.905 193.84 183.648H194.106C194.106 184.096 194.008 184.511 193.812 184.894C193.621 185.277 193.345 185.585 192.986 185.818C192.627 186.051 192.197 186.168 191.698 186.168ZM199.605 186.168C199.241 186.168 198.914 186.098 198.625 185.958C198.335 185.818 198.107 185.608 197.939 185.328C197.771 185.048 197.687 184.698 197.687 184.278V177.446H198.765V184.25C198.765 184.941 199.087 185.286 199.731 185.286C199.922 185.286 200.106 185.265 200.284 185.223C200.466 185.181 200.669 185.118 200.893 185.034L201.047 185.818C200.809 185.921 200.571 186.005 200.333 186.07C200.099 186.135 199.857 186.168 199.605 186.168ZM196.609 180.064V179.308H200.879V180.064H196.609ZM205.232 186.168C204.63 186.168 204.094 186.035 203.622 185.769C203.156 185.503 202.787 185.109 202.516 184.586C202.246 184.063 202.11 183.419 202.11 182.654C202.11 181.884 202.246 181.24 202.516 180.722C202.787 180.199 203.156 179.805 203.622 179.539C204.094 179.273 204.63 179.14 205.232 179.14C205.83 179.14 206.362 179.273 206.828 179.539C207.3 179.805 207.668 180.199 207.934 180.722C208.205 181.24 208.34 181.884 208.34 182.654C208.34 183.419 208.205 184.063 207.934 184.586C207.668 185.109 207.3 185.503 206.828 185.769C206.362 186.035 205.83 186.168 205.232 186.168ZM205.204 185.216C205.638 185.216 206.007 185.113 206.31 184.908C206.614 184.698 206.842 184.402 206.996 184.019C207.155 183.636 207.234 183.181 207.234 182.654C207.234 181.856 207.069 181.228 206.737 180.771C206.406 180.309 205.914 180.078 205.26 180.078C204.822 180.078 204.451 180.183 204.147 180.393C203.849 180.598 203.62 180.895 203.461 181.282C203.307 181.665 203.23 182.122 203.23 182.654C203.23 183.443 203.396 184.068 203.727 184.53C204.063 184.987 204.556 185.216 205.204 185.216ZM216.197 186.168C215.548 186.168 215.007 186.077 214.573 185.895C214.139 185.708 213.81 185.454 213.586 185.132C213.362 184.805 213.243 184.432 213.229 184.012H214.279C214.302 184.437 214.473 184.756 214.79 184.971C215.112 185.181 215.548 185.286 216.099 185.286C216.388 185.286 216.654 185.239 216.897 185.146C217.14 185.053 217.333 184.924 217.478 184.761C217.623 184.598 217.695 184.413 217.695 184.208C217.695 183.947 217.599 183.741 217.408 183.592C217.217 183.443 216.911 183.312 216.491 183.2L215.189 182.78C214.624 182.603 214.19 182.36 213.887 182.052C213.588 181.739 213.439 181.366 213.439 180.932C213.439 180.391 213.677 179.957 214.153 179.63C214.629 179.303 215.254 179.14 216.029 179.14C216.85 179.14 217.487 179.308 217.94 179.644C218.393 179.98 218.628 180.4 218.647 180.904H217.569C217.527 180.61 217.378 180.388 217.121 180.239C216.864 180.085 216.5 180.008 216.029 180.008C215.576 180.008 215.222 180.111 214.965 180.316C214.713 180.517 214.587 180.741 214.587 180.988C214.587 181.45 214.984 181.791 215.777 182.01L217.107 182.458C217.681 182.631 218.12 182.857 218.423 183.137C218.731 183.417 218.885 183.774 218.885 184.208C218.885 184.544 218.775 184.861 218.556 185.16C218.337 185.459 218.026 185.701 217.625 185.888C217.224 186.075 216.748 186.168 216.197 186.168ZM225.288 186L225.148 184.53V181.66C225.148 181.058 225.02 180.626 224.763 180.365C224.507 180.099 224.122 179.966 223.608 179.966C223.319 179.966 223.055 180.008 222.817 180.092C222.584 180.176 222.397 180.307 222.257 180.484C222.122 180.657 222.054 180.881 222.054 181.156H220.836C220.836 180.671 220.955 180.281 221.193 179.987C221.431 179.688 221.758 179.474 222.173 179.343C222.593 179.208 223.072 179.14 223.608 179.14C224.122 179.14 224.577 179.226 224.973 179.399C225.37 179.572 225.68 179.847 225.904 180.225C226.128 180.598 226.24 181.086 226.24 181.688V186H225.288ZM223.006 186.168C222.456 186.168 222.001 186.07 221.641 185.874C221.282 185.678 221.014 185.424 220.836 185.111C220.659 184.798 220.57 184.469 220.57 184.124C220.57 183.671 220.682 183.303 220.906 183.018C221.135 182.733 221.445 182.526 221.837 182.395C222.229 182.26 222.67 182.192 223.16 182.192C223.51 182.192 223.86 182.227 224.21 182.297C224.565 182.367 224.91 182.463 225.246 182.584V183.27C224.966 183.158 224.649 183.069 224.294 183.004C223.944 182.939 223.622 182.906 223.328 182.906C222.88 182.906 222.502 182.999 222.194 183.186C221.886 183.368 221.732 183.681 221.732 184.124C221.732 184.451 221.849 184.731 222.082 184.964C222.32 185.197 222.698 185.314 223.216 185.314C223.58 185.314 223.907 185.23 224.196 185.062C224.49 184.889 224.721 184.675 224.889 184.418C225.062 184.161 225.148 183.905 225.148 183.648H225.414C225.414 184.096 225.316 184.511 225.12 184.894C224.929 185.277 224.654 185.585 224.294 185.818C223.935 186.051 223.506 186.168 223.006 186.168ZM233.405 179.294H234.497V186H233.405V179.294ZM228.659 179.294H229.751V183.466C229.751 184.026 229.887 184.451 230.157 184.74C230.433 185.029 230.825 185.174 231.333 185.174C231.753 185.174 232.117 185.062 232.425 184.838C232.738 184.614 232.978 184.306 233.146 183.914C233.319 183.517 233.405 183.065 233.405 182.556H233.811C233.811 183.307 233.702 183.949 233.482 184.481C233.268 185.013 232.962 185.421 232.565 185.706C232.173 185.986 231.711 186.126 231.179 186.126C230.675 186.126 230.234 186.033 229.856 185.846C229.478 185.659 229.184 185.377 228.974 184.999C228.764 184.616 228.659 184.133 228.659 183.55V179.294ZM239.39 186.168C239.026 186.168 238.699 186.098 238.41 185.958C238.121 185.818 237.892 185.608 237.724 185.328C237.556 185.048 237.472 184.698 237.472 184.278V177.446H238.55V184.25C238.55 184.941 238.872 185.286 239.516 185.286C239.707 185.286 239.892 185.265 240.069 185.223C240.251 185.181 240.454 185.118 240.678 185.034L240.832 185.818C240.594 185.921 240.356 186.005 240.118 186.07C239.885 186.135 239.642 186.168 239.39 186.168ZM236.394 180.064V179.308H240.664V180.064H236.394ZM244.92 186.168C244.341 186.168 243.823 186.021 243.366 185.727C242.913 185.428 242.554 185.015 242.288 184.488C242.026 183.961 241.896 183.354 241.896 182.668C241.896 181.935 242.026 181.305 242.288 180.778C242.549 180.251 242.906 179.847 243.359 179.567C243.816 179.282 244.336 179.14 244.92 179.14C245.428 179.14 245.862 179.243 246.222 179.448C246.581 179.653 246.87 179.931 247.09 180.281C247.309 180.631 247.461 181.028 247.545 181.471C247.633 181.91 247.659 182.365 247.622 182.836H242.778V182.164H246.901L246.579 182.374C246.593 182.099 246.576 181.823 246.53 181.548C246.488 181.273 246.406 181.021 246.285 180.792C246.163 180.559 245.993 180.372 245.774 180.232C245.554 180.092 245.274 180.022 244.934 180.022C244.504 180.022 244.145 180.132 243.856 180.351C243.566 180.57 243.349 180.86 243.205 181.219C243.06 181.574 242.988 181.959 242.988 182.374V182.822C242.988 183.289 243.058 183.706 243.198 184.075C243.342 184.444 243.557 184.735 243.842 184.95C244.126 185.165 244.486 185.272 244.92 185.272C245.354 185.272 245.711 185.167 245.991 184.957C246.271 184.747 246.441 184.437 246.502 184.026H247.636C247.566 184.469 247.407 184.852 247.16 185.174C246.912 185.491 246.597 185.736 246.215 185.909C245.832 186.082 245.4 186.168 244.92 186.168ZM252.111 186.168C251.532 186.168 251.014 186.021 250.557 185.727C250.104 185.428 249.745 185.015 249.479 184.488C249.218 183.961 249.087 183.354 249.087 182.668C249.087 181.935 249.218 181.305 249.479 180.778C249.74 180.251 250.097 179.847 250.55 179.567C251.007 179.282 251.528 179.14 252.111 179.14C252.62 179.14 253.054 179.243 253.413 179.448C253.772 179.653 254.062 179.931 254.281 180.281C254.5 180.631 254.652 181.028 254.736 181.471C254.825 181.91 254.85 182.365 254.813 182.836H249.969V182.164H254.092L253.77 182.374C253.784 182.099 253.768 181.823 253.721 181.548C253.679 181.273 253.597 181.021 253.476 180.792C253.355 180.559 253.184 180.372 252.965 180.232C252.746 180.092 252.466 180.022 252.125 180.022C251.696 180.022 251.336 180.132 251.047 180.351C250.758 180.57 250.541 180.86 250.396 181.219C250.251 181.574 250.179 181.959 250.179 182.374V182.822C250.179 183.289 250.249 183.706 250.389 184.075C250.534 184.444 250.748 184.735 251.033 184.95C251.318 185.165 251.677 185.272 252.111 185.272C252.545 185.272 252.902 185.167 253.182 184.957C253.462 184.747 253.632 184.437 253.693 184.026H254.827C254.757 184.469 254.598 184.852 254.351 185.174C254.104 185.491 253.789 185.736 253.406 185.909C253.023 186.082 252.592 186.168 252.111 186.168ZM259.372 186.168C258.831 186.168 258.334 186.023 257.881 185.734C257.429 185.44 257.067 185.029 256.796 184.502C256.526 183.97 256.39 183.345 256.39 182.626C256.39 181.912 256.523 181.294 256.789 180.771C257.055 180.248 257.408 179.847 257.846 179.567C258.29 179.282 258.775 179.14 259.302 179.14C259.792 179.14 260.222 179.259 260.59 179.497C260.964 179.735 261.253 180.078 261.458 180.526C261.664 180.974 261.766 181.515 261.766 182.15H261.346C261.346 181.707 261.258 181.333 261.08 181.03C260.908 180.727 260.681 180.498 260.401 180.344C260.121 180.185 259.82 180.106 259.498 180.106C259.134 180.106 258.801 180.209 258.497 180.414C258.199 180.615 257.958 180.904 257.776 181.282C257.599 181.655 257.51 182.103 257.51 182.626C257.51 183.158 257.599 183.615 257.776 183.998C257.958 184.381 258.199 184.675 258.497 184.88C258.801 185.085 259.134 185.188 259.498 185.188C259.802 185.188 260.093 185.109 260.373 184.95C260.658 184.791 260.891 184.56 261.073 184.257C261.255 183.949 261.346 183.578 261.346 183.144H261.766C261.766 183.793 261.659 184.343 261.444 184.796C261.234 185.244 260.947 185.585 260.583 185.818C260.224 186.051 259.82 186.168 259.372 186.168ZM261.528 186L261.346 184.432V176.452H262.438V186H261.528ZM269.216 177.726C268.992 177.726 268.814 177.663 268.684 177.537C268.553 177.406 268.488 177.236 268.488 177.026C268.488 176.821 268.553 176.657 268.684 176.536C268.814 176.415 268.992 176.354 269.216 176.354C269.44 176.354 269.617 176.415 269.748 176.536C269.878 176.657 269.944 176.821 269.944 177.026C269.944 177.236 269.878 177.406 269.748 177.537C269.617 177.663 269.44 177.726 269.216 177.726ZM268.67 186V179.294H269.762V186H268.67ZM277.529 186V182.066C277.529 181.427 277.375 180.941 277.067 180.61C276.764 180.274 276.349 180.106 275.821 180.106C275.42 180.106 275.072 180.216 274.778 180.435C274.484 180.654 274.258 180.969 274.099 181.38C273.941 181.786 273.861 182.271 273.861 182.836H273.441C273.441 182.057 273.544 181.392 273.749 180.841C273.955 180.29 274.253 179.87 274.645 179.581C275.042 179.287 275.523 179.14 276.087 179.14C276.615 179.14 277.065 179.259 277.438 179.497C277.816 179.73 278.106 180.066 278.306 180.505C278.507 180.944 278.607 181.464 278.607 182.066V186H277.529ZM272.769 186V179.308H273.707L273.861 180.848V186H272.769ZM289.301 186V182.066C289.301 181.427 289.147 180.941 288.839 180.61C288.536 180.274 288.12 180.106 287.593 180.106C287.192 180.106 286.844 180.216 286.55 180.435C286.256 180.654 286.03 180.969 285.871 181.38C285.712 181.786 285.633 182.271 285.633 182.836H285.213C285.213 182.057 285.316 181.392 285.521 180.841C285.726 180.29 286.025 179.87 286.417 179.581C286.814 179.287 287.294 179.14 287.859 179.14C288.386 179.14 288.837 179.259 289.21 179.497C289.588 179.73 289.877 180.066 290.078 180.505C290.279 180.944 290.379 181.464 290.379 182.066V186H289.301ZM284.541 186V176.452H285.633V186H284.541ZM295.412 186.168C294.81 186.168 294.274 186.035 293.802 185.769C293.336 185.503 292.967 185.109 292.696 184.586C292.426 184.063 292.29 183.419 292.29 182.654C292.29 181.884 292.426 181.24 292.696 180.722C292.967 180.199 293.336 179.805 293.802 179.539C294.274 179.273 294.81 179.14 295.412 179.14C296.01 179.14 296.542 179.273 297.008 179.539C297.48 179.805 297.848 180.199 298.114 180.722C298.385 181.24 298.52 181.884 298.52 182.654C298.52 183.419 298.385 184.063 298.114 184.586C297.848 185.109 297.48 185.503 297.008 185.769C296.542 186.035 296.01 186.168 295.412 186.168ZM295.384 185.216C295.818 185.216 296.187 185.113 296.49 184.908C296.794 184.698 297.022 184.402 297.176 184.019C297.335 183.636 297.414 183.181 297.414 182.654C297.414 181.856 297.249 181.228 296.917 180.771C296.586 180.309 296.094 180.078 295.44 180.078C295.002 180.078 294.631 180.183 294.327 180.393C294.029 180.598 293.8 180.895 293.641 181.282C293.487 181.665 293.41 182.122 293.41 182.654C293.41 183.443 293.576 184.068 293.907 184.53C294.243 184.987 294.736 185.216 295.384 185.216ZM305.196 179.294H306.288V186H305.196V179.294ZM300.45 179.294H301.542V183.466C301.542 184.026 301.678 184.451 301.948 184.74C302.224 185.029 302.616 185.174 303.124 185.174C303.544 185.174 303.908 185.062 304.216 184.838C304.529 184.614 304.769 184.306 304.937 183.914C305.11 183.517 305.196 183.065 305.196 182.556H305.602C305.602 183.307 305.493 183.949 305.273 184.481C305.059 185.013 304.753 185.421 304.356 185.706C303.964 185.986 303.502 186.126 302.97 186.126C302.466 186.126 302.025 186.033 301.647 185.846C301.269 185.659 300.975 185.377 300.765 184.999C300.555 184.616 300.45 184.133 300.45 183.55V179.294ZM311.531 186.168C310.882 186.168 310.341 186.077 309.907 185.895C309.473 185.708 309.144 185.454 308.92 185.132C308.696 184.805 308.577 184.432 308.563 184.012H309.613C309.636 184.437 309.807 184.756 310.124 184.971C310.446 185.181 310.882 185.286 311.433 185.286C311.722 185.286 311.988 185.239 312.231 185.146C312.474 185.053 312.667 184.924 312.812 184.761C312.957 184.598 313.029 184.413 313.029 184.208C313.029 183.947 312.933 183.741 312.742 183.592C312.551 183.443 312.245 183.312 311.825 183.2L310.523 182.78C309.958 182.603 309.524 182.36 309.221 182.052C308.922 181.739 308.773 181.366 308.773 180.932C308.773 180.391 309.011 179.957 309.487 179.63C309.963 179.303 310.588 179.14 311.363 179.14C312.184 179.14 312.821 179.308 313.274 179.644C313.727 179.98 313.962 180.4 313.981 180.904H312.903C312.861 180.61 312.712 180.388 312.455 180.239C312.198 180.085 311.834 180.008 311.363 180.008C310.91 180.008 310.556 180.111 310.299 180.316C310.047 180.517 309.921 180.741 309.921 180.988C309.921 181.45 310.318 181.791 311.111 182.01L312.441 182.458C313.015 182.631 313.454 182.857 313.757 183.137C314.065 183.417 314.219 183.774 314.219 184.208C314.219 184.544 314.109 184.861 313.89 185.16C313.671 185.459 313.36 185.701 312.959 185.888C312.558 186.075 312.082 186.168 311.531 186.168ZM318.802 186.168C318.224 186.168 317.706 186.021 317.248 185.727C316.796 185.428 316.436 185.015 316.17 184.488C315.909 183.961 315.778 183.354 315.778 182.668C315.778 181.935 315.909 181.305 316.17 180.778C316.432 180.251 316.789 179.847 317.241 179.567C317.699 179.282 318.219 179.14 318.802 179.14C319.311 179.14 319.745 179.243 320.104 179.448C320.464 179.653 320.753 179.931 320.972 180.281C321.192 180.631 321.343 181.028 321.427 181.471C321.516 181.91 321.542 182.365 321.504 182.836H316.66V182.164H320.783L320.461 182.374C320.475 182.099 320.459 181.823 320.412 181.548C320.37 181.273 320.289 181.021 320.167 180.792C320.046 180.559 319.876 180.372 319.656 180.232C319.437 180.092 319.157 180.022 318.816 180.022C318.387 180.022 318.028 180.132 317.738 180.351C317.449 180.57 317.232 180.86 317.087 181.219C316.943 181.574 316.87 181.959 316.87 182.374V182.822C316.87 183.289 316.94 183.706 317.08 184.075C317.225 184.444 317.44 184.735 317.724 184.95C318.009 185.165 318.368 185.272 318.802 185.272C319.236 185.272 319.593 185.167 319.873 184.957C320.153 184.747 320.324 184.437 320.384 184.026H321.518C321.448 184.469 321.29 184.852 321.042 185.174C320.795 185.491 320.48 185.736 320.097 185.909C319.715 186.082 319.283 186.168 318.802 186.168ZM61.7868 202.168C61.1382 202.168 60.5968 202.077 60.1628 201.895C59.7288 201.708 59.3998 201.454 59.1758 201.132C58.9518 200.805 58.8328 200.432 58.8188 200.012H59.8688C59.8922 200.437 60.0625 200.756 60.3798 200.971C60.7018 201.181 61.1382 201.286 61.6888 201.286C61.9782 201.286 62.2442 201.239 62.4868 201.146C62.7295 201.053 62.9232 200.924 63.0678 200.761C63.2125 200.598 63.2848 200.413 63.2848 200.208C63.2848 199.947 63.1892 199.741 62.9978 199.592C62.8065 199.443 62.5008 199.312 62.0808 199.2L60.7788 198.78C60.2142 198.603 59.7802 198.36 59.4768 198.052C59.1782 197.739 59.0288 197.366 59.0288 196.932C59.0288 196.391 59.2668 195.957 59.7428 195.63C60.2188 195.303 60.8442 195.14 61.6188 195.14C62.4402 195.14 63.0772 195.308 63.5298 195.644C63.9825 195.98 64.2182 196.4 64.2368 196.904H63.1588C63.1168 196.61 62.9675 196.388 62.7108 196.239C62.4542 196.085 62.0902 196.008 61.6188 196.008C61.1662 196.008 60.8115 196.111 60.5548 196.316C60.3028 196.517 60.1768 196.741 60.1768 196.988C60.1768 197.45 60.5735 197.791 61.3668 198.01L62.6968 198.458C63.2708 198.631 63.7095 198.857 64.0128 199.137C64.3208 199.417 64.4748 199.774 64.4748 200.208C64.4748 200.544 64.3652 200.861 64.1458 201.16C63.9265 201.459 63.6162 201.701 63.2148 201.888C62.8135 202.075 62.3375 202.168 61.7868 202.168ZM69.7723 202.168C69.2823 202.168 68.8553 202.056 68.4913 201.832C68.132 201.608 67.8543 201.281 67.6583 200.852C67.4623 200.418 67.3643 199.891 67.3643 199.27H67.8263C67.8263 199.685 67.9126 200.035 68.0853 200.32C68.258 200.605 68.482 200.822 68.7573 200.971C69.0373 201.116 69.3336 201.188 69.6463 201.188C69.9823 201.188 70.3043 201.092 70.6123 200.901C70.9203 200.705 71.1723 200.418 71.3683 200.04C71.5643 199.662 71.6623 199.195 71.6623 198.64C71.6623 198.108 71.5713 197.653 71.3893 197.275C71.212 196.897 70.9716 196.608 70.6683 196.407C70.365 196.206 70.029 196.106 69.6603 196.106C69.343 196.106 69.0443 196.183 68.7643 196.337C68.4843 196.491 68.258 196.717 68.0853 197.016C67.9126 197.31 67.8263 197.674 67.8263 198.108H67.3643C67.3643 197.459 67.4716 196.916 67.6863 196.477C67.901 196.034 68.1926 195.7 68.5613 195.476C68.93 195.252 69.343 195.14 69.8003 195.14C70.323 195.14 70.8106 195.28 71.2633 195.56C71.716 195.84 72.0823 196.241 72.3623 196.764C72.6423 197.287 72.7823 197.912 72.7823 198.64C72.7823 199.377 72.64 200.01 72.3553 200.537C72.0753 201.064 71.7066 201.468 71.2493 201.748C70.792 202.028 70.2996 202.168 69.7723 202.168ZM66.7343 205.29V195.308H67.6443L67.8263 196.876V205.29H66.7343ZM75.5398 193.726C75.3158 193.726 75.1384 193.663 75.0078 193.537C74.8771 193.406 74.8118 193.236 74.8118 193.026C74.8118 192.821 74.8771 192.657 75.0078 192.536C75.1384 192.415 75.3158 192.354 75.5398 192.354C75.7638 192.354 75.9411 192.415 76.0718 192.536C76.2024 192.657 76.2678 192.821 76.2678 193.026C76.2678 193.236 76.2024 193.406 76.0718 193.537C75.9411 193.663 75.7638 193.726 75.5398 193.726ZM74.9938 202V195.294H76.0858V202H74.9938ZM81.4457 202.168C80.909 202.168 80.4074 202.023 79.9407 201.734C79.4787 201.445 79.1054 201.036 78.8207 200.509C78.536 199.982 78.3937 199.359 78.3937 198.64C78.3937 197.903 78.536 197.273 78.8207 196.75C79.1054 196.227 79.4787 195.828 79.9407 195.553C80.4074 195.278 80.909 195.14 81.4457 195.14C81.8237 195.14 82.162 195.198 82.4607 195.315C82.764 195.427 83.0277 195.583 83.2517 195.784C83.4757 195.985 83.66 196.213 83.8047 196.47C83.954 196.722 84.0637 196.988 84.1337 197.268L83.0137 197.366C82.897 196.979 82.701 196.673 82.4257 196.449C82.155 196.22 81.8237 196.106 81.4317 196.106C81.1004 196.106 80.7877 196.202 80.4937 196.393C80.2044 196.58 79.9687 196.862 79.7867 197.24C79.6047 197.613 79.5137 198.08 79.5137 198.64C79.5137 199.158 79.5954 199.608 79.7587 199.991C79.9267 200.369 80.1554 200.663 80.4447 200.873C80.734 201.083 81.063 201.188 81.4317 201.188C81.9497 201.188 82.3417 201.062 82.6077 200.81C82.8784 200.553 83.0137 200.199 83.0137 199.746H84.1337C84.1337 200.213 84.024 200.628 83.8047 200.992C83.5854 201.356 83.2727 201.643 82.8667 201.853C82.4654 202.063 81.9917 202.168 81.4457 202.168ZM88.6364 202.168C88.0578 202.168 87.5398 202.021 87.0824 201.727C86.6298 201.428 86.2704 201.015 86.0044 200.488C85.7431 199.961 85.6124 199.354 85.6124 198.668C85.6124 197.935 85.7431 197.305 86.0044 196.778C86.2658 196.251 86.6228 195.847 87.0754 195.567C87.5328 195.282 88.0531 195.14 88.6364 195.14C89.1451 195.14 89.5791 195.243 89.9384 195.448C90.2978 195.653 90.5871 195.931 90.8064 196.281C91.0258 196.631 91.1774 197.028 91.2614 197.471C91.3501 197.91 91.3758 198.365 91.3384 198.836H86.4944V198.164H90.6174L90.2954 198.374C90.3094 198.099 90.2931 197.823 90.2464 197.548C90.2044 197.273 90.1228 197.021 90.0014 196.792C89.8801 196.559 89.7098 196.372 89.4904 196.232C89.2711 196.092 88.9911 196.022 88.6504 196.022C88.2211 196.022 87.8618 196.132 87.5724 196.351C87.2831 196.57 87.0661 196.86 86.9214 197.219C86.7768 197.574 86.7044 197.959 86.7044 198.374V198.822C86.7044 199.289 86.7744 199.706 86.9144 200.075C87.0591 200.444 87.2738 200.735 87.5584 200.95C87.8431 201.165 88.2024 201.272 88.6364 201.272C89.0704 201.272 89.4274 201.167 89.7074 200.957C89.9874 200.747 90.1578 200.437 90.2184 200.026H91.3524C91.2824 200.469 91.1238 200.852 90.8764 201.174C90.6291 201.491 90.3141 201.736 89.9314 201.909C89.5488 202.082 89.1171 202.168 88.6364 202.168ZM95.9118 202.168C95.2632 202.168 94.7218 202.077 94.2878 201.895C93.8538 201.708 93.5248 201.454 93.3008 201.132C93.0768 200.805 92.9578 200.432 92.9438 200.012H93.9938C94.0172 200.437 94.1875 200.756 94.5048 200.971C94.8268 201.181 95.2632 201.286 95.8138 201.286C96.1032 201.286 96.3692 201.239 96.6118 201.146C96.8545 201.053 97.0482 200.924 97.1928 200.761C97.3375 200.598 97.4098 200.413 97.4098 200.208C97.4098 199.947 97.3142 199.741 97.1228 199.592C96.9315 199.443 96.6258 199.312 96.2058 199.2L94.9038 198.78C94.3392 198.603 93.9052 198.36 93.6018 198.052C93.3032 197.739 93.1538 197.366 93.1538 196.932C93.1538 196.391 93.3918 195.957 93.8678 195.63C94.3438 195.303 94.9692 195.14 95.7438 195.14C96.5652 195.14 97.2022 195.308 97.6548 195.644C98.1075 195.98 98.3432 196.4 98.3618 196.904H97.2838C97.2418 196.61 97.0925 196.388 96.8358 196.239C96.5792 196.085 96.2152 196.008 95.7438 196.008C95.2912 196.008 94.9365 196.111 94.6798 196.316C94.4278 196.517 94.3018 196.741 94.3018 196.988C94.3018 197.45 94.6985 197.791 95.4918 198.01L96.8218 198.458C97.3958 198.631 97.8345 198.857 98.1378 199.137C98.4458 199.417 98.5998 199.774 98.5998 200.208C98.5998 200.544 98.4902 200.861 98.2708 201.16C98.0515 201.459 97.7412 201.701 97.3398 201.888C96.9385 202.075 96.4625 202.168 95.9118 202.168ZM99.8653 201.349C99.8653 201.13 99.9423 200.941 100.096 200.782C100.25 200.623 100.444 200.544 100.677 200.544C100.911 200.544 101.109 200.623 101.272 200.782C101.436 200.941 101.517 201.13 101.517 201.349C101.517 201.568 101.436 201.753 101.272 201.902C101.109 202.051 100.911 202.126 100.677 202.126C100.444 202.126 100.25 202.051 100.096 201.902C99.9423 201.748 99.8653 201.564 99.8653 201.349ZM109.736 202.168C108.961 202.168 108.294 201.974 107.734 201.587C107.174 201.195 106.742 200.654 106.439 199.963C106.135 199.268 105.984 198.463 105.984 197.548C105.984 196.573 106.147 195.751 106.474 195.084C106.805 194.417 107.253 193.913 107.818 193.572C108.387 193.227 109.026 193.054 109.736 193.054C110.674 193.054 111.427 193.29 111.997 193.761C112.571 194.228 112.965 194.837 113.18 195.588L112.004 195.826C111.822 195.28 111.53 194.846 111.129 194.524C110.732 194.197 110.268 194.034 109.736 194.034C109.274 194.034 108.847 194.167 108.455 194.433C108.067 194.694 107.755 195.086 107.517 195.609C107.279 196.132 107.16 196.778 107.16 197.548C107.16 198.248 107.253 198.871 107.44 199.417C107.631 199.963 107.916 200.392 108.294 200.705C108.676 201.018 109.157 201.174 109.736 201.174C110.431 201.174 110.982 200.987 111.388 200.614C111.798 200.241 112.004 199.751 112.004 199.144H113.194C113.194 199.774 113.049 200.315 112.76 200.768C112.47 201.216 112.064 201.561 111.542 201.804C111.024 202.047 110.422 202.168 109.736 202.168ZM117.691 202.168C117.089 202.168 116.553 202.035 116.081 201.769C115.615 201.503 115.246 201.109 114.975 200.586C114.705 200.063 114.569 199.419 114.569 198.654C114.569 197.884 114.705 197.24 114.975 196.722C115.246 196.199 115.615 195.805 116.081 195.539C116.553 195.273 117.089 195.14 117.691 195.14C118.289 195.14 118.821 195.273 119.287 195.539C119.759 195.805 120.127 196.199 120.393 196.722C120.664 197.24 120.799 197.884 120.799 198.654C120.799 199.419 120.664 200.063 120.393 200.586C120.127 201.109 119.759 201.503 119.287 201.769C118.821 202.035 118.289 202.168 117.691 202.168ZM117.663 201.216C118.097 201.216 118.466 201.113 118.769 200.908C119.073 200.698 119.301 200.402 119.455 200.019C119.614 199.636 119.693 199.181 119.693 198.654C119.693 197.856 119.528 197.228 119.196 196.771C118.865 196.309 118.373 196.078 117.719 196.078C117.281 196.078 116.91 196.183 116.606 196.393C116.308 196.598 116.079 196.895 115.92 197.282C115.766 197.665 115.689 198.122 115.689 198.654C115.689 199.443 115.855 200.068 116.186 200.53C116.522 200.987 117.015 201.216 117.663 201.216ZM132.334 202V198.066C132.334 197.427 132.18 196.941 131.872 196.61C131.568 196.274 131.158 196.106 130.64 196.106C130.033 196.106 129.569 196.342 129.247 196.813C128.925 197.28 128.764 197.926 128.764 198.752H128.26C128.26 198.15 128.318 197.623 128.435 197.17C128.556 196.717 128.731 196.342 128.96 196.043C129.188 195.74 129.466 195.513 129.793 195.364C130.119 195.215 130.49 195.14 130.906 195.14C131.433 195.14 131.883 195.259 132.257 195.497C132.635 195.73 132.924 196.066 133.125 196.505C133.325 196.944 133.426 197.464 133.426 198.066V202H132.334ZM122.926 202V195.308H123.864L123.99 196.652C124.2 196.167 124.494 195.793 124.872 195.532C125.254 195.271 125.712 195.14 126.244 195.14C126.771 195.14 127.221 195.259 127.595 195.497C127.973 195.73 128.262 196.066 128.463 196.505C128.663 196.944 128.764 197.464 128.764 198.066V202H127.686V198.066C127.686 197.427 127.532 196.941 127.224 196.61C126.92 196.274 126.505 196.106 125.978 196.106C125.576 196.106 125.229 196.216 124.935 196.435C124.641 196.654 124.414 196.969 124.256 197.38C124.097 197.786 124.018 198.271 124.018 198.836V202H122.926ZM138.347 202.168C137.769 202.168 137.251 202.021 136.793 201.727C136.341 201.428 135.981 201.015 135.715 200.488C135.454 199.961 135.323 199.354 135.323 198.668C135.323 197.935 135.454 197.305 135.715 196.778C135.977 196.251 136.334 195.847 136.786 195.567C137.244 195.282 137.764 195.14 138.347 195.14C138.856 195.14 139.29 195.243 139.649 195.448C140.009 195.653 140.298 195.931 140.517 196.281C140.737 196.631 140.888 197.028 140.972 197.471C141.061 197.91 141.087 198.365 141.049 198.836H136.205V198.164H140.328L140.006 198.374C140.02 198.099 140.004 197.823 139.957 197.548C139.915 197.273 139.834 197.021 139.712 196.792C139.591 196.559 139.421 196.372 139.201 196.232C138.982 196.092 138.702 196.022 138.361 196.022C137.932 196.022 137.573 196.132 137.283 196.351C136.994 196.57 136.777 196.86 136.632 197.219C136.488 197.574 136.415 197.959 136.415 198.374V198.822C136.415 199.289 136.485 199.706 136.625 200.075C136.77 200.444 136.985 200.735 137.269 200.95C137.554 201.165 137.913 201.272 138.347 201.272C138.781 201.272 139.138 201.167 139.418 200.957C139.698 200.747 139.869 200.437 139.929 200.026H141.063C140.993 200.469 140.835 200.852 140.587 201.174C140.34 201.491 140.025 201.736 139.642 201.909C139.26 202.082 138.828 202.168 138.347 202.168ZM145.623 202.168C144.974 202.168 144.433 202.077 143.999 201.895C143.565 201.708 143.236 201.454 143.012 201.132C142.788 200.805 142.669 200.432 142.655 200.012H143.705C143.728 200.437 143.898 200.756 144.216 200.971C144.538 201.181 144.974 201.286 145.525 201.286C145.814 201.286 146.08 201.239 146.323 201.146C146.565 201.053 146.759 200.924 146.904 200.761C147.048 200.598 147.121 200.413 147.121 200.208C147.121 199.947 147.025 199.741 146.834 199.592C146.642 199.443 146.337 199.312 145.917 199.2L144.615 198.78C144.05 198.603 143.616 198.36 143.313 198.052C143.014 197.739 142.865 197.366 142.865 196.932C142.865 196.391 143.103 195.957 143.579 195.63C144.055 195.303 144.68 195.14 145.455 195.14C146.276 195.14 146.913 195.308 147.366 195.644C147.818 195.98 148.054 196.4 148.073 196.904H146.995C146.953 196.61 146.803 196.388 146.547 196.239C146.29 196.085 145.926 196.008 145.455 196.008C145.002 196.008 144.647 196.111 144.391 196.316C144.139 196.517 144.013 196.741 144.013 196.988C144.013 197.45 144.409 197.791 145.203 198.01L146.533 198.458C147.107 198.631 147.545 198.857 147.849 199.137C148.157 199.417 148.311 199.774 148.311 200.208C148.311 200.544 148.201 200.861 147.982 201.16C147.762 201.459 147.452 201.701 147.051 201.888C146.649 202.075 146.173 202.168 145.623 202.168ZM152.731 195.308H153.865L155.573 200.894H155.433L157.099 195.63H158.009L159.661 200.908H159.535L161.243 195.308H162.335L160.137 202H159.073L157.449 197.058H157.617L156.007 202H154.943L152.731 195.308ZM164.653 193.726C164.429 193.726 164.252 193.663 164.121 193.537C163.99 193.406 163.925 193.236 163.925 193.026C163.925 192.821 163.99 192.657 164.121 192.536C164.252 192.415 164.429 192.354 164.653 192.354C164.877 192.354 165.054 192.415 165.185 192.536C165.316 192.657 165.381 192.821 165.381 193.026C165.381 193.236 165.316 193.406 165.185 193.537C165.054 193.663 164.877 193.726 164.653 193.726ZM164.107 202V195.294H165.199V202H164.107ZM170.265 202.168C169.901 202.168 169.574 202.098 169.285 201.958C168.996 201.818 168.767 201.608 168.599 201.328C168.431 201.048 168.347 200.698 168.347 200.278V193.446H169.425V200.25C169.425 200.941 169.747 201.286 170.391 201.286C170.582 201.286 170.767 201.265 170.944 201.223C171.126 201.181 171.329 201.118 171.553 201.034L171.707 201.818C171.469 201.921 171.231 202.005 170.993 202.07C170.76 202.135 170.517 202.168 170.265 202.168ZM167.269 196.064V195.308H171.539V196.064H167.269ZM178.231 202V198.066C178.231 197.427 178.077 196.941 177.769 196.61C177.465 196.274 177.05 196.106 176.523 196.106C176.121 196.106 175.774 196.216 175.48 196.435C175.186 196.654 174.959 196.969 174.801 197.38C174.642 197.786 174.563 198.271 174.563 198.836H174.143C174.143 198.057 174.245 197.392 174.451 196.841C174.656 196.29 174.955 195.87 175.347 195.581C175.743 195.287 176.224 195.14 176.789 195.14C177.316 195.14 177.766 195.259 178.14 195.497C178.518 195.73 178.807 196.066 179.008 196.505C179.208 196.944 179.309 197.464 179.309 198.066V202H178.231ZM173.471 202V192.452H174.563V202H173.471ZM189.386 202L189.246 200.53V197.66C189.246 197.058 189.118 196.626 188.861 196.365C188.604 196.099 188.219 195.966 187.706 195.966C187.417 195.966 187.153 196.008 186.915 196.092C186.682 196.176 186.495 196.307 186.355 196.484C186.22 196.657 186.152 196.881 186.152 197.156H184.934C184.934 196.671 185.053 196.281 185.291 195.987C185.529 195.688 185.856 195.474 186.271 195.343C186.691 195.208 187.169 195.14 187.706 195.14C188.219 195.14 188.674 195.226 189.071 195.399C189.468 195.572 189.778 195.847 190.002 196.225C190.226 196.598 190.338 197.086 190.338 197.688V202H189.386ZM187.104 202.168C186.553 202.168 186.098 202.07 185.739 201.874C185.38 201.678 185.111 201.424 184.934 201.111C184.757 200.798 184.668 200.469 184.668 200.124C184.668 199.671 184.78 199.303 185.004 199.018C185.233 198.733 185.543 198.526 185.935 198.395C186.327 198.26 186.768 198.192 187.258 198.192C187.608 198.192 187.958 198.227 188.308 198.297C188.663 198.367 189.008 198.463 189.344 198.584V199.27C189.064 199.158 188.747 199.069 188.392 199.004C188.042 198.939 187.72 198.906 187.426 198.906C186.978 198.906 186.6 198.999 186.292 199.186C185.984 199.368 185.83 199.681 185.83 200.124C185.83 200.451 185.947 200.731 186.18 200.964C186.418 201.197 186.796 201.314 187.314 201.314C187.678 201.314 188.005 201.23 188.294 201.062C188.588 200.889 188.819 200.675 188.987 200.418C189.16 200.161 189.246 199.905 189.246 199.648H189.512C189.512 200.096 189.414 200.511 189.218 200.894C189.027 201.277 188.751 201.585 188.392 201.818C188.033 202.051 187.603 202.168 187.104 202.168ZM198.683 202.168C198.035 202.168 197.493 202.077 197.059 201.895C196.625 201.708 196.296 201.454 196.072 201.132C195.848 200.805 195.729 200.432 195.715 200.012H196.765C196.789 200.437 196.959 200.756 197.276 200.971C197.598 201.181 198.035 201.286 198.585 201.286C198.875 201.286 199.141 201.239 199.383 201.146C199.626 201.053 199.82 200.924 199.964 200.761C200.109 200.598 200.181 200.413 200.181 200.208C200.181 199.947 200.086 199.741 199.894 199.592C199.703 199.443 199.397 199.312 198.977 199.2L197.675 198.78C197.111 198.603 196.677 198.36 196.373 198.052C196.075 197.739 195.925 197.366 195.925 196.932C195.925 196.391 196.163 195.957 196.639 195.63C197.115 195.303 197.741 195.14 198.515 195.14C199.337 195.14 199.974 195.308 200.426 195.644C200.879 195.98 201.115 196.4 201.133 196.904H200.055C200.013 196.61 199.864 196.388 199.607 196.239C199.351 196.085 198.987 196.008 198.515 196.008C198.063 196.008 197.708 196.111 197.451 196.316C197.199 196.517 197.073 196.741 197.073 196.988C197.073 197.45 197.47 197.791 198.263 198.01L199.593 198.458C200.167 198.631 200.606 198.857 200.909 199.137C201.217 199.417 201.371 199.774 201.371 200.208C201.371 200.544 201.262 200.861 201.042 201.16C200.823 201.459 200.513 201.701 200.111 201.888C199.71 202.075 199.234 202.168 198.683 202.168ZM204.247 193.726C204.023 193.726 203.845 193.663 203.715 193.537C203.584 193.406 203.519 193.236 203.519 193.026C203.519 192.821 203.584 192.657 203.715 192.536C203.845 192.415 204.023 192.354 204.247 192.354C204.471 192.354 204.648 192.415 204.779 192.536C204.909 192.657 204.975 192.821 204.975 193.026C204.975 193.236 204.909 193.406 204.779 193.537C204.648 193.663 204.471 193.726 204.247 193.726ZM203.701 202V195.294H204.793V202H203.701ZM210.195 202.168C209.653 202.168 209.156 202.023 208.704 201.734C208.251 201.44 207.889 201.029 207.619 200.502C207.348 199.97 207.213 199.345 207.213 198.626C207.213 197.912 207.346 197.294 207.612 196.771C207.878 196.248 208.23 195.847 208.669 195.567C209.112 195.282 209.597 195.14 210.125 195.14C210.615 195.14 211.044 195.259 211.413 195.497C211.786 195.735 212.075 196.078 212.281 196.526C212.486 196.974 212.589 197.515 212.589 198.15H212.169C212.169 197.707 212.08 197.333 211.903 197.03C211.73 196.727 211.504 196.498 211.224 196.344C210.944 196.185 210.643 196.106 210.321 196.106C209.957 196.106 209.623 196.209 209.32 196.414C209.021 196.615 208.781 196.904 208.599 197.282C208.421 197.655 208.333 198.103 208.333 198.626C208.333 199.158 208.421 199.615 208.599 199.998C208.781 200.381 209.021 200.675 209.32 200.88C209.623 201.085 209.957 201.188 210.321 201.188C210.624 201.188 210.916 201.109 211.196 200.95C211.48 200.791 211.714 200.56 211.896 200.257C212.078 199.949 212.169 199.578 212.169 199.144H212.589C212.589 199.793 212.481 200.343 212.267 200.796C212.057 201.244 211.77 201.585 211.406 201.818C211.046 202.051 210.643 202.168 210.195 202.168ZM212.351 202L212.169 200.432V192.452H213.261V202H212.351ZM218.424 202.168C217.845 202.168 217.327 202.021 216.87 201.727C216.417 201.428 216.058 201.015 215.792 200.488C215.53 199.961 215.4 199.354 215.4 198.668C215.4 197.935 215.53 197.305 215.792 196.778C216.053 196.251 216.41 195.847 216.863 195.567C217.32 195.282 217.84 195.14 218.424 195.14C218.932 195.14 219.366 195.243 219.726 195.448C220.085 195.653 220.374 195.931 220.594 196.281C220.813 196.631 220.965 197.028 221.049 197.471C221.137 197.91 221.163 198.365 221.126 198.836H216.282V198.164H220.405L220.083 198.374C220.097 198.099 220.08 197.823 220.034 197.548C219.992 197.273 219.91 197.021 219.789 196.792C219.667 196.559 219.497 196.372 219.278 196.232C219.058 196.092 218.778 196.022 218.438 196.022C218.008 196.022 217.649 196.132 217.36 196.351C217.07 196.57 216.853 196.86 216.709 197.219C216.564 197.574 216.492 197.959 216.492 198.374V198.822C216.492 199.289 216.562 199.706 216.702 200.075C216.846 200.444 217.061 200.735 217.346 200.95C217.63 201.165 217.99 201.272 218.424 201.272C218.858 201.272 219.215 201.167 219.495 200.957C219.775 200.747 219.945 200.437 220.006 200.026H221.14C221.07 200.469 220.911 200.852 220.664 201.174C220.416 201.491 220.101 201.736 219.719 201.909C219.336 202.082 218.904 202.168 218.424 202.168ZM229.035 202.168C228.433 202.168 227.897 202.035 227.425 201.769C226.959 201.503 226.59 201.109 226.319 200.586C226.049 200.063 225.913 199.419 225.913 198.654C225.913 197.884 226.049 197.24 226.319 196.722C226.59 196.199 226.959 195.805 227.425 195.539C227.897 195.273 228.433 195.14 229.035 195.14C229.633 195.14 230.165 195.273 230.631 195.539C231.103 195.805 231.471 196.199 231.737 196.722C232.008 197.24 232.143 197.884 232.143 198.654C232.143 199.419 232.008 200.063 231.737 200.586C231.471 201.109 231.103 201.503 230.631 201.769C230.165 202.035 229.633 202.168 229.035 202.168ZM229.007 201.216C229.441 201.216 229.81 201.113 230.113 200.908C230.417 200.698 230.645 200.402 230.799 200.019C230.958 199.636 231.037 199.181 231.037 198.654C231.037 197.856 230.872 197.228 230.54 196.771C230.209 196.309 229.717 196.078 229.063 196.078C228.625 196.078 228.254 196.183 227.95 196.393C227.652 196.598 227.423 196.895 227.264 197.282C227.11 197.665 227.033 198.122 227.033 198.654C227.033 199.443 227.199 200.068 227.53 200.53C227.866 200.987 228.359 201.216 229.007 201.216ZM234.633 202V194.272C234.633 193.829 234.717 193.467 234.885 193.187C235.058 192.902 235.287 192.692 235.571 192.557C235.861 192.422 236.183 192.354 236.537 192.354C236.729 192.354 236.922 192.368 237.118 192.396C237.319 192.424 237.517 192.466 237.713 192.522L237.503 193.39C237.363 193.334 237.223 193.292 237.083 193.264C236.948 193.236 236.817 193.222 236.691 193.222C236.542 193.222 236.393 193.25 236.243 193.306C236.094 193.362 235.97 193.467 235.872 193.621C235.774 193.775 235.725 193.997 235.725 194.286V202H234.633ZM233.541 196.064V195.308H237.111V196.064H233.541ZM242.391 202V195.294H243.483V202H242.391ZM243.147 198.976C243.147 198.127 243.228 197.422 243.392 196.862C243.555 196.297 243.793 195.877 244.106 195.602C244.423 195.322 244.808 195.182 245.261 195.182C245.41 195.182 245.545 195.194 245.667 195.217C245.793 195.236 245.919 195.266 246.045 195.308L245.975 196.386C245.844 196.344 245.702 196.309 245.548 196.281C245.394 196.248 245.256 196.232 245.135 196.232C244.738 196.232 244.418 196.346 244.176 196.575C243.933 196.799 243.756 197.116 243.644 197.527C243.536 197.938 243.483 198.421 243.483 198.976H243.147ZM248.065 193.726C247.841 193.726 247.664 193.663 247.533 193.537C247.402 193.406 247.337 193.236 247.337 193.026C247.337 192.821 247.402 192.657 247.533 192.536C247.664 192.415 247.841 192.354 248.065 192.354C248.289 192.354 248.466 192.415 248.597 192.536C248.728 192.657 248.793 192.821 248.793 193.026C248.793 193.236 248.728 193.406 248.597 193.537C248.466 193.663 248.289 193.726 248.065 193.726ZM247.519 202V195.294H248.611V202H247.519ZM253.971 202.168C253.434 202.168 252.933 202.023 252.466 201.734C252.004 201.445 251.631 201.036 251.346 200.509C251.061 199.982 250.919 199.359 250.919 198.64C250.919 197.903 251.061 197.273 251.346 196.75C251.631 196.227 252.004 195.828 252.466 195.553C252.933 195.278 253.434 195.14 253.971 195.14C254.349 195.14 254.687 195.198 254.986 195.315C255.289 195.427 255.553 195.583 255.777 195.784C256.001 195.985 256.185 196.213 256.33 196.47C256.479 196.722 256.589 196.988 256.659 197.268L255.539 197.366C255.422 196.979 255.226 196.673 254.951 196.449C254.68 196.22 254.349 196.106 253.957 196.106C253.626 196.106 253.313 196.202 253.019 196.393C252.73 196.58 252.494 196.862 252.312 197.24C252.13 197.613 252.039 198.08 252.039 198.64C252.039 199.158 252.121 199.608 252.284 199.991C252.452 200.369 252.681 200.663 252.97 200.873C253.259 201.083 253.588 201.188 253.957 201.188C254.475 201.188 254.867 201.062 255.133 200.81C255.404 200.553 255.539 200.199 255.539 199.746H256.659C256.659 200.213 256.549 200.628 256.33 200.992C256.111 201.356 255.798 201.643 255.392 201.853C254.991 202.063 254.517 202.168 253.971 202.168ZM261.162 202.168C260.583 202.168 260.065 202.021 259.608 201.727C259.155 201.428 258.796 201.015 258.53 200.488C258.268 199.961 258.138 199.354 258.138 198.668C258.138 197.935 258.268 197.305 258.53 196.778C258.791 196.251 259.148 195.847 259.601 195.567C260.058 195.282 260.578 195.14 261.162 195.14C261.67 195.14 262.104 195.243 262.464 195.448C262.823 195.653 263.112 195.931 263.332 196.281C263.551 196.631 263.703 197.028 263.787 197.471C263.875 197.91 263.901 198.365 263.864 198.836H259.02V198.164H263.143L262.821 198.374C262.835 198.099 262.818 197.823 262.772 197.548C262.73 197.273 262.648 197.021 262.527 196.792C262.405 196.559 262.235 196.372 262.016 196.232C261.796 196.092 261.516 196.022 261.176 196.022C260.746 196.022 260.387 196.132 260.098 196.351C259.808 196.57 259.591 196.86 259.447 197.219C259.302 197.574 259.23 197.959 259.23 198.374V198.822C259.23 199.289 259.3 199.706 259.44 200.075C259.584 200.444 259.799 200.735 260.084 200.95C260.368 201.165 260.728 201.272 261.162 201.272C261.596 201.272 261.953 201.167 262.233 200.957C262.513 200.747 262.683 200.437 262.744 200.026H263.878C263.808 200.469 263.649 200.852 263.402 201.174C263.154 201.491 262.839 201.736 262.457 201.909C262.074 202.082 261.642 202.168 261.162 202.168ZM271.774 202.168C271.172 202.168 270.635 202.035 270.164 201.769C269.697 201.503 269.328 201.109 269.058 200.586C268.787 200.063 268.652 199.419 268.652 198.654C268.652 197.884 268.787 197.24 269.058 196.722C269.328 196.199 269.697 195.805 270.164 195.539C270.635 195.273 271.172 195.14 271.774 195.14C272.371 195.14 272.903 195.273 273.37 195.539C273.841 195.805 274.21 196.199 274.476 196.722C274.746 197.24 274.882 197.884 274.882 198.654C274.882 199.419 274.746 200.063 274.476 200.586C274.21 201.109 273.841 201.503 273.37 201.769C272.903 202.035 272.371 202.168 271.774 202.168ZM271.746 201.216C272.18 201.216 272.548 201.113 272.852 200.908C273.155 200.698 273.384 200.402 273.538 200.019C273.696 199.636 273.776 199.181 273.776 198.654C273.776 197.856 273.61 197.228 273.279 196.771C272.947 196.309 272.455 196.078 271.802 196.078C271.363 196.078 270.992 196.183 270.689 196.393C270.39 196.598 270.161 196.895 270.003 197.282C269.849 197.665 269.772 198.122 269.772 198.654C269.772 199.443 269.937 200.068 270.269 200.53C270.605 200.987 271.097 201.216 271.746 201.216ZM277.008 202V195.294H278.1V202H277.008ZM277.764 198.976C277.764 198.127 277.845 197.422 278.009 196.862C278.172 196.297 278.41 195.877 278.723 195.602C279.04 195.322 279.425 195.182 279.878 195.182C280.027 195.182 280.162 195.194 280.284 195.217C280.41 195.236 280.536 195.266 280.662 195.308L280.592 196.386C280.461 196.344 280.319 196.309 280.165 196.281C280.011 196.248 279.873 196.232 279.752 196.232C279.355 196.232 279.035 196.346 278.793 196.575C278.55 196.799 278.373 197.116 278.261 197.527C278.153 197.938 278.1 198.421 278.1 198.976H277.764ZM288.455 202.168C288.007 202.168 287.601 202.051 287.237 201.818C286.877 201.585 286.59 201.244 286.376 200.796C286.166 200.343 286.061 199.793 286.061 199.144H286.481C286.481 199.578 286.569 199.949 286.747 200.257C286.929 200.56 287.162 200.791 287.447 200.95C287.731 201.109 288.03 201.188 288.343 201.188C288.702 201.188 289.031 201.085 289.33 200.88C289.628 200.675 289.866 200.381 290.044 199.998C290.226 199.615 290.317 199.158 290.317 198.626C290.317 198.103 290.228 197.655 290.051 197.282C289.873 196.904 289.633 196.615 289.33 196.414C289.031 196.209 288.697 196.106 288.329 196.106C288.011 196.106 287.71 196.185 287.426 196.344C287.146 196.498 286.917 196.727 286.74 197.03C286.567 197.333 286.481 197.707 286.481 198.15H286.061C286.061 197.515 286.163 196.974 286.369 196.526C286.579 196.078 286.868 195.735 287.237 195.497C287.605 195.259 288.035 195.14 288.525 195.14C289.052 195.14 289.535 195.282 289.974 195.567C290.417 195.847 290.772 196.248 291.038 196.771C291.304 197.294 291.437 197.912 291.437 198.626C291.437 199.345 291.301 199.97 291.031 200.502C290.76 201.029 290.398 201.44 289.946 201.734C289.493 202.023 288.996 202.168 288.455 202.168ZM285.389 202V192.452H286.481V200.432L286.159 202H285.389ZM293.687 202V195.294H294.779V202H293.687ZM294.443 198.976C294.443 198.127 294.525 197.422 294.688 196.862C294.852 196.297 295.09 195.877 295.402 195.602C295.72 195.322 296.105 195.182 296.557 195.182C296.707 195.182 296.842 195.194 296.963 195.217C297.089 195.236 297.215 195.266 297.341 195.308L297.271 196.386C297.141 196.344 296.998 196.309 296.844 196.281C296.69 196.248 296.553 196.232 296.431 196.232C296.035 196.232 295.715 196.346 295.472 196.575C295.23 196.799 295.052 197.116 294.94 197.527C294.833 197.938 294.779 198.421 294.779 198.976H294.443ZM301.07 202.168C300.491 202.168 299.973 202.021 299.516 201.727C299.063 201.428 298.704 201.015 298.438 200.488C298.177 199.961 298.046 199.354 298.046 198.668C298.046 197.935 298.177 197.305 298.438 196.778C298.699 196.251 299.056 195.847 299.509 195.567C299.966 195.282 300.487 195.14 301.07 195.14C301.579 195.14 302.013 195.243 302.372 195.448C302.731 195.653 303.021 195.931 303.24 196.281C303.459 196.631 303.611 197.028 303.695 197.471C303.784 197.91 303.809 198.365 303.772 198.836H298.928V198.164H303.051L302.729 198.374C302.743 198.099 302.727 197.823 302.68 197.548C302.638 197.273 302.556 197.021 302.435 196.792C302.314 196.559 302.143 196.372 301.924 196.232C301.705 196.092 301.425 196.022 301.084 196.022C300.655 196.022 300.295 196.132 300.006 196.351C299.717 196.57 299.5 196.86 299.355 197.219C299.21 197.574 299.138 197.959 299.138 198.374V198.822C299.138 199.289 299.208 199.706 299.348 200.075C299.493 200.444 299.707 200.735 299.992 200.95C300.277 201.165 300.636 201.272 301.07 201.272C301.504 201.272 301.861 201.167 302.141 200.957C302.421 200.747 302.591 200.437 302.652 200.026H303.786C303.716 200.469 303.557 200.852 303.31 201.174C303.063 201.491 302.748 201.736 302.365 201.909C301.982 202.082 301.551 202.168 301.07 202.168ZM310.081 202L309.941 200.53V197.66C309.941 197.058 309.813 196.626 309.556 196.365C309.3 196.099 308.915 195.966 308.401 195.966C308.112 195.966 307.848 196.008 307.61 196.092C307.377 196.176 307.19 196.307 307.05 196.484C306.915 196.657 306.847 196.881 306.847 197.156H305.629C305.629 196.671 305.748 196.281 305.986 195.987C306.224 195.688 306.551 195.474 306.966 195.343C307.386 195.208 307.865 195.14 308.401 195.14C308.915 195.14 309.37 195.226 309.766 195.399C310.163 195.572 310.473 195.847 310.697 196.225C310.921 196.598 311.033 197.086 311.033 197.688V202H310.081ZM307.799 202.168C307.249 202.168 306.794 202.07 306.434 201.874C306.075 201.678 305.807 201.424 305.629 201.111C305.452 200.798 305.363 200.469 305.363 200.124C305.363 199.671 305.475 199.303 305.699 199.018C305.928 198.733 306.238 198.526 306.63 198.395C307.022 198.26 307.463 198.192 307.953 198.192C308.303 198.192 308.653 198.227 309.003 198.297C309.358 198.367 309.703 198.463 310.039 198.584V199.27C309.759 199.158 309.442 199.069 309.087 199.004C308.737 198.939 308.415 198.906 308.121 198.906C307.673 198.906 307.295 198.999 306.987 199.186C306.679 199.368 306.525 199.681 306.525 200.124C306.525 200.451 306.642 200.731 306.875 200.964C307.113 201.197 307.491 201.314 308.009 201.314C308.373 201.314 308.7 201.23 308.989 201.062C309.283 200.889 309.514 200.675 309.682 200.418C309.855 200.161 309.941 199.905 309.941 199.648H310.207C310.207 200.096 310.109 200.511 309.913 200.894C309.722 201.277 309.447 201.585 309.087 201.818C308.728 202.051 308.299 202.168 307.799 202.168ZM316.042 202.168C315.501 202.168 315.004 202.023 314.551 201.734C314.099 201.44 313.737 201.029 313.466 200.502C313.196 199.97 313.06 199.345 313.06 198.626C313.06 197.912 313.193 197.294 313.459 196.771C313.725 196.248 314.078 195.847 314.516 195.567C314.96 195.282 315.445 195.14 315.972 195.14C316.462 195.14 316.892 195.259 317.26 195.497C317.634 195.735 317.923 196.078 318.128 196.526C318.334 196.974 318.436 197.515 318.436 198.15H318.016C318.016 197.707 317.928 197.333 317.75 197.03C317.578 196.727 317.351 196.498 317.071 196.344C316.791 196.185 316.49 196.106 316.168 196.106C315.804 196.106 315.471 196.209 315.167 196.414C314.869 196.615 314.628 196.904 314.446 197.282C314.269 197.655 314.18 198.103 314.18 198.626C314.18 199.158 314.269 199.615 314.446 199.998C314.628 200.381 314.869 200.675 315.167 200.88C315.471 201.085 315.804 201.188 316.168 201.188C316.472 201.188 316.763 201.109 317.043 200.95C317.328 200.791 317.561 200.56 317.743 200.257C317.925 199.949 318.016 199.578 318.016 199.144H318.436C318.436 199.793 318.329 200.343 318.114 200.796C317.904 201.244 317.617 201.585 317.253 201.818C316.894 202.051 316.49 202.168 316.042 202.168ZM318.198 202L318.016 200.432V192.452H319.108V202H318.198ZM320.953 201.349C320.953 201.13 321.03 200.941 321.184 200.782C321.338 200.623 321.532 200.544 321.765 200.544C321.999 200.544 322.197 200.623 322.36 200.782C322.524 200.941 322.605 201.13 322.605 201.349C322.605 201.568 322.524 201.753 322.36 201.902C322.197 202.051 321.999 202.126 321.765 202.126C321.532 202.126 321.338 202.051 321.184 201.902C321.03 201.748 320.953 201.564 320.953 201.349Z" fill="#C1A27F"/>
<path d="M101.868 86.275C99.3683 86.275 97.4433 85.4417 96.0933 83.775C94.7599 82.0917 94.0933 79.875 94.0933 77.125C94.0933 74.3583 94.8266 72.175 96.2933 70.575C97.7599 68.9583 99.6683 68.15 102.018 68.15C104.385 68.15 106.16 68.9667 107.343 70.6C108.543 72.2333 109.143 74.375 109.143 77.025C109.143 79.6583 108.468 81.8583 107.118 83.625C105.768 85.3917 104.018 86.275 101.868 86.275ZM104.218 83.425C104.635 83.0083 104.96 82.2333 105.193 81.1C105.427 79.95 105.543 78.8167 105.543 77.7C105.543 76.5667 105.477 75.5833 105.343 74.75C105.227 73.9167 105.018 73.15 104.718 72.45C104.102 71 102.985 70.275 101.368 70.275C100.902 70.275 100.435 70.3417 99.9683 70.475C99.5183 70.6083 99.1933 70.7667 98.9933 70.95C98.6266 71.4333 98.3183 72.2167 98.0683 73.3C97.8183 74.3667 97.6933 75.3583 97.6933 76.275C97.6933 77.175 97.7349 77.9833 97.8183 78.7C97.9016 79.4 98.0433 80.1 98.2433 80.8C98.4599 81.4833 98.7349 82.0667 99.0683 82.55C99.8183 83.6333 100.868 84.175 102.218 84.175C102.502 84.175 102.852 84.1083 103.268 83.975C103.702 83.8417 104.018 83.6583 104.218 83.425ZM117.173 68.5L123.598 68.475L123.673 68.775C123.34 69.3417 122.14 72.2333 120.073 77.45C118.706 80.9 117.831 83.775 117.448 86.075H112.923L112.823 85.525C114.506 82.725 116.006 79.95 117.323 77.2C118.64 74.4333 119.623 72.25 120.273 70.65C119.073 70.6 118.215 70.575 117.698 70.575C115.331 70.575 113.623 71.0583 112.573 72.025H112.148L111.423 68.4C113.756 68.4667 115.673 68.5 117.173 68.5ZM128.55 82.625C128.717 82.7917 128.834 83.125 128.9 83.625C128.967 84.125 129 84.5167 129 84.8C129 85.0667 128.984 85.3 128.95 85.5L128.7 85.725C127.95 85.9417 126.834 86.1167 125.35 86.25L125.05 86.1C124.9 85.85 124.775 85.4333 124.675 84.85C124.592 84.2667 124.55 83.8667 124.55 83.65C124.55 83.4167 124.55 83.2667 124.55 83.2L124.8 82.975C125.867 82.625 126.925 82.45 127.975 82.45C128.075 82.45 128.167 82.45 128.25 82.45L128.55 82.625ZM141.811 73.575C142.245 73.9583 142.72 74.275 143.236 74.525C143.753 74.7583 144.211 74.9667 144.611 75.15C145.028 75.3333 145.295 75.4583 145.411 75.525C145.528 75.575 145.803 75.7 146.236 75.9C146.686 76.1 146.97 76.2333 147.086 76.3C147.203 76.35 147.461 76.4917 147.861 76.725C148.261 76.9583 148.536 77.15 148.686 77.3C148.836 77.45 149.053 77.675 149.336 77.975C149.62 78.2583 149.82 78.5333 149.936 78.8C150.253 79.55 150.411 80.3083 150.411 81.075C150.411 82.7917 149.795 84.0917 148.561 84.975C147.345 85.8583 145.67 86.3 143.536 86.3C141.42 86.3 139.486 85.7167 137.736 84.55C137.786 83.35 138.245 82.225 139.111 81.175C139.911 82.0583 140.811 82.7833 141.811 83.35C142.811 83.9167 143.72 84.2 144.536 84.2C145.37 84.2 146.103 84.0167 146.736 83.65C147.053 83.2333 147.211 82.5833 147.211 81.7C147.211 81.0333 147.02 80.5 146.636 80.1C146.403 79.8833 146.203 79.7083 146.036 79.575C145.886 79.425 145.611 79.25 145.211 79.05C144.811 78.8333 143.995 78.4583 142.761 77.925C141.545 77.375 140.695 76.9417 140.211 76.625C138.828 75.6917 138.136 74.4417 138.136 72.875C138.136 71.2917 138.728 70.1167 139.911 69.35C141.111 68.5833 142.595 68.2 144.361 68.2C146.128 68.2 147.986 68.6167 149.936 69.45C149.736 70.6 149.311 71.7167 148.661 72.8C147.811 72.0167 146.911 71.3833 145.961 70.9C145.011 70.4 144.153 70.15 143.386 70.15C142.62 70.15 142.011 70.275 141.561 70.525C141.295 70.8417 141.161 71.3333 141.161 72C141.161 72.6667 141.378 73.1917 141.811 73.575ZM157.562 81.3C157.562 83.1833 157.771 84.5667 158.187 85.45V86H153.912V85.45C154.196 84.5333 154.337 83.325 154.337 81.825V72C154.337 70.5667 153.962 69.4917 153.212 68.775V68.225L157.337 67.35L157.637 67.9C157.587 68.3667 157.562 70 157.562 72.8V75.55C158.429 74.8667 159.179 74.3583 159.812 74.025C160.446 73.6917 161.129 73.525 161.862 73.525C163.196 73.525 164.221 73.9167 164.937 74.7C165.654 75.4667 166.012 76.5833 166.012 78.05V81.225C166.012 82.875 166.262 84.2833 166.762 85.45V86H162.362V85.45C162.646 84.6667 162.787 83.5417 162.787 82.075V78.95C162.787 77.9667 162.654 77.25 162.387 76.8C162.137 76.35 161.587 76.125 160.737 76.125C159.904 76.125 158.846 76.475 157.562 77.175V81.3ZM174.724 86H170.349V85.45C170.632 84.55 170.774 83.4333 170.774 82.1V78.375C170.774 77.6417 170.632 76.9333 170.349 76.25C170.082 75.55 169.757 75.0917 169.374 74.875V74.325L172.899 73.5L173.149 73.85C173.249 74 173.399 74.3417 173.599 74.875C174.682 73.975 175.816 73.525 176.999 73.525C177.582 73.525 178.124 73.6417 178.624 73.875C178.624 73.9583 178.624 74.0333 178.624 74.1C178.624 75.15 178.416 76.2 177.999 77.25C177.116 76.6333 176.166 76.325 175.149 76.325C174.832 76.325 174.449 76.375 173.999 76.475V81.4C173.999 83 174.241 84.35 174.724 85.45V86ZM183.877 68.075C184.027 68.2083 184.127 68.4917 184.177 68.925C184.243 69.3583 184.277 69.6917 184.277 69.925C184.277 70.1583 184.26 70.3667 184.227 70.55L184.002 70.75C183.268 70.9667 182.31 71.1167 181.127 71.2L180.852 71.075C180.718 70.8583 180.61 70.5 180.527 70C180.46 69.5 180.427 69.1583 180.427 68.975C180.427 68.775 180.427 68.6417 180.427 68.575L180.652 68.375C181.552 68.075 182.443 67.925 183.327 67.925H183.602L183.877 68.075ZM184.352 76.175V81.525C184.352 83.1083 184.593 84.4167 185.077 85.45V86H180.702V85.45C180.985 84.6 181.127 83.475 181.127 82.075V78.375C181.127 77.4583 180.985 76.7 180.702 76.1C180.418 75.4833 180.06 75.0583 179.627 74.825V74.275L184.202 73.425L184.502 73.925C184.402 74.3083 184.352 75.0583 184.352 76.175ZM196.238 73.525C197.821 73.525 198.871 74.225 199.388 75.625C199.938 75.175 200.38 74.825 200.713 74.575C201.063 74.325 201.496 74.0917 202.013 73.875C202.53 73.6417 203.021 73.525 203.488 73.525C204.738 73.525 205.705 73.9167 206.388 74.7C207.071 75.4667 207.413 76.5833 207.413 78.05V81.475C207.413 82.9583 207.663 84.2833 208.163 85.45V86H203.763V85.45C204.046 84.6667 204.188 83.6 204.188 82.25V78.95C204.188 78 204.071 77.2917 203.838 76.825C203.605 76.3583 203.113 76.125 202.363 76.125C201.63 76.125 200.746 76.4167 199.713 77C199.746 77.4333 199.763 77.7833 199.763 78.05V81.475C199.763 82.9583 200.013 84.2833 200.513 85.45V86H196.363V85.45C196.646 84.6667 196.788 83.6 196.788 82.25V78.95C196.788 78 196.68 77.2917 196.463 76.825C196.246 76.3583 195.788 76.125 195.088 76.125C194.405 76.125 193.488 76.475 192.338 77.175V81.525C192.338 83.1083 192.58 84.4167 193.063 85.45V86H188.688V85.45C188.971 84.6 189.113 83.475 189.113 82.075V78.375C189.113 76.5083 188.613 75.325 187.613 74.825V74.275L191.663 73.5L191.913 73.975C192.046 74.3083 192.146 74.8417 192.213 75.575C192.996 74.875 193.68 74.3583 194.263 74.025C194.863 73.6917 195.521 73.525 196.238 73.525ZM218.331 84.525C218.731 84.525 219.097 84.4833 219.431 84.4C219.831 83.9 220.131 83.1917 220.331 82.275C220.531 81.3417 220.631 80.5 220.631 79.75C220.631 77.1167 219.939 75.8 218.556 75.8C217.556 75.8 216.456 76.175 215.256 76.925V83.75C216.339 84.2667 217.364 84.525 218.331 84.525ZM212.031 88.25V78.4C212.031 77.6667 211.914 76.975 211.681 76.325C211.464 75.6583 211.172 75.225 210.806 75.025L210.756 74.475L214.831 73.5L215.131 73.975C215.097 74.225 215.081 74.6333 215.081 75.2C216.197 74.0833 217.364 73.525 218.581 73.525C220.264 73.525 221.622 74.0833 222.656 75.2C223.706 76.3167 224.231 77.675 224.231 79.275C224.231 81.2583 223.531 82.95 222.131 84.35C220.731 85.75 219.139 86.45 217.356 86.45C216.639 86.45 215.939 86.375 215.256 86.225V86.9C215.256 88.8833 215.589 90.25 216.256 91V91.55L211.931 92.075C211.997 91.2083 212.031 89.9333 212.031 88.25ZM230.716 70.975C230.716 70.225 230.675 69.375 230.591 68.425C233.841 68.475 236.275 68.5 237.891 68.5C239.508 68.5 241.941 68.475 245.191 68.425C245.108 69.375 245.066 70.225 245.066 70.975H244.591C242.708 70.5417 241.091 70.3 239.741 70.25C239.675 71.0833 239.641 72.3333 239.641 74V80.55C239.641 82.8167 239.775 84.45 240.041 85.45V86H235.741V85.45C235.975 84.45 236.091 82.8417 236.091 80.625V74.1C236.091 72.3833 236.058 71.1 235.991 70.25C234.741 70.3 233.141 70.5417 231.191 70.975H230.716ZM247.834 71.9C247.834 71.6667 247.817 71.45 247.784 71.25C247.567 70.6833 247.142 70.1417 246.509 69.625L246.534 69.225C246.834 68.925 247.209 68.65 247.659 68.4C248.109 68.1333 248.517 67.9583 248.884 67.875C249.117 67.9917 249.276 68.0917 249.359 68.175C249.692 68.5417 250.017 69.075 250.334 69.775C250.467 70.0917 250.534 70.4917 250.534 70.975C250.517 72.1583 249.817 73.675 248.434 75.525L246.834 75.1C247.501 73.8833 247.834 72.8167 247.834 71.9ZM257.973 68.075C258.123 68.2083 258.223 68.4917 258.273 68.925C258.34 69.3583 258.373 69.6917 258.373 69.925C258.373 70.1583 258.357 70.3667 258.323 70.55L258.098 70.75C257.365 70.9667 256.407 71.1167 255.223 71.2L254.948 71.075C254.815 70.8583 254.707 70.5 254.623 70C254.557 69.5 254.523 69.1583 254.523 68.975C254.523 68.775 254.523 68.6417 254.523 68.575L254.748 68.375C255.648 68.075 256.54 67.925 257.423 67.925H257.698L257.973 68.075ZM258.448 76.175V81.525C258.448 83.1083 258.69 84.4167 259.173 85.45V86H254.798V85.45C255.082 84.6 255.223 83.475 255.223 82.075V78.375C255.223 77.4583 255.082 76.7 254.798 76.1C254.515 75.4833 254.157 75.0583 253.723 74.825V74.275L258.298 73.425L258.598 73.925C258.498 74.3083 258.448 75.0583 258.448 76.175ZM265.985 83.975C267.168 84.3917 268.135 84.6 268.885 84.6C269.635 84.6 270.118 84.5167 270.335 84.35C270.585 84.0333 270.818 83.4 271.035 82.45C271.251 81.4833 271.36 80.5333 271.36 79.6C271.36 76.7833 270.676 75.375 269.31 75.375C268.426 75.375 267.318 75.7667 265.985 76.55V83.975ZM265.985 69.95V74.825C267.101 73.9583 268.251 73.525 269.435 73.525C271.151 73.525 272.501 74.0917 273.485 75.225C274.468 76.3417 274.96 77.7167 274.96 79.35C274.96 81.3667 274.226 83.0583 272.76 84.425C271.293 85.7917 269.551 86.475 267.535 86.475C266.235 86.475 264.551 86.0833 262.485 85.3V84.75C262.668 84.2833 262.76 83.1833 262.76 81.45V71.75C262.76 70.4833 262.385 69.4917 261.635 68.775V68.225L265.91 67.35L266.11 67.9C266.026 68.35 265.985 69.0333 265.985 69.95ZM282.959 84.375C283.909 84.375 284.384 83.9167 284.384 83C284.384 82.15 283.576 81.5083 281.959 81.075C281.292 80.8917 280.626 80.6833 279.959 80.45C279.292 80.2167 278.726 79.8417 278.259 79.325C277.792 78.8083 277.559 78.15 277.559 77.35C277.559 76.2 278.076 75.3083 279.109 74.675C280.142 74.025 281.401 73.7 282.884 73.7C284.367 73.7 285.917 74.0583 287.534 74.775C287.451 75.5083 287.001 76.3917 286.184 77.425C285.517 76.7583 284.826 76.25 284.109 75.9C283.392 75.55 282.767 75.375 282.234 75.375C281.701 75.375 281.292 75.4333 281.009 75.55C280.759 75.7667 280.634 76.125 280.634 76.625C280.634 77.1083 280.867 77.4833 281.334 77.75C281.817 78.0167 282.401 78.2333 283.084 78.4C283.767 78.55 284.451 78.7417 285.134 78.975C285.817 79.2083 286.392 79.6083 286.859 80.175C287.342 80.725 287.584 81.45 287.584 82.35C287.584 83.65 287.076 84.6333 286.059 85.3C285.059 85.95 283.726 86.275 282.059 86.275C280.392 86.275 278.801 85.8 277.284 84.85C277.351 83.85 277.726 82.925 278.409 82.075C280.059 83.6083 281.576 84.375 282.959 84.375Z" fill="#C1A27F"/>
<path d="M138.386 144.15C138.386 147.183 137.419 149.567 135.486 151.3C133.553 153.033 130.919 154.083 127.586 154.45C127.586 156.517 127.653 158.283 127.786 159.75L123.786 160.55L123.536 159.85C123.736 158.45 123.903 156.7 124.036 154.6C119.936 154.433 116.269 153.267 113.036 151.1C113.136 148.733 114.069 146.483 115.836 144.35C118.369 147.083 121.136 148.933 124.136 149.9V138.5C123.136 138.067 122.419 137.767 121.986 137.6C121.553 137.4 120.886 137.083 119.986 136.65C119.086 136.183 118.419 135.783 117.986 135.45C117.553 135.117 117.019 134.667 116.386 134.1C115.753 133.5 115.286 132.917 114.986 132.35C114.219 130.917 113.836 129.367 113.836 127.7C113.836 124.9 114.786 122.75 116.686 121.25C118.619 119.717 121.103 118.8 124.136 118.5C124.069 116.7 124.003 115.333 123.936 114.4L127.736 113.1L127.986 113.8C127.753 115.8 127.619 117.35 127.586 118.45C130.886 118.683 134.169 119.5 137.436 120.9C137.069 123.367 136.219 125.717 134.886 127.95C132.486 125.783 130.053 124.267 127.586 123.4V133C128.986 133.567 130.019 134 130.686 134.3C131.386 134.6 132.319 135.1 133.486 135.8C134.653 136.5 135.519 137.2 136.086 137.9C136.686 138.567 137.219 139.45 137.686 140.55C138.153 141.65 138.386 142.85 138.386 144.15ZM131.786 145.75C131.786 143.483 130.386 141.6 127.586 140.1V150.4C128.819 150.4 129.903 150.15 130.836 149.65C131.469 148.817 131.786 147.517 131.786 145.75ZM119.986 126.35C119.986 128.383 121.369 130.1 124.136 131.5V122.75C123.069 122.75 121.986 122.983 120.886 123.45C120.286 124.05 119.986 125.017 119.986 126.35ZM156.341 143C156.341 147.6 156.607 150.9 157.141 152.9V154H148.841V152.9C149.374 150.9 149.641 147.6 149.641 143V128.7C149.641 126.433 149.591 125.017 149.491 124.45C147.524 124.85 145.341 125.1 142.941 125.2L142.391 122.35C146.091 121.717 149.141 120.6 151.541 119H156.591L156.341 124.9V143ZM183.233 143.35C183.233 139.383 180.4 137.217 174.733 136.85L168.083 136.4L166.833 135.05C167.4 130.817 168.317 125.5 169.583 119.1L187.283 118.85L188.533 126.15H187.583C186.517 125.217 184.983 124.483 182.983 123.95C181.017 123.383 178.9 123.1 176.633 123.1H174.033C173.333 125.233 172.667 128.367 172.033 132.5C175.767 132.667 178.333 132.85 179.733 133.05C181.167 133.217 182.567 133.533 183.933 134C185.3 134.433 186.4 135 187.233 135.7C189.2 137.3 190.183 139.717 190.183 142.95C190.183 146.15 188.9 148.883 186.333 151.15C183.8 153.417 180.45 154.55 176.283 154.55C172.117 154.55 167.767 153.433 163.233 151.2C163.367 150.5 163.75 149.6 164.383 148.5C165.017 147.367 165.633 146.533 166.233 146C170.5 149.067 174.267 150.6 177.533 150.6C179.067 150.6 180.333 150.383 181.333 149.95C181.933 149.25 182.4 148.267 182.733 147C183.067 145.7 183.233 144.483 183.233 143.35ZM204.186 147.25C204.519 147.583 204.753 148.25 204.886 149.25C205.019 150.25 205.086 151.033 205.086 151.6C205.086 152.133 205.053 152.6 204.986 153L204.486 153.45C202.986 153.883 200.753 154.233 197.786 154.5L197.186 154.2C196.886 153.7 196.636 152.867 196.436 151.7C196.269 150.533 196.186 149.733 196.186 149.3C196.186 148.833 196.186 148.533 196.186 148.4L196.686 147.95C198.819 147.25 200.936 146.9 203.036 146.9C203.236 146.9 203.419 146.9 203.586 146.9L204.186 147.25ZM227.677 154.55C222.677 154.55 218.827 152.883 216.127 149.55C213.46 146.183 212.127 141.75 212.127 136.25C212.127 130.717 213.594 126.35 216.527 123.15C219.46 119.917 223.277 118.3 227.977 118.3C232.71 118.3 236.26 119.933 238.627 123.2C241.027 126.467 242.227 130.75 242.227 136.05C242.227 141.317 240.877 145.717 238.177 149.25C235.477 152.783 231.977 154.55 227.677 154.55ZM232.377 148.85C233.21 148.017 233.86 146.467 234.327 144.2C234.794 141.9 235.027 139.633 235.027 137.4C235.027 135.133 234.894 133.167 234.627 131.5C234.394 129.833 233.977 128.3 233.377 126.9C232.144 124 229.91 122.55 226.677 122.55C225.744 122.55 224.81 122.683 223.877 122.95C222.977 123.217 222.327 123.533 221.927 123.9C221.194 124.867 220.577 126.433 220.077 128.6C219.577 130.733 219.327 132.717 219.327 134.55C219.327 136.35 219.41 137.967 219.577 139.4C219.744 140.8 220.027 142.2 220.427 143.6C220.86 144.967 221.41 146.133 222.077 147.1C223.577 149.267 225.677 150.35 228.377 150.35C228.944 150.35 229.644 150.217 230.477 149.95C231.344 149.683 231.977 149.317 232.377 148.85ZM269.39 143.1C269.39 146.4 268.19 149.133 265.79 151.3C263.424 153.433 260.14 154.5 255.94 154.5C251.774 154.5 247.924 153.583 244.39 151.75V151.45C244.39 149.783 245.074 148.233 246.44 146.8C250.207 149.433 253.39 150.75 255.99 150.75H256.24C257.974 150.75 259.307 150.483 260.24 149.95C261.707 148.583 262.44 146.383 262.44 143.35C262.44 141.05 261.924 139.433 260.89 138.5C259.89 137.533 258.24 137.05 255.94 137.05C253.64 137.05 252.024 137.117 251.09 137.25H250.09L248.94 133.45H254.39C256.057 133.45 257.424 132.817 258.49 131.55C259.557 130.25 260.09 128.767 260.09 127.1C260.09 123.667 258.84 121.95 256.34 121.95C254.107 121.95 251.374 123.217 248.14 125.75C246.84 123.983 246.057 122.083 245.79 120.05C249.657 118.95 253.34 118.4 256.84 118.4C263.474 118.4 266.79 120.9 266.79 125.9C266.79 127.9 266.274 129.633 265.24 131.1C264.24 132.533 263.04 133.6 261.64 134.3C266.807 135.4 269.39 138.333 269.39 143.1Z" fill="#550000"/>
<g filter="url(#filter0_d_174_22)">
<rect x="5.5" y="1.5" width="369" height="282" rx="13.5" stroke="#550000" stroke-opacity="0.5" stroke-width="3" shape-rendering="crispEdges"/>
</g>
<defs>
<filter id="filter0_d_174_22" x="0" y="0" width="380" height="293" filterUnits="userSpaceOnUse" color-interpolation-filters="sRGB">
<feFlood flood-opacity="0" result="BackgroundImageFix"/>
<feColorMatrix in="SourceAlpha" type="matrix" values="0 0 0 0 0 0 0 0 0 0 0 0 0 0 0 0 0 0 127 0" result="hardAlpha"/>
<feOffset dy="4"/>
<feGaussianBlur stdDeviation="2"/>
<feComposite in2="hardAlpha" operator="out"/>
<feColorMatrix type="matrix" values="0 0 0 0 0 0 0 0 0 0 0 0 0 0 0 0 0 0 0.25 0"/>
<feBlend mode="normal" in2="BackgroundImageFix" result="effect1_dropShadow_174_22"/>
<feBlend mode="normal" in="SourceGraphic" in2="effect1_dropShadow_174_22" result="shape"/>
</filter>
</defs>
</svg>
