<svg width="380" height="293" viewBox="0 0 380 293" fill="none" xmlns="http://www.w3.org/2000/svg">
<path d="M51.5312 181V172.208H56.8792V173.146H52.6232V176.072H56.5852V177.01H52.6232V181H51.5312ZM58.873 181V174.294H59.965V181H58.873ZM59.629 177.976C59.629 177.127 59.7107 176.422 59.874 175.862C60.0373 175.297 60.2753 174.877 60.588 174.602C60.9053 174.322 61.2903 174.182 61.743 174.182C61.8923 174.182 62.0277 174.194 62.149 174.217C62.275 174.236 62.401 174.266 62.527 174.308L62.457 175.386C62.3263 175.344 62.184 175.309 62.03 175.281C61.876 175.248 61.7383 175.232 61.617 175.232C61.2203 175.232 60.9007 175.346 60.658 175.575C60.4153 175.799 60.238 176.116 60.126 176.527C60.0187 176.938 59.965 177.421 59.965 177.976H59.629ZM66.2556 181.168C65.6769 181.168 65.1589 181.021 64.7016 180.727C64.2489 180.428 63.8896 180.015 63.6236 179.488C63.3622 178.961 63.2316 178.354 63.2316 177.668C63.2316 176.935 63.3622 176.305 63.6236 175.778C63.8849 175.251 64.2419 174.847 64.6946 174.567C65.1519 174.282 65.6722 174.14 66.2556 174.14C66.7642 174.14 67.1982 174.243 67.5576 174.448C67.9169 174.653 68.2062 174.931 68.4256 175.281C68.6449 175.631 68.7966 176.028 68.8806 176.471C68.9692 176.91 68.9949 177.365 68.9576 177.836H64.1136V177.164H68.2366L67.9146 177.374C67.9286 177.099 67.9122 176.823 67.8656 176.548C67.8236 176.273 67.7419 176.021 67.6206 175.792C67.4992 175.559 67.3289 175.372 67.1096 175.232C66.8902 175.092 66.6102 175.022 66.2696 175.022C65.8402 175.022 65.4809 175.132 65.1916 175.351C64.9022 175.57 64.6852 175.86 64.5406 176.219C64.3959 176.574 64.3236 176.959 64.3236 177.374V177.822C64.3236 178.289 64.3936 178.706 64.5336 179.075C64.6782 179.444 64.8929 179.735 65.1776 179.95C65.4622 180.165 65.8216 180.272 66.2556 180.272C66.6896 180.272 67.0466 180.167 67.3266 179.957C67.6066 179.747 67.7769 179.437 67.8376 179.026H68.9716C68.9016 179.469 68.7429 179.852 68.4956 180.174C68.2482 180.491 67.9332 180.736 67.5506 180.909C67.1679 181.082 66.7362 181.168 66.2556 181.168ZM73.531 181.168C72.8823 181.168 72.341 181.077 71.907 180.895C71.473 180.708 71.144 180.454 70.92 180.132C70.696 179.805 70.577 179.432 70.563 179.012H71.613C71.6363 179.437 71.8067 179.756 72.124 179.971C72.446 180.181 72.8823 180.286 73.433 180.286C73.7223 180.286 73.9883 180.239 74.231 180.146C74.4737 180.053 74.6673 179.924 74.812 179.761C74.9567 179.598 75.029 179.413 75.029 179.208C75.029 178.947 74.9333 178.741 74.742 178.592C74.5507 178.443 74.245 178.312 73.825 178.2L72.523 177.78C71.9583 177.603 71.5243 177.36 71.221 177.052C70.9223 176.739 70.773 176.366 70.773 175.932C70.773 175.391 71.011 174.957 71.487 174.63C71.963 174.303 72.5883 174.14 73.363 174.14C74.1843 174.14 74.8213 174.308 75.274 174.644C75.7267 174.98 75.9623 175.4 75.981 175.904H74.903C74.861 175.61 74.7117 175.388 74.455 175.239C74.1983 175.085 73.8343 175.008 73.363 175.008C72.9103 175.008 72.5557 175.111 72.299 175.316C72.047 175.517 71.921 175.741 71.921 175.988C71.921 176.45 72.3177 176.791 73.111 177.01L74.441 177.458C75.015 177.631 75.4537 177.857 75.757 178.137C76.065 178.417 76.219 178.774 76.219 179.208C76.219 179.544 76.1093 179.861 75.89 180.16C75.6707 180.459 75.3603 180.701 74.959 180.888C74.5577 181.075 74.0817 181.168 73.531 181.168ZM83.2385 181V177.066C83.2385 176.427 83.0845 175.941 82.7765 175.61C82.4731 175.274 82.0578 175.106 81.5305 175.106C81.1291 175.106 80.7815 175.216 80.4875 175.435C80.1935 175.654 79.9671 175.969 79.8085 176.38C79.6498 176.786 79.5705 177.271 79.5705 177.836H79.1505C79.1505 177.057 79.2531 176.392 79.4585 175.841C79.6638 175.29 79.9625 174.87 80.3545 174.581C80.7511 174.287 81.2318 174.14 81.7965 174.14C82.3238 174.14 82.7741 174.259 83.1475 174.497C83.5255 174.73 83.8148 175.066 84.0155 175.505C84.2161 175.944 84.3165 176.464 84.3165 177.066V181H83.2385ZM78.4785 181V171.452H79.5705V181H78.4785ZM99.6579 181V177.066C99.6579 176.427 99.5039 175.941 99.1959 175.61C98.8926 175.274 98.4819 175.106 97.9639 175.106C97.3573 175.106 96.8929 175.342 96.5709 175.813C96.2489 176.28 96.0879 176.926 96.0879 177.752H95.5839C95.5839 177.15 95.6423 176.623 95.7589 176.17C95.8803 175.717 96.0553 175.342 96.2839 175.043C96.5126 174.74 96.7903 174.513 97.1169 174.364C97.4436 174.215 97.8146 174.14 98.2299 174.14C98.7573 174.14 99.2076 174.259 99.5809 174.497C99.9589 174.73 100.248 175.066 100.449 175.505C100.65 175.944 100.75 176.464 100.75 177.066V181H99.6579ZM90.2499 181V174.308H91.1879L91.3139 175.652C91.5239 175.167 91.8179 174.793 92.1959 174.532C92.5786 174.271 93.0359 174.14 93.5679 174.14C94.0953 174.14 94.5456 174.259 94.9189 174.497C95.2969 174.73 95.5863 175.066 95.7869 175.505C95.9876 175.944 96.0879 176.464 96.0879 177.066V181H95.0099V177.066C95.0099 176.427 94.8559 175.941 94.5479 175.61C94.2446 175.274 93.8293 175.106 93.3019 175.106C92.9006 175.106 92.5529 175.216 92.2589 175.435C91.9649 175.654 91.7386 175.969 91.5799 176.38C91.4213 176.786 91.3419 177.271 91.3419 177.836V181H90.2499ZM107.492 181L107.352 179.53V176.66C107.352 176.058 107.223 175.626 106.967 175.365C106.71 175.099 106.325 174.966 105.812 174.966C105.522 174.966 105.259 175.008 105.021 175.092C104.787 175.176 104.601 175.307 104.461 175.484C104.325 175.657 104.258 175.881 104.258 176.156H103.04C103.04 175.671 103.159 175.281 103.397 174.987C103.635 174.688 103.961 174.474 104.377 174.343C104.797 174.208 105.275 174.14 105.812 174.14C106.325 174.14 106.78 174.226 107.177 174.399C107.573 174.572 107.884 174.847 108.108 175.225C108.332 175.598 108.444 176.086 108.444 176.688V181H107.492ZM105.21 181.168C104.659 181.168 104.204 181.07 103.845 180.874C103.485 180.678 103.217 180.424 103.04 180.111C102.862 179.798 102.774 179.469 102.774 179.124C102.774 178.671 102.886 178.303 103.11 178.018C103.338 177.733 103.649 177.526 104.041 177.395C104.433 177.26 104.874 177.192 105.364 177.192C105.714 177.192 106.064 177.227 106.414 177.297C106.768 177.367 107.114 177.463 107.45 177.584V178.27C107.17 178.158 106.852 178.069 106.498 178.004C106.148 177.939 105.826 177.906 105.532 177.906C105.084 177.906 104.706 177.999 104.398 178.186C104.09 178.368 103.936 178.681 103.936 179.124C103.936 179.451 104.052 179.731 104.286 179.964C104.524 180.197 104.902 180.314 105.42 180.314C105.784 180.314 106.11 180.23 106.4 180.062C106.694 179.889 106.925 179.675 107.093 179.418C107.265 179.161 107.352 178.905 107.352 178.648H107.618C107.618 179.096 107.52 179.511 107.324 179.894C107.132 180.277 106.857 180.585 106.498 180.818C106.138 181.051 105.709 181.168 105.21 181.168ZM113.453 181.168C112.911 181.168 112.414 181.023 111.962 180.734C111.509 180.44 111.147 180.029 110.877 179.502C110.606 178.97 110.471 178.345 110.471 177.626C110.471 176.912 110.604 176.294 110.87 175.771C111.136 175.248 111.488 174.847 111.927 174.567C112.37 174.282 112.855 174.14 113.383 174.14C113.873 174.14 114.302 174.259 114.671 174.497C115.044 174.735 115.333 175.078 115.539 175.526C115.744 175.974 115.847 176.515 115.847 177.15H115.427C115.427 176.707 115.338 176.333 115.161 176.03C114.988 175.727 114.762 175.498 114.482 175.344C114.202 175.185 113.901 175.106 113.579 175.106C113.215 175.106 112.881 175.209 112.578 175.414C112.279 175.615 112.039 175.904 111.857 176.282C111.679 176.655 111.591 177.103 111.591 177.626C111.591 178.158 111.679 178.615 111.857 178.998C112.039 179.381 112.279 179.675 112.578 179.88C112.881 180.085 113.215 180.188 113.579 180.188C113.882 180.188 114.174 180.109 114.454 179.95C114.738 179.791 114.972 179.56 115.154 179.257C115.336 178.949 115.427 178.578 115.427 178.144H115.847C115.847 178.793 115.739 179.343 115.525 179.796C115.315 180.244 115.028 180.585 114.664 180.818C114.304 181.051 113.901 181.168 113.453 181.168ZM115.609 181L115.427 179.432V171.452H116.519V181H115.609ZM121.681 181.168C121.103 181.168 120.585 181.021 120.127 180.727C119.675 180.428 119.315 180.015 119.049 179.488C118.788 178.961 118.657 178.354 118.657 177.668C118.657 176.935 118.788 176.305 119.049 175.778C119.311 175.251 119.668 174.847 120.12 174.567C120.578 174.282 121.098 174.14 121.681 174.14C122.19 174.14 122.624 174.243 122.983 174.448C123.343 174.653 123.632 174.931 123.851 175.281C124.071 175.631 124.222 176.028 124.306 176.471C124.395 176.91 124.421 177.365 124.383 177.836H119.539V177.164H123.662L123.34 177.374C123.354 177.099 123.338 176.823 123.291 176.548C123.249 176.273 123.168 176.021 123.046 175.792C122.925 175.559 122.755 175.372 122.535 175.232C122.316 175.092 122.036 175.022 121.695 175.022C121.266 175.022 120.907 175.132 120.617 175.351C120.328 175.57 120.111 175.86 119.966 176.219C119.822 176.574 119.749 176.959 119.749 177.374V177.822C119.749 178.289 119.819 178.706 119.959 179.075C120.104 179.444 120.319 179.735 120.603 179.95C120.888 180.165 121.247 180.272 121.681 180.272C122.115 180.272 122.472 180.167 122.752 179.957C123.032 179.747 123.203 179.437 123.263 179.026H124.397C124.327 179.469 124.169 179.852 123.921 180.174C123.674 180.491 123.359 180.736 122.976 180.909C122.594 181.082 122.162 181.168 121.681 181.168ZM132.237 184.444C131.551 184.444 130.956 184.346 130.452 184.15C129.948 183.959 129.556 183.7 129.276 183.373C129.001 183.051 128.863 182.694 128.863 182.302C128.863 181.784 129.052 181.387 129.43 181.112C129.813 180.841 130.305 180.706 130.907 180.706L131.509 181.084C131.005 181.084 130.615 181.189 130.34 181.399C130.065 181.609 129.927 181.896 129.927 182.26C129.927 182.624 130.123 182.932 130.515 183.184C130.907 183.436 131.481 183.562 132.237 183.562C132.797 183.562 133.287 183.48 133.707 183.317C134.132 183.158 134.461 182.948 134.694 182.687C134.932 182.43 135.051 182.153 135.051 181.854C135.051 181.644 134.974 181.462 134.82 181.308C134.666 181.159 134.43 181.084 134.113 181.084H131.509C131.056 181.084 130.664 181.016 130.333 180.881C130.006 180.741 129.754 180.559 129.577 180.335C129.4 180.111 129.311 179.866 129.311 179.6C129.311 179.32 129.39 179.082 129.549 178.886C129.708 178.69 129.913 178.541 130.165 178.438C130.422 178.335 130.697 178.284 130.991 178.284L131.201 178.69C131.061 178.69 130.919 178.723 130.774 178.788C130.634 178.849 130.515 178.942 130.417 179.068C130.324 179.189 130.277 179.343 130.277 179.53C130.277 179.745 130.366 179.924 130.543 180.069C130.72 180.214 131.042 180.286 131.509 180.286H134.113C134.743 180.286 135.238 180.419 135.597 180.685C135.961 180.951 136.143 181.322 136.143 181.798C136.143 182.237 135.987 182.657 135.674 183.058C135.361 183.464 134.913 183.795 134.33 184.052C133.747 184.313 133.049 184.444 132.237 184.444ZM132.433 179.04C131.92 179.04 131.455 178.937 131.04 178.732C130.629 178.527 130.303 178.24 130.06 177.871C129.822 177.502 129.703 177.075 129.703 176.59C129.703 176.1 129.822 175.671 130.06 175.302C130.303 174.933 130.629 174.649 131.04 174.448C131.455 174.243 131.92 174.14 132.433 174.14C132.932 174.14 133.385 174.243 133.791 174.448C134.202 174.649 134.528 174.933 134.771 175.302C135.014 175.671 135.135 176.1 135.135 176.59C135.135 177.075 135.014 177.502 134.771 177.871C134.528 178.24 134.202 178.527 133.791 178.732C133.385 178.937 132.932 179.04 132.433 179.04ZM132.433 178.256C132.946 178.256 133.345 178.097 133.63 177.78C133.915 177.463 134.057 177.066 134.057 176.59C134.057 176.1 133.915 175.703 133.63 175.4C133.345 175.092 132.946 174.938 132.433 174.938C131.924 174.938 131.523 175.092 131.229 175.4C130.94 175.703 130.795 176.1 130.795 176.59C130.795 177.066 130.94 177.463 131.229 177.78C131.523 178.097 131.924 178.256 132.433 178.256ZM134.631 175.204L134.113 174.994C134.113 174.602 134.19 174.259 134.344 173.965C134.498 173.666 134.717 173.435 135.002 173.272C135.287 173.104 135.625 173.02 136.017 173.02L135.933 174.098C135.513 174.098 135.191 174.189 134.967 174.371C134.743 174.548 134.631 174.826 134.631 175.204ZM141.917 181L141.777 179.53V176.66C141.777 176.058 141.649 175.626 141.392 175.365C141.136 175.099 140.751 174.966 140.237 174.966C139.948 174.966 139.684 175.008 139.446 175.092C139.213 175.176 139.026 175.307 138.886 175.484C138.751 175.657 138.683 175.881 138.683 176.156H137.465C137.465 175.671 137.584 175.281 137.822 174.987C138.06 174.688 138.387 174.474 138.802 174.343C139.222 174.208 139.701 174.14 140.237 174.14C140.751 174.14 141.206 174.226 141.602 174.399C141.999 174.572 142.309 174.847 142.533 175.225C142.757 175.598 142.869 176.086 142.869 176.688V181H141.917ZM139.635 181.168C139.085 181.168 138.63 181.07 138.27 180.874C137.911 180.678 137.643 180.424 137.465 180.111C137.288 179.798 137.199 179.469 137.199 179.124C137.199 178.671 137.311 178.303 137.535 178.018C137.764 177.733 138.074 177.526 138.466 177.395C138.858 177.26 139.299 177.192 139.789 177.192C140.139 177.192 140.489 177.227 140.839 177.297C141.194 177.367 141.539 177.463 141.875 177.584V178.27C141.595 178.158 141.278 178.069 140.923 178.004C140.573 177.939 140.251 177.906 139.957 177.906C139.509 177.906 139.131 177.999 138.823 178.186C138.515 178.368 138.361 178.681 138.361 179.124C138.361 179.451 138.478 179.731 138.711 179.964C138.949 180.197 139.327 180.314 139.845 180.314C140.209 180.314 140.536 180.23 140.825 180.062C141.119 179.889 141.35 179.675 141.518 179.418C141.691 179.161 141.777 178.905 141.777 178.648H142.043C142.043 179.096 141.945 179.511 141.749 179.894C141.558 180.277 141.283 180.585 140.923 180.818C140.564 181.051 140.135 181.168 139.635 181.168ZM145.484 181V174.294H146.576V181H145.484ZM146.24 177.976C146.24 177.127 146.322 176.422 146.485 175.862C146.649 175.297 146.887 174.877 147.199 174.602C147.517 174.322 147.902 174.182 148.354 174.182C148.504 174.182 148.639 174.194 148.76 174.217C148.886 174.236 149.012 174.266 149.138 174.308L149.068 175.386C148.938 175.344 148.795 175.309 148.641 175.281C148.487 175.248 148.35 175.232 148.228 175.232C147.832 175.232 147.512 175.346 147.269 175.575C147.027 175.799 146.849 176.116 146.737 176.527C146.63 176.938 146.576 177.421 146.576 177.976H146.24ZM153.609 181.168C153.161 181.168 152.755 181.051 152.391 180.818C152.032 180.585 151.745 180.244 151.53 179.796C151.32 179.343 151.215 178.793 151.215 178.144H151.635C151.635 178.578 151.724 178.949 151.901 179.257C152.083 179.56 152.316 179.791 152.601 179.95C152.886 180.109 153.184 180.188 153.497 180.188C153.856 180.188 154.185 180.085 154.484 179.88C154.783 179.675 155.021 179.381 155.198 178.998C155.38 178.615 155.471 178.158 155.471 177.626C155.471 177.103 155.382 176.655 155.205 176.282C155.028 175.904 154.787 175.615 154.484 175.414C154.185 175.209 153.852 175.106 153.483 175.106C153.166 175.106 152.865 175.185 152.58 175.344C152.3 175.498 152.071 175.727 151.894 176.03C151.721 176.333 151.635 176.707 151.635 177.15H151.215C151.215 176.515 151.318 175.974 151.523 175.526C151.733 175.078 152.022 174.735 152.391 174.497C152.76 174.259 153.189 174.14 153.679 174.14C154.206 174.14 154.689 174.282 155.128 174.567C155.571 174.847 155.926 175.248 156.192 175.771C156.458 176.294 156.591 176.912 156.591 177.626C156.591 178.345 156.456 178.97 156.185 179.502C155.914 180.029 155.553 180.44 155.1 180.734C154.647 181.023 154.15 181.168 153.609 181.168ZM150.543 181V171.452H151.635V179.432L151.313 181H150.543ZM162.986 181L162.846 179.53V176.66C162.846 176.058 162.717 175.626 162.461 175.365C162.204 175.099 161.819 174.966 161.306 174.966C161.016 174.966 160.753 175.008 160.515 175.092C160.281 175.176 160.095 175.307 159.955 175.484C159.819 175.657 159.752 175.881 159.752 176.156H158.534C158.534 175.671 158.653 175.281 158.891 174.987C159.129 174.688 159.455 174.474 159.871 174.343C160.291 174.208 160.769 174.14 161.306 174.14C161.819 174.14 162.274 174.226 162.671 174.399C163.067 174.572 163.378 174.847 163.602 175.225C163.826 175.598 163.938 176.086 163.938 176.688V181H162.986ZM160.704 181.168C160.153 181.168 159.698 181.07 159.339 180.874C158.979 180.678 158.711 180.424 158.534 180.111C158.356 179.798 158.268 179.469 158.268 179.124C158.268 178.671 158.38 178.303 158.604 178.018C158.832 177.733 159.143 177.526 159.535 177.395C159.927 177.26 160.368 177.192 160.858 177.192C161.208 177.192 161.558 177.227 161.908 177.297C162.262 177.367 162.608 177.463 162.944 177.584V178.27C162.664 178.158 162.346 178.069 161.992 178.004C161.642 177.939 161.32 177.906 161.026 177.906C160.578 177.906 160.2 177.999 159.892 178.186C159.584 178.368 159.43 178.681 159.43 179.124C159.43 179.451 159.546 179.731 159.78 179.964C160.018 180.197 160.396 180.314 160.914 180.314C161.278 180.314 161.604 180.23 161.894 180.062C162.188 179.889 162.419 179.675 162.587 179.418C162.759 179.161 162.846 178.905 162.846 178.648H163.112C163.112 179.096 163.014 179.511 162.818 179.894C162.626 180.277 162.351 180.585 161.992 180.818C161.632 181.051 161.203 181.168 160.704 181.168ZM171.313 181V177.066C171.313 176.427 171.159 175.941 170.851 175.61C170.547 175.274 170.132 175.106 169.605 175.106C169.203 175.106 168.856 175.216 168.562 175.435C168.268 175.654 168.041 175.969 167.883 176.38C167.724 176.786 167.645 177.271 167.645 177.836H167.225C167.225 177.057 167.327 176.392 167.533 175.841C167.738 175.29 168.037 174.87 168.429 174.581C168.825 174.287 169.306 174.14 169.871 174.14C170.398 174.14 170.848 174.259 171.222 174.497C171.6 174.73 171.889 175.066 172.09 175.505C172.29 175.944 172.391 176.464 172.391 177.066V181H171.313ZM166.553 181V174.308H167.491L167.645 175.848V181H166.553ZM174.33 181V180.118L178.278 175.19H174.33V174.308H179.51V175.19L175.618 180.118H179.51V181H174.33ZM184.068 181.168C183.466 181.168 182.93 181.035 182.458 180.769C181.992 180.503 181.623 180.109 181.352 179.586C181.082 179.063 180.946 178.419 180.946 177.654C180.946 176.884 181.082 176.24 181.352 175.722C181.623 175.199 181.992 174.805 182.458 174.539C182.93 174.273 183.466 174.14 184.068 174.14C184.666 174.14 185.198 174.273 185.664 174.539C186.136 174.805 186.504 175.199 186.77 175.722C187.041 176.24 187.176 176.884 187.176 177.654C187.176 178.419 187.041 179.063 186.77 179.586C186.504 180.109 186.136 180.503 185.664 180.769C185.198 181.035 184.666 181.168 184.068 181.168ZM184.04 180.216C184.474 180.216 184.843 180.113 185.146 179.908C185.45 179.698 185.678 179.402 185.832 179.019C185.991 178.636 186.07 178.181 186.07 177.654C186.07 176.856 185.905 176.228 185.573 175.771C185.242 175.309 184.75 175.078 184.096 175.078C183.658 175.078 183.287 175.183 182.983 175.393C182.685 175.598 182.456 175.895 182.297 176.282C182.143 176.665 182.066 177.122 182.066 177.654C182.066 178.443 182.232 179.068 182.563 179.53C182.899 179.987 183.392 180.216 184.04 180.216ZM195.691 181.168C195.243 181.168 194.837 181.051 194.473 180.818C194.114 180.585 193.827 180.244 193.612 179.796C193.402 179.343 193.297 178.793 193.297 178.144H193.717C193.717 178.578 193.806 178.949 193.983 179.257C194.165 179.56 194.398 179.791 194.683 179.95C194.968 180.109 195.266 180.188 195.579 180.188C195.938 180.188 196.267 180.085 196.566 179.88C196.865 179.675 197.103 179.381 197.28 178.998C197.462 178.615 197.553 178.158 197.553 177.626C197.553 177.103 197.464 176.655 197.287 176.282C197.11 175.904 196.869 175.615 196.566 175.414C196.267 175.209 195.934 175.106 195.565 175.106C195.248 175.106 194.947 175.185 194.662 175.344C194.382 175.498 194.153 175.727 193.976 176.03C193.803 176.333 193.717 176.707 193.717 177.15H193.297C193.297 176.515 193.4 175.974 193.605 175.526C193.815 175.078 194.104 174.735 194.473 174.497C194.842 174.259 195.271 174.14 195.761 174.14C196.288 174.14 196.771 174.282 197.21 174.567C197.653 174.847 198.008 175.248 198.274 175.771C198.54 176.294 198.673 176.912 198.673 177.626C198.673 178.345 198.538 178.97 198.267 179.502C197.996 180.029 197.635 180.44 197.182 180.734C196.729 181.023 196.232 181.168 195.691 181.168ZM192.625 181V171.452H193.717V179.432L193.395 181H192.625ZM203.248 181.168C202.669 181.168 202.151 181.021 201.694 180.727C201.241 180.428 200.882 180.015 200.616 179.488C200.354 178.961 200.224 178.354 200.224 177.668C200.224 176.935 200.354 176.305 200.616 175.778C200.877 175.251 201.234 174.847 201.687 174.567C202.144 174.282 202.664 174.14 203.248 174.14C203.756 174.14 204.19 174.243 204.55 174.448C204.909 174.653 205.198 174.931 205.418 175.281C205.637 175.631 205.789 176.028 205.873 176.471C205.961 176.91 205.987 177.365 205.95 177.836H201.106V177.164H205.229L204.907 177.374C204.921 177.099 204.904 176.823 204.858 176.548C204.816 176.273 204.734 176.021 204.613 175.792C204.491 175.559 204.321 175.372 204.102 175.232C203.882 175.092 203.602 175.022 203.262 175.022C202.832 175.022 202.473 175.132 202.184 175.351C201.894 175.57 201.677 175.86 201.533 176.219C201.388 176.574 201.316 176.959 201.316 177.374V177.822C201.316 178.289 201.386 178.706 201.526 179.075C201.67 179.444 201.885 179.735 202.17 179.95C202.454 180.165 202.814 180.272 203.248 180.272C203.682 180.272 204.039 180.167 204.319 179.957C204.599 179.747 204.769 179.437 204.83 179.026H205.964C205.894 179.469 205.735 179.852 205.488 180.174C205.24 180.491 204.925 180.736 204.543 180.909C204.16 181.082 203.728 181.168 203.248 181.168ZM212.259 181L212.119 179.53V176.66C212.119 176.058 211.991 175.626 211.734 175.365C211.478 175.099 211.093 174.966 210.579 174.966C210.29 174.966 210.026 175.008 209.788 175.092C209.555 175.176 209.368 175.307 209.228 175.484C209.093 175.657 209.025 175.881 209.025 176.156H207.807C207.807 175.671 207.926 175.281 208.164 174.987C208.402 174.688 208.729 174.474 209.144 174.343C209.564 174.208 210.043 174.14 210.579 174.14C211.093 174.14 211.548 174.226 211.944 174.399C212.341 174.572 212.651 174.847 212.875 175.225C213.099 175.598 213.211 176.086 213.211 176.688V181H212.259ZM209.977 181.168C209.427 181.168 208.972 181.07 208.612 180.874C208.253 180.678 207.985 180.424 207.807 180.111C207.63 179.798 207.541 179.469 207.541 179.124C207.541 178.671 207.653 178.303 207.877 178.018C208.106 177.733 208.416 177.526 208.808 177.395C209.2 177.26 209.641 177.192 210.131 177.192C210.481 177.192 210.831 177.227 211.181 177.297C211.536 177.367 211.881 177.463 212.217 177.584V178.27C211.937 178.158 211.62 178.069 211.265 178.004C210.915 177.939 210.593 177.906 210.299 177.906C209.851 177.906 209.473 177.999 209.165 178.186C208.857 178.368 208.703 178.681 208.703 179.124C208.703 179.451 208.82 179.731 209.053 179.964C209.291 180.197 209.669 180.314 210.187 180.314C210.551 180.314 210.878 180.23 211.167 180.062C211.461 179.889 211.692 179.675 211.86 179.418C212.033 179.161 212.119 178.905 212.119 178.648H212.385C212.385 179.096 212.287 179.511 212.091 179.894C211.9 180.277 211.625 180.585 211.265 180.818C210.906 181.051 210.477 181.168 209.977 181.168ZM220.586 181V177.066C220.586 176.427 220.432 175.941 220.124 175.61C219.821 175.274 219.405 175.106 218.878 175.106C218.477 175.106 218.129 175.216 217.835 175.435C217.541 175.654 217.315 175.969 217.156 176.38C216.997 176.786 216.918 177.271 216.918 177.836H216.498C216.498 177.057 216.601 176.392 216.806 175.841C217.011 175.29 217.31 174.87 217.702 174.581C218.099 174.287 218.579 174.14 219.144 174.14C219.671 174.14 220.122 174.259 220.495 174.497C220.873 174.73 221.162 175.066 221.363 175.505C221.564 175.944 221.664 176.464 221.664 177.066V181H220.586ZM215.826 181V174.308H216.764L216.918 175.848V181H215.826ZM226.683 181.168C226.035 181.168 225.493 181.077 225.059 180.895C224.625 180.708 224.296 180.454 224.072 180.132C223.848 179.805 223.729 179.432 223.715 179.012H224.765C224.789 179.437 224.959 179.756 225.276 179.971C225.598 180.181 226.035 180.286 226.585 180.286C226.875 180.286 227.141 180.239 227.383 180.146C227.626 180.053 227.82 179.924 227.964 179.761C228.109 179.598 228.181 179.413 228.181 179.208C228.181 178.947 228.086 178.741 227.894 178.592C227.703 178.443 227.397 178.312 226.977 178.2L225.675 177.78C225.111 177.603 224.677 177.36 224.373 177.052C224.075 176.739 223.925 176.366 223.925 175.932C223.925 175.391 224.163 174.957 224.639 174.63C225.115 174.303 225.741 174.14 226.515 174.14C227.337 174.14 227.974 174.308 228.426 174.644C228.879 174.98 229.115 175.4 229.133 175.904H228.055C228.013 175.61 227.864 175.388 227.607 175.239C227.351 175.085 226.987 175.008 226.515 175.008C226.063 175.008 225.708 175.111 225.451 175.316C225.199 175.517 225.073 175.741 225.073 175.988C225.073 176.45 225.47 176.791 226.263 177.01L227.593 177.458C228.167 177.631 228.606 177.857 228.909 178.137C229.217 178.417 229.371 178.774 229.371 179.208C229.371 179.544 229.262 179.861 229.042 180.16C228.823 180.459 228.513 180.701 228.111 180.888C227.71 181.075 227.234 181.168 226.683 181.168ZM235.569 172.726C235.345 172.726 235.168 172.663 235.037 172.537C234.906 172.406 234.841 172.236 234.841 172.026C234.841 171.821 234.906 171.657 235.037 171.536C235.168 171.415 235.345 171.354 235.569 171.354C235.793 171.354 235.97 171.415 236.101 171.536C236.232 171.657 236.297 171.821 236.297 172.026C236.297 172.236 236.232 172.406 236.101 172.537C235.97 172.663 235.793 172.726 235.569 172.726ZM235.023 181V174.294H236.115V181H235.023ZM243.883 181V177.066C243.883 176.427 243.729 175.941 243.421 175.61C243.118 175.274 242.702 175.106 242.175 175.106C241.774 175.106 241.426 175.216 241.132 175.435C240.838 175.654 240.612 175.969 240.453 176.38C240.294 176.786 240.215 177.271 240.215 177.836H239.795C239.795 177.057 239.898 176.392 240.103 175.841C240.308 175.29 240.607 174.87 240.999 174.581C241.396 174.287 241.876 174.14 242.441 174.14C242.968 174.14 243.419 174.259 243.792 174.497C244.17 174.73 244.459 175.066 244.66 175.505C244.861 175.944 244.961 176.464 244.961 177.066V181H243.883ZM239.123 181V174.308H240.061L240.215 175.848V181H239.123ZM255.038 181L254.898 179.53V176.66C254.898 176.058 254.77 175.626 254.513 175.365C254.257 175.099 253.872 174.966 253.358 174.966C253.069 174.966 252.805 175.008 252.567 175.092C252.334 175.176 252.147 175.307 252.007 175.484C251.872 175.657 251.804 175.881 251.804 176.156H250.586C250.586 175.671 250.705 175.281 250.943 174.987C251.181 174.688 251.508 174.474 251.923 174.343C252.343 174.208 252.822 174.14 253.358 174.14C253.872 174.14 254.327 174.226 254.723 174.399C255.12 174.572 255.43 174.847 255.654 175.225C255.878 175.598 255.99 176.086 255.99 176.688V181H255.038ZM252.756 181.168C252.206 181.168 251.751 181.07 251.391 180.874C251.032 180.678 250.764 180.424 250.586 180.111C250.409 179.798 250.32 179.469 250.32 179.124C250.32 178.671 250.432 178.303 250.656 178.018C250.885 177.733 251.195 177.526 251.587 177.395C251.979 177.26 252.42 177.192 252.91 177.192C253.26 177.192 253.61 177.227 253.96 177.297C254.315 177.367 254.66 177.463 254.996 177.584V178.27C254.716 178.158 254.399 178.069 254.044 178.004C253.694 177.939 253.372 177.906 253.078 177.906C252.63 177.906 252.252 177.999 251.944 178.186C251.636 178.368 251.482 178.681 251.482 179.124C251.482 179.451 251.599 179.731 251.832 179.964C252.07 180.197 252.448 180.314 252.966 180.314C253.33 180.314 253.657 180.23 253.946 180.062C254.24 179.889 254.471 179.675 254.639 179.418C254.812 179.161 254.898 178.905 254.898 178.648H255.164C255.164 179.096 255.066 179.511 254.87 179.894C254.679 180.277 254.404 180.585 254.044 180.818C253.685 181.051 253.256 181.168 252.756 181.168ZM263.365 181V177.066C263.365 176.427 263.211 175.941 262.903 175.61C262.6 175.274 262.185 175.106 261.657 175.106C261.256 175.106 260.908 175.216 260.614 175.435C260.32 175.654 260.094 175.969 259.935 176.38C259.777 176.786 259.697 177.271 259.697 177.836H259.277C259.277 177.057 259.38 176.392 259.585 175.841C259.791 175.29 260.089 174.87 260.481 174.581C260.878 174.287 261.359 174.14 261.923 174.14C262.451 174.14 262.901 174.259 263.274 174.497C263.652 174.73 263.942 175.066 264.142 175.505C264.343 175.944 264.443 176.464 264.443 177.066V181H263.365ZM258.605 181V174.308H259.543L259.697 175.848V181H258.605ZM270.363 181V172.208H275.781V173.146H271.455V176.1H275.529V177.038H271.455V180.048H275.781V181H270.363ZM280.296 181.168C279.932 181.168 279.606 181.098 279.316 180.958C279.027 180.818 278.798 180.608 278.63 180.328C278.462 180.048 278.378 179.698 278.378 179.278V172.446H279.456V179.25C279.456 179.941 279.778 180.286 280.422 180.286C280.614 180.286 280.798 180.265 280.975 180.223C281.157 180.181 281.36 180.118 281.584 180.034L281.738 180.818C281.5 180.921 281.262 181.005 281.024 181.07C280.791 181.135 280.548 181.168 280.296 181.168ZM277.3 175.064V174.308H281.57V175.064H277.3ZM288.262 181V177.066C288.262 176.427 288.108 175.941 287.8 175.61C287.497 175.274 287.081 175.106 286.554 175.106C286.153 175.106 285.805 175.216 285.511 175.435C285.217 175.654 284.991 175.969 284.832 176.38C284.673 176.786 284.594 177.271 284.594 177.836H284.174C284.174 177.057 284.277 176.392 284.482 175.841C284.687 175.29 284.986 174.87 285.378 174.581C285.775 174.287 286.255 174.14 286.82 174.14C287.347 174.14 287.798 174.259 288.171 174.497C288.549 174.73 288.838 175.066 289.039 175.505C289.24 175.944 289.34 176.464 289.34 177.066V181H288.262ZM283.502 181V171.452H284.594V181H283.502ZM292.567 172.726C292.343 172.726 292.166 172.663 292.035 172.537C291.904 172.406 291.839 172.236 291.839 172.026C291.839 171.821 291.904 171.657 292.035 171.536C292.166 171.415 292.343 171.354 292.567 171.354C292.791 171.354 292.968 171.415 293.099 171.536C293.23 171.657 293.295 171.821 293.295 172.026C293.295 172.236 293.23 172.406 293.099 172.537C292.968 172.663 292.791 172.726 292.567 172.726ZM292.021 181V174.294H293.113V181H292.021ZM298.543 181.168C297.941 181.168 297.404 181.035 296.933 180.769C296.466 180.503 296.098 180.109 295.827 179.586C295.556 179.063 295.421 178.419 295.421 177.654C295.421 176.884 295.556 176.24 295.827 175.722C296.098 175.199 296.466 174.805 296.933 174.539C297.404 174.273 297.941 174.14 298.543 174.14C299.14 174.14 299.672 174.273 300.139 174.539C300.61 174.805 300.979 175.199 301.245 175.722C301.516 176.24 301.651 176.884 301.651 177.654C301.651 178.419 301.516 179.063 301.245 179.586C300.979 180.109 300.61 180.503 300.139 180.769C299.672 181.035 299.14 181.168 298.543 181.168ZM298.515 180.216C298.949 180.216 299.318 180.113 299.621 179.908C299.924 179.698 300.153 179.402 300.307 179.019C300.466 178.636 300.545 178.181 300.545 177.654C300.545 176.856 300.379 176.228 300.048 175.771C299.717 175.309 299.224 175.078 298.571 175.078C298.132 175.078 297.761 175.183 297.458 175.393C297.159 175.598 296.931 175.895 296.772 176.282C296.618 176.665 296.541 177.122 296.541 177.654C296.541 178.443 296.707 179.068 297.038 179.53C297.374 179.987 297.866 180.216 298.515 180.216ZM306.815 181.168C306.325 181.168 305.898 181.056 305.534 180.832C305.175 180.608 304.897 180.281 304.701 179.852C304.505 179.418 304.407 178.891 304.407 178.27H304.869C304.869 178.685 304.956 179.035 305.128 179.32C305.301 179.605 305.525 179.822 305.8 179.971C306.08 180.116 306.377 180.188 306.689 180.188C307.025 180.188 307.347 180.092 307.655 179.901C307.963 179.705 308.215 179.418 308.411 179.04C308.607 178.662 308.705 178.195 308.705 177.64C308.705 177.108 308.614 176.653 308.432 176.275C308.255 175.897 308.015 175.608 307.711 175.407C307.408 175.206 307.072 175.106 306.703 175.106C306.386 175.106 306.087 175.183 305.807 175.337C305.527 175.491 305.301 175.717 305.128 176.016C304.956 176.31 304.869 176.674 304.869 177.108H304.407C304.407 176.459 304.515 175.916 304.729 175.477C304.944 175.034 305.236 174.7 305.604 174.476C305.973 174.252 306.386 174.14 306.843 174.14C307.366 174.14 307.854 174.28 308.306 174.56C308.759 174.84 309.125 175.241 309.405 175.764C309.685 176.287 309.825 176.912 309.825 177.64C309.825 178.377 309.683 179.01 309.398 179.537C309.118 180.064 308.75 180.468 308.292 180.748C307.835 181.028 307.343 181.168 306.815 181.168ZM303.777 184.29V174.308H304.687L304.869 175.876V184.29H303.777ZM312.583 172.726C312.359 172.726 312.181 172.663 312.051 172.537C311.92 172.406 311.855 172.236 311.855 172.026C311.855 171.821 311.92 171.657 312.051 171.536C312.181 171.415 312.359 171.354 312.583 171.354C312.807 171.354 312.984 171.415 313.115 171.536C313.245 171.657 313.311 171.821 313.311 172.026C313.311 172.236 313.245 172.406 313.115 172.537C312.984 172.663 312.807 172.726 312.583 172.726ZM312.037 181V174.294H313.129V181H312.037ZM320.281 181L320.141 179.53V176.66C320.141 176.058 320.012 175.626 319.756 175.365C319.499 175.099 319.114 174.966 318.601 174.966C318.311 174.966 318.048 175.008 317.81 175.092C317.576 175.176 317.39 175.307 317.25 175.484C317.114 175.657 317.047 175.881 317.047 176.156H315.829C315.829 175.671 315.948 175.281 316.186 174.987C316.424 174.688 316.75 174.474 317.166 174.343C317.586 174.208 318.064 174.14 318.601 174.14C319.114 174.14 319.569 174.226 319.966 174.399C320.362 174.572 320.673 174.847 320.897 175.225C321.121 175.598 321.233 176.086 321.233 176.688V181H320.281ZM317.999 181.168C317.448 181.168 316.993 181.07 316.634 180.874C316.274 180.678 316.006 180.424 315.829 180.111C315.651 179.798 315.563 179.469 315.563 179.124C315.563 178.671 315.675 178.303 315.899 178.018C316.127 177.733 316.438 177.526 316.83 177.395C317.222 177.26 317.663 177.192 318.153 177.192C318.503 177.192 318.853 177.227 319.203 177.297C319.557 177.367 319.903 177.463 320.239 177.584V178.27C319.959 178.158 319.641 178.069 319.287 178.004C318.937 177.939 318.615 177.906 318.321 177.906C317.873 177.906 317.495 177.999 317.187 178.186C316.879 178.368 316.725 178.681 316.725 179.124C316.725 179.451 316.841 179.731 317.075 179.964C317.313 180.197 317.691 180.314 318.209 180.314C318.573 180.314 318.899 180.23 319.189 180.062C319.483 179.889 319.714 179.675 319.882 179.418C320.054 179.161 320.141 178.905 320.141 178.648H320.407C320.407 179.096 320.309 179.511 320.113 179.894C319.921 180.277 319.646 180.585 319.287 180.818C318.927 181.051 318.498 181.168 317.999 181.168ZM328.608 181V177.066C328.608 176.427 328.454 175.941 328.146 175.61C327.842 175.274 327.427 175.106 326.9 175.106C326.498 175.106 326.151 175.216 325.857 175.435C325.563 175.654 325.336 175.969 325.178 176.38C325.019 176.786 324.94 177.271 324.94 177.836H324.52C324.52 177.057 324.622 176.392 324.828 175.841C325.033 175.29 325.332 174.87 325.724 174.581C326.12 174.287 326.601 174.14 327.166 174.14C327.693 174.14 328.143 174.259 328.517 174.497C328.895 174.73 329.184 175.066 329.385 175.505C329.585 175.944 329.686 176.464 329.686 177.066V181H328.608ZM323.848 181V174.308H324.786L324.94 175.848V181H323.848ZM72.6024 197.168C72.1124 197.168 71.6854 197.056 71.3214 196.832C70.9621 196.608 70.6844 196.281 70.4884 195.852C70.2924 195.418 70.1944 194.891 70.1944 194.27H70.6564C70.6564 194.685 70.7427 195.035 70.9154 195.32C71.0881 195.605 71.3121 195.822 71.5874 195.971C71.8674 196.116 72.1637 196.188 72.4764 196.188C72.8124 196.188 73.1344 196.092 73.4424 195.901C73.7504 195.705 74.0024 195.418 74.1984 195.04C74.3944 194.662 74.4924 194.195 74.4924 193.64C74.4924 193.108 74.4014 192.653 74.2194 192.275C74.0421 191.897 73.8017 191.608 73.4984 191.407C73.1951 191.206 72.8591 191.106 72.4904 191.106C72.1731 191.106 71.8744 191.183 71.5944 191.337C71.3144 191.491 71.0881 191.717 70.9154 192.016C70.7427 192.31 70.6564 192.674 70.6564 193.108H70.1944C70.1944 192.459 70.3017 191.916 70.5164 191.477C70.7311 191.034 71.0227 190.7 71.3914 190.476C71.7601 190.252 72.1731 190.14 72.6304 190.14C73.1531 190.14 73.6407 190.28 74.0934 190.56C74.5461 190.84 74.9124 191.241 75.1924 191.764C75.4724 192.287 75.6124 192.912 75.6124 193.64C75.6124 194.377 75.4701 195.01 75.1854 195.537C74.9054 196.064 74.5367 196.468 74.0794 196.748C73.6221 197.028 73.1297 197.168 72.6024 197.168ZM69.5644 200.29V190.308H70.4744L70.6564 191.876V200.29H69.5644ZM80.1758 197.168C79.5738 197.168 79.0372 197.035 78.5658 196.769C78.0992 196.503 77.7305 196.109 77.4598 195.586C77.1892 195.063 77.0538 194.419 77.0538 193.654C77.0538 192.884 77.1892 192.24 77.4598 191.722C77.7305 191.199 78.0992 190.805 78.5658 190.539C79.0372 190.273 79.5738 190.14 80.1758 190.14C80.7732 190.14 81.3052 190.273 81.7718 190.539C82.2432 190.805 82.6118 191.199 82.8778 191.722C83.1485 192.24 83.2838 192.884 83.2838 193.654C83.2838 194.419 83.1485 195.063 82.8778 195.586C82.6118 196.109 82.2432 196.503 81.7718 196.769C81.3052 197.035 80.7732 197.168 80.1758 197.168ZM80.1478 196.216C80.5818 196.216 80.9505 196.113 81.2538 195.908C81.5572 195.698 81.7858 195.402 81.9398 195.019C82.0985 194.636 82.1778 194.181 82.1778 193.654C82.1778 192.856 82.0122 192.228 81.6808 191.771C81.3495 191.309 80.8572 191.078 80.2038 191.078C79.7652 191.078 79.3942 191.183 79.0908 191.393C78.7922 191.598 78.5635 191.895 78.4048 192.282C78.2508 192.665 78.1738 193.122 78.1738 193.654C78.1738 194.443 78.3395 195.068 78.6708 195.53C79.0068 195.987 79.4992 196.216 80.1478 196.216ZM87.4681 197.168C87.1041 197.168 86.7774 197.098 86.4881 196.958C86.1988 196.818 85.9701 196.608 85.8021 196.328C85.6341 196.048 85.5501 195.698 85.5501 195.278V188.446H86.6281V195.25C86.6281 195.941 86.9501 196.286 87.5941 196.286C87.7854 196.286 87.9698 196.265 88.1471 196.223C88.3291 196.181 88.5321 196.118 88.7561 196.034L88.9101 196.818C88.6721 196.921 88.4341 197.005 88.1961 197.07C87.9628 197.135 87.7201 197.168 87.4681 197.168ZM84.4721 191.064V190.308H88.7421V191.064H84.4721ZM89.6798 196.349C89.6798 196.13 89.7568 195.941 89.9108 195.782C90.0648 195.623 90.2584 195.544 90.4918 195.544C90.7251 195.544 90.9234 195.623 91.0868 195.782C91.2501 195.941 91.3318 196.13 91.3318 196.349C91.3318 196.568 91.2501 196.753 91.0868 196.902C90.9234 197.051 90.7251 197.126 90.4918 197.126C90.2584 197.126 90.0648 197.051 89.9108 196.902C89.7568 196.748 89.6798 196.564 89.6798 196.349ZM99.55 197.168C98.7753 197.168 98.108 196.974 97.548 196.587C96.988 196.195 96.5563 195.654 96.253 194.963C95.9497 194.268 95.798 193.463 95.798 192.548C95.798 191.573 95.9613 190.751 96.288 190.084C96.6193 189.417 97.0673 188.913 97.632 188.572C98.2013 188.227 98.8407 188.054 99.55 188.054C100.488 188.054 101.242 188.29 101.811 188.761C102.385 189.228 102.779 189.837 102.994 190.588L101.818 190.826C101.636 190.28 101.344 189.846 100.943 189.524C100.546 189.197 100.082 189.034 99.55 189.034C99.088 189.034 98.661 189.167 98.269 189.433C97.8817 189.694 97.569 190.086 97.331 190.609C97.093 191.132 96.974 191.778 96.974 192.548C96.974 193.248 97.0673 193.871 97.254 194.417C97.4453 194.963 97.73 195.392 98.108 195.705C98.4907 196.018 98.9713 196.174 99.55 196.174C100.245 196.174 100.796 195.987 101.202 195.614C101.613 195.241 101.818 194.751 101.818 194.144H103.008C103.008 194.774 102.863 195.315 102.574 195.768C102.285 196.216 101.879 196.561 101.356 196.804C100.838 197.047 100.236 197.168 99.55 197.168ZM107.506 197.168C106.904 197.168 106.367 197.035 105.896 196.769C105.429 196.503 105.061 196.109 104.79 195.586C104.519 195.063 104.384 194.419 104.384 193.654C104.384 192.884 104.519 192.24 104.79 191.722C105.061 191.199 105.429 190.805 105.896 190.539C106.367 190.273 106.904 190.14 107.506 190.14C108.103 190.14 108.635 190.273 109.102 190.539C109.573 190.805 109.942 191.199 110.208 191.722C110.479 192.24 110.614 192.884 110.614 193.654C110.614 194.419 110.479 195.063 110.208 195.586C109.942 196.109 109.573 196.503 109.102 196.769C108.635 197.035 108.103 197.168 107.506 197.168ZM107.478 196.216C107.912 196.216 108.281 196.113 108.584 195.908C108.887 195.698 109.116 195.402 109.27 195.019C109.429 194.636 109.508 194.181 109.508 193.654C109.508 192.856 109.342 192.228 109.011 191.771C108.68 191.309 108.187 191.078 107.534 191.078C107.095 191.078 106.724 191.183 106.421 191.393C106.122 191.598 105.894 191.895 105.735 192.282C105.581 192.665 105.504 193.122 105.504 193.654C105.504 194.443 105.67 195.068 106.001 195.53C106.337 195.987 106.829 196.216 107.478 196.216ZM122.148 197V193.066C122.148 192.427 121.994 191.941 121.686 191.61C121.383 191.274 120.972 191.106 120.454 191.106C119.848 191.106 119.383 191.342 119.061 191.813C118.739 192.28 118.578 192.926 118.578 193.752H118.074C118.074 193.15 118.133 192.623 118.249 192.17C118.371 191.717 118.546 191.342 118.774 191.043C119.003 190.74 119.281 190.513 119.607 190.364C119.934 190.215 120.305 190.14 120.72 190.14C121.248 190.14 121.698 190.259 122.071 190.497C122.449 190.73 122.739 191.066 122.939 191.505C123.14 191.944 123.24 192.464 123.24 193.066V197H122.148ZM112.74 197V190.308H113.678L113.804 191.652C114.014 191.167 114.308 190.793 114.686 190.532C115.069 190.271 115.526 190.14 116.058 190.14C116.586 190.14 117.036 190.259 117.409 190.497C117.787 190.73 118.077 191.066 118.277 191.505C118.478 191.944 118.578 192.464 118.578 193.066V197H117.5V193.066C117.5 192.427 117.346 191.941 117.038 191.61C116.735 191.274 116.32 191.106 115.792 191.106C115.391 191.106 115.043 191.216 114.749 191.435C114.455 191.654 114.229 191.969 114.07 192.38C113.912 192.786 113.832 193.271 113.832 193.836V197H112.74ZM128.162 197.168C127.583 197.168 127.065 197.021 126.608 196.727C126.155 196.428 125.796 196.015 125.53 195.488C125.268 194.961 125.138 194.354 125.138 193.668C125.138 192.935 125.268 192.305 125.53 191.778C125.791 191.251 126.148 190.847 126.601 190.567C127.058 190.282 127.578 190.14 128.162 190.14C128.67 190.14 129.104 190.243 129.464 190.448C129.823 190.653 130.112 190.931 130.332 191.281C130.551 191.631 130.703 192.028 130.787 192.471C130.875 192.91 130.901 193.365 130.864 193.836H126.02V193.164H130.143L129.821 193.374C129.835 193.099 129.818 192.823 129.772 192.548C129.73 192.273 129.648 192.021 129.527 191.792C129.405 191.559 129.235 191.372 129.016 191.232C128.796 191.092 128.516 191.022 128.176 191.022C127.746 191.022 127.387 191.132 127.098 191.351C126.808 191.57 126.591 191.86 126.447 192.219C126.302 192.574 126.23 192.959 126.23 193.374V193.822C126.23 194.289 126.3 194.706 126.44 195.075C126.584 195.444 126.799 195.735 127.084 195.95C127.368 196.165 127.728 196.272 128.162 196.272C128.596 196.272 128.953 196.167 129.233 195.957C129.513 195.747 129.683 195.437 129.744 195.026H130.878C130.808 195.469 130.649 195.852 130.402 196.174C130.154 196.491 129.839 196.736 129.457 196.909C129.074 197.082 128.642 197.168 128.162 197.168ZM135.437 197.168C134.789 197.168 134.247 197.077 133.813 196.895C133.379 196.708 133.05 196.454 132.826 196.132C132.602 195.805 132.483 195.432 132.469 195.012H133.519C133.543 195.437 133.713 195.756 134.03 195.971C134.352 196.181 134.789 196.286 135.339 196.286C135.629 196.286 135.895 196.239 136.137 196.146C136.38 196.053 136.574 195.924 136.718 195.761C136.863 195.598 136.935 195.413 136.935 195.208C136.935 194.947 136.84 194.741 136.648 194.592C136.457 194.443 136.151 194.312 135.731 194.2L134.429 193.78C133.865 193.603 133.431 193.36 133.127 193.052C132.829 192.739 132.679 192.366 132.679 191.932C132.679 191.391 132.917 190.957 133.393 190.63C133.869 190.303 134.495 190.14 135.269 190.14C136.091 190.14 136.728 190.308 137.18 190.644C137.633 190.98 137.869 191.4 137.887 191.904H136.809C136.767 191.61 136.618 191.388 136.361 191.239C136.105 191.085 135.741 191.008 135.269 191.008C134.817 191.008 134.462 191.111 134.205 191.316C133.953 191.517 133.827 191.741 133.827 191.988C133.827 192.45 134.224 192.791 135.017 193.01L136.347 193.458C136.921 193.631 137.36 193.857 137.663 194.137C137.971 194.417 138.125 194.774 138.125 195.208C138.125 195.544 138.016 195.861 137.796 196.16C137.577 196.459 137.267 196.701 136.865 196.888C136.464 197.075 135.988 197.168 135.437 197.168ZM142.545 190.308H143.679L145.387 195.894H145.247L146.913 190.63H147.823L149.475 195.908H149.349L151.057 190.308H152.149L149.951 197H148.887L147.263 192.058H147.431L145.821 197H144.757L142.545 190.308ZM154.468 188.726C154.244 188.726 154.066 188.663 153.936 188.537C153.805 188.406 153.74 188.236 153.74 188.026C153.74 187.821 153.805 187.657 153.936 187.536C154.066 187.415 154.244 187.354 154.468 187.354C154.692 187.354 154.869 187.415 155 187.536C155.13 187.657 155.196 187.821 155.196 188.026C155.196 188.236 155.13 188.406 155 188.537C154.869 188.663 154.692 188.726 154.468 188.726ZM153.922 197V190.294H155.014V197H153.922ZM160.079 197.168C159.715 197.168 159.389 197.098 159.099 196.958C158.81 196.818 158.581 196.608 158.413 196.328C158.245 196.048 158.161 195.698 158.161 195.278V188.446H159.239V195.25C159.239 195.941 159.561 196.286 160.205 196.286C160.397 196.286 160.581 196.265 160.758 196.223C160.94 196.181 161.143 196.118 161.367 196.034L161.521 196.818C161.283 196.921 161.045 197.005 160.807 197.07C160.574 197.135 160.331 197.168 160.079 197.168ZM157.083 191.064V190.308H161.353V191.064H157.083ZM168.045 197V193.066C168.045 192.427 167.891 191.941 167.583 191.61C167.28 191.274 166.864 191.106 166.337 191.106C165.936 191.106 165.588 191.216 165.294 191.435C165 191.654 164.774 191.969 164.615 192.38C164.456 192.786 164.377 193.271 164.377 193.836H163.957C163.957 193.057 164.06 192.392 164.265 191.841C164.47 191.29 164.769 190.87 165.161 190.581C165.558 190.287 166.038 190.14 166.603 190.14C167.13 190.14 167.581 190.259 167.954 190.497C168.332 190.73 168.621 191.066 168.822 191.505C169.023 191.944 169.123 192.464 169.123 193.066V197H168.045ZM163.285 197V187.452H164.377V197H163.285ZM179.201 197L179.061 195.53V192.66C179.061 192.058 178.932 191.626 178.676 191.365C178.419 191.099 178.034 190.966 177.521 190.966C177.231 190.966 176.968 191.008 176.73 191.092C176.496 191.176 176.31 191.307 176.17 191.484C176.034 191.657 175.967 191.881 175.967 192.156H174.749C174.749 191.671 174.868 191.281 175.106 190.987C175.344 190.688 175.67 190.474 176.086 190.343C176.506 190.208 176.984 190.14 177.521 190.14C178.034 190.14 178.489 190.226 178.886 190.399C179.282 190.572 179.593 190.847 179.817 191.225C180.041 191.598 180.153 192.086 180.153 192.688V197H179.201ZM176.919 197.168C176.368 197.168 175.913 197.07 175.554 196.874C175.194 196.678 174.926 196.424 174.749 196.111C174.571 195.798 174.483 195.469 174.483 195.124C174.483 194.671 174.595 194.303 174.819 194.018C175.047 193.733 175.358 193.526 175.75 193.395C176.142 193.26 176.583 193.192 177.073 193.192C177.423 193.192 177.773 193.227 178.123 193.297C178.477 193.367 178.823 193.463 179.159 193.584V194.27C178.879 194.158 178.561 194.069 178.207 194.004C177.857 193.939 177.535 193.906 177.241 193.906C176.793 193.906 176.415 193.999 176.107 194.186C175.799 194.368 175.645 194.681 175.645 195.124C175.645 195.451 175.761 195.731 175.995 195.964C176.233 196.197 176.611 196.314 177.129 196.314C177.493 196.314 177.819 196.23 178.109 196.062C178.403 195.889 178.634 195.675 178.802 195.418C178.974 195.161 179.061 194.905 179.061 194.648H179.327C179.327 195.096 179.229 195.511 179.033 195.894C178.841 196.277 178.566 196.585 178.207 196.818C177.847 197.051 177.418 197.168 176.919 197.168ZM188.498 197.168C187.849 197.168 187.308 197.077 186.874 196.895C186.44 196.708 186.111 196.454 185.887 196.132C185.663 195.805 185.544 195.432 185.53 195.012H186.58C186.603 195.437 186.773 195.756 187.091 195.971C187.413 196.181 187.849 196.286 188.4 196.286C188.689 196.286 188.955 196.239 189.198 196.146C189.44 196.053 189.634 195.924 189.779 195.761C189.923 195.598 189.996 195.413 189.996 195.208C189.996 194.947 189.9 194.741 189.709 194.592C189.517 194.443 189.212 194.312 188.792 194.2L187.49 193.78C186.925 193.603 186.491 193.36 186.188 193.052C185.889 192.739 185.74 192.366 185.74 191.932C185.74 191.391 185.978 190.957 186.454 190.63C186.93 190.303 187.555 190.14 188.33 190.14C189.151 190.14 189.788 190.308 190.241 190.644C190.693 190.98 190.929 191.4 190.948 191.904H189.87C189.828 191.61 189.678 191.388 189.422 191.239C189.165 191.085 188.801 191.008 188.33 191.008C187.877 191.008 187.522 191.111 187.266 191.316C187.014 191.517 186.888 191.741 186.888 191.988C186.888 192.45 187.284 192.791 188.078 193.01L189.408 193.458C189.982 193.631 190.42 193.857 190.724 194.137C191.032 194.417 191.186 194.774 191.186 195.208C191.186 195.544 191.076 195.861 190.857 196.16C190.637 196.459 190.327 196.701 189.926 196.888C189.524 197.075 189.048 197.168 188.498 197.168ZM194.061 188.726C193.837 188.726 193.66 188.663 193.529 188.537C193.399 188.406 193.333 188.236 193.333 188.026C193.333 187.821 193.399 187.657 193.529 187.536C193.66 187.415 193.837 187.354 194.061 187.354C194.285 187.354 194.463 187.415 194.593 187.536C194.724 187.657 194.789 187.821 194.789 188.026C194.789 188.236 194.724 188.406 194.593 188.537C194.463 188.663 194.285 188.726 194.061 188.726ZM193.515 197V190.294H194.607V197H193.515ZM200.009 197.168C199.468 197.168 198.971 197.023 198.518 196.734C198.066 196.44 197.704 196.029 197.433 195.502C197.163 194.97 197.027 194.345 197.027 193.626C197.027 192.912 197.16 192.294 197.426 191.771C197.692 191.248 198.045 190.847 198.483 190.567C198.927 190.282 199.412 190.14 199.939 190.14C200.429 190.14 200.859 190.259 201.227 190.497C201.601 190.735 201.89 191.078 202.095 191.526C202.301 191.974 202.403 192.515 202.403 193.15H201.983C201.983 192.707 201.895 192.333 201.717 192.03C201.545 191.727 201.318 191.498 201.038 191.344C200.758 191.185 200.457 191.106 200.135 191.106C199.771 191.106 199.438 191.209 199.134 191.414C198.836 191.615 198.595 191.904 198.413 192.282C198.236 192.655 198.147 193.103 198.147 193.626C198.147 194.158 198.236 194.615 198.413 194.998C198.595 195.381 198.836 195.675 199.134 195.88C199.438 196.085 199.771 196.188 200.135 196.188C200.439 196.188 200.73 196.109 201.01 195.95C201.295 195.791 201.528 195.56 201.71 195.257C201.892 194.949 201.983 194.578 201.983 194.144H202.403C202.403 194.793 202.296 195.343 202.081 195.796C201.871 196.244 201.584 196.585 201.22 196.818C200.861 197.051 200.457 197.168 200.009 197.168ZM202.165 197L201.983 195.432V187.452H203.075V197H202.165ZM208.238 197.168C207.659 197.168 207.141 197.021 206.684 196.727C206.231 196.428 205.872 196.015 205.606 195.488C205.345 194.961 205.214 194.354 205.214 193.668C205.214 192.935 205.345 192.305 205.606 191.778C205.867 191.251 206.224 190.847 206.677 190.567C207.134 190.282 207.655 190.14 208.238 190.14C208.747 190.14 209.181 190.243 209.54 190.448C209.899 190.653 210.189 190.931 210.408 191.281C210.627 191.631 210.779 192.028 210.863 192.471C210.952 192.91 210.977 193.365 210.94 193.836H206.096V193.164H210.219L209.897 193.374C209.911 193.099 209.895 192.823 209.848 192.548C209.806 192.273 209.724 192.021 209.603 191.792C209.482 191.559 209.311 191.372 209.092 191.232C208.873 191.092 208.593 191.022 208.252 191.022C207.823 191.022 207.463 191.132 207.174 191.351C206.885 191.57 206.668 191.86 206.523 192.219C206.378 192.574 206.306 192.959 206.306 193.374V193.822C206.306 194.289 206.376 194.706 206.516 195.075C206.661 195.444 206.875 195.735 207.16 195.95C207.445 196.165 207.804 196.272 208.238 196.272C208.672 196.272 209.029 196.167 209.309 195.957C209.589 195.747 209.759 195.437 209.82 195.026H210.954C210.884 195.469 210.725 195.852 210.478 196.174C210.231 196.491 209.916 196.736 209.533 196.909C209.15 197.082 208.719 197.168 208.238 197.168ZM218.85 197.168C218.248 197.168 217.711 197.035 217.24 196.769C216.773 196.503 216.404 196.109 216.134 195.586C215.863 195.063 215.728 194.419 215.728 193.654C215.728 192.884 215.863 192.24 216.134 191.722C216.404 191.199 216.773 190.805 217.24 190.539C217.711 190.273 218.248 190.14 218.85 190.14C219.447 190.14 219.979 190.273 220.446 190.539C220.917 190.805 221.286 191.199 221.552 191.722C221.822 192.24 221.958 192.884 221.958 193.654C221.958 194.419 221.822 195.063 221.552 195.586C221.286 196.109 220.917 196.503 220.446 196.769C219.979 197.035 219.447 197.168 218.85 197.168ZM218.822 196.216C219.256 196.216 219.624 196.113 219.928 195.908C220.231 195.698 220.46 195.402 220.614 195.019C220.772 194.636 220.852 194.181 220.852 193.654C220.852 192.856 220.686 192.228 220.355 191.771C220.023 191.309 219.531 191.078 218.878 191.078C218.439 191.078 218.068 191.183 217.765 191.393C217.466 191.598 217.237 191.895 217.079 192.282C216.925 192.665 216.848 193.122 216.848 193.654C216.848 194.443 217.013 195.068 217.345 195.53C217.681 195.987 218.173 196.216 218.822 196.216ZM224.448 197V189.272C224.448 188.829 224.532 188.467 224.7 188.187C224.873 187.902 225.101 187.692 225.386 187.557C225.675 187.422 225.997 187.354 226.352 187.354C226.543 187.354 226.737 187.368 226.933 187.396C227.134 187.424 227.332 187.466 227.528 187.522L227.318 188.39C227.178 188.334 227.038 188.292 226.898 188.264C226.763 188.236 226.632 188.222 226.506 188.222C226.357 188.222 226.207 188.25 226.058 188.306C225.909 188.362 225.785 188.467 225.687 188.621C225.589 188.775 225.54 188.997 225.54 189.286V197H224.448ZM223.356 191.064V190.308H226.926V191.064H223.356ZM232.205 197V190.294H233.297V197H232.205ZM232.961 193.976C232.961 193.127 233.043 192.422 233.206 191.862C233.369 191.297 233.607 190.877 233.92 190.602C234.237 190.322 234.622 190.182 235.075 190.182C235.224 190.182 235.36 190.194 235.481 190.217C235.607 190.236 235.733 190.266 235.859 190.308L235.789 191.386C235.658 191.344 235.516 191.309 235.362 191.281C235.208 191.248 235.07 191.232 234.949 191.232C234.552 191.232 234.233 191.346 233.99 191.575C233.747 191.799 233.57 192.116 233.458 192.527C233.351 192.938 233.297 193.421 233.297 193.976H232.961ZM237.88 188.726C237.656 188.726 237.478 188.663 237.348 188.537C237.217 188.406 237.152 188.236 237.152 188.026C237.152 187.821 237.217 187.657 237.348 187.536C237.478 187.415 237.656 187.354 237.88 187.354C238.104 187.354 238.281 187.415 238.412 187.536C238.542 187.657 238.608 187.821 238.608 188.026C238.608 188.236 238.542 188.406 238.412 188.537C238.281 188.663 238.104 188.726 237.88 188.726ZM237.334 197V190.294H238.426V197H237.334ZM243.786 197.168C243.249 197.168 242.747 197.023 242.281 196.734C241.819 196.445 241.445 196.036 241.161 195.509C240.876 194.982 240.734 194.359 240.734 193.64C240.734 192.903 240.876 192.273 241.161 191.75C241.445 191.227 241.819 190.828 242.281 190.553C242.747 190.278 243.249 190.14 243.786 190.14C244.164 190.14 244.502 190.198 244.801 190.315C245.104 190.427 245.368 190.583 245.592 190.784C245.816 190.985 246 191.213 246.145 191.47C246.294 191.722 246.404 191.988 246.474 192.268L245.354 192.366C245.237 191.979 245.041 191.673 244.766 191.449C244.495 191.22 244.164 191.106 243.772 191.106C243.44 191.106 243.128 191.202 242.834 191.393C242.544 191.58 242.309 191.862 242.127 192.24C241.945 192.613 241.854 193.08 241.854 193.64C241.854 194.158 241.935 194.608 242.099 194.991C242.267 195.369 242.495 195.663 242.785 195.873C243.074 196.083 243.403 196.188 243.772 196.188C244.29 196.188 244.682 196.062 244.948 195.81C245.218 195.553 245.354 195.199 245.354 194.746H246.474C246.474 195.213 246.364 195.628 246.145 195.992C245.925 196.356 245.613 196.643 245.207 196.853C244.805 197.063 244.332 197.168 243.786 197.168ZM250.976 197.168C250.398 197.168 249.88 197.021 249.422 196.727C248.97 196.428 248.61 196.015 248.344 195.488C248.083 194.961 247.952 194.354 247.952 193.668C247.952 192.935 248.083 192.305 248.344 191.778C248.606 191.251 248.963 190.847 249.415 190.567C249.873 190.282 250.393 190.14 250.976 190.14C251.485 190.14 251.919 190.243 252.278 190.448C252.638 190.653 252.927 190.931 253.146 191.281C253.366 191.631 253.517 192.028 253.601 192.471C253.69 192.91 253.716 193.365 253.678 193.836H248.834V193.164H252.957L252.635 193.374C252.649 193.099 252.633 192.823 252.586 192.548C252.544 192.273 252.463 192.021 252.341 191.792C252.22 191.559 252.05 191.372 251.83 191.232C251.611 191.092 251.331 191.022 250.99 191.022C250.561 191.022 250.202 191.132 249.912 191.351C249.623 191.57 249.406 191.86 249.261 192.219C249.117 192.574 249.044 192.959 249.044 193.374V193.822C249.044 194.289 249.114 194.706 249.254 195.075C249.399 195.444 249.614 195.735 249.898 195.95C250.183 196.165 250.542 196.272 250.976 196.272C251.41 196.272 251.767 196.167 252.047 195.957C252.327 195.747 252.498 195.437 252.558 195.026H253.692C253.622 195.469 253.464 195.852 253.216 196.174C252.969 196.491 252.654 196.736 252.271 196.909C251.889 197.082 251.457 197.168 250.976 197.168ZM261.588 197.168C260.986 197.168 260.449 197.035 259.978 196.769C259.511 196.503 259.143 196.109 258.872 195.586C258.601 195.063 258.466 194.419 258.466 193.654C258.466 192.884 258.601 192.24 258.872 191.722C259.143 191.199 259.511 190.805 259.978 190.539C260.449 190.273 260.986 190.14 261.588 190.14C262.185 190.14 262.717 190.273 263.184 190.539C263.655 190.805 264.024 191.199 264.29 191.722C264.561 192.24 264.696 192.884 264.696 193.654C264.696 194.419 264.561 195.063 264.29 195.586C264.024 196.109 263.655 196.503 263.184 196.769C262.717 197.035 262.185 197.168 261.588 197.168ZM261.56 196.216C261.994 196.216 262.363 196.113 262.666 195.908C262.969 195.698 263.198 195.402 263.352 195.019C263.511 194.636 263.59 194.181 263.59 193.654C263.59 192.856 263.424 192.228 263.093 191.771C262.762 191.309 262.269 191.078 261.616 191.078C261.177 191.078 260.806 191.183 260.503 191.393C260.204 191.598 259.976 191.895 259.817 192.282C259.663 192.665 259.586 193.122 259.586 193.654C259.586 194.443 259.752 195.068 260.083 195.53C260.419 195.987 260.911 196.216 261.56 196.216ZM266.822 197V190.294H267.914V197H266.822ZM267.578 193.976C267.578 193.127 267.66 192.422 267.823 191.862C267.987 191.297 268.225 190.877 268.537 190.602C268.855 190.322 269.24 190.182 269.692 190.182C269.842 190.182 269.977 190.194 270.098 190.217C270.224 190.236 270.35 190.266 270.476 190.308L270.406 191.386C270.276 191.344 270.133 191.309 269.979 191.281C269.825 191.248 269.688 191.232 269.566 191.232C269.17 191.232 268.85 191.346 268.607 191.575C268.365 191.799 268.187 192.116 268.075 192.527C267.968 192.938 267.914 193.421 267.914 193.976H267.578ZM278.269 197.168C277.821 197.168 277.415 197.051 277.051 196.818C276.692 196.585 276.405 196.244 276.19 195.796C275.98 195.343 275.875 194.793 275.875 194.144H276.295C276.295 194.578 276.384 194.949 276.561 195.257C276.743 195.56 276.976 195.791 277.261 195.95C277.546 196.109 277.844 196.188 278.157 196.188C278.516 196.188 278.845 196.085 279.144 195.88C279.443 195.675 279.681 195.381 279.858 194.998C280.04 194.615 280.131 194.158 280.131 193.626C280.131 193.103 280.042 192.655 279.865 192.282C279.688 191.904 279.447 191.615 279.144 191.414C278.845 191.209 278.512 191.106 278.143 191.106C277.826 191.106 277.525 191.185 277.24 191.344C276.96 191.498 276.731 191.727 276.554 192.03C276.381 192.333 276.295 192.707 276.295 193.15H275.875C275.875 192.515 275.978 191.974 276.183 191.526C276.393 191.078 276.682 190.735 277.051 190.497C277.42 190.259 277.849 190.14 278.339 190.14C278.866 190.14 279.349 190.282 279.788 190.567C280.231 190.847 280.586 191.248 280.852 191.771C281.118 192.294 281.251 192.912 281.251 193.626C281.251 194.345 281.116 194.97 280.845 195.502C280.574 196.029 280.213 196.44 279.76 196.734C279.307 197.023 278.81 197.168 278.269 197.168ZM275.203 197V187.452H276.295V195.432L275.973 197H275.203ZM283.502 197V190.294H284.594V197H283.502ZM284.258 193.976C284.258 193.127 284.34 192.422 284.503 191.862C284.666 191.297 284.904 190.877 285.217 190.602C285.534 190.322 285.919 190.182 286.372 190.182C286.521 190.182 286.657 190.194 286.778 190.217C286.904 190.236 287.03 190.266 287.156 190.308L287.086 191.386C286.955 191.344 286.813 191.309 286.659 191.281C286.505 191.248 286.367 191.232 286.246 191.232C285.849 191.232 285.53 191.346 285.287 191.575C285.044 191.799 284.867 192.116 284.755 192.527C284.648 192.938 284.594 193.421 284.594 193.976H284.258ZM290.884 197.168C290.306 197.168 289.788 197.021 289.33 196.727C288.878 196.428 288.518 196.015 288.252 195.488C287.991 194.961 287.86 194.354 287.86 193.668C287.86 192.935 287.991 192.305 288.252 191.778C288.514 191.251 288.871 190.847 289.323 190.567C289.781 190.282 290.301 190.14 290.884 190.14C291.393 190.14 291.827 190.243 292.186 190.448C292.546 190.653 292.835 190.931 293.054 191.281C293.274 191.631 293.425 192.028 293.509 192.471C293.598 192.91 293.624 193.365 293.586 193.836H288.742V193.164H292.865L292.543 193.374C292.557 193.099 292.541 192.823 292.494 192.548C292.452 192.273 292.371 192.021 292.249 191.792C292.128 191.559 291.958 191.372 291.738 191.232C291.519 191.092 291.239 191.022 290.898 191.022C290.469 191.022 290.11 191.132 289.82 191.351C289.531 191.57 289.314 191.86 289.169 192.219C289.025 192.574 288.952 192.959 288.952 193.374V193.822C288.952 194.289 289.022 194.706 289.162 195.075C289.307 195.444 289.522 195.735 289.806 195.95C290.091 196.165 290.45 196.272 290.884 196.272C291.318 196.272 291.675 196.167 291.955 195.957C292.235 195.747 292.406 195.437 292.466 195.026H293.6C293.53 195.469 293.372 195.852 293.124 196.174C292.877 196.491 292.562 196.736 292.179 196.909C291.797 197.082 291.365 197.168 290.884 197.168ZM299.896 197L299.756 195.53V192.66C299.756 192.058 299.628 191.626 299.371 191.365C299.114 191.099 298.729 190.966 298.216 190.966C297.927 190.966 297.663 191.008 297.425 191.092C297.192 191.176 297.005 191.307 296.865 191.484C296.73 191.657 296.662 191.881 296.662 192.156H295.444C295.444 191.671 295.563 191.281 295.801 190.987C296.039 190.688 296.366 190.474 296.781 190.343C297.201 190.208 297.679 190.14 298.216 190.14C298.729 190.14 299.184 190.226 299.581 190.399C299.978 190.572 300.288 190.847 300.512 191.225C300.736 191.598 300.848 192.086 300.848 192.688V197H299.896ZM297.614 197.168C297.063 197.168 296.608 197.07 296.249 196.874C295.89 196.678 295.621 196.424 295.444 196.111C295.267 195.798 295.178 195.469 295.178 195.124C295.178 194.671 295.29 194.303 295.514 194.018C295.743 193.733 296.053 193.526 296.445 193.395C296.837 193.26 297.278 193.192 297.768 193.192C298.118 193.192 298.468 193.227 298.818 193.297C299.173 193.367 299.518 193.463 299.854 193.584V194.27C299.574 194.158 299.257 194.069 298.902 194.004C298.552 193.939 298.23 193.906 297.936 193.906C297.488 193.906 297.11 193.999 296.802 194.186C296.494 194.368 296.34 194.681 296.34 195.124C296.34 195.451 296.457 195.731 296.69 195.964C296.928 196.197 297.306 196.314 297.824 196.314C298.188 196.314 298.515 196.23 298.804 196.062C299.098 195.889 299.329 195.675 299.497 195.418C299.67 195.161 299.756 194.905 299.756 194.648H300.022C300.022 195.096 299.924 195.511 299.728 195.894C299.537 196.277 299.261 196.585 298.902 196.818C298.543 197.051 298.113 197.168 297.614 197.168ZM305.857 197.168C305.315 197.168 304.818 197.023 304.366 196.734C303.913 196.44 303.551 196.029 303.281 195.502C303.01 194.97 302.875 194.345 302.875 193.626C302.875 192.912 303.008 192.294 303.274 191.771C303.54 191.248 303.892 190.847 304.331 190.567C304.774 190.282 305.259 190.14 305.787 190.14C306.277 190.14 306.706 190.259 307.075 190.497C307.448 190.735 307.737 191.078 307.943 191.526C308.148 191.974 308.251 192.515 308.251 193.15H307.831C307.831 192.707 307.742 192.333 307.565 192.03C307.392 191.727 307.166 191.498 306.886 191.344C306.606 191.185 306.305 191.106 305.983 191.106C305.619 191.106 305.285 191.209 304.982 191.414C304.683 191.615 304.443 191.904 304.261 192.282C304.083 192.655 303.995 193.103 303.995 193.626C303.995 194.158 304.083 194.615 304.261 194.998C304.443 195.381 304.683 195.675 304.982 195.88C305.285 196.085 305.619 196.188 305.983 196.188C306.286 196.188 306.578 196.109 306.858 195.95C307.142 195.791 307.376 195.56 307.558 195.257C307.74 194.949 307.831 194.578 307.831 194.144H308.251C308.251 194.793 308.143 195.343 307.929 195.796C307.719 196.244 307.432 196.585 307.068 196.818C306.708 197.051 306.305 197.168 305.857 197.168ZM308.013 197L307.831 195.432V187.452H308.923V197H308.013ZM310.768 196.349C310.768 196.13 310.845 195.941 310.999 195.782C311.153 195.623 311.346 195.544 311.58 195.544C311.813 195.544 312.011 195.623 312.175 195.782C312.338 195.941 312.42 196.13 312.42 196.349C312.42 196.568 312.338 196.753 312.175 196.902C312.011 197.051 311.813 197.126 311.58 197.126C311.346 197.126 311.153 197.051 310.999 196.902C310.845 196.748 310.768 196.564 310.768 196.349Z" fill="#C1A27F"/>
<path d="M129.921 86.275C127.421 86.275 125.496 85.4417 124.146 83.775C122.812 82.0917 122.146 79.875 122.146 77.125C122.146 74.3583 122.879 72.175 124.346 70.575C125.812 68.9583 127.721 68.15 130.071 68.15C132.437 68.15 134.212 68.9667 135.396 70.6C136.596 72.2333 137.196 74.375 137.196 77.025C137.196 79.6583 136.521 81.8583 135.171 83.625C133.821 85.3917 132.071 86.275 129.921 86.275ZM132.271 83.425C132.687 83.0083 133.012 82.2333 133.246 81.1C133.479 79.95 133.596 78.8167 133.596 77.7C133.596 76.5667 133.529 75.5833 133.396 74.75C133.279 73.9167 133.071 73.15 132.771 72.45C132.154 71 131.037 70.275 129.421 70.275C128.954 70.275 128.487 70.3417 128.021 70.475C127.571 70.6083 127.246 70.7667 127.046 70.95C126.679 71.4333 126.371 72.2167 126.121 73.3C125.871 74.3667 125.746 75.3583 125.746 76.275C125.746 77.175 125.787 77.9833 125.871 78.7C125.954 79.4 126.096 80.1 126.296 80.8C126.512 81.4833 126.787 82.0667 127.121 82.55C127.871 83.6333 128.921 84.175 130.271 84.175C130.554 84.175 130.904 84.1083 131.321 83.975C131.754 83.8417 132.071 83.6583 132.271 83.425ZM150.137 81.325C150.137 82.825 150.237 84.2 150.437 85.45V86H146.612V85.45C146.812 84.2167 146.912 82.925 146.912 81.575V81.325C143.262 81.325 140.812 81.3333 139.562 81.35L138.862 79.975C140.779 76.7417 143.27 72.925 146.337 68.525L150.212 68.15C150.129 69.9333 150.087 73.6 150.087 79.15L152.937 79L152.412 81.325H150.137ZM146.962 79.2C146.979 77.25 146.987 75.65 146.987 74.4C146.987 73.1333 146.987 72.1167 146.987 71.35C144.62 74.75 142.887 77.3917 141.787 79.275C143.604 79.275 145.329 79.25 146.962 79.2ZM160.558 82.625C160.724 82.7917 160.841 83.125 160.908 83.625C160.974 84.125 161.008 84.5167 161.008 84.8C161.008 85.0667 160.991 85.3 160.958 85.5L160.708 85.725C159.958 85.9417 158.841 86.1167 157.358 86.25L157.058 86.1C156.908 85.85 156.783 85.4333 156.683 84.85C156.599 84.2667 156.558 83.8667 156.558 83.65C156.558 83.4167 156.558 83.2667 156.558 83.2L156.808 82.975C157.874 82.625 158.933 82.45 159.983 82.45C160.083 82.45 160.174 82.45 160.258 82.45L160.558 82.625ZM173.819 73.575C174.252 73.9583 174.727 74.275 175.244 74.525C175.76 74.7583 176.219 74.9667 176.619 75.15C177.035 75.3333 177.302 75.4583 177.419 75.525C177.535 75.575 177.81 75.7 178.244 75.9C178.694 76.1 178.977 76.2333 179.094 76.3C179.21 76.35 179.469 76.4917 179.869 76.725C180.269 76.9583 180.544 77.15 180.694 77.3C180.844 77.45 181.06 77.675 181.344 77.975C181.627 78.2583 181.827 78.5333 181.944 78.8C182.26 79.55 182.419 80.3083 182.419 81.075C182.419 82.7917 181.802 84.0917 180.569 84.975C179.352 85.8583 177.677 86.3 175.544 86.3C173.427 86.3 171.494 85.7167 169.744 84.55C169.794 83.35 170.252 82.225 171.119 81.175C171.919 82.0583 172.819 82.7833 173.819 83.35C174.819 83.9167 175.727 84.2 176.544 84.2C177.377 84.2 178.11 84.0167 178.744 83.65C179.06 83.2333 179.219 82.5833 179.219 81.7C179.219 81.0333 179.027 80.5 178.644 80.1C178.41 79.8833 178.21 79.7083 178.044 79.575C177.894 79.425 177.619 79.25 177.219 79.05C176.819 78.8333 176.002 78.4583 174.769 77.925C173.552 77.375 172.702 76.9417 172.219 76.625C170.835 75.6917 170.144 74.4417 170.144 72.875C170.144 71.2917 170.735 70.1167 171.919 69.35C173.119 68.5833 174.602 68.2 176.369 68.2C178.135 68.2 179.994 68.6167 181.944 69.45C181.744 70.6 181.319 71.7167 180.669 72.8C179.819 72.0167 178.919 71.3833 177.969 70.9C177.019 70.4 176.16 70.15 175.394 70.15C174.627 70.15 174.019 70.275 173.569 70.525C173.302 70.8417 173.169 71.3333 173.169 72C173.169 72.6667 173.385 73.1917 173.819 73.575ZM189.57 81.3C189.57 83.1833 189.778 84.5667 190.195 85.45V86H185.92V85.45C186.203 84.5333 186.345 83.325 186.345 81.825V72C186.345 70.5667 185.97 69.4917 185.22 68.775V68.225L189.345 67.35L189.645 67.9C189.595 68.3667 189.57 70 189.57 72.8V75.55C190.436 74.8667 191.186 74.3583 191.82 74.025C192.453 73.6917 193.136 73.525 193.87 73.525C195.203 73.525 196.228 73.9167 196.945 74.7C197.661 75.4667 198.02 76.5833 198.02 78.05V81.225C198.02 82.875 198.27 84.2833 198.77 85.45V86H194.37V85.45C194.653 84.6667 194.795 83.5417 194.795 82.075V78.95C194.795 77.9667 194.661 77.25 194.395 76.8C194.145 76.35 193.595 76.125 192.745 76.125C191.911 76.125 190.853 76.475 189.57 77.175V81.3ZM205.581 68.075C205.731 68.2083 205.831 68.4917 205.881 68.925C205.948 69.3583 205.981 69.6917 205.981 69.925C205.981 70.1583 205.965 70.3667 205.931 70.55L205.706 70.75C204.973 70.9667 204.015 71.1167 202.831 71.2L202.556 71.075C202.423 70.8583 202.315 70.5 202.231 70C202.165 69.5 202.131 69.1583 202.131 68.975C202.131 68.775 202.131 68.6417 202.131 68.575L202.356 68.375C203.256 68.075 204.148 67.925 205.031 67.925H205.306L205.581 68.075ZM206.056 76.175V81.525C206.056 83.1083 206.298 84.4167 206.781 85.45V86H202.406V85.45C202.69 84.6 202.831 83.475 202.831 82.075V78.375C202.831 77.4583 202.69 76.7 202.406 76.1C202.123 75.4833 201.765 75.0583 201.331 74.825V74.275L205.906 73.425L206.206 73.925C206.106 74.3083 206.056 75.0583 206.056 76.175ZM214.593 86H210.218V85.45C210.501 84.55 210.643 83.4333 210.643 82.1V78.375C210.643 77.6417 210.501 76.9333 210.218 76.25C209.951 75.55 209.626 75.0917 209.243 74.875V74.325L212.768 73.5L213.018 73.85C213.118 74 213.268 74.3417 213.468 74.875C214.551 73.975 215.684 73.525 216.868 73.525C217.451 73.525 217.993 73.6417 218.493 73.875C218.493 73.9583 218.493 74.0333 218.493 74.1C218.493 75.15 218.284 76.2 217.868 77.25C216.984 76.6333 216.034 76.325 215.018 76.325C214.701 76.325 214.318 76.375 213.868 76.475V81.4C213.868 83 214.109 84.35 214.593 85.45V86ZM225.645 86.475C223.712 86.475 222.187 85.9083 221.07 84.775C219.97 83.6417 219.42 82.15 219.42 80.3C219.42 78.45 220.062 76.8667 221.345 75.55C222.629 74.2167 224.262 73.55 226.245 73.55C228.245 73.55 229.77 74.1083 230.82 75.225C231.887 76.325 232.42 77.8083 232.42 79.675C232.42 81.5417 231.779 83.1417 230.495 84.475C229.212 85.8083 227.595 86.475 225.645 86.475ZM228.82 80.3C228.82 78.6833 228.587 77.425 228.12 76.525C227.654 75.6083 226.837 75.15 225.67 75.15C224.92 75.15 224.337 75.3333 223.92 75.7C223.654 76.0833 223.437 76.6583 223.27 77.425C223.104 78.1917 223.02 78.9333 223.02 79.65C223.02 83.1333 224.129 84.875 226.345 84.875C227.012 84.875 227.554 84.7 227.97 84.35C228.254 83.9667 228.462 83.3833 228.595 82.6C228.745 81.8 228.82 81.0333 228.82 80.3ZM237.68 74.025C237.68 74.825 237.972 76 238.555 77.55L240.505 82.775C241.905 78.4583 242.605 75.9 242.605 75.1V75.05C242.605 74.8 242.564 74.5833 242.48 74.4V73.85H246.105V74.4C245.889 74.6333 245.547 75.3667 245.08 76.6C244.63 77.8333 243.639 80.625 242.105 84.975C240.589 89.3083 239.805 91.55 239.755 91.7V92.15L235.705 92.375L235.63 91.825C236.097 91.2583 236.48 90.7667 236.78 90.35C237.597 89.2 238.314 87.825 238.93 86.225L235.355 78C234.539 76.1 233.872 74.9333 233.355 74.5V73.95L237.68 73.675V74.025ZM252.829 86.475C251.379 86.475 250.079 85.9333 248.929 84.85C247.779 83.7667 247.204 82.3083 247.204 80.475C247.204 78.625 247.812 77.0083 249.029 75.625C250.245 74.225 251.82 73.525 253.754 73.525C255.387 73.525 256.604 74.05 257.404 75.1C258.204 76.15 258.604 77.6 258.604 79.45L257.654 80.425H250.804C250.82 81.625 251.137 82.55 251.754 83.2C252.387 83.85 253.137 84.175 254.004 84.175C254.887 84.175 256.212 83.7167 257.979 82.8L258.604 83.75C258.287 84.05 257.929 84.3583 257.529 84.675C257.129 84.9917 256.454 85.375 255.504 85.825C254.57 86.2583 253.679 86.475 252.829 86.475ZM253.179 75.125C252.562 75.125 252.07 75.25 251.704 75.5C251.437 75.9167 251.229 76.4667 251.079 77.15C250.929 77.8333 250.845 78.4417 250.829 78.975L255.204 78.725C255.204 76.325 254.529 75.125 253.179 75.125Z" fill="#C1A27F"/>
<path d="M138.386 144.15C138.386 147.183 137.419 149.567 135.486 151.3C133.553 153.033 130.919 154.083 127.586 154.45C127.586 156.517 127.653 158.283 127.786 159.75L123.786 160.55L123.536 159.85C123.736 158.45 123.903 156.7 124.036 154.6C119.936 154.433 116.269 153.267 113.036 151.1C113.136 148.733 114.069 146.483 115.836 144.35C118.369 147.083 121.136 148.933 124.136 149.9V138.5C123.136 138.067 122.419 137.767 121.986 137.6C121.553 137.4 120.886 137.083 119.986 136.65C119.086 136.183 118.419 135.783 117.986 135.45C117.553 135.117 117.019 134.667 116.386 134.1C115.753 133.5 115.286 132.917 114.986 132.35C114.219 130.917 113.836 129.367 113.836 127.7C113.836 124.9 114.786 122.75 116.686 121.25C118.619 119.717 121.103 118.8 124.136 118.5C124.069 116.7 124.003 115.333 123.936 114.4L127.736 113.1L127.986 113.8C127.753 115.8 127.619 117.35 127.586 118.45C130.886 118.683 134.169 119.5 137.436 120.9C137.069 123.367 136.219 125.717 134.886 127.95C132.486 125.783 130.053 124.267 127.586 123.4V133C128.986 133.567 130.019 134 130.686 134.3C131.386 134.6 132.319 135.1 133.486 135.8C134.653 136.5 135.519 137.2 136.086 137.9C136.686 138.567 137.219 139.45 137.686 140.55C138.153 141.65 138.386 142.85 138.386 144.15ZM131.786 145.75C131.786 143.483 130.386 141.6 127.586 140.1V150.4C128.819 150.4 129.903 150.15 130.836 149.65C131.469 148.817 131.786 147.517 131.786 145.75ZM119.986 126.35C119.986 128.383 121.369 130.1 124.136 131.5V122.75C123.069 122.75 121.986 122.983 120.886 123.45C120.286 124.05 119.986 125.017 119.986 126.35ZM156.341 143C156.341 147.6 156.607 150.9 157.141 152.9V154H148.841V152.9C149.374 150.9 149.641 147.6 149.641 143V128.7C149.641 126.433 149.591 125.017 149.491 124.45C147.524 124.85 145.341 125.1 142.941 125.2L142.391 122.35C146.091 121.717 149.141 120.6 151.541 119H156.591L156.341 124.9V143ZM183.233 143.35C183.233 139.383 180.4 137.217 174.733 136.85L168.083 136.4L166.833 135.05C167.4 130.817 168.317 125.5 169.583 119.1L187.283 118.85L188.533 126.15H187.583C186.517 125.217 184.983 124.483 182.983 123.95C181.017 123.383 178.9 123.1 176.633 123.1H174.033C173.333 125.233 172.667 128.367 172.033 132.5C175.767 132.667 178.333 132.85 179.733 133.05C181.167 133.217 182.567 133.533 183.933 134C185.3 134.433 186.4 135 187.233 135.7C189.2 137.3 190.183 139.717 190.183 142.95C190.183 146.15 188.9 148.883 186.333 151.15C183.8 153.417 180.45 154.55 176.283 154.55C172.117 154.55 167.767 153.433 163.233 151.2C163.367 150.5 163.75 149.6 164.383 148.5C165.017 147.367 165.633 146.533 166.233 146C170.5 149.067 174.267 150.6 177.533 150.6C179.067 150.6 180.333 150.383 181.333 149.95C181.933 149.25 182.4 148.267 182.733 147C183.067 145.7 183.233 144.483 183.233 143.35ZM204.186 147.25C204.519 147.583 204.753 148.25 204.886 149.25C205.019 150.25 205.086 151.033 205.086 151.6C205.086 152.133 205.053 152.6 204.986 153L204.486 153.45C202.986 153.883 200.753 154.233 197.786 154.5L197.186 154.2C196.886 153.7 196.636 152.867 196.436 151.7C196.269 150.533 196.186 149.733 196.186 149.3C196.186 148.833 196.186 148.533 196.186 148.4L196.686 147.95C198.819 147.25 200.936 146.9 203.036 146.9C203.236 146.9 203.419 146.9 203.586 146.9L204.186 147.25ZM227.677 154.55C222.677 154.55 218.827 152.883 216.127 149.55C213.46 146.183 212.127 141.75 212.127 136.25C212.127 130.717 213.594 126.35 216.527 123.15C219.46 119.917 223.277 118.3 227.977 118.3C232.71 118.3 236.26 119.933 238.627 123.2C241.027 126.467 242.227 130.75 242.227 136.05C242.227 141.317 240.877 145.717 238.177 149.25C235.477 152.783 231.977 154.55 227.677 154.55ZM232.377 148.85C233.21 148.017 233.86 146.467 234.327 144.2C234.794 141.9 235.027 139.633 235.027 137.4C235.027 135.133 234.894 133.167 234.627 131.5C234.394 129.833 233.977 128.3 233.377 126.9C232.144 124 229.91 122.55 226.677 122.55C225.744 122.55 224.81 122.683 223.877 122.95C222.977 123.217 222.327 123.533 221.927 123.9C221.194 124.867 220.577 126.433 220.077 128.6C219.577 130.733 219.327 132.717 219.327 134.55C219.327 136.35 219.41 137.967 219.577 139.4C219.744 140.8 220.027 142.2 220.427 143.6C220.86 144.967 221.41 146.133 222.077 147.1C223.577 149.267 225.677 150.35 228.377 150.35C228.944 150.35 229.644 150.217 230.477 149.95C231.344 149.683 231.977 149.317 232.377 148.85ZM269.39 143.1C269.39 146.4 268.19 149.133 265.79 151.3C263.424 153.433 260.14 154.5 255.94 154.5C251.774 154.5 247.924 153.583 244.39 151.75V151.45C244.39 149.783 245.074 148.233 246.44 146.8C250.207 149.433 253.39 150.75 255.99 150.75H256.24C257.974 150.75 259.307 150.483 260.24 149.95C261.707 148.583 262.44 146.383 262.44 143.35C262.44 141.05 261.924 139.433 260.89 138.5C259.89 137.533 258.24 137.05 255.94 137.05C253.64 137.05 252.024 137.117 251.09 137.25H250.09L248.94 133.45H254.39C256.057 133.45 257.424 132.817 258.49 131.55C259.557 130.25 260.09 128.767 260.09 127.1C260.09 123.667 258.84 121.95 256.34 121.95C254.107 121.95 251.374 123.217 248.14 125.75C246.84 123.983 246.057 122.083 245.79 120.05C249.657 118.95 253.34 118.4 256.84 118.4C263.474 118.4 266.79 120.9 266.79 125.9C266.79 127.9 266.274 129.633 265.24 131.1C264.24 132.533 263.04 133.6 261.64 134.3C266.807 135.4 269.39 138.333 269.39 143.1Z" fill="#550000"/>
<g filter="url(#filter0_d_174_23)">
<rect x="5.5" y="1.5" width="369" height="282" rx="13.5" stroke="#550000" stroke-opacity="0.5" stroke-width="3" shape-rendering="crispEdges"/>
</g>
<path d="M354.998 253.266C359.486 259.594 356.053 266.842 354.392 269.67C354.149 270.065 353.822 270.403 353.434 270.659C353.047 270.915 352.608 271.083 352.148 271.151C348.894 271.712 340.793 272.34 336.44 266.012C332.153 260.043 332.333 249.54 332.714 244.536C332.73 244.163 332.833 243.799 333.016 243.474C333.199 243.149 333.457 242.872 333.768 242.666C334.079 242.46 334.435 242.331 334.806 242.29C335.177 242.248 335.552 242.295 335.901 242.427C340.726 243.818 350.779 247.296 354.998 253.266Z" stroke="#C1A27F" stroke-width="3" stroke-linecap="round" stroke-linejoin="round"/>
<path d="M339.873 251.179C345.013 257.236 349.525 263.8 353.338 270.769" stroke="#C1A27F" stroke-width="3" stroke-linecap="round" stroke-linejoin="round"/>
<defs>
<filter id="filter0_d_174_23" x="0" y="0" width="380" height="293" filterUnits="userSpaceOnUse" color-interpolation-filters="sRGB">
<feFlood flood-opacity="0" result="BackgroundImageFix"/>
<feColorMatrix in="SourceAlpha" type="matrix" values="0 0 0 0 0 0 0 0 0 0 0 0 0 0 0 0 0 0 127 0" result="hardAlpha"/>
<feOffset dy="4"/>
<feGaussianBlur stdDeviation="2"/>
<feComposite in2="hardAlpha" operator="out"/>
<feColorMatrix type="matrix" values="0 0 0 0 0 0 0 0 0 0 0 0 0 0 0 0 0 0 0.25 0"/>
<feBlend mode="normal" in2="BackgroundImageFix" result="effect1_dropShadow_174_23"/>
<feBlend mode="normal" in="SourceGraphic" in2="effect1_dropShadow_174_23" result="shape"/>
</filter>
</defs>
</svg>
