<svg width="380" height="293" viewBox="0 0 380 293" fill="none" xmlns="http://www.w3.org/2000/svg">
<path d="M49.3554 186V177.208H54.7034V178.146H50.4474V181.072H54.4094V182.01H50.4474V186H49.3554ZM57.3132 177.726C57.0892 177.726 56.9119 177.663 56.7812 177.537C56.6505 177.406 56.5852 177.236 56.5852 177.026C56.5852 176.821 56.6505 176.657 56.7812 176.536C56.9119 176.415 57.0892 176.354 57.3132 176.354C57.5372 176.354 57.7145 176.415 57.8452 176.536C57.9759 176.657 58.0412 176.821 58.0412 177.026C58.0412 177.236 57.9759 177.406 57.8452 177.537C57.7145 177.663 57.5372 177.726 57.3132 177.726ZM56.7672 186V179.294H57.8592V186H56.7672ZM60.8671 186V176.452H61.9591V186H60.8671ZM64.791 186V176.452H65.883V186H64.791ZM71.0388 186.168C70.4601 186.168 69.9421 186.021 69.4848 185.727C69.0321 185.428 68.6728 185.015 68.4068 184.488C68.1454 183.961 68.0148 183.354 68.0148 182.668C68.0148 181.935 68.1454 181.305 68.4068 180.778C68.6681 180.251 69.0251 179.847 69.4778 179.567C69.9351 179.282 70.4554 179.14 71.0388 179.14C71.5474 179.14 71.9814 179.243 72.3408 179.448C72.7001 179.653 72.9894 179.931 73.2088 180.281C73.4281 180.631 73.5798 181.028 73.6638 181.471C73.7524 181.91 73.7781 182.365 73.7408 182.836H68.8968V182.164H73.0198L72.6978 182.374C72.7118 182.099 72.6954 181.823 72.6488 181.548C72.6068 181.273 72.5251 181.021 72.4038 180.792C72.2824 180.559 72.1121 180.372 71.8928 180.232C71.6734 180.092 71.3934 180.022 71.0528 180.022C70.6234 180.022 70.2641 180.132 69.9748 180.351C69.6854 180.57 69.4684 180.86 69.3238 181.219C69.1791 181.574 69.1068 181.959 69.1068 182.374V182.822C69.1068 183.289 69.1768 183.706 69.3168 184.075C69.4614 184.444 69.6761 184.735 69.9608 184.95C70.2454 185.165 70.6048 185.272 71.0388 185.272C71.4728 185.272 71.8298 185.167 72.1098 184.957C72.3898 184.747 72.5601 184.437 72.6208 184.026H73.7548C73.6848 184.469 73.5261 184.852 73.2788 185.174C73.0314 185.491 72.7164 185.736 72.3338 185.909C71.9511 186.082 71.5194 186.168 71.0388 186.168ZM77.9642 186.168C77.6002 186.168 77.2735 186.098 76.9842 185.958C76.6949 185.818 76.4662 185.608 76.2982 185.328C76.1302 185.048 76.0462 184.698 76.0462 184.278V177.446H77.1242V184.25C77.1242 184.941 77.4462 185.286 78.0902 185.286C78.2815 185.286 78.4659 185.265 78.6432 185.223C78.8252 185.181 79.0282 185.118 79.2522 185.034L79.4062 185.818C79.1682 185.921 78.9302 186.005 78.6922 186.07C78.4589 186.135 78.2162 186.168 77.9642 186.168ZM74.9682 180.064V179.308H79.2382V180.064H74.9682ZM83.4939 186.168C82.9152 186.168 82.3972 186.021 81.9399 185.727C81.4872 185.428 81.1279 185.015 80.8619 184.488C80.6005 183.961 80.4699 183.354 80.4699 182.668C80.4699 181.935 80.6005 181.305 80.8619 180.778C81.1232 180.251 81.4802 179.847 81.9329 179.567C82.3902 179.282 82.9105 179.14 83.4939 179.14C84.0025 179.14 84.4365 179.243 84.7959 179.448C85.1552 179.653 85.4445 179.931 85.6639 180.281C85.8832 180.631 86.0349 181.028 86.1189 181.471C86.2075 181.91 86.2332 182.365 86.1959 182.836H81.3519V182.164H85.4749L85.1529 182.374C85.1669 182.099 85.1505 181.823 85.1039 181.548C85.0619 181.273 84.9802 181.021 84.8589 180.792C84.7375 180.559 84.5672 180.372 84.3479 180.232C84.1285 180.092 83.8485 180.022 83.5079 180.022C83.0785 180.022 82.7192 180.132 82.4299 180.351C82.1405 180.57 81.9235 180.86 81.7789 181.219C81.6342 181.574 81.5619 181.959 81.5619 182.374V182.822C81.5619 183.289 81.6319 183.706 81.7719 184.075C81.9165 184.444 82.1312 184.735 82.4159 184.95C82.7005 185.165 83.0599 185.272 83.4939 185.272C83.9279 185.272 84.2849 185.167 84.5649 184.957C84.8449 184.747 85.0152 184.437 85.0759 184.026H86.2099C86.1399 184.469 85.9812 184.852 85.7339 185.174C85.4865 185.491 85.1715 185.736 84.7889 185.909C84.4062 186.082 83.9745 186.168 83.4939 186.168ZM90.7553 186.168C90.2139 186.168 89.7169 186.023 89.2643 185.734C88.8116 185.44 88.4499 185.029 88.1793 184.502C87.9086 183.97 87.7733 183.345 87.7733 182.626C87.7733 181.912 87.9063 181.294 88.1723 180.771C88.4383 180.248 88.7906 179.847 89.2293 179.567C89.6726 179.282 90.1579 179.14 90.6853 179.14C91.1753 179.14 91.6046 179.259 91.9733 179.497C92.3466 179.735 92.6359 180.078 92.8413 180.526C93.0466 180.974 93.1493 181.515 93.1493 182.15H92.7293C92.7293 181.707 92.6406 181.333 92.4633 181.03C92.2906 180.727 92.0643 180.498 91.7843 180.344C91.5043 180.185 91.2033 180.106 90.8813 180.106C90.5173 180.106 90.1836 180.209 89.8803 180.414C89.5816 180.615 89.3413 180.904 89.1593 181.282C88.9819 181.655 88.8933 182.103 88.8933 182.626C88.8933 183.158 88.9819 183.615 89.1593 183.998C89.3413 184.381 89.5816 184.675 89.8803 184.88C90.1836 185.085 90.5173 185.188 90.8813 185.188C91.1846 185.188 91.4763 185.109 91.7563 184.95C92.0409 184.791 92.2743 184.56 92.4563 184.257C92.6383 183.949 92.7293 183.578 92.7293 183.144H93.1493C93.1493 183.793 93.0419 184.343 92.8273 184.796C92.6173 185.244 92.3303 185.585 91.9663 185.818C91.6069 186.051 91.2033 186.168 90.7553 186.168ZM92.9113 186L92.7293 184.432V176.452H93.8213V186H92.9113ZM100.346 186V178.272C100.346 177.829 100.43 177.467 100.598 177.187C100.771 176.902 101 176.692 101.284 176.557C101.574 176.422 101.896 176.354 102.25 176.354C102.442 176.354 102.635 176.368 102.831 176.396C103.032 176.424 103.23 176.466 103.426 176.522L103.216 177.39C103.076 177.334 102.936 177.292 102.796 177.264C102.661 177.236 102.53 177.222 102.404 177.222C102.255 177.222 102.106 177.25 101.956 177.306C101.807 177.362 101.683 177.467 101.585 177.621C101.487 177.775 101.438 177.997 101.438 178.286V186H100.346ZM99.2544 180.064V179.308H102.824V180.064H99.2544ZM105.393 177.726C105.169 177.726 104.992 177.663 104.861 177.537C104.731 177.406 104.665 177.236 104.665 177.026C104.665 176.821 104.731 176.657 104.861 176.536C104.992 176.415 105.169 176.354 105.393 176.354C105.617 176.354 105.795 176.415 105.925 176.536C106.056 176.657 106.121 176.821 106.121 177.026C106.121 177.236 106.056 177.406 105.925 177.537C105.795 177.663 105.617 177.726 105.393 177.726ZM104.847 186V179.294H105.939V186H104.847ZM111.359 186.168C110.71 186.168 110.169 186.077 109.735 185.895C109.301 185.708 108.972 185.454 108.748 185.132C108.524 184.805 108.405 184.432 108.391 184.012H109.441C109.464 184.437 109.635 184.756 109.952 184.971C110.274 185.181 110.71 185.286 111.261 185.286C111.55 185.286 111.816 185.239 112.059 185.146C112.302 185.053 112.495 184.924 112.64 184.761C112.785 184.598 112.857 184.413 112.857 184.208C112.857 183.947 112.761 183.741 112.57 183.592C112.379 183.443 112.073 183.312 111.653 183.2L110.351 182.78C109.786 182.603 109.352 182.36 109.049 182.052C108.75 181.739 108.601 181.366 108.601 180.932C108.601 180.391 108.839 179.957 109.315 179.63C109.791 179.303 110.416 179.14 111.191 179.14C112.012 179.14 112.649 179.308 113.102 179.644C113.555 179.98 113.79 180.4 113.809 180.904H112.731C112.689 180.61 112.54 180.388 112.283 180.239C112.026 180.085 111.662 180.008 111.191 180.008C110.738 180.008 110.384 180.111 110.127 180.316C109.875 180.517 109.749 180.741 109.749 180.988C109.749 181.45 110.146 181.791 110.939 182.01L112.269 182.458C112.843 182.631 113.282 182.857 113.585 183.137C113.893 183.417 114.047 183.774 114.047 184.208C114.047 184.544 113.937 184.861 113.718 185.16C113.499 185.459 113.188 185.701 112.787 185.888C112.386 186.075 111.91 186.168 111.359 186.168ZM121.067 186V182.066C121.067 181.427 120.913 180.941 120.605 180.61C120.301 180.274 119.886 180.106 119.359 180.106C118.957 180.106 118.61 180.216 118.316 180.435C118.022 180.654 117.795 180.969 117.637 181.38C117.478 181.786 117.399 182.271 117.399 182.836H116.979C116.979 182.057 117.081 181.392 117.287 180.841C117.492 180.29 117.791 179.87 118.183 179.581C118.579 179.287 119.06 179.14 119.625 179.14C120.152 179.14 120.602 179.259 120.976 179.497C121.354 179.73 121.643 180.066 121.844 180.505C122.044 180.944 122.145 181.464 122.145 182.066V186H121.067ZM116.307 186V176.452H117.399V186H116.307ZM130.486 186.168C129.837 186.168 129.296 186.077 128.862 185.895C128.428 185.708 128.099 185.454 127.875 185.132C127.651 184.805 127.532 184.432 127.518 184.012H128.568C128.591 184.437 128.762 184.756 129.079 184.971C129.401 185.181 129.837 185.286 130.388 185.286C130.677 185.286 130.943 185.239 131.186 185.146C131.429 185.053 131.622 184.924 131.767 184.761C131.912 184.598 131.984 184.413 131.984 184.208C131.984 183.947 131.888 183.741 131.697 183.592C131.506 183.443 131.2 183.312 130.78 183.2L129.478 182.78C128.913 182.603 128.479 182.36 128.176 182.052C127.877 181.739 127.728 181.366 127.728 180.932C127.728 180.391 127.966 179.957 128.442 179.63C128.918 179.303 129.543 179.14 130.318 179.14C131.139 179.14 131.776 179.308 132.229 179.644C132.682 179.98 132.917 180.4 132.936 180.904H131.858C131.816 180.61 131.667 180.388 131.41 180.239C131.153 180.085 130.789 180.008 130.318 180.008C129.865 180.008 129.511 180.111 129.254 180.316C129.002 180.517 128.876 180.741 128.876 180.988C128.876 181.45 129.273 181.791 130.066 182.01L131.396 182.458C131.97 182.631 132.409 182.857 132.712 183.137C133.02 183.417 133.174 183.774 133.174 184.208C133.174 184.544 133.064 184.861 132.845 185.16C132.626 185.459 132.315 185.701 131.914 185.888C131.513 186.075 131.037 186.168 130.486 186.168ZM139.578 186L139.438 184.53V181.66C139.438 181.058 139.309 180.626 139.053 180.365C138.796 180.099 138.411 179.966 137.898 179.966C137.608 179.966 137.345 180.008 137.107 180.092C136.873 180.176 136.687 180.307 136.547 180.484C136.411 180.657 136.344 180.881 136.344 181.156H135.126C135.126 180.671 135.245 180.281 135.483 179.987C135.721 179.688 136.047 179.474 136.463 179.343C136.883 179.208 137.361 179.14 137.898 179.14C138.411 179.14 138.866 179.226 139.263 179.399C139.659 179.572 139.97 179.847 140.194 180.225C140.418 180.598 140.53 181.086 140.53 181.688V186H139.578ZM137.296 186.168C136.745 186.168 136.29 186.07 135.931 185.874C135.571 185.678 135.303 185.424 135.126 185.111C134.948 184.798 134.86 184.469 134.86 184.124C134.86 183.671 134.972 183.303 135.196 183.018C135.424 182.733 135.735 182.526 136.127 182.395C136.519 182.26 136.96 182.192 137.45 182.192C137.8 182.192 138.15 182.227 138.5 182.297C138.854 182.367 139.2 182.463 139.536 182.584V183.27C139.256 183.158 138.938 183.069 138.584 183.004C138.234 182.939 137.912 182.906 137.618 182.906C137.17 182.906 136.792 182.999 136.484 183.186C136.176 183.368 136.022 183.681 136.022 184.124C136.022 184.451 136.138 184.731 136.372 184.964C136.61 185.197 136.988 185.314 137.506 185.314C137.87 185.314 138.196 185.23 138.486 185.062C138.78 184.889 139.011 184.675 139.179 184.418C139.351 184.161 139.438 183.905 139.438 183.648H139.704C139.704 184.096 139.606 184.511 139.41 184.894C139.218 185.277 138.943 185.585 138.584 185.818C138.224 186.051 137.795 186.168 137.296 186.168ZM147.694 179.294H148.786V186H147.694V179.294ZM142.948 179.294H144.04V183.466C144.04 184.026 144.176 184.451 144.446 184.74C144.722 185.029 145.114 185.174 145.622 185.174C146.042 185.174 146.406 185.062 146.714 184.838C147.027 184.614 147.267 184.306 147.435 183.914C147.608 183.517 147.694 183.065 147.694 182.556H148.1C148.1 183.307 147.991 183.949 147.771 184.481C147.557 185.013 147.251 185.421 146.854 185.706C146.462 185.986 146 186.126 145.468 186.126C144.964 186.126 144.523 186.033 144.145 185.846C143.767 185.659 143.473 185.377 143.263 184.999C143.053 184.616 142.948 184.133 142.948 183.55V179.294ZM153.679 186.168C153.315 186.168 152.988 186.098 152.699 185.958C152.41 185.818 152.181 185.608 152.013 185.328C151.845 185.048 151.761 184.698 151.761 184.278V177.446H152.839V184.25C152.839 184.941 153.161 185.286 153.805 185.286C153.996 185.286 154.181 185.265 154.358 185.223C154.54 185.181 154.743 185.118 154.967 185.034L155.121 185.818C154.883 185.921 154.645 186.005 154.407 186.07C154.174 186.135 153.931 186.168 153.679 186.168ZM150.683 180.064V179.308H154.953V180.064H150.683ZM159.209 186.168C158.63 186.168 158.112 186.021 157.655 185.727C157.202 185.428 156.843 185.015 156.577 184.488C156.315 183.961 156.185 183.354 156.185 182.668C156.185 181.935 156.315 181.305 156.577 180.778C156.838 180.251 157.195 179.847 157.648 179.567C158.105 179.282 158.625 179.14 159.209 179.14C159.717 179.14 160.151 179.243 160.511 179.448C160.87 179.653 161.159 179.931 161.379 180.281C161.598 180.631 161.75 181.028 161.834 181.471C161.922 181.91 161.948 182.365 161.911 182.836H157.067V182.164H161.19L160.868 182.374C160.882 182.099 160.865 181.823 160.819 181.548C160.777 181.273 160.695 181.021 160.574 180.792C160.452 180.559 160.282 180.372 160.063 180.232C159.843 180.092 159.563 180.022 159.223 180.022C158.793 180.022 158.434 180.132 158.145 180.351C157.855 180.57 157.638 180.86 157.494 181.219C157.349 181.574 157.277 181.959 157.277 182.374V182.822C157.277 183.289 157.347 183.706 157.487 184.075C157.631 184.444 157.846 184.735 158.131 184.95C158.415 185.165 158.775 185.272 159.209 185.272C159.643 185.272 160 185.167 160.28 184.957C160.56 184.747 160.73 184.437 160.791 184.026H161.925C161.855 184.469 161.696 184.852 161.449 185.174C161.201 185.491 160.886 185.736 160.504 185.909C160.121 186.082 159.689 186.168 159.209 186.168ZM166.4 186.168C165.821 186.168 165.303 186.021 164.846 185.727C164.393 185.428 164.034 185.015 163.768 184.488C163.507 183.961 163.376 183.354 163.376 182.668C163.376 181.935 163.507 181.305 163.768 180.778C164.029 180.251 164.386 179.847 164.839 179.567C165.296 179.282 165.817 179.14 166.4 179.14C166.909 179.14 167.343 179.243 167.702 179.448C168.061 179.653 168.351 179.931 168.57 180.281C168.789 180.631 168.941 181.028 169.025 181.471C169.114 181.91 169.139 182.365 169.102 182.836H164.258V182.164H168.381L168.059 182.374C168.073 182.099 168.057 181.823 168.01 181.548C167.968 181.273 167.886 181.021 167.765 180.792C167.644 180.559 167.473 180.372 167.254 180.232C167.035 180.092 166.755 180.022 166.414 180.022C165.985 180.022 165.625 180.132 165.336 180.351C165.047 180.57 164.83 180.86 164.685 181.219C164.54 181.574 164.468 181.959 164.468 182.374V182.822C164.468 183.289 164.538 183.706 164.678 184.075C164.823 184.444 165.037 184.735 165.322 184.95C165.607 185.165 165.966 185.272 166.4 185.272C166.834 185.272 167.191 185.167 167.471 184.957C167.751 184.747 167.921 184.437 167.982 184.026H169.116C169.046 184.469 168.887 184.852 168.64 185.174C168.393 185.491 168.078 185.736 167.695 185.909C167.312 186.082 166.881 186.168 166.4 186.168ZM173.662 186.168C173.12 186.168 172.623 186.023 172.171 185.734C171.718 185.44 171.356 185.029 171.086 184.502C170.815 183.97 170.68 183.345 170.68 182.626C170.68 181.912 170.813 181.294 171.079 180.771C171.345 180.248 171.697 179.847 172.136 179.567C172.579 179.282 173.064 179.14 173.592 179.14C174.082 179.14 174.511 179.259 174.88 179.497C175.253 179.735 175.542 180.078 175.748 180.526C175.953 180.974 176.056 181.515 176.056 182.15H175.636C175.636 181.707 175.547 181.333 175.37 181.03C175.197 180.727 174.971 180.498 174.691 180.344C174.411 180.185 174.11 180.106 173.788 180.106C173.424 180.106 173.09 180.209 172.787 180.414C172.488 180.615 172.248 180.904 172.066 181.282C171.888 181.655 171.8 182.103 171.8 182.626C171.8 183.158 171.888 183.615 172.066 183.998C172.248 184.381 172.488 184.675 172.787 184.88C173.09 185.085 173.424 185.188 173.788 185.188C174.091 185.188 174.383 185.109 174.663 184.95C174.947 184.791 175.181 184.56 175.363 184.257C175.545 183.949 175.636 183.578 175.636 183.144H176.056C176.056 183.793 175.948 184.343 175.734 184.796C175.524 185.244 175.237 185.585 174.873 185.818C174.513 186.051 174.11 186.168 173.662 186.168ZM175.818 186L175.636 184.432V176.452H176.728V186H175.818ZM183.505 177.726C183.281 177.726 183.103 177.663 182.973 177.537C182.842 177.406 182.777 177.236 182.777 177.026C182.777 176.821 182.842 176.657 182.973 176.536C183.103 176.415 183.281 176.354 183.505 176.354C183.729 176.354 183.906 176.415 184.037 176.536C184.167 176.657 184.233 176.821 184.233 177.026C184.233 177.236 184.167 177.406 184.037 177.537C183.906 177.663 183.729 177.726 183.505 177.726ZM182.959 186V179.294H184.051V186H182.959ZM191.819 186V182.066C191.819 181.427 191.665 180.941 191.357 180.61C191.053 180.274 190.638 180.106 190.111 180.106C189.709 180.106 189.362 180.216 189.068 180.435C188.774 180.654 188.547 180.969 188.389 181.38C188.23 181.786 188.151 182.271 188.151 182.836H187.731C187.731 182.057 187.833 181.392 188.039 180.841C188.244 180.29 188.543 179.87 188.935 179.581C189.331 179.287 189.812 179.14 190.377 179.14C190.904 179.14 191.354 179.259 191.728 179.497C192.106 179.73 192.395 180.066 192.596 180.505C192.796 180.944 192.897 181.464 192.897 182.066V186H191.819ZM187.059 186V179.308H187.997L188.151 180.848V186H187.059ZM203.59 186V182.066C203.59 181.427 203.436 180.941 203.128 180.61C202.825 180.274 202.409 180.106 201.882 180.106C201.481 180.106 201.133 180.216 200.839 180.435C200.545 180.654 200.319 180.969 200.16 181.38C200.001 181.786 199.922 182.271 199.922 182.836H199.502C199.502 182.057 199.605 181.392 199.81 180.841C200.015 180.29 200.314 179.87 200.706 179.581C201.103 179.287 201.583 179.14 202.148 179.14C202.675 179.14 203.126 179.259 203.499 179.497C203.877 179.73 204.166 180.066 204.367 180.505C204.568 180.944 204.668 181.464 204.668 182.066V186H203.59ZM198.83 186V176.452H199.922V186H198.83ZM209.701 186.168C209.099 186.168 208.563 186.035 208.091 185.769C207.625 185.503 207.256 185.109 206.985 184.586C206.715 184.063 206.579 183.419 206.579 182.654C206.579 181.884 206.715 181.24 206.985 180.722C207.256 180.199 207.625 179.805 208.091 179.539C208.563 179.273 209.099 179.14 209.701 179.14C210.299 179.14 210.831 179.273 211.297 179.539C211.769 179.805 212.137 180.199 212.403 180.722C212.674 181.24 212.809 181.884 212.809 182.654C212.809 183.419 212.674 184.063 212.403 184.586C212.137 185.109 211.769 185.503 211.297 185.769C210.831 186.035 210.299 186.168 209.701 186.168ZM209.673 185.216C210.107 185.216 210.476 185.113 210.779 184.908C211.083 184.698 211.311 184.402 211.465 184.019C211.624 183.636 211.703 183.181 211.703 182.654C211.703 181.856 211.538 181.228 211.206 180.771C210.875 180.309 210.383 180.078 209.729 180.078C209.291 180.078 208.92 180.183 208.616 180.393C208.318 180.598 208.089 180.895 207.93 181.282C207.776 181.665 207.699 182.122 207.699 182.654C207.699 183.443 207.865 184.068 208.196 184.53C208.532 184.987 209.025 185.216 209.673 185.216ZM219.485 179.294H220.577V186H219.485V179.294ZM214.739 179.294H215.831V183.466C215.831 184.026 215.967 184.451 216.237 184.74C216.513 185.029 216.905 185.174 217.413 185.174C217.833 185.174 218.197 185.062 218.505 184.838C218.818 184.614 219.058 184.306 219.226 183.914C219.399 183.517 219.485 183.065 219.485 182.556H219.891C219.891 183.307 219.782 183.949 219.562 184.481C219.348 185.013 219.042 185.421 218.645 185.706C218.253 185.986 217.791 186.126 217.259 186.126C216.755 186.126 216.314 186.033 215.936 185.846C215.558 185.659 215.264 185.377 215.054 184.999C214.844 184.616 214.739 184.133 214.739 183.55V179.294ZM225.82 186.168C225.171 186.168 224.63 186.077 224.196 185.895C223.762 185.708 223.433 185.454 223.209 185.132C222.985 184.805 222.866 184.432 222.852 184.012H223.902C223.925 184.437 224.096 184.756 224.413 184.971C224.735 185.181 225.171 185.286 225.722 185.286C226.011 185.286 226.277 185.239 226.52 185.146C226.763 185.053 226.956 184.924 227.101 184.761C227.246 184.598 227.318 184.413 227.318 184.208C227.318 183.947 227.222 183.741 227.031 183.592C226.84 183.443 226.534 183.312 226.114 183.2L224.812 182.78C224.247 182.603 223.813 182.36 223.51 182.052C223.211 181.739 223.062 181.366 223.062 180.932C223.062 180.391 223.3 179.957 223.776 179.63C224.252 179.303 224.877 179.14 225.652 179.14C226.473 179.14 227.11 179.308 227.563 179.644C228.016 179.98 228.251 180.4 228.27 180.904H227.192C227.15 180.61 227.001 180.388 226.744 180.239C226.487 180.085 226.123 180.008 225.652 180.008C225.199 180.008 224.845 180.111 224.588 180.316C224.336 180.517 224.21 180.741 224.21 180.988C224.21 181.45 224.607 181.791 225.4 182.01L226.73 182.458C227.304 182.631 227.743 182.857 228.046 183.137C228.354 183.417 228.508 183.774 228.508 184.208C228.508 184.544 228.398 184.861 228.179 185.16C227.96 185.459 227.649 185.701 227.248 185.888C226.847 186.075 226.371 186.168 225.82 186.168ZM233.092 186.168C232.513 186.168 231.995 186.021 231.538 185.727C231.085 185.428 230.726 185.015 230.46 184.488C230.198 183.961 230.068 183.354 230.068 182.668C230.068 181.935 230.198 181.305 230.46 180.778C230.721 180.251 231.078 179.847 231.531 179.567C231.988 179.282 232.508 179.14 233.092 179.14C233.6 179.14 234.034 179.243 234.394 179.448C234.753 179.653 235.042 179.931 235.262 180.281C235.481 180.631 235.633 181.028 235.717 181.471C235.805 181.91 235.831 182.365 235.794 182.836H230.95V182.164H235.073L234.751 182.374C234.765 182.099 234.748 181.823 234.702 181.548C234.66 181.273 234.578 181.021 234.457 180.792C234.335 180.559 234.165 180.372 233.946 180.232C233.726 180.092 233.446 180.022 233.106 180.022C232.676 180.022 232.317 180.132 232.028 180.351C231.738 180.57 231.521 180.86 231.377 181.219C231.232 181.574 231.16 181.959 231.16 182.374V182.822C231.16 183.289 231.23 183.706 231.37 184.075C231.514 184.444 231.729 184.735 232.014 184.95C232.298 185.165 232.658 185.272 233.092 185.272C233.526 185.272 233.883 185.167 234.163 184.957C234.443 184.747 234.613 184.437 234.674 184.026H235.808C235.738 184.469 235.579 184.852 235.332 185.174C235.084 185.491 234.769 185.736 234.387 185.909C234.004 186.082 233.572 186.168 233.092 186.168ZM243.689 186.168C243.041 186.168 242.499 186.077 242.065 185.895C241.631 185.708 241.302 185.454 241.078 185.132C240.854 184.805 240.735 184.432 240.721 184.012H241.771C241.795 184.437 241.965 184.756 242.282 184.971C242.604 185.181 243.041 185.286 243.591 185.286C243.881 185.286 244.147 185.239 244.389 185.146C244.632 185.053 244.826 184.924 244.97 184.761C245.115 184.598 245.187 184.413 245.187 184.208C245.187 183.947 245.092 183.741 244.9 183.592C244.709 183.443 244.403 183.312 243.983 183.2L242.681 182.78C242.117 182.603 241.683 182.36 241.379 182.052C241.081 181.739 240.931 181.366 240.931 180.932C240.931 180.391 241.169 179.957 241.645 179.63C242.121 179.303 242.747 179.14 243.521 179.14C244.343 179.14 244.98 179.308 245.432 179.644C245.885 179.98 246.121 180.4 246.139 180.904H245.061C245.019 180.61 244.87 180.388 244.613 180.239C244.357 180.085 243.993 180.008 243.521 180.008C243.069 180.008 242.714 180.111 242.457 180.316C242.205 180.517 242.079 180.741 242.079 180.988C242.079 181.45 242.476 181.791 243.269 182.01L244.599 182.458C245.173 182.631 245.612 182.857 245.915 183.137C246.223 183.417 246.377 183.774 246.377 184.208C246.377 184.544 246.268 184.861 246.048 185.16C245.829 185.459 245.519 185.701 245.117 185.888C244.716 186.075 244.24 186.168 243.689 186.168ZM251.675 186.168C251.185 186.168 250.758 186.056 250.394 185.832C250.034 185.608 249.757 185.281 249.561 184.852C249.365 184.418 249.267 183.891 249.267 183.27H249.729C249.729 183.685 249.815 184.035 249.988 184.32C250.16 184.605 250.384 184.822 250.66 184.971C250.94 185.116 251.236 185.188 251.549 185.188C251.885 185.188 252.207 185.092 252.515 184.901C252.823 184.705 253.075 184.418 253.271 184.04C253.467 183.662 253.565 183.195 253.565 182.64C253.565 182.108 253.474 181.653 253.292 181.275C253.114 180.897 252.874 180.608 252.571 180.407C252.267 180.206 251.931 180.106 251.563 180.106C251.245 180.106 250.947 180.183 250.667 180.337C250.387 180.491 250.16 180.717 249.988 181.016C249.815 181.31 249.729 181.674 249.729 182.108H249.267C249.267 181.459 249.374 180.916 249.589 180.477C249.803 180.034 250.095 179.7 250.464 179.476C250.832 179.252 251.245 179.14 251.703 179.14C252.225 179.14 252.713 179.28 253.166 179.56C253.618 179.84 253.985 180.241 254.265 180.764C254.545 181.287 254.685 181.912 254.685 182.64C254.685 183.377 254.542 184.01 254.258 184.537C253.978 185.064 253.609 185.468 253.152 185.748C252.694 186.028 252.202 186.168 251.675 186.168ZM248.637 189.29V179.308H249.547L249.729 180.876V189.29H248.637ZM257.442 177.726C257.218 177.726 257.041 177.663 256.91 177.537C256.779 177.406 256.714 177.236 256.714 177.026C256.714 176.821 256.779 176.657 256.91 176.536C257.041 176.415 257.218 176.354 257.442 176.354C257.666 176.354 257.843 176.415 257.974 176.536C258.105 176.657 258.17 176.821 258.17 177.026C258.17 177.236 258.105 177.406 257.974 177.537C257.843 177.663 257.666 177.726 257.442 177.726ZM256.896 186V179.294H257.988V186H256.896ZM263.348 186.168C262.811 186.168 262.31 186.023 261.843 185.734C261.381 185.445 261.008 185.036 260.723 184.509C260.438 183.982 260.296 183.359 260.296 182.64C260.296 181.903 260.438 181.273 260.723 180.75C261.008 180.227 261.381 179.828 261.843 179.553C262.31 179.278 262.811 179.14 263.348 179.14C263.726 179.14 264.064 179.198 264.363 179.315C264.666 179.427 264.93 179.583 265.154 179.784C265.378 179.985 265.562 180.213 265.707 180.47C265.856 180.722 265.966 180.988 266.036 181.268L264.916 181.366C264.799 180.979 264.603 180.673 264.328 180.449C264.057 180.22 263.726 180.106 263.334 180.106C263.003 180.106 262.69 180.202 262.396 180.393C262.107 180.58 261.871 180.862 261.689 181.24C261.507 181.613 261.416 182.08 261.416 182.64C261.416 183.158 261.498 183.608 261.661 183.991C261.829 184.369 262.058 184.663 262.347 184.873C262.636 185.083 262.965 185.188 263.334 185.188C263.852 185.188 264.244 185.062 264.51 184.81C264.781 184.553 264.916 184.199 264.916 183.746H266.036C266.036 184.213 265.926 184.628 265.707 184.992C265.488 185.356 265.175 185.643 264.769 185.853C264.368 186.063 263.894 186.168 263.348 186.168ZM270.539 186.168C269.96 186.168 269.442 186.021 268.985 185.727C268.532 185.428 268.173 185.015 267.907 184.488C267.645 183.961 267.515 183.354 267.515 182.668C267.515 181.935 267.645 181.305 267.907 180.778C268.168 180.251 268.525 179.847 268.978 179.567C269.435 179.282 269.955 179.14 270.539 179.14C271.047 179.14 271.481 179.243 271.841 179.448C272.2 179.653 272.489 179.931 272.709 180.281C272.928 180.631 273.08 181.028 273.164 181.471C273.252 181.91 273.278 182.365 273.241 182.836H268.397V182.164H272.52L272.198 182.374C272.212 182.099 272.195 181.823 272.149 181.548C272.107 181.273 272.025 181.021 271.904 180.792C271.782 180.559 271.612 180.372 271.393 180.232C271.173 180.092 270.893 180.022 270.553 180.022C270.123 180.022 269.764 180.132 269.475 180.351C269.185 180.57 268.968 180.86 268.824 181.219C268.679 181.574 268.607 181.959 268.607 182.374V182.822C268.607 183.289 268.677 183.706 268.817 184.075C268.961 184.444 269.176 184.735 269.461 184.95C269.745 185.165 270.105 185.272 270.539 185.272C270.973 185.272 271.33 185.167 271.61 184.957C271.89 184.747 272.06 184.437 272.121 184.026H273.255C273.185 184.469 273.026 184.852 272.779 185.174C272.531 185.491 272.216 185.736 271.834 185.909C271.451 186.082 271.019 186.168 270.539 186.168ZM277.814 186.168C277.166 186.168 276.624 186.077 276.19 185.895C275.756 185.708 275.427 185.454 275.203 185.132C274.979 184.805 274.86 184.432 274.846 184.012H275.896C275.92 184.437 276.09 184.756 276.407 184.971C276.729 185.181 277.166 185.286 277.716 185.286C278.006 185.286 278.272 185.239 278.514 185.146C278.757 185.053 278.951 184.924 279.095 184.761C279.24 184.598 279.312 184.413 279.312 184.208C279.312 183.947 279.217 183.741 279.025 183.592C278.834 183.443 278.528 183.312 278.108 183.2L276.806 182.78C276.242 182.603 275.808 182.36 275.504 182.052C275.206 181.739 275.056 181.366 275.056 180.932C275.056 180.391 275.294 179.957 275.77 179.63C276.246 179.303 276.872 179.14 277.646 179.14C278.468 179.14 279.105 179.308 279.557 179.644C280.01 179.98 280.246 180.4 280.264 180.904H279.186C279.144 180.61 278.995 180.388 278.738 180.239C278.482 180.085 278.118 180.008 277.646 180.008C277.194 180.008 276.839 180.111 276.582 180.316C276.33 180.517 276.204 180.741 276.204 180.988C276.204 181.45 276.601 181.791 277.394 182.01L278.724 182.458C279.298 182.631 279.737 182.857 280.04 183.137C280.348 183.417 280.502 183.774 280.502 184.208C280.502 184.544 280.393 184.861 280.173 185.16C279.954 185.459 279.644 185.701 279.242 185.888C278.841 186.075 278.365 186.168 277.814 186.168ZM281.768 185.349C281.768 185.13 281.845 184.941 281.999 184.782C282.153 184.623 282.346 184.544 282.58 184.544C282.813 184.544 283.011 184.623 283.175 184.782C283.338 184.941 283.42 185.13 283.42 185.349C283.42 185.568 283.338 185.753 283.175 185.902C283.011 186.051 282.813 186.126 282.58 186.126C282.346 186.126 282.153 186.051 281.999 185.902C281.845 185.748 281.768 185.564 281.768 185.349ZM291.638 186.168C290.863 186.168 290.196 185.974 289.636 185.587C289.076 185.195 288.644 184.654 288.341 183.963C288.038 183.268 287.886 182.463 287.886 181.548C287.886 180.573 288.049 179.751 288.376 179.084C288.707 178.417 289.155 177.913 289.72 177.572C290.289 177.227 290.929 177.054 291.638 177.054C292.576 177.054 293.33 177.29 293.899 177.761C294.473 178.228 294.867 178.837 295.082 179.588L293.906 179.826C293.724 179.28 293.432 178.846 293.031 178.524C292.634 178.197 292.17 178.034 291.638 178.034C291.176 178.034 290.749 178.167 290.357 178.433C289.97 178.694 289.657 179.086 289.419 179.609C289.181 180.132 289.062 180.778 289.062 181.548C289.062 182.248 289.155 182.871 289.342 183.417C289.533 183.963 289.818 184.392 290.196 184.705C290.579 185.018 291.059 185.174 291.638 185.174C292.333 185.174 292.884 184.987 293.29 184.614C293.701 184.241 293.906 183.751 293.906 183.144H295.096C295.096 183.774 294.951 184.315 294.662 184.768C294.373 185.216 293.967 185.561 293.444 185.804C292.926 186.047 292.324 186.168 291.638 186.168ZM299.594 186.168C298.992 186.168 298.455 186.035 297.984 185.769C297.517 185.503 297.148 185.109 296.878 184.586C296.607 184.063 296.472 183.419 296.472 182.654C296.472 181.884 296.607 181.24 296.878 180.722C297.148 180.199 297.517 179.805 297.984 179.539C298.455 179.273 298.992 179.14 299.594 179.14C300.191 179.14 300.723 179.273 301.19 179.539C301.661 179.805 302.03 180.199 302.296 180.722C302.566 181.24 302.702 181.884 302.702 182.654C302.702 183.419 302.566 184.063 302.296 184.586C302.03 185.109 301.661 185.503 301.19 185.769C300.723 186.035 300.191 186.168 299.594 186.168ZM299.566 185.216C300 185.216 300.368 185.113 300.672 184.908C300.975 184.698 301.204 184.402 301.358 184.019C301.516 183.636 301.596 183.181 301.596 182.654C301.596 181.856 301.43 181.228 301.099 180.771C300.767 180.309 300.275 180.078 299.622 180.078C299.183 180.078 298.812 180.183 298.509 180.393C298.21 180.598 297.981 180.895 297.823 181.282C297.669 181.665 297.592 182.122 297.592 182.654C297.592 183.443 297.757 184.068 298.089 184.53C298.425 184.987 298.917 185.216 299.566 185.216ZM314.236 186V182.066C314.236 181.427 314.082 180.941 313.774 180.61C313.471 180.274 313.06 180.106 312.542 180.106C311.935 180.106 311.471 180.342 311.149 180.813C310.827 181.28 310.666 181.926 310.666 182.752H310.162C310.162 182.15 310.22 181.623 310.337 181.17C310.458 180.717 310.633 180.342 310.862 180.043C311.091 179.74 311.368 179.513 311.695 179.364C312.022 179.215 312.393 179.14 312.808 179.14C313.335 179.14 313.786 179.259 314.159 179.497C314.537 179.73 314.826 180.066 315.027 180.505C315.228 180.944 315.328 181.464 315.328 182.066V186H314.236ZM304.828 186V179.308H305.766L305.892 180.652C306.102 180.167 306.396 179.793 306.774 179.532C307.157 179.271 307.614 179.14 308.146 179.14C308.673 179.14 309.124 179.259 309.497 179.497C309.875 179.73 310.164 180.066 310.365 180.505C310.566 180.944 310.666 181.464 310.666 182.066V186H309.588V182.066C309.588 181.427 309.434 180.941 309.126 180.61C308.823 180.274 308.407 180.106 307.88 180.106C307.479 180.106 307.131 180.216 306.837 180.435C306.543 180.654 306.317 180.969 306.158 181.38C305.999 181.786 305.92 182.271 305.92 182.836V186H304.828ZM320.25 186.168C319.671 186.168 319.153 186.021 318.696 185.727C318.243 185.428 317.884 185.015 317.618 184.488C317.356 183.961 317.226 183.354 317.226 182.668C317.226 181.935 317.356 181.305 317.618 180.778C317.879 180.251 318.236 179.847 318.689 179.567C319.146 179.282 319.666 179.14 320.25 179.14C320.758 179.14 321.192 179.243 321.552 179.448C321.911 179.653 322.2 179.931 322.42 180.281C322.639 180.631 322.791 181.028 322.875 181.471C322.963 181.91 322.989 182.365 322.952 182.836H318.108V182.164H322.231L321.909 182.374C321.923 182.099 321.906 181.823 321.86 181.548C321.818 181.273 321.736 181.021 321.615 180.792C321.493 180.559 321.323 180.372 321.104 180.232C320.884 180.092 320.604 180.022 320.264 180.022C319.834 180.022 319.475 180.132 319.186 180.351C318.896 180.57 318.679 180.86 318.535 181.219C318.39 181.574 318.318 181.959 318.318 182.374V182.822C318.318 183.289 318.388 183.706 318.528 184.075C318.672 184.444 318.887 184.735 319.172 184.95C319.456 185.165 319.816 185.272 320.25 185.272C320.684 185.272 321.041 185.167 321.321 184.957C321.601 184.747 321.771 184.437 321.832 184.026H322.966C322.896 184.469 322.737 184.852 322.49 185.174C322.242 185.491 321.927 185.736 321.545 185.909C321.162 186.082 320.73 186.168 320.25 186.168ZM327.525 186.168C326.876 186.168 326.335 186.077 325.901 185.895C325.467 185.708 325.138 185.454 324.914 185.132C324.69 184.805 324.571 184.432 324.557 184.012H325.607C325.63 184.437 325.801 184.756 326.118 184.971C326.44 185.181 326.876 185.286 327.427 185.286C327.716 185.286 327.982 185.239 328.225 185.146C328.468 185.053 328.661 184.924 328.806 184.761C328.951 184.598 329.023 184.413 329.023 184.208C329.023 183.947 328.927 183.741 328.736 183.592C328.545 183.443 328.239 183.312 327.819 183.2L326.517 182.78C325.952 182.603 325.518 182.36 325.215 182.052C324.916 181.739 324.767 181.366 324.767 180.932C324.767 180.391 325.005 179.957 325.481 179.63C325.957 179.303 326.582 179.14 327.357 179.14C328.178 179.14 328.815 179.308 329.268 179.644C329.721 179.98 329.956 180.4 329.975 180.904H328.897C328.855 180.61 328.706 180.388 328.449 180.239C328.192 180.085 327.828 180.008 327.357 180.008C326.904 180.008 326.55 180.111 326.293 180.316C326.041 180.517 325.915 180.741 325.915 180.988C325.915 181.45 326.312 181.791 327.105 182.01L328.435 182.458C329.009 182.631 329.448 182.857 329.751 183.137C330.059 183.417 330.213 183.774 330.213 184.208C330.213 184.544 330.103 184.861 329.884 185.16C329.665 185.459 329.354 185.701 328.953 185.888C328.552 186.075 328.076 186.168 327.525 186.168ZM61.8106 195.308H62.9446L64.6526 200.894H64.5126L66.1786 195.63H67.0886L68.7406 200.908H68.6146L70.3226 195.308H71.4146L69.2166 202H68.1526L66.5286 197.058H66.6966L65.0866 202H64.0226L61.8106 195.308ZM73.7331 193.726C73.5091 193.726 73.3318 193.663 73.2011 193.537C73.0705 193.406 73.0051 193.236 73.0051 193.026C73.0051 192.821 73.0705 192.657 73.2011 192.536C73.3318 192.415 73.5091 192.354 73.7331 192.354C73.9571 192.354 74.1345 192.415 74.2651 192.536C74.3958 192.657 74.4611 192.821 74.4611 193.026C74.4611 193.236 74.3958 193.406 74.2651 193.537C74.1345 193.663 73.9571 193.726 73.7331 193.726ZM73.1871 202V195.294H74.2791V202H73.1871ZM79.345 202.168C78.981 202.168 78.6544 202.098 78.365 201.958C78.0757 201.818 77.847 201.608 77.679 201.328C77.511 201.048 77.427 200.698 77.427 200.278V193.446H78.505V200.25C78.505 200.941 78.827 201.286 79.471 201.286C79.6624 201.286 79.8467 201.265 80.024 201.223C80.206 201.181 80.409 201.118 80.633 201.034L80.787 201.818C80.549 201.921 80.311 202.005 80.073 202.07C79.8397 202.135 79.597 202.168 79.345 202.168ZM76.349 196.064V195.308H80.619V196.064H76.349ZM87.3107 202V198.066C87.3107 197.427 87.1567 196.941 86.8487 196.61C86.5454 196.274 86.1301 196.106 85.6027 196.106C85.2014 196.106 84.8537 196.216 84.5597 196.435C84.2657 196.654 84.0394 196.969 83.8807 197.38C83.7221 197.786 83.6427 198.271 83.6427 198.836H83.2227C83.2227 198.057 83.3254 197.392 83.5307 196.841C83.7361 196.29 84.0347 195.87 84.4267 195.581C84.8234 195.287 85.3041 195.14 85.8687 195.14C86.3961 195.14 86.8464 195.259 87.2197 195.497C87.5977 195.73 87.8871 196.066 88.0877 196.505C88.2884 196.944 88.3887 197.464 88.3887 198.066V202H87.3107ZM82.5507 202V192.452H83.6427V202H82.5507ZM98.4662 202L98.3262 200.53V197.66C98.3262 197.058 98.1979 196.626 97.9412 196.365C97.6845 196.099 97.2995 195.966 96.7862 195.966C96.4969 195.966 96.2332 196.008 95.9952 196.092C95.7619 196.176 95.5752 196.307 95.4352 196.484C95.2999 196.657 95.2322 196.881 95.2322 197.156H94.0142C94.0142 196.671 94.1332 196.281 94.3712 195.987C94.6092 195.688 94.9359 195.474 95.3512 195.343C95.7712 195.208 96.2495 195.14 96.7862 195.14C97.2995 195.14 97.7545 195.226 98.1512 195.399C98.5479 195.572 98.8582 195.847 99.0822 196.225C99.3062 196.598 99.4182 197.086 99.4182 197.688V202H98.4662ZM96.1842 202.168C95.6335 202.168 95.1785 202.07 94.8192 201.874C94.4599 201.678 94.1915 201.424 94.0142 201.111C93.8369 200.798 93.7482 200.469 93.7482 200.124C93.7482 199.671 93.8602 199.303 94.0842 199.018C94.3129 198.733 94.6232 198.526 95.0152 198.395C95.4072 198.26 95.8482 198.192 96.3382 198.192C96.6882 198.192 97.0382 198.227 97.3882 198.297C97.7429 198.367 98.0882 198.463 98.4242 198.584V199.27C98.1442 199.158 97.8269 199.069 97.4722 199.004C97.1222 198.939 96.8002 198.906 96.5062 198.906C96.0582 198.906 95.6802 198.999 95.3722 199.186C95.0642 199.368 94.9102 199.681 94.9102 200.124C94.9102 200.451 95.0269 200.731 95.2602 200.964C95.4982 201.197 95.8762 201.314 96.3942 201.314C96.7582 201.314 97.0849 201.23 97.3742 201.062C97.6682 200.889 97.8992 200.675 98.0672 200.418C98.2399 200.161 98.3262 199.905 98.3262 199.648H98.5922C98.5922 200.096 98.4942 200.511 98.2982 200.894C98.1069 201.277 97.8315 201.585 97.4722 201.818C97.1129 202.051 96.6835 202.168 96.1842 202.168ZM104.193 195.308H105.439L107.539 201.062H107.385L109.485 195.308H110.731L108.057 202H106.867L104.193 195.308ZM114.72 202.168C114.142 202.168 113.624 202.021 113.166 201.727C112.714 201.428 112.354 201.015 112.088 200.488C111.827 199.961 111.696 199.354 111.696 198.668C111.696 197.935 111.827 197.305 112.088 196.778C112.35 196.251 112.707 195.847 113.159 195.567C113.617 195.282 114.137 195.14 114.72 195.14C115.229 195.14 115.663 195.243 116.022 195.448C116.382 195.653 116.671 195.931 116.89 196.281C117.11 196.631 117.261 197.028 117.345 197.471C117.434 197.91 117.46 198.365 117.422 198.836H112.578V198.164H116.701L116.379 198.374C116.393 198.099 116.377 197.823 116.33 197.548C116.288 197.273 116.207 197.021 116.085 196.792C115.964 196.559 115.794 196.372 115.574 196.232C115.355 196.092 115.075 196.022 114.734 196.022C114.305 196.022 113.946 196.132 113.656 196.351C113.367 196.57 113.15 196.86 113.005 197.219C112.861 197.574 112.788 197.959 112.788 198.374V198.822C112.788 199.289 112.858 199.706 112.998 200.075C113.143 200.444 113.358 200.735 113.642 200.95C113.927 201.165 114.286 201.272 114.72 201.272C115.154 201.272 115.511 201.167 115.791 200.957C116.071 200.747 116.242 200.437 116.302 200.026H117.436C117.366 200.469 117.208 200.852 116.96 201.174C116.713 201.491 116.398 201.736 116.015 201.909C115.633 202.082 115.201 202.168 114.72 202.168ZM121.954 205.444C121.268 205.444 120.673 205.346 120.169 205.15C119.665 204.959 119.273 204.7 118.993 204.373C118.717 204.051 118.58 203.694 118.58 203.302C118.58 202.784 118.769 202.387 119.147 202.112C119.529 201.841 120.022 201.706 120.624 201.706L121.226 202.084C120.722 202.084 120.332 202.189 120.057 202.399C119.781 202.609 119.644 202.896 119.644 203.26C119.644 203.624 119.84 203.932 120.232 204.184C120.624 204.436 121.198 204.562 121.954 204.562C122.514 204.562 123.004 204.48 123.424 204.317C123.848 204.158 124.177 203.948 124.411 203.687C124.649 203.43 124.768 203.153 124.768 202.854C124.768 202.644 124.691 202.462 124.537 202.308C124.383 202.159 124.147 202.084 123.83 202.084H121.226C120.773 202.084 120.381 202.016 120.05 201.881C119.723 201.741 119.471 201.559 119.294 201.335C119.116 201.111 119.028 200.866 119.028 200.6C119.028 200.32 119.107 200.082 119.266 199.886C119.424 199.69 119.63 199.541 119.882 199.438C120.138 199.335 120.414 199.284 120.708 199.284L120.918 199.69C120.778 199.69 120.635 199.723 120.491 199.788C120.351 199.849 120.232 199.942 120.134 200.068C120.04 200.189 119.994 200.343 119.994 200.53C119.994 200.745 120.082 200.924 120.26 201.069C120.437 201.214 120.759 201.286 121.226 201.286H123.83C124.46 201.286 124.954 201.419 125.314 201.685C125.678 201.951 125.86 202.322 125.86 202.798C125.86 203.237 125.703 203.657 125.391 204.058C125.078 204.464 124.63 204.795 124.047 205.052C123.463 205.313 122.766 205.444 121.954 205.444ZM122.15 200.04C121.636 200.04 121.172 199.937 120.757 199.732C120.346 199.527 120.019 199.24 119.777 198.871C119.539 198.502 119.42 198.075 119.42 197.59C119.42 197.1 119.539 196.671 119.777 196.302C120.019 195.933 120.346 195.649 120.757 195.448C121.172 195.243 121.636 195.14 122.15 195.14C122.649 195.14 123.102 195.243 123.508 195.448C123.918 195.649 124.245 195.933 124.488 196.302C124.73 196.671 124.852 197.1 124.852 197.59C124.852 198.075 124.73 198.502 124.488 198.871C124.245 199.24 123.918 199.527 123.508 199.732C123.102 199.937 122.649 200.04 122.15 200.04ZM122.15 199.256C122.663 199.256 123.062 199.097 123.347 198.78C123.631 198.463 123.774 198.066 123.774 197.59C123.774 197.1 123.631 196.703 123.347 196.4C123.062 196.092 122.663 195.938 122.15 195.938C121.641 195.938 121.24 196.092 120.946 196.4C120.656 196.703 120.512 197.1 120.512 197.59C120.512 198.066 120.656 198.463 120.946 198.78C121.24 199.097 121.641 199.256 122.15 199.256ZM124.348 196.204L123.83 195.994C123.83 195.602 123.907 195.259 124.061 194.965C124.215 194.666 124.434 194.435 124.719 194.272C125.003 194.104 125.342 194.02 125.734 194.02L125.65 195.098C125.23 195.098 124.908 195.189 124.684 195.371C124.46 195.548 124.348 195.826 124.348 196.204ZM129.856 205.444C129.17 205.444 128.575 205.346 128.071 205.15C127.567 204.959 127.175 204.7 126.895 204.373C126.62 204.051 126.482 203.694 126.482 203.302C126.482 202.784 126.671 202.387 127.049 202.112C127.432 201.841 127.924 201.706 128.526 201.706L129.128 202.084C128.624 202.084 128.235 202.189 127.959 202.399C127.684 202.609 127.546 202.896 127.546 203.26C127.546 203.624 127.742 203.932 128.134 204.184C128.526 204.436 129.1 204.562 129.856 204.562C130.416 204.562 130.906 204.48 131.326 204.317C131.751 204.158 132.08 203.948 132.313 203.687C132.551 203.43 132.67 203.153 132.67 202.854C132.67 202.644 132.593 202.462 132.439 202.308C132.285 202.159 132.05 202.084 131.732 202.084H129.128C128.676 202.084 128.284 202.016 127.952 201.881C127.626 201.741 127.374 201.559 127.196 201.335C127.019 201.111 126.93 200.866 126.93 200.6C126.93 200.32 127.01 200.082 127.168 199.886C127.327 199.69 127.532 199.541 127.784 199.438C128.041 199.335 128.316 199.284 128.61 199.284L128.82 199.69C128.68 199.69 128.538 199.723 128.393 199.788C128.253 199.849 128.134 199.942 128.036 200.068C127.943 200.189 127.896 200.343 127.896 200.53C127.896 200.745 127.985 200.924 128.162 201.069C128.34 201.214 128.662 201.286 129.128 201.286H131.732C132.362 201.286 132.857 201.419 133.216 201.685C133.58 201.951 133.762 202.322 133.762 202.798C133.762 203.237 133.606 203.657 133.293 204.058C132.981 204.464 132.533 204.795 131.949 205.052C131.366 205.313 130.668 205.444 129.856 205.444ZM130.052 200.04C129.539 200.04 129.075 199.937 128.659 199.732C128.249 199.527 127.922 199.24 127.679 198.871C127.441 198.502 127.322 198.075 127.322 197.59C127.322 197.1 127.441 196.671 127.679 196.302C127.922 195.933 128.249 195.649 128.659 195.448C129.075 195.243 129.539 195.14 130.052 195.14C130.552 195.14 131.004 195.243 131.41 195.448C131.821 195.649 132.148 195.933 132.39 196.302C132.633 196.671 132.754 197.1 132.754 197.59C132.754 198.075 132.633 198.502 132.39 198.871C132.148 199.24 131.821 199.527 131.41 199.732C131.004 199.937 130.552 200.04 130.052 200.04ZM130.052 199.256C130.566 199.256 130.965 199.097 131.249 198.78C131.534 198.463 131.676 198.066 131.676 197.59C131.676 197.1 131.534 196.703 131.249 196.4C130.965 196.092 130.566 195.938 130.052 195.938C129.544 195.938 129.142 196.092 128.848 196.4C128.559 196.703 128.414 197.1 128.414 197.59C128.414 198.066 128.559 198.463 128.848 198.78C129.142 199.097 129.544 199.256 130.052 199.256ZM132.25 196.204L131.732 195.994C131.732 195.602 131.809 195.259 131.963 194.965C132.117 194.666 132.337 194.435 132.621 194.272C132.906 194.104 133.244 194.02 133.636 194.02L133.552 195.098C133.132 195.098 132.81 195.189 132.586 195.371C132.362 195.548 132.25 195.826 132.25 196.204ZM136.009 193.726C135.785 193.726 135.607 193.663 135.477 193.537C135.346 193.406 135.281 193.236 135.281 193.026C135.281 192.821 135.346 192.657 135.477 192.536C135.607 192.415 135.785 192.354 136.009 192.354C136.233 192.354 136.41 192.415 136.541 192.536C136.671 192.657 136.737 192.821 136.737 193.026C136.737 193.236 136.671 193.406 136.541 193.537C136.41 193.663 136.233 193.726 136.009 193.726ZM135.463 202V195.294H136.555V202H135.463ZM141.886 202.168C141.308 202.168 140.79 202.021 140.332 201.727C139.88 201.428 139.52 201.015 139.254 200.488C138.993 199.961 138.862 199.354 138.862 198.668C138.862 197.935 138.993 197.305 139.254 196.778C139.516 196.251 139.873 195.847 140.325 195.567C140.783 195.282 141.303 195.14 141.886 195.14C142.395 195.14 142.829 195.243 143.188 195.448C143.548 195.653 143.837 195.931 144.056 196.281C144.276 196.631 144.427 197.028 144.511 197.471C144.6 197.91 144.626 198.365 144.588 198.836H139.744V198.164H143.867L143.545 198.374C143.559 198.099 143.543 197.823 143.496 197.548C143.454 197.273 143.373 197.021 143.251 196.792C143.13 196.559 142.96 196.372 142.74 196.232C142.521 196.092 142.241 196.022 141.9 196.022C141.471 196.022 141.112 196.132 140.822 196.351C140.533 196.57 140.316 196.86 140.171 197.219C140.027 197.574 139.954 197.959 139.954 198.374V198.822C139.954 199.289 140.024 199.706 140.164 200.075C140.309 200.444 140.524 200.735 140.808 200.95C141.093 201.165 141.452 201.272 141.886 201.272C142.32 201.272 142.677 201.167 142.957 200.957C143.237 200.747 143.408 200.437 143.468 200.026H144.602C144.532 200.469 144.374 200.852 144.126 201.174C143.879 201.491 143.564 201.736 143.181 201.909C142.799 202.082 142.367 202.168 141.886 202.168ZM146.586 203.526L145.76 203.12C146.026 202.985 146.25 202.835 146.432 202.672C146.619 202.509 146.74 202.308 146.796 202.07C146.595 202.047 146.423 201.974 146.278 201.853C146.138 201.732 146.068 201.571 146.068 201.37C146.068 201.174 146.14 201.006 146.285 200.866C146.434 200.726 146.623 200.656 146.852 200.656C147.141 200.656 147.375 200.761 147.552 200.971C147.729 201.181 147.818 201.431 147.818 201.72C147.818 202.061 147.713 202.394 147.503 202.721C147.298 203.052 146.992 203.321 146.586 203.526ZM155.41 202.168C154.761 202.168 154.22 202.077 153.786 201.895C153.352 201.708 153.023 201.454 152.799 201.132C152.575 200.805 152.456 200.432 152.442 200.012H153.492C153.515 200.437 153.686 200.756 154.003 200.971C154.325 201.181 154.761 201.286 155.312 201.286C155.601 201.286 155.867 201.239 156.11 201.146C156.353 201.053 156.546 200.924 156.691 200.761C156.836 200.598 156.908 200.413 156.908 200.208C156.908 199.947 156.812 199.741 156.621 199.592C156.43 199.443 156.124 199.312 155.704 199.2L154.402 198.78C153.837 198.603 153.403 198.36 153.1 198.052C152.801 197.739 152.652 197.366 152.652 196.932C152.652 196.391 152.89 195.957 153.366 195.63C153.842 195.303 154.467 195.14 155.242 195.14C156.063 195.14 156.7 195.308 157.153 195.644C157.606 195.98 157.841 196.4 157.86 196.904H156.782C156.74 196.61 156.591 196.388 156.334 196.239C156.077 196.085 155.713 196.008 155.242 196.008C154.789 196.008 154.435 196.111 154.178 196.316C153.926 196.517 153.8 196.741 153.8 196.988C153.8 197.45 154.197 197.791 154.99 198.01L156.32 198.458C156.894 198.631 157.333 198.857 157.636 199.137C157.944 199.417 158.098 199.774 158.098 200.208C158.098 200.544 157.988 200.861 157.769 201.16C157.55 201.459 157.239 201.701 156.838 201.888C156.437 202.075 155.961 202.168 155.41 202.168ZM164.501 202L164.361 200.53V197.66C164.361 197.058 164.233 196.626 163.976 196.365C163.72 196.099 163.335 195.966 162.821 195.966C162.532 195.966 162.268 196.008 162.03 196.092C161.797 196.176 161.61 196.307 161.47 196.484C161.335 196.657 161.267 196.881 161.267 197.156H160.049C160.049 196.671 160.168 196.281 160.406 195.987C160.644 195.688 160.971 195.474 161.386 195.343C161.806 195.208 162.285 195.14 162.821 195.14C163.335 195.14 163.79 195.226 164.186 195.399C164.583 195.572 164.893 195.847 165.117 196.225C165.341 196.598 165.453 197.086 165.453 197.688V202H164.501ZM162.219 202.168C161.669 202.168 161.214 202.07 160.854 201.874C160.495 201.678 160.227 201.424 160.049 201.111C159.872 200.798 159.783 200.469 159.783 200.124C159.783 199.671 159.895 199.303 160.119 199.018C160.348 198.733 160.658 198.526 161.05 198.395C161.442 198.26 161.883 198.192 162.373 198.192C162.723 198.192 163.073 198.227 163.423 198.297C163.778 198.367 164.123 198.463 164.459 198.584V199.27C164.179 199.158 163.862 199.069 163.507 199.004C163.157 198.939 162.835 198.906 162.541 198.906C162.093 198.906 161.715 198.999 161.407 199.186C161.099 199.368 160.945 199.681 160.945 200.124C160.945 200.451 161.062 200.731 161.295 200.964C161.533 201.197 161.911 201.314 162.429 201.314C162.793 201.314 163.12 201.23 163.409 201.062C163.703 200.889 163.934 200.675 164.102 200.418C164.275 200.161 164.361 199.905 164.361 199.648H164.627C164.627 200.096 164.529 200.511 164.333 200.894C164.142 201.277 163.867 201.585 163.507 201.818C163.148 202.051 162.719 202.168 162.219 202.168ZM168.068 202V192.452H169.16V202H168.068ZM176.136 202L175.996 200.53V197.66C175.996 197.058 175.868 196.626 175.611 196.365C175.354 196.099 174.969 195.966 174.456 195.966C174.167 195.966 173.903 196.008 173.665 196.092C173.432 196.176 173.245 196.307 173.105 196.484C172.97 196.657 172.902 196.881 172.902 197.156H171.684C171.684 196.671 171.803 196.281 172.041 195.987C172.279 195.688 172.606 195.474 173.021 195.343C173.441 195.208 173.919 195.14 174.456 195.14C174.969 195.14 175.424 195.226 175.821 195.399C176.218 195.572 176.528 195.847 176.752 196.225C176.976 196.598 177.088 197.086 177.088 197.688V202H176.136ZM173.854 202.168C173.303 202.168 172.848 202.07 172.489 201.874C172.13 201.678 171.861 201.424 171.684 201.111C171.507 200.798 171.418 200.469 171.418 200.124C171.418 199.671 171.53 199.303 171.754 199.018C171.983 198.733 172.293 198.526 172.685 198.395C173.077 198.26 173.518 198.192 174.008 198.192C174.358 198.192 174.708 198.227 175.058 198.297C175.413 198.367 175.758 198.463 176.094 198.584V199.27C175.814 199.158 175.497 199.069 175.142 199.004C174.792 198.939 174.47 198.906 174.176 198.906C173.728 198.906 173.35 198.999 173.042 199.186C172.734 199.368 172.58 199.681 172.58 200.124C172.58 200.451 172.697 200.731 172.93 200.964C173.168 201.197 173.546 201.314 174.064 201.314C174.428 201.314 174.755 201.23 175.044 201.062C175.338 200.889 175.569 200.675 175.737 200.418C175.91 200.161 175.996 199.905 175.996 199.648H176.262C176.262 200.096 176.164 200.511 175.968 200.894C175.777 201.277 175.501 201.585 175.142 201.818C174.783 202.051 174.353 202.168 173.854 202.168ZM182.097 202.168C181.556 202.168 181.059 202.023 180.606 201.734C180.153 201.44 179.792 201.029 179.521 200.502C179.25 199.97 179.115 199.345 179.115 198.626C179.115 197.912 179.248 197.294 179.514 196.771C179.78 196.248 180.132 195.847 180.571 195.567C181.014 195.282 181.5 195.14 182.027 195.14C182.517 195.14 182.946 195.259 183.315 195.497C183.688 195.735 183.978 196.078 184.183 196.526C184.388 196.974 184.491 197.515 184.491 198.15H184.071C184.071 197.707 183.982 197.333 183.805 197.03C183.632 196.727 183.406 196.498 183.126 196.344C182.846 196.185 182.545 196.106 182.223 196.106C181.859 196.106 181.525 196.209 181.222 196.414C180.923 196.615 180.683 196.904 180.501 197.282C180.324 197.655 180.235 198.103 180.235 198.626C180.235 199.158 180.324 199.615 180.501 199.998C180.683 200.381 180.923 200.675 181.222 200.88C181.525 201.085 181.859 201.188 182.223 201.188C182.526 201.188 182.818 201.109 183.098 200.95C183.383 200.791 183.616 200.56 183.798 200.257C183.98 199.949 184.071 199.578 184.071 199.144H184.491C184.491 199.793 184.384 200.343 184.169 200.796C183.959 201.244 183.672 201.585 183.308 201.818C182.949 202.051 182.545 202.168 182.097 202.168ZM184.253 202L184.071 200.432V192.452H185.163V202H184.253ZM187.834 203.526L187.008 203.12C187.274 202.985 187.498 202.835 187.68 202.672C187.867 202.509 187.988 202.308 188.044 202.07C187.843 202.047 187.671 201.974 187.526 201.853C187.386 201.732 187.316 201.571 187.316 201.37C187.316 201.174 187.388 201.006 187.533 200.866C187.682 200.726 187.871 200.656 188.1 200.656C188.389 200.656 188.623 200.761 188.8 200.971C188.977 201.181 189.066 201.431 189.066 201.72C189.066 202.061 188.961 202.394 188.751 202.721C188.546 203.052 188.24 203.321 187.834 203.526ZM198.394 202L198.254 200.53V197.66C198.254 197.058 198.126 196.626 197.869 196.365C197.612 196.099 197.227 195.966 196.714 195.966C196.425 195.966 196.161 196.008 195.923 196.092C195.69 196.176 195.503 196.307 195.363 196.484C195.228 196.657 195.16 196.881 195.16 197.156H193.942C193.942 196.671 194.061 196.281 194.299 195.987C194.537 195.688 194.864 195.474 195.279 195.343C195.699 195.208 196.177 195.14 196.714 195.14C197.227 195.14 197.682 195.226 198.079 195.399C198.476 195.572 198.786 195.847 199.01 196.225C199.234 196.598 199.346 197.086 199.346 197.688V202H198.394ZM196.112 202.168C195.561 202.168 195.106 202.07 194.747 201.874C194.388 201.678 194.119 201.424 193.942 201.111C193.765 200.798 193.676 200.469 193.676 200.124C193.676 199.671 193.788 199.303 194.012 199.018C194.241 198.733 194.551 198.526 194.943 198.395C195.335 198.26 195.776 198.192 196.266 198.192C196.616 198.192 196.966 198.227 197.316 198.297C197.671 198.367 198.016 198.463 198.352 198.584V199.27C198.072 199.158 197.755 199.069 197.4 199.004C197.05 198.939 196.728 198.906 196.434 198.906C195.986 198.906 195.608 198.999 195.3 199.186C194.992 199.368 194.838 199.681 194.838 200.124C194.838 200.451 194.955 200.731 195.188 200.964C195.426 201.197 195.804 201.314 196.322 201.314C196.686 201.314 197.013 201.23 197.302 201.062C197.596 200.889 197.827 200.675 197.995 200.418C198.168 200.161 198.254 199.905 198.254 199.648H198.52C198.52 200.096 198.422 200.511 198.226 200.894C198.035 201.277 197.759 201.585 197.4 201.818C197.041 202.051 196.611 202.168 196.112 202.168ZM206.721 202V198.066C206.721 197.427 206.567 196.941 206.259 196.61C205.956 196.274 205.54 196.106 205.013 196.106C204.612 196.106 204.264 196.216 203.97 196.435C203.676 196.654 203.45 196.969 203.291 197.38C203.132 197.786 203.053 198.271 203.053 198.836H202.633C202.633 198.057 202.736 197.392 202.941 196.841C203.146 196.29 203.445 195.87 203.837 195.581C204.234 195.287 204.714 195.14 205.279 195.14C205.806 195.14 206.257 195.259 206.63 195.497C207.008 195.73 207.297 196.066 207.498 196.505C207.699 196.944 207.799 197.464 207.799 198.066V202H206.721ZM201.961 202V195.308H202.899L203.053 196.848V202H201.961ZM212.804 202.168C212.263 202.168 211.766 202.023 211.313 201.734C210.86 201.44 210.499 201.029 210.228 200.502C209.957 199.97 209.822 199.345 209.822 198.626C209.822 197.912 209.955 197.294 210.221 196.771C210.487 196.248 210.839 195.847 211.278 195.567C211.721 195.282 212.207 195.14 212.734 195.14C213.224 195.14 213.653 195.259 214.022 195.497C214.395 195.735 214.685 196.078 214.89 196.526C215.095 196.974 215.198 197.515 215.198 198.15H214.778C214.778 197.707 214.689 197.333 214.512 197.03C214.339 196.727 214.113 196.498 213.833 196.344C213.553 196.185 213.252 196.106 212.93 196.106C212.566 196.106 212.232 196.209 211.929 196.414C211.63 196.615 211.39 196.904 211.208 197.282C211.031 197.655 210.942 198.103 210.942 198.626C210.942 199.158 211.031 199.615 211.208 199.998C211.39 200.381 211.63 200.675 211.929 200.88C212.232 201.085 212.566 201.188 212.93 201.188C213.233 201.188 213.525 201.109 213.805 200.95C214.09 200.791 214.323 200.56 214.505 200.257C214.687 199.949 214.778 199.578 214.778 199.144H215.198C215.198 199.793 215.091 200.343 214.876 200.796C214.666 201.244 214.379 201.585 214.015 201.818C213.656 202.051 213.252 202.168 212.804 202.168ZM214.96 202L214.778 200.432V192.452H215.87V202H214.96ZM226.175 202L226.035 200.53V197.66C226.035 197.058 225.907 196.626 225.65 196.365C225.394 196.099 225.009 195.966 224.495 195.966C224.206 195.966 223.942 196.008 223.704 196.092C223.471 196.176 223.284 196.307 223.144 196.484C223.009 196.657 222.941 196.881 222.941 197.156H221.723C221.723 196.671 221.842 196.281 222.08 195.987C222.318 195.688 222.645 195.474 223.06 195.343C223.48 195.208 223.959 195.14 224.495 195.14C225.009 195.14 225.464 195.226 225.86 195.399C226.257 195.572 226.567 195.847 226.791 196.225C227.015 196.598 227.127 197.086 227.127 197.688V202H226.175ZM223.893 202.168C223.343 202.168 222.888 202.07 222.528 201.874C222.169 201.678 221.901 201.424 221.723 201.111C221.546 200.798 221.457 200.469 221.457 200.124C221.457 199.671 221.569 199.303 221.793 199.018C222.022 198.733 222.332 198.526 222.724 198.395C223.116 198.26 223.557 198.192 224.047 198.192C224.397 198.192 224.747 198.227 225.097 198.297C225.452 198.367 225.797 198.463 226.133 198.584V199.27C225.853 199.158 225.536 199.069 225.181 199.004C224.831 198.939 224.509 198.906 224.215 198.906C223.767 198.906 223.389 198.999 223.081 199.186C222.773 199.368 222.619 199.681 222.619 200.124C222.619 200.451 222.736 200.731 222.969 200.964C223.207 201.197 223.585 201.314 224.103 201.314C224.467 201.314 224.794 201.23 225.083 201.062C225.377 200.889 225.608 200.675 225.776 200.418C225.949 200.161 226.035 199.905 226.035 199.648H226.301C226.301 200.096 226.203 200.511 226.007 200.894C225.816 201.277 225.541 201.585 225.181 201.818C224.822 202.051 224.393 202.168 223.893 202.168ZM235.472 202.168C234.824 202.168 234.282 202.077 233.848 201.895C233.414 201.708 233.085 201.454 232.861 201.132C232.637 200.805 232.518 200.432 232.504 200.012H233.554C233.578 200.437 233.748 200.756 234.065 200.971C234.387 201.181 234.824 201.286 235.374 201.286C235.664 201.286 235.93 201.239 236.172 201.146C236.415 201.053 236.609 200.924 236.753 200.761C236.898 200.598 236.97 200.413 236.97 200.208C236.97 199.947 236.875 199.741 236.683 199.592C236.492 199.443 236.186 199.312 235.766 199.2L234.464 198.78C233.9 198.603 233.466 198.36 233.162 198.052C232.864 197.739 232.714 197.366 232.714 196.932C232.714 196.391 232.952 195.957 233.428 195.63C233.904 195.303 234.53 195.14 235.304 195.14C236.126 195.14 236.763 195.308 237.215 195.644C237.668 195.98 237.904 196.4 237.922 196.904H236.844C236.802 196.61 236.653 196.388 236.396 196.239C236.14 196.085 235.776 196.008 235.304 196.008C234.852 196.008 234.497 196.111 234.24 196.316C233.988 196.517 233.862 196.741 233.862 196.988C233.862 197.45 234.259 197.791 235.052 198.01L236.382 198.458C236.956 198.631 237.395 198.857 237.698 199.137C238.006 199.417 238.16 199.774 238.16 200.208C238.16 200.544 238.051 200.861 237.831 201.16C237.612 201.459 237.302 201.701 236.9 201.888C236.499 202.075 236.023 202.168 235.472 202.168ZM241.036 193.726C240.812 193.726 240.635 193.663 240.504 193.537C240.373 193.406 240.308 193.236 240.308 193.026C240.308 192.821 240.373 192.657 240.504 192.536C240.635 192.415 240.812 192.354 241.036 192.354C241.26 192.354 241.437 192.415 241.568 192.536C241.699 192.657 241.764 192.821 241.764 193.026C241.764 193.236 241.699 193.406 241.568 193.537C241.437 193.663 241.26 193.726 241.036 193.726ZM240.49 202V195.294H241.582V202H240.49ZM246.984 202.168C246.442 202.168 245.945 202.023 245.493 201.734C245.04 201.44 244.678 201.029 244.408 200.502C244.137 199.97 244.002 199.345 244.002 198.626C244.002 197.912 244.135 197.294 244.401 196.771C244.667 196.248 245.019 195.847 245.458 195.567C245.901 195.282 246.386 195.14 246.914 195.14C247.404 195.14 247.833 195.259 248.202 195.497C248.575 195.735 248.864 196.078 249.07 196.526C249.275 196.974 249.378 197.515 249.378 198.15H248.958C248.958 197.707 248.869 197.333 248.692 197.03C248.519 196.727 248.293 196.498 248.013 196.344C247.733 196.185 247.432 196.106 247.11 196.106C246.746 196.106 246.412 196.209 246.109 196.414C245.81 196.615 245.57 196.904 245.388 197.282C245.21 197.655 245.122 198.103 245.122 198.626C245.122 199.158 245.21 199.615 245.388 199.998C245.57 200.381 245.81 200.675 246.109 200.88C246.412 201.085 246.746 201.188 247.11 201.188C247.413 201.188 247.705 201.109 247.985 200.95C248.269 200.791 248.503 200.56 248.685 200.257C248.867 199.949 248.958 199.578 248.958 199.144H249.378C249.378 199.793 249.27 200.343 249.056 200.796C248.846 201.244 248.559 201.585 248.195 201.818C247.835 202.051 247.432 202.168 246.984 202.168ZM249.14 202L248.958 200.432V192.452H250.05V202H249.14ZM255.213 202.168C254.634 202.168 254.116 202.021 253.659 201.727C253.206 201.428 252.847 201.015 252.581 200.488C252.319 199.961 252.189 199.354 252.189 198.668C252.189 197.935 252.319 197.305 252.581 196.778C252.842 196.251 253.199 195.847 253.652 195.567C254.109 195.282 254.629 195.14 255.213 195.14C255.721 195.14 256.155 195.243 256.515 195.448C256.874 195.653 257.163 195.931 257.383 196.281C257.602 196.631 257.754 197.028 257.838 197.471C257.926 197.91 257.952 198.365 257.915 198.836H253.071V198.164H257.194L256.872 198.374C256.886 198.099 256.869 197.823 256.823 197.548C256.781 197.273 256.699 197.021 256.578 196.792C256.456 196.559 256.286 196.372 256.067 196.232C255.847 196.092 255.567 196.022 255.227 196.022C254.797 196.022 254.438 196.132 254.149 196.351C253.859 196.57 253.642 196.86 253.498 197.219C253.353 197.574 253.281 197.959 253.281 198.374V198.822C253.281 199.289 253.351 199.706 253.491 200.075C253.635 200.444 253.85 200.735 254.135 200.95C254.419 201.165 254.779 201.272 255.213 201.272C255.647 201.272 256.004 201.167 256.284 200.957C256.564 200.747 256.734 200.437 256.795 200.026H257.929C257.859 200.469 257.7 200.852 257.453 201.174C257.205 201.491 256.89 201.736 256.508 201.909C256.125 202.082 255.693 202.168 255.213 202.168ZM265.824 202.168C265.222 202.168 264.686 202.035 264.214 201.769C263.748 201.503 263.379 201.109 263.108 200.586C262.838 200.063 262.702 199.419 262.702 198.654C262.702 197.884 262.838 197.24 263.108 196.722C263.379 196.199 263.748 195.805 264.214 195.539C264.686 195.273 265.222 195.14 265.824 195.14C266.422 195.14 266.954 195.273 267.42 195.539C267.892 195.805 268.26 196.199 268.526 196.722C268.797 197.24 268.932 197.884 268.932 198.654C268.932 199.419 268.797 200.063 268.526 200.586C268.26 201.109 267.892 201.503 267.42 201.769C266.954 202.035 266.422 202.168 265.824 202.168ZM265.796 201.216C266.23 201.216 266.599 201.113 266.902 200.908C267.206 200.698 267.434 200.402 267.588 200.019C267.747 199.636 267.826 199.181 267.826 198.654C267.826 197.856 267.661 197.228 267.329 196.771C266.998 196.309 266.506 196.078 265.852 196.078C265.414 196.078 265.043 196.183 264.739 196.393C264.441 196.598 264.212 196.895 264.053 197.282C263.899 197.665 263.822 198.122 263.822 198.654C263.822 199.443 263.988 200.068 264.319 200.53C264.655 200.987 265.148 201.216 265.796 201.216ZM271.423 202V194.272C271.423 193.829 271.507 193.467 271.675 193.187C271.847 192.902 272.076 192.692 272.361 192.557C272.65 192.422 272.972 192.354 273.327 192.354C273.518 192.354 273.712 192.368 273.908 192.396C274.108 192.424 274.307 192.466 274.503 192.522L274.293 193.39C274.153 193.334 274.013 193.292 273.873 193.264C273.737 193.236 273.607 193.222 273.481 193.222C273.331 193.222 273.182 193.25 273.033 193.306C272.883 193.362 272.76 193.467 272.662 193.621C272.564 193.775 272.515 193.997 272.515 194.286V202H271.423ZM270.331 196.064V195.308H273.901V196.064H270.331ZM279.18 202V195.294H280.272V202H279.18ZM279.936 198.976C279.936 198.127 280.017 197.422 280.181 196.862C280.344 196.297 280.582 195.877 280.895 195.602C281.212 195.322 281.597 195.182 282.05 195.182C282.199 195.182 282.334 195.194 282.456 195.217C282.582 195.236 282.708 195.266 282.834 195.308L282.764 196.386C282.633 196.344 282.491 196.309 282.337 196.281C282.183 196.248 282.045 196.232 281.924 196.232C281.527 196.232 281.207 196.346 280.965 196.575C280.722 196.799 280.545 197.116 280.433 197.527C280.325 197.938 280.272 198.421 280.272 198.976H279.936ZM284.854 193.726C284.63 193.726 284.453 193.663 284.322 193.537C284.192 193.406 284.126 193.236 284.126 193.026C284.126 192.821 284.192 192.657 284.322 192.536C284.453 192.415 284.63 192.354 284.854 192.354C285.078 192.354 285.256 192.415 285.386 192.536C285.517 192.657 285.582 192.821 285.582 193.026C285.582 193.236 285.517 193.406 285.386 193.537C285.256 193.663 285.078 193.726 284.854 193.726ZM284.308 202V195.294H285.4V202H284.308ZM290.76 202.168C290.223 202.168 289.722 202.023 289.255 201.734C288.793 201.445 288.42 201.036 288.135 200.509C287.85 199.982 287.708 199.359 287.708 198.64C287.708 197.903 287.85 197.273 288.135 196.75C288.42 196.227 288.793 195.828 289.255 195.553C289.722 195.278 290.223 195.14 290.76 195.14C291.138 195.14 291.476 195.198 291.775 195.315C292.078 195.427 292.342 195.583 292.566 195.784C292.79 195.985 292.974 196.213 293.119 196.47C293.268 196.722 293.378 196.988 293.448 197.268L292.328 197.366C292.211 196.979 292.015 196.673 291.74 196.449C291.469 196.22 291.138 196.106 290.746 196.106C290.415 196.106 290.102 196.202 289.808 196.393C289.519 196.58 289.283 196.862 289.101 197.24C288.919 197.613 288.828 198.08 288.828 198.64C288.828 199.158 288.91 199.608 289.073 199.991C289.241 200.369 289.47 200.663 289.759 200.873C290.048 201.083 290.377 201.188 290.746 201.188C291.264 201.188 291.656 201.062 291.922 200.81C292.193 200.553 292.328 200.199 292.328 199.746H293.448C293.448 200.213 293.338 200.628 293.119 200.992C292.9 201.356 292.587 201.643 292.181 201.853C291.78 202.063 291.306 202.168 290.76 202.168ZM297.951 202.168C297.372 202.168 296.854 202.021 296.397 201.727C295.944 201.428 295.585 201.015 295.319 200.488C295.058 199.961 294.927 199.354 294.927 198.668C294.927 197.935 295.058 197.305 295.319 196.778C295.58 196.251 295.937 195.847 296.39 195.567C296.847 195.282 297.368 195.14 297.951 195.14C298.46 195.14 298.894 195.243 299.253 195.448C299.612 195.653 299.902 195.931 300.121 196.281C300.34 196.631 300.492 197.028 300.576 197.471C300.665 197.91 300.69 198.365 300.653 198.836H295.809V198.164H299.932L299.61 198.374C299.624 198.099 299.608 197.823 299.561 197.548C299.519 197.273 299.437 197.021 299.316 196.792C299.195 196.559 299.024 196.372 298.805 196.232C298.586 196.092 298.306 196.022 297.965 196.022C297.536 196.022 297.176 196.132 296.887 196.351C296.598 196.57 296.381 196.86 296.236 197.219C296.091 197.574 296.019 197.959 296.019 198.374V198.822C296.019 199.289 296.089 199.706 296.229 200.075C296.374 200.444 296.588 200.735 296.873 200.95C297.158 201.165 297.517 201.272 297.951 201.272C298.385 201.272 298.742 201.167 299.022 200.957C299.302 200.747 299.472 200.437 299.533 200.026H300.667C300.597 200.469 300.438 200.852 300.191 201.174C299.944 201.491 299.629 201.736 299.246 201.909C298.863 202.082 298.432 202.168 297.951 202.168ZM308.563 202.168C307.961 202.168 307.424 202.035 306.953 201.769C306.486 201.503 306.117 201.109 305.847 200.586C305.576 200.063 305.441 199.419 305.441 198.654C305.441 197.884 305.576 197.24 305.847 196.722C306.117 196.199 306.486 195.805 306.953 195.539C307.424 195.273 307.961 195.14 308.563 195.14C309.16 195.14 309.692 195.273 310.159 195.539C310.63 195.805 310.999 196.199 311.265 196.722C311.535 197.24 311.671 197.884 311.671 198.654C311.671 199.419 311.535 200.063 311.265 200.586C310.999 201.109 310.63 201.503 310.159 201.769C309.692 202.035 309.16 202.168 308.563 202.168ZM308.535 201.216C308.969 201.216 309.337 201.113 309.641 200.908C309.944 200.698 310.173 200.402 310.327 200.019C310.485 199.636 310.565 199.181 310.565 198.654C310.565 197.856 310.399 197.228 310.068 196.771C309.736 196.309 309.244 196.078 308.591 196.078C308.152 196.078 307.781 196.183 307.478 196.393C307.179 196.598 306.95 196.895 306.792 197.282C306.638 197.665 306.561 198.122 306.561 198.654C306.561 199.443 306.726 200.068 307.058 200.53C307.394 200.987 307.886 201.216 308.535 201.216ZM313.797 202V195.294H314.889V202H313.797ZM314.553 198.976C314.553 198.127 314.634 197.422 314.798 196.862C314.961 196.297 315.199 195.877 315.512 195.602C315.829 195.322 316.214 195.182 316.667 195.182C316.816 195.182 316.951 195.194 317.073 195.217C317.199 195.236 317.325 195.266 317.451 195.308L317.381 196.386C317.25 196.344 317.108 196.309 316.954 196.281C316.8 196.248 316.662 196.232 316.541 196.232C316.144 196.232 315.824 196.346 315.582 196.575C315.339 196.799 315.162 197.116 315.05 197.527C314.942 197.938 314.889 198.421 314.889 198.976H314.553ZM174.45 218.168C174.002 218.168 173.596 218.051 173.232 217.818C172.872 217.585 172.585 217.244 172.371 216.796C172.161 216.343 172.056 215.793 172.056 215.144H172.476C172.476 215.578 172.564 215.949 172.742 216.257C172.924 216.56 173.157 216.791 173.442 216.95C173.726 217.109 174.025 217.188 174.338 217.188C174.697 217.188 175.026 217.085 175.325 216.88C175.623 216.675 175.861 216.381 176.039 215.998C176.221 215.615 176.312 215.158 176.312 214.626C176.312 214.103 176.223 213.655 176.046 213.282C175.868 212.904 175.628 212.615 175.325 212.414C175.026 212.209 174.692 212.106 174.324 212.106C174.006 212.106 173.705 212.185 173.421 212.344C173.141 212.498 172.912 212.727 172.735 213.03C172.562 213.333 172.476 213.707 172.476 214.15H172.056C172.056 213.515 172.158 212.974 172.364 212.526C172.574 212.078 172.863 211.735 173.232 211.497C173.6 211.259 174.03 211.14 174.52 211.14C175.047 211.14 175.53 211.282 175.969 211.567C176.412 211.847 176.767 212.248 177.033 212.771C177.299 213.294 177.432 213.912 177.432 214.626C177.432 215.345 177.296 215.97 177.026 216.502C176.755 217.029 176.393 217.44 175.941 217.734C175.488 218.023 174.991 218.168 174.45 218.168ZM171.384 218V208.452H172.476V216.432L172.154 218H171.384ZM179.683 218V211.294H180.775V218H179.683ZM180.439 214.976C180.439 214.127 180.52 213.422 180.684 212.862C180.847 212.297 181.085 211.877 181.398 211.602C181.715 211.322 182.1 211.182 182.553 211.182C182.702 211.182 182.837 211.194 182.959 211.217C183.085 211.236 183.211 211.266 183.337 211.308L183.267 212.386C183.136 212.344 182.994 212.309 182.84 212.281C182.686 212.248 182.548 212.232 182.427 212.232C182.03 212.232 181.71 212.346 181.468 212.575C181.225 212.799 181.048 213.116 180.936 213.527C180.828 213.938 180.775 214.421 180.775 214.976H180.439ZM187.065 218.168C186.486 218.168 185.968 218.021 185.511 217.727C185.058 217.428 184.699 217.015 184.433 216.488C184.172 215.961 184.041 215.354 184.041 214.668C184.041 213.935 184.172 213.305 184.433 212.778C184.694 212.251 185.051 211.847 185.504 211.567C185.961 211.282 186.482 211.14 187.065 211.14C187.574 211.14 188.008 211.243 188.367 211.448C188.726 211.653 189.016 211.931 189.235 212.281C189.454 212.631 189.606 213.028 189.69 213.471C189.779 213.91 189.804 214.365 189.767 214.836H184.923V214.164H189.046L188.724 214.374C188.738 214.099 188.722 213.823 188.675 213.548C188.633 213.273 188.551 213.021 188.43 212.792C188.309 212.559 188.138 212.372 187.919 212.232C187.7 212.092 187.42 212.022 187.079 212.022C186.65 212.022 186.29 212.132 186.001 212.351C185.712 212.57 185.495 212.86 185.35 213.219C185.205 213.574 185.133 213.959 185.133 214.374V214.822C185.133 215.289 185.203 215.706 185.343 216.075C185.488 216.444 185.702 216.735 185.987 216.95C186.272 217.165 186.631 217.272 187.065 217.272C187.499 217.272 187.856 217.167 188.136 216.957C188.416 216.747 188.586 216.437 188.647 216.026H189.781C189.711 216.469 189.552 216.852 189.305 217.174C189.058 217.491 188.743 217.736 188.36 217.909C187.977 218.082 187.546 218.168 187.065 218.168ZM196.077 218L195.937 216.53V213.66C195.937 213.058 195.808 212.626 195.552 212.365C195.295 212.099 194.91 211.966 194.397 211.966C194.107 211.966 193.844 212.008 193.606 212.092C193.372 212.176 193.186 212.307 193.046 212.484C192.91 212.657 192.843 212.881 192.843 213.156H191.625C191.625 212.671 191.744 212.281 191.982 211.987C192.22 211.688 192.546 211.474 192.962 211.343C193.382 211.208 193.86 211.14 194.397 211.14C194.91 211.14 195.365 211.226 195.762 211.399C196.158 211.572 196.469 211.847 196.693 212.225C196.917 212.598 197.029 213.086 197.029 213.688V218H196.077ZM193.795 218.168C193.244 218.168 192.789 218.07 192.43 217.874C192.07 217.678 191.802 217.424 191.625 217.111C191.447 216.798 191.359 216.469 191.359 216.124C191.359 215.671 191.471 215.303 191.695 215.018C191.923 214.733 192.234 214.526 192.626 214.395C193.018 214.26 193.459 214.192 193.949 214.192C194.299 214.192 194.649 214.227 194.999 214.297C195.353 214.367 195.699 214.463 196.035 214.584V215.27C195.755 215.158 195.437 215.069 195.083 215.004C194.733 214.939 194.411 214.906 194.117 214.906C193.669 214.906 193.291 214.999 192.983 215.186C192.675 215.368 192.521 215.681 192.521 216.124C192.521 216.451 192.637 216.731 192.871 216.964C193.109 217.197 193.487 217.314 194.005 217.314C194.369 217.314 194.695 217.23 194.985 217.062C195.279 216.889 195.51 216.675 195.678 216.418C195.85 216.161 195.937 215.905 195.937 215.648H196.203C196.203 216.096 196.105 216.511 195.909 216.894C195.717 217.277 195.442 217.585 195.083 217.818C194.723 218.051 194.294 218.168 193.795 218.168ZM202.037 218.168C201.496 218.168 200.999 218.023 200.546 217.734C200.094 217.44 199.732 217.029 199.461 216.502C199.191 215.97 199.055 215.345 199.055 214.626C199.055 213.912 199.188 213.294 199.454 212.771C199.72 212.248 200.073 211.847 200.511 211.567C200.955 211.282 201.44 211.14 201.967 211.14C202.457 211.14 202.887 211.259 203.255 211.497C203.629 211.735 203.918 212.078 204.123 212.526C204.329 212.974 204.431 213.515 204.431 214.15H204.011C204.011 213.707 203.923 213.333 203.745 213.03C203.573 212.727 203.346 212.498 203.066 212.344C202.786 212.185 202.485 212.106 202.163 212.106C201.799 212.106 201.466 212.209 201.162 212.414C200.864 212.615 200.623 212.904 200.441 213.282C200.264 213.655 200.175 214.103 200.175 214.626C200.175 215.158 200.264 215.615 200.441 215.998C200.623 216.381 200.864 216.675 201.162 216.88C201.466 217.085 201.799 217.188 202.163 217.188C202.467 217.188 202.758 217.109 203.038 216.95C203.323 216.791 203.556 216.56 203.738 216.257C203.92 215.949 204.011 215.578 204.011 215.144H204.431C204.431 215.793 204.324 216.343 204.109 216.796C203.899 217.244 203.612 217.585 203.248 217.818C202.889 218.051 202.485 218.168 202.037 218.168ZM204.193 218L204.011 216.432V208.452H205.103V218H204.193ZM206.948 217.349C206.948 217.13 207.025 216.941 207.179 216.782C207.333 216.623 207.527 216.544 207.76 216.544C207.994 216.544 208.192 216.623 208.355 216.782C208.519 216.941 208.6 217.13 208.6 217.349C208.6 217.568 208.519 217.753 208.355 217.902C208.192 218.051 207.994 218.126 207.76 218.126C207.527 218.126 207.333 218.051 207.179 217.902C207.025 217.748 206.948 217.564 206.948 217.349Z" fill="#C1A27F"/>
<path d="M84.9254 86.275C82.4254 86.275 80.5004 85.4417 79.1504 83.775C77.8171 82.0917 77.1504 79.875 77.1504 77.125C77.1504 74.3583 77.8837 72.175 79.3504 70.575C80.8171 68.9583 82.7254 68.15 85.0754 68.15C87.4421 68.15 89.2171 68.9667 90.4004 70.6C91.6004 72.2333 92.2004 74.375 92.2004 77.025C92.2004 79.6583 91.5254 81.8583 90.1754 83.625C88.8254 85.3917 87.0754 86.275 84.9254 86.275ZM87.2754 83.425C87.6921 83.0083 88.0171 82.2333 88.2504 81.1C88.4837 79.95 88.6004 78.8167 88.6004 77.7C88.6004 76.5667 88.5337 75.5833 88.4004 74.75C88.2837 73.9167 88.0754 73.15 87.7754 72.45C87.1587 71 86.0421 70.275 84.4254 70.275C83.9587 70.275 83.4921 70.3417 83.0254 70.475C82.5754 70.6083 82.2504 70.7667 82.0504 70.95C81.6837 71.4333 81.3754 72.2167 81.1254 73.3C80.8754 74.3667 80.7504 75.3583 80.7504 76.275C80.7504 77.175 80.7921 77.9833 80.8754 78.7C80.9587 79.4 81.1004 80.1 81.3004 80.8C81.5171 81.4833 81.7921 82.0667 82.1254 82.55C82.8754 83.6333 83.9254 84.175 85.2754 84.175C85.5587 84.175 85.9087 84.1083 86.3254 83.975C86.7587 83.8417 87.0754 83.6583 87.2754 83.425ZM107.73 72.4C107.73 74.15 106.747 75.625 104.78 76.825C106.147 77.6083 107.113 78.3167 107.68 78.95C108.263 79.5667 108.555 80.375 108.555 81.375C108.555 82.925 107.93 84.1333 106.68 85C105.43 85.85 103.847 86.275 101.93 86.275C100.013 86.275 98.4217 85.8583 97.1551 85.025C95.8884 84.175 95.2551 82.975 95.2551 81.425C95.2551 79.3083 96.5051 77.7917 99.0051 76.875C98.0717 76.2917 97.3884 75.6833 96.9551 75.05C96.5217 74.4167 96.3051 73.65 96.3051 72.75C96.3051 71.2833 96.8217 70.1583 97.8551 69.375C98.9051 68.5917 100.28 68.2 101.98 68.2C103.697 68.2 105.08 68.5417 106.13 69.225C107.197 69.8917 107.73 70.95 107.73 72.4ZM104.955 81.825C104.955 81.1083 104.672 80.4833 104.105 79.95C103.538 79.4167 102.472 78.75 100.905 77.95C99.5384 78.5667 98.8551 79.625 98.8551 81.125C98.8551 83.2083 99.9301 84.25 102.08 84.25C102.93 84.25 103.597 84.15 104.08 83.95C104.663 83.55 104.955 82.8417 104.955 81.825ZM99.5801 72.325C99.5801 72.975 99.8051 73.55 100.255 74.05C100.722 74.5333 101.622 75.1083 102.955 75.775C103.955 75.0417 104.455 73.9667 104.455 72.55C104.455 70.7333 103.605 69.825 101.905 69.825C101.288 69.825 100.763 69.925 100.33 70.125C99.8301 70.5583 99.5801 71.2917 99.5801 72.325ZM116.149 82.625C116.315 82.7917 116.432 83.125 116.499 83.625C116.565 84.125 116.599 84.5167 116.599 84.8C116.599 85.0667 116.582 85.3 116.549 85.5L116.299 85.725C115.549 85.9417 114.432 86.1167 112.949 86.25L112.649 86.1C112.499 85.85 112.374 85.4333 112.274 84.85C112.19 84.2667 112.149 83.8667 112.149 83.65C112.149 83.4167 112.149 83.2667 112.149 83.2L112.399 82.975C113.465 82.625 114.524 82.45 115.574 82.45C115.674 82.45 115.765 82.45 115.849 82.45L116.149 82.625ZM136.484 70.875C135.551 70.6083 134.451 70.475 133.184 70.475C131.934 70.475 131.118 70.4917 130.734 70.525C130.684 71.0083 130.659 72.85 130.659 76.05L136.409 75.925L135.484 78.275H135.009C134.209 78.1083 133.359 78.025 132.459 78.025C131.559 78.025 130.959 78.0417 130.659 78.075V80.4C130.659 82.7667 130.793 84.45 131.059 85.45V86H126.684V85.45C126.968 84.25 127.109 82.575 127.109 80.425V74.1C127.109 71.9333 126.968 70.25 126.684 69.05V68.5L137.684 68.425L136.959 70.875H136.484ZM143.545 68.075C143.695 68.2083 143.795 68.4917 143.845 68.925C143.912 69.3583 143.945 69.6917 143.945 69.925C143.945 70.1583 143.928 70.3667 143.895 70.55L143.67 70.75C142.937 70.9667 141.978 71.1167 140.795 71.2L140.52 71.075C140.387 70.8583 140.278 70.5 140.195 70C140.128 69.5 140.095 69.1583 140.095 68.975C140.095 68.775 140.095 68.6417 140.095 68.575L140.32 68.375C141.22 68.075 142.112 67.925 142.995 67.925H143.27L143.545 68.075ZM144.02 76.175V81.525C144.02 83.1083 144.262 84.4167 144.745 85.45V86H140.37V85.45C140.653 84.6 140.795 83.475 140.795 82.075V78.375C140.795 77.4583 140.653 76.7 140.37 76.1C140.087 75.4833 139.728 75.0583 139.295 74.825V74.275L143.87 73.425L144.17 73.925C144.07 74.3083 144.02 75.0583 144.02 76.175ZM151.656 67.9C151.59 68.7 151.556 69.65 151.556 70.75C151.556 71.85 151.565 72.525 151.581 72.775V81.825C151.581 83.375 151.715 84.5833 151.981 85.45L152.006 86H147.956V85.45C148.223 84.5833 148.356 83.375 148.356 81.825V72C148.356 70.5667 147.981 69.4917 147.231 68.775V68.225L151.356 67.35L151.656 67.9ZM159.078 67.9C159.012 68.7 158.978 69.65 158.978 70.75C158.978 71.85 158.987 72.525 159.003 72.775V81.825C159.003 83.375 159.137 84.5833 159.403 85.45L159.428 86H155.378V85.45C155.645 84.5833 155.778 83.375 155.778 81.825V72C155.778 70.5667 155.403 69.4917 154.653 68.775V68.225L158.778 67.35L159.078 67.9ZM167.55 86.475C166.1 86.475 164.8 85.9333 163.65 84.85C162.5 83.7667 161.925 82.3083 161.925 80.475C161.925 78.625 162.534 77.0083 163.75 75.625C164.967 74.225 166.542 73.525 168.475 73.525C170.109 73.525 171.325 74.05 172.125 75.1C172.925 76.15 173.325 77.6 173.325 79.45L172.375 80.425H165.525C165.542 81.625 165.859 82.55 166.475 83.2C167.109 83.85 167.859 84.175 168.725 84.175C169.609 84.175 170.934 83.7167 172.7 82.8L173.325 83.75C173.009 84.05 172.65 84.3583 172.25 84.675C171.85 84.9917 171.175 85.375 170.225 85.825C169.292 86.2583 168.4 86.475 167.55 86.475ZM167.9 75.125C167.284 75.125 166.792 75.25 166.425 75.5C166.159 75.9167 165.95 76.4667 165.8 77.15C165.65 77.8333 165.567 78.4417 165.55 78.975L169.925 78.725C169.925 76.325 169.25 75.125 167.9 75.125ZM180.476 83.1C180.476 83.7 180.635 84 180.951 84C181.401 84 182.243 83.7417 183.476 83.225L184.226 84.35C183.56 84.7833 182.768 85.2167 181.851 85.65C180.935 86.0667 180.135 86.275 179.451 86.275C177.985 86.275 177.251 85.4333 177.251 83.75V75.8C177.001 75.8 176.176 75.8583 174.776 75.975L175.676 73.725C175.976 73.775 176.51 73.8167 177.276 73.85C177.243 73.0833 177.193 72.375 177.126 71.725L180.476 70.875V73.825C181.143 73.8083 182.451 73.7 184.401 73.5L183.426 76.075C182.576 75.925 181.593 75.8333 180.476 75.8V83.1ZM203.013 70.875C202.079 70.6083 200.979 70.475 199.713 70.475C198.463 70.475 197.646 70.4917 197.263 70.525C197.213 71.0083 197.188 72.85 197.188 76.05L202.938 75.925L202.013 78.275H201.538C200.738 78.1083 199.888 78.025 198.988 78.025C198.088 78.025 197.488 78.0417 197.188 78.075V80.4C197.188 82.7667 197.321 84.45 197.588 85.45V86H193.213V85.45C193.496 84.25 193.638 82.575 193.638 80.425V74.1C193.638 71.9333 193.496 70.25 193.213 69.05V68.5L204.213 68.425L203.488 70.875H203.013ZM210.073 68.075C210.223 68.2083 210.323 68.4917 210.373 68.925C210.44 69.3583 210.473 69.6917 210.473 69.925C210.473 70.1583 210.457 70.3667 210.423 70.55L210.198 70.75C209.465 70.9667 208.507 71.1167 207.323 71.2L207.048 71.075C206.915 70.8583 206.807 70.5 206.723 70C206.657 69.5 206.623 69.1583 206.623 68.975C206.623 68.775 206.623 68.6417 206.623 68.575L206.848 68.375C207.748 68.075 208.64 67.925 209.523 67.925H209.798L210.073 68.075ZM210.548 76.175V81.525C210.548 83.1083 210.79 84.4167 211.273 85.45V86H206.898V85.45C207.182 84.6 207.323 83.475 207.323 82.075V78.375C207.323 77.4583 207.182 76.7 206.898 76.1C206.615 75.4833 206.257 75.0583 205.823 74.825V74.275L210.398 73.425L210.698 73.925C210.598 74.3083 210.548 75.0583 210.548 76.175ZM219.41 84.375C220.36 84.375 220.835 83.9167 220.835 83C220.835 82.15 220.026 81.5083 218.41 81.075C217.743 80.8917 217.076 80.6833 216.41 80.45C215.743 80.2167 215.176 79.8417 214.71 79.325C214.243 78.8083 214.01 78.15 214.01 77.35C214.01 76.2 214.526 75.3083 215.56 74.675C216.593 74.025 217.851 73.7 219.335 73.7C220.818 73.7 222.368 74.0583 223.985 74.775C223.901 75.5083 223.451 76.3917 222.635 77.425C221.968 76.7583 221.276 76.25 220.56 75.9C219.843 75.55 219.218 75.375 218.685 75.375C218.151 75.375 217.743 75.4333 217.46 75.55C217.21 75.7667 217.085 76.125 217.085 76.625C217.085 77.1083 217.318 77.4833 217.785 77.75C218.268 78.0167 218.851 78.2333 219.535 78.4C220.218 78.55 220.901 78.7417 221.585 78.975C222.268 79.2083 222.843 79.6083 223.31 80.175C223.793 80.725 224.035 81.45 224.035 82.35C224.035 83.65 223.526 84.6333 222.51 85.3C221.51 85.95 220.176 86.275 218.51 86.275C216.843 86.275 215.251 85.8 213.735 84.85C213.801 83.85 214.176 82.925 214.86 82.075C216.51 83.6083 218.026 84.375 219.41 84.375ZM230.707 81.3C230.707 83.1833 230.916 84.5667 231.332 85.45V86H227.057V85.45C227.341 84.5333 227.482 83.325 227.482 81.825V72C227.482 70.5667 227.107 69.4917 226.357 68.775V68.225L230.482 67.35L230.782 67.9C230.732 68.3667 230.707 70 230.707 72.8V75.55C231.574 74.8667 232.324 74.3583 232.957 74.025C233.591 73.6917 234.274 73.525 235.007 73.525C236.341 73.525 237.366 73.9167 238.082 74.7C238.799 75.4667 239.157 76.5833 239.157 78.05V81.225C239.157 82.875 239.407 84.2833 239.907 85.45V86H235.507V85.45C235.791 84.6667 235.932 83.5417 235.932 82.075V78.95C235.932 77.9667 235.799 77.25 235.532 76.8C235.282 76.35 234.732 76.125 233.882 76.125C233.049 76.125 231.991 76.475 230.707 77.175V81.3ZM246.659 70.975C246.659 70.225 246.618 69.375 246.534 68.425C249.784 68.475 252.218 68.5 253.834 68.5C255.451 68.5 257.884 68.475 261.134 68.425C261.051 69.375 261.009 70.225 261.009 70.975H260.534C258.651 70.5417 257.034 70.3 255.684 70.25C255.618 71.0833 255.584 72.3333 255.584 74V80.55C255.584 82.8167 255.718 84.45 255.984 85.45V86H251.684V85.45C251.918 84.45 252.034 82.8417 252.034 80.625V74.1C252.034 72.3833 252.001 71.1 251.934 70.25C250.684 70.3 249.084 70.5417 247.134 70.975H246.659ZM263.777 71.9C263.777 71.6667 263.76 71.45 263.727 71.25C263.51 70.6833 263.085 70.1417 262.452 69.625L262.477 69.225C262.777 68.925 263.152 68.65 263.602 68.4C264.052 68.1333 264.46 67.9583 264.827 67.875C265.06 67.9917 265.219 68.0917 265.302 68.175C265.635 68.5417 265.96 69.075 266.277 69.775C266.41 70.0917 266.477 70.4917 266.477 70.975C266.46 72.1583 265.76 73.675 264.377 75.525L262.777 75.1C263.444 73.8833 263.777 72.8167 263.777 71.9ZM273.916 68.075C274.066 68.2083 274.166 68.4917 274.216 68.925C274.283 69.3583 274.316 69.6917 274.316 69.925C274.316 70.1583 274.3 70.3667 274.266 70.55L274.041 70.75C273.308 70.9667 272.35 71.1167 271.166 71.2L270.891 71.075C270.758 70.8583 270.65 70.5 270.566 70C270.5 69.5 270.466 69.1583 270.466 68.975C270.466 68.775 270.466 68.6417 270.466 68.575L270.691 68.375C271.591 68.075 272.483 67.925 273.366 67.925H273.641L273.916 68.075ZM274.391 76.175V81.525C274.391 83.1083 274.633 84.4167 275.116 85.45V86H270.741V85.45C271.025 84.6 271.166 83.475 271.166 82.075V78.375C271.166 77.4583 271.025 76.7 270.741 76.1C270.458 75.4833 270.1 75.0583 269.666 74.825V74.275L274.241 73.425L274.541 73.925C274.441 74.3083 274.391 75.0583 274.391 76.175ZM281.928 83.975C283.111 84.3917 284.078 84.6 284.828 84.6C285.578 84.6 286.061 84.5167 286.278 84.35C286.528 84.0333 286.761 83.4 286.978 82.45C287.194 81.4833 287.303 80.5333 287.303 79.6C287.303 76.7833 286.619 75.375 285.253 75.375C284.369 75.375 283.261 75.7667 281.928 76.55V83.975ZM281.928 69.95V74.825C283.044 73.9583 284.194 73.525 285.378 73.525C287.094 73.525 288.444 74.0917 289.428 75.225C290.411 76.3417 290.903 77.7167 290.903 79.35C290.903 81.3667 290.169 83.0583 288.703 84.425C287.236 85.7917 285.494 86.475 283.478 86.475C282.178 86.475 280.494 86.0833 278.428 85.3V84.75C278.611 84.2833 278.703 83.1833 278.703 81.45V71.75C278.703 70.4833 278.328 69.4917 277.578 68.775V68.225L281.853 67.35L282.053 67.9C281.969 68.35 281.928 69.0333 281.928 69.95ZM298.902 84.375C299.852 84.375 300.327 83.9167 300.327 83C300.327 82.15 299.519 81.5083 297.902 81.075C297.235 80.8917 296.569 80.6833 295.902 80.45C295.235 80.2167 294.669 79.8417 294.202 79.325C293.735 78.8083 293.502 78.15 293.502 77.35C293.502 76.2 294.019 75.3083 295.052 74.675C296.085 74.025 297.344 73.7 298.827 73.7C300.31 73.7 301.86 74.0583 303.477 74.775C303.394 75.5083 302.944 76.3917 302.127 77.425C301.46 76.7583 300.769 76.25 300.052 75.9C299.335 75.55 298.71 75.375 298.177 75.375C297.644 75.375 297.235 75.4333 296.952 75.55C296.702 75.7667 296.577 76.125 296.577 76.625C296.577 77.1083 296.81 77.4833 297.277 77.75C297.76 78.0167 298.344 78.2333 299.027 78.4C299.71 78.55 300.394 78.7417 301.077 78.975C301.76 79.2083 302.335 79.6083 302.802 80.175C303.285 80.725 303.527 81.45 303.527 82.35C303.527 83.65 303.019 84.6333 302.002 85.3C301.002 85.95 299.669 86.275 298.002 86.275C296.335 86.275 294.744 85.8 293.227 84.85C293.294 83.85 293.669 82.925 294.352 82.075C296.002 83.6083 297.519 84.375 298.902 84.375Z" fill="#C1A27F"/>
<path d="M138.386 144.15C138.386 147.183 137.419 149.567 135.486 151.3C133.553 153.033 130.919 154.083 127.586 154.45C127.586 156.517 127.653 158.283 127.786 159.75L123.786 160.55L123.536 159.85C123.736 158.45 123.903 156.7 124.036 154.6C119.936 154.433 116.269 153.267 113.036 151.1C113.136 148.733 114.069 146.483 115.836 144.35C118.369 147.083 121.136 148.933 124.136 149.9V138.5C123.136 138.067 122.419 137.767 121.986 137.6C121.553 137.4 120.886 137.083 119.986 136.65C119.086 136.183 118.419 135.783 117.986 135.45C117.553 135.117 117.019 134.667 116.386 134.1C115.753 133.5 115.286 132.917 114.986 132.35C114.219 130.917 113.836 129.367 113.836 127.7C113.836 124.9 114.786 122.75 116.686 121.25C118.619 119.717 121.103 118.8 124.136 118.5C124.069 116.7 124.003 115.333 123.936 114.4L127.736 113.1L127.986 113.8C127.753 115.8 127.619 117.35 127.586 118.45C130.886 118.683 134.169 119.5 137.436 120.9C137.069 123.367 136.219 125.717 134.886 127.95C132.486 125.783 130.053 124.267 127.586 123.4V133C128.986 133.567 130.019 134 130.686 134.3C131.386 134.6 132.319 135.1 133.486 135.8C134.653 136.5 135.519 137.2 136.086 137.9C136.686 138.567 137.219 139.45 137.686 140.55C138.153 141.65 138.386 142.85 138.386 144.15ZM131.786 145.75C131.786 143.483 130.386 141.6 127.586 140.1V150.4C128.819 150.4 129.903 150.15 130.836 149.65C131.469 148.817 131.786 147.517 131.786 145.75ZM119.986 126.35C119.986 128.383 121.369 130.1 124.136 131.5V122.75C123.069 122.75 121.986 122.983 120.886 123.45C120.286 124.05 119.986 125.017 119.986 126.35ZM156.341 143C156.341 147.6 156.607 150.9 157.141 152.9V154H148.841V152.9C149.374 150.9 149.641 147.6 149.641 143V128.7C149.641 126.433 149.591 125.017 149.491 124.45C147.524 124.85 145.341 125.1 142.941 125.2L142.391 122.35C146.091 121.717 149.141 120.6 151.541 119H156.591L156.341 124.9V143ZM183.233 143.35C183.233 139.383 180.4 137.217 174.733 136.85L168.083 136.4L166.833 135.05C167.4 130.817 168.317 125.5 169.583 119.1L187.283 118.85L188.533 126.15H187.583C186.517 125.217 184.983 124.483 182.983 123.95C181.017 123.383 178.9 123.1 176.633 123.1H174.033C173.333 125.233 172.667 128.367 172.033 132.5C175.767 132.667 178.333 132.85 179.733 133.05C181.167 133.217 182.567 133.533 183.933 134C185.3 134.433 186.4 135 187.233 135.7C189.2 137.3 190.183 139.717 190.183 142.95C190.183 146.15 188.9 148.883 186.333 151.15C183.8 153.417 180.45 154.55 176.283 154.55C172.117 154.55 167.767 153.433 163.233 151.2C163.367 150.5 163.75 149.6 164.383 148.5C165.017 147.367 165.633 146.533 166.233 146C170.5 149.067 174.267 150.6 177.533 150.6C179.067 150.6 180.333 150.383 181.333 149.95C181.933 149.25 182.4 148.267 182.733 147C183.067 145.7 183.233 144.483 183.233 143.35ZM204.186 147.25C204.519 147.583 204.753 148.25 204.886 149.25C205.019 150.25 205.086 151.033 205.086 151.6C205.086 152.133 205.053 152.6 204.986 153L204.486 153.45C202.986 153.883 200.753 154.233 197.786 154.5L197.186 154.2C196.886 153.7 196.636 152.867 196.436 151.7C196.269 150.533 196.186 149.733 196.186 149.3C196.186 148.833 196.186 148.533 196.186 148.4L196.686 147.95C198.819 147.25 200.936 146.9 203.036 146.9C203.236 146.9 203.419 146.9 203.586 146.9L204.186 147.25ZM227.677 154.55C222.677 154.55 218.827 152.883 216.127 149.55C213.46 146.183 212.127 141.75 212.127 136.25C212.127 130.717 213.594 126.35 216.527 123.15C219.46 119.917 223.277 118.3 227.977 118.3C232.71 118.3 236.26 119.933 238.627 123.2C241.027 126.467 242.227 130.75 242.227 136.05C242.227 141.317 240.877 145.717 238.177 149.25C235.477 152.783 231.977 154.55 227.677 154.55ZM232.377 148.85C233.21 148.017 233.86 146.467 234.327 144.2C234.794 141.9 235.027 139.633 235.027 137.4C235.027 135.133 234.894 133.167 234.627 131.5C234.394 129.833 233.977 128.3 233.377 126.9C232.144 124 229.91 122.55 226.677 122.55C225.744 122.55 224.81 122.683 223.877 122.95C222.977 123.217 222.327 123.533 221.927 123.9C221.194 124.867 220.577 126.433 220.077 128.6C219.577 130.733 219.327 132.717 219.327 134.55C219.327 136.35 219.41 137.967 219.577 139.4C219.744 140.8 220.027 142.2 220.427 143.6C220.86 144.967 221.41 146.133 222.077 147.1C223.577 149.267 225.677 150.35 228.377 150.35C228.944 150.35 229.644 150.217 230.477 149.95C231.344 149.683 231.977 149.317 232.377 148.85ZM269.39 143.1C269.39 146.4 268.19 149.133 265.79 151.3C263.424 153.433 260.14 154.5 255.94 154.5C251.774 154.5 247.924 153.583 244.39 151.75V151.45C244.39 149.783 245.074 148.233 246.44 146.8C250.207 149.433 253.39 150.75 255.99 150.75H256.24C257.974 150.75 259.307 150.483 260.24 149.95C261.707 148.583 262.44 146.383 262.44 143.35C262.44 141.05 261.924 139.433 260.89 138.5C259.89 137.533 258.24 137.05 255.94 137.05C253.64 137.05 252.024 137.117 251.09 137.25H250.09L248.94 133.45H254.39C256.057 133.45 257.424 132.817 258.49 131.55C259.557 130.25 260.09 128.767 260.09 127.1C260.09 123.667 258.84 121.95 256.34 121.95C254.107 121.95 251.374 123.217 248.14 125.75C246.84 123.983 246.057 122.083 245.79 120.05C249.657 118.95 253.34 118.4 256.84 118.4C263.474 118.4 266.79 120.9 266.79 125.9C266.79 127.9 266.274 129.633 265.24 131.1C264.24 132.533 263.04 133.6 261.64 134.3C266.807 135.4 269.39 138.333 269.39 143.1Z" fill="#550000"/>
<g filter="url(#filter0_d_174_23)">
<rect x="5.5" y="1.5" width="369" height="282" rx="13.5" stroke="#550000" stroke-opacity="0.5" stroke-width="3" shape-rendering="crispEdges"/>
</g>
<defs>
<filter id="filter0_d_174_23" x="0" y="0" width="380" height="293" filterUnits="userSpaceOnUse" color-interpolation-filters="sRGB">
<feFlood flood-opacity="0" result="BackgroundImageFix"/>
<feColorMatrix in="SourceAlpha" type="matrix" values="0 0 0 0 0 0 0 0 0 0 0 0 0 0 0 0 0 0 127 0" result="hardAlpha"/>
<feOffset dy="4"/>
<feGaussianBlur stdDeviation="2"/>
<feComposite in2="hardAlpha" operator="out"/>
<feColorMatrix type="matrix" values="0 0 0 0 0 0 0 0 0 0 0 0 0 0 0 0 0 0 0.25 0"/>
<feBlend mode="normal" in2="BackgroundImageFix" result="effect1_dropShadow_174_23"/>
<feBlend mode="normal" in="SourceGraphic" in2="effect1_dropShadow_174_23" result="shape"/>
</filter>
</defs>
</svg>
