<svg width="380" height="293" viewBox="0 0 380 293" fill="none" xmlns="http://www.w3.org/2000/svg">
<path d="M45.4707 178.146V177.208H52.3167V178.146H49.1877L49.4327 177.894V186H48.3407V177.894L48.5857 178.146H45.4707ZM55.129 186.168C54.527 186.168 53.9903 186.035 53.519 185.769C53.0523 185.503 52.6836 185.109 52.413 184.586C52.1423 184.063 52.007 183.419 52.007 182.654C52.007 181.884 52.1423 181.24 52.413 180.722C52.6836 180.199 53.0523 179.805 53.519 179.539C53.9903 179.273 54.527 179.14 55.129 179.14C55.7263 179.14 56.2583 179.273 56.725 179.539C57.1963 179.805 57.565 180.199 57.831 180.722C58.1016 181.24 58.237 181.884 58.237 182.654C58.237 183.419 58.1016 184.063 57.831 184.586C57.565 185.109 57.1963 185.503 56.725 185.769C56.2583 186.035 55.7263 186.168 55.129 186.168ZM55.101 185.216C55.535 185.216 55.9036 185.113 56.207 184.908C56.5103 184.698 56.739 184.402 56.893 184.019C57.0516 183.636 57.131 183.181 57.131 182.654C57.131 181.856 56.9653 181.228 56.634 180.771C56.3026 180.309 55.8103 180.078 55.157 180.078C54.7183 180.078 54.3473 180.183 54.044 180.393C53.7453 180.598 53.5166 180.895 53.358 181.282C53.204 181.665 53.127 182.122 53.127 182.654C53.127 183.443 53.2926 184.068 53.624 184.53C53.96 184.987 54.4523 185.216 55.101 185.216ZM60.7272 186V178.272C60.7272 177.829 60.8112 177.467 60.9792 177.187C61.1519 176.902 61.3806 176.692 61.6652 176.557C61.9546 176.422 62.2766 176.354 62.6312 176.354C62.8226 176.354 63.0162 176.368 63.2122 176.396C63.4129 176.424 63.6112 176.466 63.8072 176.522L63.5972 177.39C63.4572 177.334 63.3172 177.292 63.1772 177.264C63.0419 177.236 62.9112 177.222 62.7852 177.222C62.6359 177.222 62.4866 177.25 62.3372 177.306C62.1879 177.362 62.0642 177.467 61.9662 177.621C61.8682 177.775 61.8192 177.997 61.8192 178.286V186H60.7272ZM59.6352 180.064V179.308H63.2052V180.064H59.6352ZM69.712 179.294H70.804V186H69.712V179.294ZM64.966 179.294H66.058V183.466C66.058 184.026 66.1934 184.451 66.464 184.74C66.7394 185.029 67.1314 185.174 67.64 185.174C68.06 185.174 68.424 185.062 68.732 184.838C69.0447 184.614 69.285 184.306 69.453 183.914C69.6257 183.517 69.712 183.065 69.712 182.556H70.118C70.118 183.307 70.0084 183.949 69.789 184.481C69.5744 185.013 69.2687 185.421 68.872 185.706C68.48 185.986 68.018 186.126 67.486 186.126C66.982 186.126 66.541 186.033 66.163 185.846C65.785 185.659 65.491 185.377 65.281 184.999C65.071 184.616 64.966 184.133 64.966 183.55V179.294ZM73.4706 187.526L72.6446 187.12C72.9106 186.985 73.1346 186.835 73.3166 186.672C73.5033 186.509 73.6246 186.308 73.6806 186.07C73.4799 186.047 73.3073 185.974 73.1626 185.853C73.0226 185.732 72.9526 185.571 72.9526 185.37C72.9526 185.174 73.0249 185.006 73.1696 184.866C73.3189 184.726 73.5079 184.656 73.7366 184.656C74.0259 184.656 74.2593 184.761 74.4366 184.971C74.6139 185.181 74.7026 185.431 74.7026 185.72C74.7026 186.061 74.5976 186.394 74.3876 186.721C74.1823 187.052 73.8766 187.321 73.4706 187.526ZM82.3087 186.168C81.7067 186.168 81.17 186.035 80.6987 185.769C80.232 185.503 79.8633 185.109 79.5927 184.586C79.322 184.063 79.1867 183.419 79.1867 182.654C79.1867 181.884 79.322 181.24 79.5927 180.722C79.8633 180.199 80.232 179.805 80.6987 179.539C81.17 179.273 81.7067 179.14 82.3087 179.14C82.906 179.14 83.438 179.273 83.9047 179.539C84.376 179.805 84.7447 180.199 85.0107 180.722C85.2813 181.24 85.4167 181.884 85.4167 182.654C85.4167 183.419 85.2813 184.063 85.0107 184.586C84.7447 185.109 84.376 185.503 83.9047 185.769C83.438 186.035 82.906 186.168 82.3087 186.168ZM82.2807 185.216C82.7147 185.216 83.0833 185.113 83.3867 184.908C83.69 184.698 83.9187 184.402 84.0727 184.019C84.2313 183.636 84.3107 183.181 84.3107 182.654C84.3107 181.856 84.145 181.228 83.8137 180.771C83.4823 180.309 82.99 180.078 82.3367 180.078C81.898 180.078 81.527 180.183 81.2237 180.393C80.925 180.598 80.6963 180.895 80.5377 181.282C80.3837 181.665 80.3067 182.122 80.3067 182.654C80.3067 183.443 80.4723 184.068 80.8037 184.53C81.1397 184.987 81.632 185.216 82.2807 185.216ZM92.3029 186V182.066C92.3029 181.427 92.1489 180.941 91.8409 180.61C91.5376 180.274 91.1222 180.106 90.5949 180.106C90.1936 180.106 89.8459 180.216 89.5519 180.435C89.2579 180.654 89.0316 180.969 88.8729 181.38C88.7142 181.786 88.6349 182.271 88.6349 182.836H88.2149C88.2149 182.057 88.3176 181.392 88.5229 180.841C88.7282 180.29 89.0269 179.87 89.4189 179.581C89.8156 179.287 90.2962 179.14 90.8609 179.14C91.3882 179.14 91.8386 179.259 92.2119 179.497C92.5899 179.73 92.8792 180.066 93.0799 180.505C93.2806 180.944 93.3809 181.464 93.3809 182.066V186H92.3029ZM87.5429 186V179.308H88.4809L88.6349 180.848V186H87.5429ZM96.6081 177.726C96.3841 177.726 96.2068 177.663 96.0761 177.537C95.9455 177.406 95.8801 177.236 95.8801 177.026C95.8801 176.821 95.9455 176.657 96.0761 176.536C96.2068 176.415 96.3841 176.354 96.6081 176.354C96.8321 176.354 97.0095 176.415 97.1401 176.536C97.2708 176.657 97.3361 176.821 97.3361 177.026C97.3361 177.236 97.2708 177.406 97.1401 177.537C97.0095 177.663 96.8321 177.726 96.6081 177.726ZM96.0621 186V179.294H97.1541V186H96.0621ZM102.584 186.168C101.982 186.168 101.445 186.035 100.974 185.769C100.507 185.503 100.139 185.109 99.868 184.586C99.5974 184.063 99.462 183.419 99.462 182.654C99.462 181.884 99.5974 181.24 99.868 180.722C100.139 180.199 100.507 179.805 100.974 179.539C101.445 179.273 101.982 179.14 102.584 179.14C103.181 179.14 103.713 179.273 104.18 179.539C104.651 179.805 105.02 180.199 105.286 180.722C105.557 181.24 105.692 181.884 105.692 182.654C105.692 183.419 105.557 184.063 105.286 184.586C105.02 185.109 104.651 185.503 104.18 185.769C103.713 186.035 103.181 186.168 102.584 186.168ZM102.556 185.216C102.99 185.216 103.359 185.113 103.662 184.908C103.965 184.698 104.194 184.402 104.348 184.019C104.507 183.636 104.586 183.181 104.586 182.654C104.586 181.856 104.42 181.228 104.089 180.771C103.758 180.309 103.265 180.078 102.612 180.078C102.173 180.078 101.802 180.183 101.499 180.393C101.2 180.598 100.972 180.895 100.813 181.282C100.659 181.665 100.582 182.122 100.582 182.654C100.582 183.443 100.748 184.068 101.079 184.53C101.415 184.987 101.907 185.216 102.556 185.216ZM112.578 186V182.066C112.578 181.427 112.424 180.941 112.116 180.61C111.813 180.274 111.398 180.106 110.87 180.106C110.469 180.106 110.121 180.216 109.827 180.435C109.533 180.654 109.307 180.969 109.148 181.38C108.99 181.786 108.91 182.271 108.91 182.836H108.49C108.49 182.057 108.593 181.392 108.798 180.841C109.004 180.29 109.302 179.87 109.694 179.581C110.091 179.287 110.572 179.14 111.136 179.14C111.664 179.14 112.114 179.259 112.487 179.497C112.865 179.73 113.155 180.066 113.355 180.505C113.556 180.944 113.656 181.464 113.656 182.066V186H112.578ZM107.818 186V179.308H108.756L108.91 180.848V186H107.818ZM118.676 186.168C118.027 186.168 117.486 186.077 117.052 185.895C116.618 185.708 116.289 185.454 116.065 185.132C115.841 184.805 115.722 184.432 115.708 184.012H116.758C116.781 184.437 116.951 184.756 117.269 184.971C117.591 185.181 118.027 185.286 118.578 185.286C118.867 185.286 119.133 185.239 119.376 185.146C119.618 185.053 119.812 184.924 119.957 184.761C120.101 184.598 120.174 184.413 120.174 184.208C120.174 183.947 120.078 183.741 119.887 183.592C119.695 183.443 119.39 183.312 118.97 183.2L117.668 182.78C117.103 182.603 116.669 182.36 116.366 182.052C116.067 181.739 115.918 181.366 115.918 180.932C115.918 180.391 116.156 179.957 116.632 179.63C117.108 179.303 117.733 179.14 118.508 179.14C119.329 179.14 119.966 179.308 120.419 179.644C120.871 179.98 121.107 180.4 121.126 180.904H120.048C120.006 180.61 119.856 180.388 119.6 180.239C119.343 180.085 118.979 180.008 118.508 180.008C118.055 180.008 117.7 180.111 117.444 180.316C117.192 180.517 117.066 180.741 117.066 180.988C117.066 181.45 117.462 181.791 118.256 182.01L119.586 182.458C120.16 182.631 120.598 182.857 120.902 183.137C121.21 183.417 121.364 183.774 121.364 184.208C121.364 184.544 121.254 184.861 121.035 185.16C120.815 185.459 120.505 185.701 120.104 185.888C119.702 186.075 119.226 186.168 118.676 186.168ZM123.455 187.526L122.629 187.12C122.895 186.985 123.119 186.835 123.301 186.672C123.488 186.509 123.609 186.308 123.665 186.07C123.464 186.047 123.292 185.974 123.147 185.853C123.007 185.732 122.937 185.571 122.937 185.37C122.937 185.174 123.009 185.006 123.154 184.866C123.303 184.726 123.492 184.656 123.721 184.656C124.01 184.656 124.244 184.761 124.421 184.971C124.598 185.181 124.687 185.431 124.687 185.72C124.687 186.061 124.582 186.394 124.372 186.721C124.167 187.052 123.861 187.321 123.455 187.526ZM131.929 186.168C131.565 186.168 131.238 186.098 130.949 185.958C130.66 185.818 130.431 185.608 130.263 185.328C130.095 185.048 130.011 184.698 130.011 184.278V177.446H131.089V184.25C131.089 184.941 131.411 185.286 132.055 185.286C132.246 185.286 132.431 185.265 132.608 185.223C132.79 185.181 132.993 185.118 133.217 185.034L133.371 185.818C133.133 185.921 132.895 186.005 132.657 186.07C132.424 186.135 132.181 186.168 131.929 186.168ZM128.933 180.064V179.308H133.203V180.064H128.933ZM137.557 186.168C136.955 186.168 136.418 186.035 135.947 185.769C135.48 185.503 135.111 185.109 134.841 184.586C134.57 184.063 134.435 183.419 134.435 182.654C134.435 181.884 134.57 181.24 134.841 180.722C135.111 180.199 135.48 179.805 135.947 179.539C136.418 179.273 136.955 179.14 137.557 179.14C138.154 179.14 138.686 179.273 139.153 179.539C139.624 179.805 139.993 180.199 140.259 180.722C140.529 181.24 140.665 181.884 140.665 182.654C140.665 183.419 140.529 184.063 140.259 184.586C139.993 185.109 139.624 185.503 139.153 185.769C138.686 186.035 138.154 186.168 137.557 186.168ZM137.529 185.216C137.963 185.216 138.331 185.113 138.635 184.908C138.938 184.698 139.167 184.402 139.321 184.019C139.479 183.636 139.559 183.181 139.559 182.654C139.559 181.856 139.393 181.228 139.062 180.771C138.73 180.309 138.238 180.078 137.585 180.078C137.146 180.078 136.775 180.183 136.472 180.393C136.173 180.598 135.944 180.895 135.786 181.282C135.632 181.665 135.555 182.122 135.555 182.654C135.555 183.443 135.72 184.068 136.052 184.53C136.388 184.987 136.88 185.216 137.529 185.216ZM152.199 186V182.066C152.199 181.427 152.045 180.941 151.737 180.61C151.434 180.274 151.023 180.106 150.505 180.106C149.898 180.106 149.434 180.342 149.112 180.813C148.79 181.28 148.629 181.926 148.629 182.752H148.125C148.125 182.15 148.183 181.623 148.3 181.17C148.421 180.717 148.596 180.342 148.825 180.043C149.054 179.74 149.331 179.513 149.658 179.364C149.985 179.215 150.356 179.14 150.771 179.14C151.298 179.14 151.749 179.259 152.122 179.497C152.5 179.73 152.789 180.066 152.99 180.505C153.191 180.944 153.291 181.464 153.291 182.066V186H152.199ZM142.791 186V179.308H143.729L143.855 180.652C144.065 180.167 144.359 179.793 144.737 179.532C145.12 179.271 145.577 179.14 146.109 179.14C146.636 179.14 147.087 179.259 147.46 179.497C147.838 179.73 148.127 180.066 148.328 180.505C148.529 180.944 148.629 181.464 148.629 182.066V186H147.551V182.066C147.551 181.427 147.397 180.941 147.089 180.61C146.786 180.274 146.37 180.106 145.843 180.106C145.442 180.106 145.094 180.216 144.8 180.435C144.506 180.654 144.28 180.969 144.121 181.38C143.962 181.786 143.883 182.271 143.883 182.836V186H142.791ZM160.033 186L159.893 184.53V181.66C159.893 181.058 159.764 180.626 159.508 180.365C159.251 180.099 158.866 179.966 158.353 179.966C158.063 179.966 157.8 180.008 157.562 180.092C157.328 180.176 157.142 180.307 157.002 180.484C156.866 180.657 156.799 180.881 156.799 181.156H155.581C155.581 180.671 155.7 180.281 155.938 179.987C156.176 179.688 156.502 179.474 156.918 179.343C157.338 179.208 157.816 179.14 158.353 179.14C158.866 179.14 159.321 179.226 159.718 179.399C160.114 179.572 160.425 179.847 160.649 180.225C160.873 180.598 160.985 181.086 160.985 181.688V186H160.033ZM157.751 186.168C157.2 186.168 156.745 186.07 156.386 185.874C156.026 185.678 155.758 185.424 155.581 185.111C155.403 184.798 155.315 184.469 155.315 184.124C155.315 183.671 155.427 183.303 155.651 183.018C155.879 182.733 156.19 182.526 156.582 182.395C156.974 182.26 157.415 182.192 157.905 182.192C158.255 182.192 158.605 182.227 158.955 182.297C159.309 182.367 159.655 182.463 159.991 182.584V183.27C159.711 183.158 159.393 183.069 159.039 183.004C158.689 182.939 158.367 182.906 158.073 182.906C157.625 182.906 157.247 182.999 156.939 183.186C156.631 183.368 156.477 183.681 156.477 184.124C156.477 184.451 156.593 184.731 156.827 184.964C157.065 185.197 157.443 185.314 157.961 185.314C158.325 185.314 158.651 185.23 158.941 185.062C159.235 184.889 159.466 184.675 159.634 184.418C159.806 184.161 159.893 183.905 159.893 183.648H160.159C160.159 184.096 160.061 184.511 159.865 184.894C159.673 185.277 159.398 185.585 159.039 185.818C158.679 186.051 158.25 186.168 157.751 186.168ZM165.658 186.168C165.294 186.168 164.967 186.098 164.678 185.958C164.388 185.818 164.16 185.608 163.992 185.328C163.824 185.048 163.74 184.698 163.74 184.278V177.446H164.818V184.25C164.818 184.941 165.14 185.286 165.784 185.286C165.975 185.286 166.159 185.265 166.337 185.223C166.519 185.181 166.722 185.118 166.946 185.034L167.1 185.818C166.862 185.921 166.624 186.005 166.386 186.07C166.152 186.135 165.91 186.168 165.658 186.168ZM162.662 180.064V179.308H166.932V180.064H162.662ZM171.285 186.168C170.683 186.168 170.147 186.035 169.675 185.769C169.209 185.503 168.84 185.109 168.569 184.586C168.299 184.063 168.163 183.419 168.163 182.654C168.163 181.884 168.299 181.24 168.569 180.722C168.84 180.199 169.209 179.805 169.675 179.539C170.147 179.273 170.683 179.14 171.285 179.14C171.883 179.14 172.415 179.273 172.881 179.539C173.353 179.805 173.721 180.199 173.987 180.722C174.258 181.24 174.393 181.884 174.393 182.654C174.393 183.419 174.258 184.063 173.987 184.586C173.721 185.109 173.353 185.503 172.881 185.769C172.415 186.035 171.883 186.168 171.285 186.168ZM171.257 185.216C171.691 185.216 172.06 185.113 172.363 184.908C172.667 184.698 172.895 184.402 173.049 184.019C173.208 183.636 173.287 183.181 173.287 182.654C173.287 181.856 173.122 181.228 172.79 180.771C172.459 180.309 171.967 180.078 171.313 180.078C170.875 180.078 170.504 180.183 170.2 180.393C169.902 180.598 169.673 180.895 169.514 181.282C169.36 181.665 169.283 182.122 169.283 182.654C169.283 183.443 169.449 184.068 169.78 184.53C170.116 184.987 170.609 185.216 171.257 185.216ZM182.25 186.168C181.601 186.168 181.06 186.077 180.626 185.895C180.192 185.708 179.863 185.454 179.639 185.132C179.415 184.805 179.296 184.432 179.282 184.012H180.332C180.355 184.437 180.525 184.756 180.843 184.971C181.165 185.181 181.601 185.286 182.152 185.286C182.441 185.286 182.707 185.239 182.95 185.146C183.192 185.053 183.386 184.924 183.531 184.761C183.675 184.598 183.748 184.413 183.748 184.208C183.748 183.947 183.652 183.741 183.461 183.592C183.269 183.443 182.964 183.312 182.544 183.2L181.242 182.78C180.677 182.603 180.243 182.36 179.94 182.052C179.641 181.739 179.492 181.366 179.492 180.932C179.492 180.391 179.73 179.957 180.206 179.63C180.682 179.303 181.307 179.14 182.082 179.14C182.903 179.14 183.54 179.308 183.993 179.644C184.445 179.98 184.681 180.4 184.7 180.904H183.622C183.58 180.61 183.43 180.388 183.174 180.239C182.917 180.085 182.553 180.008 182.082 180.008C181.629 180.008 181.274 180.111 181.018 180.316C180.766 180.517 180.64 180.741 180.64 180.988C180.64 181.45 181.036 181.791 181.83 182.01L183.16 182.458C183.734 182.631 184.172 182.857 184.476 183.137C184.784 183.417 184.938 183.774 184.938 184.208C184.938 184.544 184.828 184.861 184.609 185.16C184.389 185.459 184.079 185.701 183.678 185.888C183.276 186.075 182.8 186.168 182.25 186.168ZM191.341 186L191.201 184.53V181.66C191.201 181.058 191.073 180.626 190.816 180.365C190.56 180.099 190.175 179.966 189.661 179.966C189.372 179.966 189.108 180.008 188.87 180.092C188.637 180.176 188.45 180.307 188.31 180.484C188.175 180.657 188.107 180.881 188.107 181.156H186.889C186.889 180.671 187.008 180.281 187.246 179.987C187.484 179.688 187.811 179.474 188.226 179.343C188.646 179.208 189.125 179.14 189.661 179.14C190.175 179.14 190.63 179.226 191.026 179.399C191.423 179.572 191.733 179.847 191.957 180.225C192.181 180.598 192.293 181.086 192.293 181.688V186H191.341ZM189.059 186.168C188.509 186.168 188.054 186.07 187.694 185.874C187.335 185.678 187.067 185.424 186.889 185.111C186.712 184.798 186.623 184.469 186.623 184.124C186.623 183.671 186.735 183.303 186.959 183.018C187.188 182.733 187.498 182.526 187.89 182.395C188.282 182.26 188.723 182.192 189.213 182.192C189.563 182.192 189.913 182.227 190.263 182.297C190.618 182.367 190.963 182.463 191.299 182.584V183.27C191.019 183.158 190.702 183.069 190.347 183.004C189.997 182.939 189.675 182.906 189.381 182.906C188.933 182.906 188.555 182.999 188.247 183.186C187.939 183.368 187.785 183.681 187.785 184.124C187.785 184.451 187.902 184.731 188.135 184.964C188.373 185.197 188.751 185.314 189.269 185.314C189.633 185.314 189.96 185.23 190.249 185.062C190.543 184.889 190.774 184.675 190.942 184.418C191.115 184.161 191.201 183.905 191.201 183.648H191.467C191.467 184.096 191.369 184.511 191.173 184.894C190.982 185.277 190.707 185.585 190.347 185.818C189.988 186.051 189.559 186.168 189.059 186.168ZM199.458 179.294H200.55V186H199.458V179.294ZM194.712 179.294H195.804V183.466C195.804 184.026 195.939 184.451 196.21 184.74C196.485 185.029 196.877 185.174 197.386 185.174C197.806 185.174 198.17 185.062 198.478 184.838C198.791 184.614 199.031 184.306 199.199 183.914C199.372 183.517 199.458 183.065 199.458 182.556H199.864C199.864 183.307 199.754 183.949 199.535 184.481C199.32 185.013 199.015 185.421 198.618 185.706C198.226 185.986 197.764 186.126 197.232 186.126C196.728 186.126 196.287 186.033 195.909 185.846C195.531 185.659 195.237 185.377 195.027 184.999C194.817 184.616 194.712 184.133 194.712 183.55V179.294ZM205.443 186.168C205.079 186.168 204.752 186.098 204.463 185.958C204.173 185.818 203.945 185.608 203.777 185.328C203.609 185.048 203.525 184.698 203.525 184.278V177.446H204.603V184.25C204.603 184.941 204.925 185.286 205.569 185.286C205.76 185.286 205.944 185.265 206.122 185.223C206.304 185.181 206.507 185.118 206.731 185.034L206.885 185.818C206.647 185.921 206.409 186.005 206.171 186.07C205.937 186.135 205.695 186.168 205.443 186.168ZM202.447 180.064V179.308H206.717V180.064H202.447ZM210.972 186.168C210.394 186.168 209.876 186.021 209.418 185.727C208.966 185.428 208.606 185.015 208.34 184.488C208.079 183.961 207.948 183.354 207.948 182.668C207.948 181.935 208.079 181.305 208.34 180.778C208.602 180.251 208.959 179.847 209.411 179.567C209.869 179.282 210.389 179.14 210.972 179.14C211.481 179.14 211.915 179.243 212.274 179.448C212.634 179.653 212.923 179.931 213.142 180.281C213.362 180.631 213.513 181.028 213.597 181.471C213.686 181.91 213.712 182.365 213.674 182.836H208.83V182.164H212.953L212.631 182.374C212.645 182.099 212.629 181.823 212.582 181.548C212.54 181.273 212.459 181.021 212.337 180.792C212.216 180.559 212.046 180.372 211.826 180.232C211.607 180.092 211.327 180.022 210.986 180.022C210.557 180.022 210.198 180.132 209.908 180.351C209.619 180.57 209.402 180.86 209.257 181.219C209.113 181.574 209.04 181.959 209.04 182.374V182.822C209.04 183.289 209.11 183.706 209.25 184.075C209.395 184.444 209.61 184.735 209.894 184.95C210.179 185.165 210.538 185.272 210.972 185.272C211.406 185.272 211.763 185.167 212.043 184.957C212.323 184.747 212.494 184.437 212.554 184.026H213.688C213.618 184.469 213.46 184.852 213.212 185.174C212.965 185.491 212.65 185.736 212.267 185.909C211.885 186.082 211.453 186.168 210.972 186.168ZM218.164 186.168C217.585 186.168 217.067 186.021 216.61 185.727C216.157 185.428 215.798 185.015 215.532 184.488C215.27 183.961 215.14 183.354 215.14 182.668C215.14 181.935 215.27 181.305 215.532 180.778C215.793 180.251 216.15 179.847 216.603 179.567C217.06 179.282 217.58 179.14 218.164 179.14C218.672 179.14 219.106 179.243 219.466 179.448C219.825 179.653 220.114 179.931 220.334 180.281C220.553 180.631 220.705 181.028 220.789 181.471C220.877 181.91 220.903 182.365 220.866 182.836H216.022V182.164H220.145L219.823 182.374C219.837 182.099 219.82 181.823 219.774 181.548C219.732 181.273 219.65 181.021 219.529 180.792C219.407 180.559 219.237 180.372 219.018 180.232C218.798 180.092 218.518 180.022 218.178 180.022C217.748 180.022 217.389 180.132 217.1 180.351C216.81 180.57 216.593 180.86 216.449 181.219C216.304 181.574 216.232 181.959 216.232 182.374V182.822C216.232 183.289 216.302 183.706 216.442 184.075C216.586 184.444 216.801 184.735 217.086 184.95C217.37 185.165 217.73 185.272 218.164 185.272C218.598 185.272 218.955 185.167 219.235 184.957C219.515 184.747 219.685 184.437 219.746 184.026H220.88C220.81 184.469 220.651 184.852 220.404 185.174C220.156 185.491 219.841 185.736 219.459 185.909C219.076 186.082 218.644 186.168 218.164 186.168ZM225.425 186.168C224.884 186.168 224.387 186.023 223.934 185.734C223.482 185.44 223.12 185.029 222.849 184.502C222.579 183.97 222.443 183.345 222.443 182.626C222.443 181.912 222.576 181.294 222.842 180.771C223.108 180.248 223.461 179.847 223.899 179.567C224.343 179.282 224.828 179.14 225.355 179.14C225.845 179.14 226.275 179.259 226.643 179.497C227.017 179.735 227.306 180.078 227.511 180.526C227.717 180.974 227.819 181.515 227.819 182.15H227.399C227.399 181.707 227.311 181.333 227.133 181.03C226.961 180.727 226.734 180.498 226.454 180.344C226.174 180.185 225.873 180.106 225.551 180.106C225.187 180.106 224.854 180.209 224.55 180.414C224.252 180.615 224.011 180.904 223.829 181.282C223.652 181.655 223.563 182.103 223.563 182.626C223.563 183.158 223.652 183.615 223.829 183.998C224.011 184.381 224.252 184.675 224.55 184.88C224.854 185.085 225.187 185.188 225.551 185.188C225.855 185.188 226.146 185.109 226.426 184.95C226.711 184.791 226.944 184.56 227.126 184.257C227.308 183.949 227.399 183.578 227.399 183.144H227.819C227.819 183.793 227.712 184.343 227.497 184.796C227.287 185.244 227 185.585 226.636 185.818C226.277 186.051 225.873 186.168 225.425 186.168ZM227.581 186L227.399 184.432V176.452H228.491V186H227.581ZM235.268 177.726C235.044 177.726 234.867 177.663 234.736 177.537C234.606 177.406 234.54 177.236 234.54 177.026C234.54 176.821 234.606 176.657 234.736 176.536C234.867 176.415 235.044 176.354 235.268 176.354C235.492 176.354 235.67 176.415 235.8 176.536C235.931 176.657 235.996 176.821 235.996 177.026C235.996 177.236 235.931 177.406 235.8 177.537C235.67 177.663 235.492 177.726 235.268 177.726ZM234.722 186V179.294H235.814V186H234.722ZM243.582 186V182.066C243.582 181.427 243.428 180.941 243.12 180.61C242.817 180.274 242.402 180.106 241.874 180.106C241.473 180.106 241.125 180.216 240.831 180.435C240.537 180.654 240.311 180.969 240.152 181.38C239.994 181.786 239.914 182.271 239.914 182.836H239.494C239.494 182.057 239.597 181.392 239.802 180.841C240.008 180.29 240.306 179.87 240.698 179.581C241.095 179.287 241.576 179.14 242.14 179.14C242.668 179.14 243.118 179.259 243.491 179.497C243.869 179.73 244.159 180.066 244.359 180.505C244.56 180.944 244.66 181.464 244.66 182.066V186H243.582ZM238.822 186V179.308H239.76L239.914 180.848V186H238.822ZM255.354 186V182.066C255.354 181.427 255.2 180.941 254.892 180.61C254.588 180.274 254.173 180.106 253.646 180.106C253.244 180.106 252.897 180.216 252.603 180.435C252.309 180.654 252.082 180.969 251.924 181.38C251.765 181.786 251.686 182.271 251.686 182.836H251.266C251.266 182.057 251.368 181.392 251.574 180.841C251.779 180.29 252.078 179.87 252.47 179.581C252.866 179.287 253.347 179.14 253.912 179.14C254.439 179.14 254.889 179.259 255.263 179.497C255.641 179.73 255.93 180.066 256.131 180.505C256.331 180.944 256.432 181.464 256.432 182.066V186H255.354ZM250.594 186V176.452H251.686V186H250.594ZM261.465 186.168C260.863 186.168 260.326 186.035 259.855 185.769C259.388 185.503 259.02 185.109 258.749 184.586C258.478 184.063 258.343 183.419 258.343 182.654C258.343 181.884 258.478 181.24 258.749 180.722C259.02 180.199 259.388 179.805 259.855 179.539C260.326 179.273 260.863 179.14 261.465 179.14C262.062 179.14 262.594 179.273 263.061 179.539C263.532 179.805 263.901 180.199 264.167 180.722C264.438 181.24 264.573 181.884 264.573 182.654C264.573 183.419 264.438 184.063 264.167 184.586C263.901 185.109 263.532 185.503 263.061 185.769C262.594 186.035 262.062 186.168 261.465 186.168ZM261.437 185.216C261.871 185.216 262.24 185.113 262.543 184.908C262.846 184.698 263.075 184.402 263.229 184.019C263.388 183.636 263.467 183.181 263.467 182.654C263.467 181.856 263.301 181.228 262.97 180.771C262.639 180.309 262.146 180.078 261.493 180.078C261.054 180.078 260.683 180.183 260.38 180.393C260.081 180.598 259.853 180.895 259.694 181.282C259.54 181.665 259.463 182.122 259.463 182.654C259.463 183.443 259.629 184.068 259.96 184.53C260.296 184.987 260.788 185.216 261.437 185.216ZM271.249 179.294H272.341V186H271.249V179.294ZM266.503 179.294H267.595V183.466C267.595 184.026 267.73 184.451 268.001 184.74C268.276 185.029 268.668 185.174 269.177 185.174C269.597 185.174 269.961 185.062 270.269 184.838C270.582 184.614 270.822 184.306 270.99 183.914C271.163 183.517 271.249 183.065 271.249 182.556H271.655C271.655 183.307 271.545 183.949 271.326 184.481C271.111 185.013 270.806 185.421 270.409 185.706C270.017 185.986 269.555 186.126 269.023 186.126C268.519 186.126 268.078 186.033 267.7 185.846C267.322 185.659 267.028 185.377 266.818 184.999C266.608 184.616 266.503 184.133 266.503 183.55V179.294ZM277.584 186.168C276.935 186.168 276.394 186.077 275.96 185.895C275.526 185.708 275.197 185.454 274.973 185.132C274.749 184.805 274.63 184.432 274.616 184.012H275.666C275.689 184.437 275.859 184.756 276.177 184.971C276.499 185.181 276.935 185.286 277.486 185.286C277.775 185.286 278.041 185.239 278.284 185.146C278.526 185.053 278.72 184.924 278.865 184.761C279.009 184.598 279.082 184.413 279.082 184.208C279.082 183.947 278.986 183.741 278.795 183.592C278.603 183.443 278.298 183.312 277.878 183.2L276.576 182.78C276.011 182.603 275.577 182.36 275.274 182.052C274.975 181.739 274.826 181.366 274.826 180.932C274.826 180.391 275.064 179.957 275.54 179.63C276.016 179.303 276.641 179.14 277.416 179.14C278.237 179.14 278.874 179.308 279.327 179.644C279.779 179.98 280.015 180.4 280.034 180.904H278.956C278.914 180.61 278.764 180.388 278.508 180.239C278.251 180.085 277.887 180.008 277.416 180.008C276.963 180.008 276.608 180.111 276.352 180.316C276.1 180.517 275.974 180.741 275.974 180.988C275.974 181.45 276.37 181.791 277.164 182.01L278.494 182.458C279.068 182.631 279.506 182.857 279.81 183.137C280.118 183.417 280.272 183.774 280.272 184.208C280.272 184.544 280.162 184.861 279.943 185.16C279.723 185.459 279.413 185.701 279.012 185.888C278.61 186.075 278.134 186.168 277.584 186.168ZM284.855 186.168C284.277 186.168 283.759 186.021 283.301 185.727C282.849 185.428 282.489 185.015 282.223 184.488C281.962 183.961 281.831 183.354 281.831 182.668C281.831 181.935 281.962 181.305 282.223 180.778C282.485 180.251 282.842 179.847 283.294 179.567C283.752 179.282 284.272 179.14 284.855 179.14C285.364 179.14 285.798 179.243 286.157 179.448C286.517 179.653 286.806 179.931 287.025 180.281C287.245 180.631 287.396 181.028 287.48 181.471C287.569 181.91 287.595 182.365 287.557 182.836H282.713V182.164H286.836L286.514 182.374C286.528 182.099 286.512 181.823 286.465 181.548C286.423 181.273 286.342 181.021 286.22 180.792C286.099 180.559 285.929 180.372 285.709 180.232C285.49 180.092 285.21 180.022 284.869 180.022C284.44 180.022 284.081 180.132 283.791 180.351C283.502 180.57 283.285 180.86 283.14 181.219C282.996 181.574 282.923 181.959 282.923 182.374V182.822C282.923 183.289 282.993 183.706 283.133 184.075C283.278 184.444 283.493 184.735 283.777 184.95C284.062 185.165 284.421 185.272 284.855 185.272C285.289 185.272 285.646 185.167 285.926 184.957C286.206 184.747 286.377 184.437 286.437 184.026H287.571C287.501 184.469 287.343 184.852 287.095 185.174C286.848 185.491 286.533 185.736 286.15 185.909C285.768 186.082 285.336 186.168 284.855 186.168ZM295.453 186.168C294.804 186.168 294.263 186.077 293.829 185.895C293.395 185.708 293.066 185.454 292.842 185.132C292.618 184.805 292.499 184.432 292.485 184.012H293.535C293.558 184.437 293.729 184.756 294.046 184.971C294.368 185.181 294.804 185.286 295.355 185.286C295.644 185.286 295.91 185.239 296.153 185.146C296.396 185.053 296.589 184.924 296.734 184.761C296.879 184.598 296.951 184.413 296.951 184.208C296.951 183.947 296.855 183.741 296.664 183.592C296.473 183.443 296.167 183.312 295.747 183.2L294.445 182.78C293.88 182.603 293.446 182.36 293.143 182.052C292.844 181.739 292.695 181.366 292.695 180.932C292.695 180.391 292.933 179.957 293.409 179.63C293.885 179.303 294.51 179.14 295.285 179.14C296.106 179.14 296.743 179.308 297.196 179.644C297.649 179.98 297.884 180.4 297.903 180.904H296.825C296.783 180.61 296.634 180.388 296.377 180.239C296.12 180.085 295.756 180.008 295.285 180.008C294.832 180.008 294.478 180.111 294.221 180.316C293.969 180.517 293.843 180.741 293.843 180.988C293.843 181.45 294.24 181.791 295.033 182.01L296.363 182.458C296.937 182.631 297.376 182.857 297.679 183.137C297.987 183.417 298.141 183.774 298.141 184.208C298.141 184.544 298.031 184.861 297.812 185.16C297.593 185.459 297.282 185.701 296.881 185.888C296.48 186.075 296.004 186.168 295.453 186.168ZM303.438 186.168C302.948 186.168 302.521 186.056 302.157 185.832C301.798 185.608 301.52 185.281 301.324 184.852C301.128 184.418 301.03 183.891 301.03 183.27H301.492C301.492 183.685 301.579 184.035 301.751 184.32C301.924 184.605 302.148 184.822 302.423 184.971C302.703 185.116 303 185.188 303.312 185.188C303.648 185.188 303.97 185.092 304.278 184.901C304.586 184.705 304.838 184.418 305.034 184.04C305.23 183.662 305.328 183.195 305.328 182.64C305.328 182.108 305.237 181.653 305.055 181.275C304.878 180.897 304.638 180.608 304.334 180.407C304.031 180.206 303.695 180.106 303.326 180.106C303.009 180.106 302.71 180.183 302.43 180.337C302.15 180.491 301.924 180.717 301.751 181.016C301.579 181.31 301.492 181.674 301.492 182.108H301.03C301.03 181.459 301.138 180.916 301.352 180.477C301.567 180.034 301.859 179.7 302.227 179.476C302.596 179.252 303.009 179.14 303.466 179.14C303.989 179.14 304.477 179.28 304.929 179.56C305.382 179.84 305.748 180.241 306.028 180.764C306.308 181.287 306.448 181.912 306.448 182.64C306.448 183.377 306.306 184.01 306.021 184.537C305.741 185.064 305.373 185.468 304.915 185.748C304.458 186.028 303.966 186.168 303.438 186.168ZM300.4 189.29V179.308H301.31L301.492 180.876V189.29H300.4ZM309.206 177.726C308.982 177.726 308.804 177.663 308.674 177.537C308.543 177.406 308.478 177.236 308.478 177.026C308.478 176.821 308.543 176.657 308.674 176.536C308.804 176.415 308.982 176.354 309.206 176.354C309.43 176.354 309.607 176.415 309.738 176.536C309.868 176.657 309.934 176.821 309.934 177.026C309.934 177.236 309.868 177.406 309.738 177.537C309.607 177.663 309.43 177.726 309.206 177.726ZM308.66 186V179.294H309.752V186H308.66ZM315.112 186.168C314.575 186.168 314.073 186.023 313.607 185.734C313.145 185.445 312.771 185.036 312.487 184.509C312.202 183.982 312.06 183.359 312.06 182.64C312.06 181.903 312.202 181.273 312.487 180.75C312.771 180.227 313.145 179.828 313.607 179.553C314.073 179.278 314.575 179.14 315.112 179.14C315.49 179.14 315.828 179.198 316.127 179.315C316.43 179.427 316.694 179.583 316.918 179.784C317.142 179.985 317.326 180.213 317.471 180.47C317.62 180.722 317.73 180.988 317.8 181.268L316.68 181.366C316.563 180.979 316.367 180.673 316.092 180.449C315.821 180.22 315.49 180.106 315.098 180.106C314.766 180.106 314.454 180.202 314.16 180.393C313.87 180.58 313.635 180.862 313.453 181.24C313.271 181.613 313.18 182.08 313.18 182.64C313.18 183.158 313.261 183.608 313.425 183.991C313.593 184.369 313.821 184.663 314.111 184.873C314.4 185.083 314.729 185.188 315.098 185.188C315.616 185.188 316.008 185.062 316.274 184.81C316.544 184.553 316.68 184.199 316.68 183.746H317.8C317.8 184.213 317.69 184.628 317.471 184.992C317.251 185.356 316.939 185.643 316.533 185.853C316.131 186.063 315.658 186.168 315.112 186.168ZM322.302 186.168C321.724 186.168 321.206 186.021 320.748 185.727C320.296 185.428 319.936 185.015 319.67 184.488C319.409 183.961 319.278 183.354 319.278 182.668C319.278 181.935 319.409 181.305 319.67 180.778C319.932 180.251 320.289 179.847 320.741 179.567C321.199 179.282 321.719 179.14 322.302 179.14C322.811 179.14 323.245 179.243 323.604 179.448C323.964 179.653 324.253 179.931 324.472 180.281C324.692 180.631 324.843 181.028 324.927 181.471C325.016 181.91 325.042 182.365 325.004 182.836H320.16V182.164H324.283L323.961 182.374C323.975 182.099 323.959 181.823 323.912 181.548C323.87 181.273 323.789 181.021 323.667 180.792C323.546 180.559 323.376 180.372 323.156 180.232C322.937 180.092 322.657 180.022 322.316 180.022C321.887 180.022 321.528 180.132 321.238 180.351C320.949 180.57 320.732 180.86 320.587 181.219C320.443 181.574 320.37 181.959 320.37 182.374V182.822C320.37 183.289 320.44 183.706 320.58 184.075C320.725 184.444 320.94 184.735 321.224 184.95C321.509 185.165 321.868 185.272 322.302 185.272C322.736 185.272 323.093 185.167 323.373 184.957C323.653 184.747 323.824 184.437 323.884 184.026H325.018C324.948 184.469 324.79 184.852 324.542 185.174C324.295 185.491 323.98 185.736 323.597 185.909C323.215 186.082 322.783 186.168 322.302 186.168ZM329.578 186.168C328.929 186.168 328.388 186.077 327.954 185.895C327.52 185.708 327.191 185.454 326.967 185.132C326.743 184.805 326.624 184.432 326.61 184.012H327.66C327.683 184.437 327.854 184.756 328.171 184.971C328.493 185.181 328.929 185.286 329.48 185.286C329.769 185.286 330.035 185.239 330.278 185.146C330.521 185.053 330.714 184.924 330.859 184.761C331.004 184.598 331.076 184.413 331.076 184.208C331.076 183.947 330.98 183.741 330.789 183.592C330.598 183.443 330.292 183.312 329.872 183.2L328.57 182.78C328.005 182.603 327.571 182.36 327.268 182.052C326.969 181.739 326.82 181.366 326.82 180.932C326.82 180.391 327.058 179.957 327.534 179.63C328.01 179.303 328.635 179.14 329.41 179.14C330.231 179.14 330.868 179.308 331.321 179.644C331.774 179.98 332.009 180.4 332.028 180.904H330.95C330.908 180.61 330.759 180.388 330.502 180.239C330.245 180.085 329.881 180.008 329.41 180.008C328.957 180.008 328.603 180.111 328.346 180.316C328.094 180.517 327.968 180.741 327.968 180.988C327.968 181.45 328.365 181.791 329.158 182.01L330.488 182.458C331.062 182.631 331.501 182.857 331.804 183.137C332.112 183.417 332.266 183.774 332.266 184.208C332.266 184.544 332.156 184.861 331.937 185.16C331.718 185.459 331.407 185.701 331.006 185.888C330.605 186.075 330.129 186.168 329.578 186.168ZM333.531 185.349C333.531 185.13 333.608 184.941 333.762 184.782C333.916 184.623 334.11 184.544 334.343 184.544C334.577 184.544 334.775 184.623 334.938 184.782C335.102 184.941 335.183 185.13 335.183 185.349C335.183 185.568 335.102 185.753 334.938 185.902C334.775 186.051 334.577 186.126 334.343 186.126C334.11 186.126 333.916 186.051 333.762 185.902C333.608 185.748 333.531 185.564 333.531 185.349ZM86.0832 202.168C85.3085 202.168 84.6412 201.974 84.0812 201.587C83.5212 201.195 83.0895 200.654 82.7862 199.963C82.4829 199.268 82.3312 198.463 82.3312 197.548C82.3312 196.573 82.4945 195.751 82.8212 195.084C83.1525 194.417 83.6005 193.913 84.1652 193.572C84.7345 193.227 85.3739 193.054 86.0832 193.054C87.0212 193.054 87.7749 193.29 88.3442 193.761C88.9182 194.228 89.3125 194.837 89.5272 195.588L88.3512 195.826C88.1692 195.28 87.8775 194.846 87.4762 194.524C87.0795 194.197 86.6152 194.034 86.0832 194.034C85.6212 194.034 85.1942 194.167 84.8022 194.433C84.4149 194.694 84.1022 195.086 83.8642 195.609C83.6262 196.132 83.5072 196.778 83.5072 197.548C83.5072 198.248 83.6005 198.871 83.7872 199.417C83.9785 199.963 84.2632 200.392 84.6412 200.705C85.0239 201.018 85.5045 201.174 86.0832 201.174C86.7785 201.174 87.3292 200.987 87.7352 200.614C88.1459 200.241 88.3512 199.751 88.3512 199.144H89.5412C89.5412 199.774 89.3965 200.315 89.1072 200.768C88.8179 201.216 88.4119 201.561 87.8892 201.804C87.3712 202.047 86.7692 202.168 86.0832 202.168ZM94.0391 202.168C93.4371 202.168 92.9005 202.035 92.4291 201.769C91.9625 201.503 91.5938 201.109 91.3231 200.586C91.0525 200.063 90.9171 199.419 90.9171 198.654C90.9171 197.884 91.0525 197.24 91.3231 196.722C91.5938 196.199 91.9625 195.805 92.4291 195.539C92.9005 195.273 93.4371 195.14 94.0391 195.14C94.6365 195.14 95.1685 195.273 95.6351 195.539C96.1065 195.805 96.4751 196.199 96.7411 196.722C97.0118 197.24 97.1471 197.884 97.1471 198.654C97.1471 199.419 97.0118 200.063 96.7411 200.586C96.4751 201.109 96.1065 201.503 95.6351 201.769C95.1685 202.035 94.6365 202.168 94.0391 202.168ZM94.0111 201.216C94.4451 201.216 94.8138 201.113 95.1171 200.908C95.4205 200.698 95.6491 200.402 95.8031 200.019C95.9618 199.636 96.0411 199.181 96.0411 198.654C96.0411 197.856 95.8755 197.228 95.5441 196.771C95.2128 196.309 94.7205 196.078 94.0671 196.078C93.6285 196.078 93.2575 196.183 92.9541 196.393C92.6555 196.598 92.4268 196.895 92.2681 197.282C92.1141 197.665 92.0371 198.122 92.0371 198.654C92.0371 199.443 92.2028 200.068 92.5341 200.53C92.8701 200.987 93.3625 201.216 94.0111 201.216ZM108.681 202V198.066C108.681 197.427 108.527 196.941 108.219 196.61C107.916 196.274 107.505 196.106 106.987 196.106C106.381 196.106 105.916 196.342 105.594 196.813C105.272 197.28 105.111 197.926 105.111 198.752H104.607C104.607 198.15 104.666 197.623 104.782 197.17C104.904 196.717 105.079 196.342 105.307 196.043C105.536 195.74 105.814 195.513 106.14 195.364C106.467 195.215 106.838 195.14 107.253 195.14C107.781 195.14 108.231 195.259 108.604 195.497C108.982 195.73 109.272 196.066 109.472 196.505C109.673 196.944 109.773 197.464 109.773 198.066V202H108.681ZM99.2734 202V195.308H100.211L100.337 196.652C100.547 196.167 100.841 195.793 101.219 195.532C101.602 195.271 102.059 195.14 102.591 195.14C103.119 195.14 103.569 195.259 103.942 195.497C104.32 195.73 104.61 196.066 104.81 196.505C105.011 196.944 105.111 197.464 105.111 198.066V202H104.033V198.066C104.033 197.427 103.879 196.941 103.571 196.61C103.268 196.274 102.853 196.106 102.325 196.106C101.924 196.106 101.576 196.216 101.282 196.435C100.988 196.654 100.762 196.969 100.603 197.38C100.445 197.786 100.365 198.271 100.365 198.836V202H99.2734ZM114.695 202.168C114.116 202.168 113.598 202.021 113.141 201.727C112.688 201.428 112.329 201.015 112.063 200.488C111.802 199.961 111.671 199.354 111.671 198.668C111.671 197.935 111.802 197.305 112.063 196.778C112.324 196.251 112.681 195.847 113.134 195.567C113.591 195.282 114.112 195.14 114.695 195.14C115.204 195.14 115.638 195.243 115.997 195.448C116.356 195.653 116.646 195.931 116.865 196.281C117.084 196.631 117.236 197.028 117.32 197.471C117.409 197.91 117.434 198.365 117.397 198.836H112.553V198.164H116.676L116.354 198.374C116.368 198.099 116.352 197.823 116.305 197.548C116.263 197.273 116.181 197.021 116.06 196.792C115.939 196.559 115.768 196.372 115.549 196.232C115.33 196.092 115.05 196.022 114.709 196.022C114.28 196.022 113.92 196.132 113.631 196.351C113.342 196.57 113.125 196.86 112.98 197.219C112.835 197.574 112.763 197.959 112.763 198.374V198.822C112.763 199.289 112.833 199.706 112.973 200.075C113.118 200.444 113.332 200.735 113.617 200.95C113.902 201.165 114.261 201.272 114.695 201.272C115.129 201.272 115.486 201.167 115.766 200.957C116.046 200.747 116.216 200.437 116.277 200.026H117.411C117.341 200.469 117.182 200.852 116.935 201.174C116.688 201.491 116.373 201.736 115.99 201.909C115.607 202.082 115.176 202.168 114.695 202.168ZM121.97 202.168C121.322 202.168 120.78 202.077 120.346 201.895C119.912 201.708 119.583 201.454 119.359 201.132C119.135 200.805 119.016 200.432 119.002 200.012H120.052C120.076 200.437 120.246 200.756 120.563 200.971C120.885 201.181 121.322 201.286 121.872 201.286C122.162 201.286 122.428 201.239 122.67 201.146C122.913 201.053 123.107 200.924 123.251 200.761C123.396 200.598 123.468 200.413 123.468 200.208C123.468 199.947 123.373 199.741 123.181 199.592C122.99 199.443 122.684 199.312 122.264 199.2L120.962 198.78C120.398 198.603 119.964 198.36 119.66 198.052C119.362 197.739 119.212 197.366 119.212 196.932C119.212 196.391 119.45 195.957 119.926 195.63C120.402 195.303 121.028 195.14 121.802 195.14C122.624 195.14 123.261 195.308 123.713 195.644C124.166 195.98 124.402 196.4 124.42 196.904H123.342C123.3 196.61 123.151 196.388 122.894 196.239C122.638 196.085 122.274 196.008 121.802 196.008C121.35 196.008 120.995 196.111 120.738 196.316C120.486 196.517 120.36 196.741 120.36 196.988C120.36 197.45 120.757 197.791 121.55 198.01L122.88 198.458C123.454 198.631 123.893 198.857 124.196 199.137C124.504 199.417 124.658 199.774 124.658 200.208C124.658 200.544 124.549 200.861 124.329 201.16C124.11 201.459 123.8 201.701 123.398 201.888C122.997 202.075 122.521 202.168 121.97 202.168ZM129.078 195.308H130.212L131.92 200.894H131.78L133.446 195.63H134.356L136.008 200.908H135.882L137.59 195.308H138.682L136.484 202H135.42L133.796 197.058H133.964L132.354 202H131.29L129.078 195.308ZM141.001 193.726C140.777 193.726 140.599 193.663 140.469 193.537C140.338 193.406 140.273 193.236 140.273 193.026C140.273 192.821 140.338 192.657 140.469 192.536C140.599 192.415 140.777 192.354 141.001 192.354C141.225 192.354 141.402 192.415 141.533 192.536C141.663 192.657 141.729 192.821 141.729 193.026C141.729 193.236 141.663 193.406 141.533 193.537C141.402 193.663 141.225 193.726 141.001 193.726ZM140.455 202V195.294H141.547V202H140.455ZM146.613 202.168C146.249 202.168 145.922 202.098 145.633 201.958C145.343 201.818 145.115 201.608 144.947 201.328C144.779 201.048 144.695 200.698 144.695 200.278V193.446H145.773V200.25C145.773 200.941 146.095 201.286 146.739 201.286C146.93 201.286 147.114 201.265 147.292 201.223C147.474 201.181 147.677 201.118 147.901 201.034L148.055 201.818C147.817 201.921 147.579 202.005 147.341 202.07C147.107 202.135 146.865 202.168 146.613 202.168ZM143.617 196.064V195.308H147.887V196.064H143.617ZM154.578 202V198.066C154.578 197.427 154.424 196.941 154.116 196.61C153.813 196.274 153.398 196.106 152.87 196.106C152.469 196.106 152.121 196.216 151.827 196.435C151.533 196.654 151.307 196.969 151.148 197.38C150.99 197.786 150.91 198.271 150.91 198.836H150.49C150.49 198.057 150.593 197.392 150.798 196.841C151.004 196.29 151.302 195.87 151.694 195.581C152.091 195.287 152.572 195.14 153.136 195.14C153.664 195.14 154.114 195.259 154.487 195.497C154.865 195.73 155.155 196.066 155.355 196.505C155.556 196.944 155.656 197.464 155.656 198.066V202H154.578ZM149.818 202V192.452H150.91V202H149.818ZM165.734 202L165.594 200.53V197.66C165.594 197.058 165.465 196.626 165.209 196.365C164.952 196.099 164.567 195.966 164.054 195.966C163.764 195.966 163.501 196.008 163.263 196.092C163.029 196.176 162.843 196.307 162.703 196.484C162.567 196.657 162.5 196.881 162.5 197.156H161.282C161.282 196.671 161.401 196.281 161.639 195.987C161.877 195.688 162.203 195.474 162.619 195.343C163.039 195.208 163.517 195.14 164.054 195.14C164.567 195.14 165.022 195.226 165.419 195.399C165.815 195.572 166.126 195.847 166.35 196.225C166.574 196.598 166.686 197.086 166.686 197.688V202H165.734ZM163.452 202.168C162.901 202.168 162.446 202.07 162.087 201.874C161.727 201.678 161.459 201.424 161.282 201.111C161.104 200.798 161.016 200.469 161.016 200.124C161.016 199.671 161.128 199.303 161.352 199.018C161.58 198.733 161.891 198.526 162.283 198.395C162.675 198.26 163.116 198.192 163.606 198.192C163.956 198.192 164.306 198.227 164.656 198.297C165.01 198.367 165.356 198.463 165.692 198.584V199.27C165.412 199.158 165.094 199.069 164.74 199.004C164.39 198.939 164.068 198.906 163.774 198.906C163.326 198.906 162.948 198.999 162.64 199.186C162.332 199.368 162.178 199.681 162.178 200.124C162.178 200.451 162.294 200.731 162.528 200.964C162.766 201.197 163.144 201.314 163.662 201.314C164.026 201.314 164.352 201.23 164.642 201.062C164.936 200.889 165.167 200.675 165.335 200.418C165.507 200.161 165.594 199.905 165.594 199.648H165.86C165.86 200.096 165.762 200.511 165.566 200.894C165.374 201.277 165.099 201.585 164.74 201.818C164.38 202.051 163.951 202.168 163.452 202.168ZM175.031 202.168C174.382 202.168 173.841 202.077 173.407 201.895C172.973 201.708 172.644 201.454 172.42 201.132C172.196 200.805 172.077 200.432 172.063 200.012H173.113C173.136 200.437 173.307 200.756 173.624 200.971C173.946 201.181 174.382 201.286 174.933 201.286C175.222 201.286 175.488 201.239 175.731 201.146C175.974 201.053 176.167 200.924 176.312 200.761C176.457 200.598 176.529 200.413 176.529 200.208C176.529 199.947 176.433 199.741 176.242 199.592C176.051 199.443 175.745 199.312 175.325 199.2L174.023 198.78C173.458 198.603 173.024 198.36 172.721 198.052C172.422 197.739 172.273 197.366 172.273 196.932C172.273 196.391 172.511 195.957 172.987 195.63C173.463 195.303 174.088 195.14 174.863 195.14C175.684 195.14 176.321 195.308 176.774 195.644C177.227 195.98 177.462 196.4 177.481 196.904H176.403C176.361 196.61 176.212 196.388 175.955 196.239C175.698 196.085 175.334 196.008 174.863 196.008C174.41 196.008 174.056 196.111 173.799 196.316C173.547 196.517 173.421 196.741 173.421 196.988C173.421 197.45 173.818 197.791 174.611 198.01L175.941 198.458C176.515 198.631 176.954 198.857 177.257 199.137C177.565 199.417 177.719 199.774 177.719 200.208C177.719 200.544 177.609 200.861 177.39 201.16C177.171 201.459 176.86 201.701 176.459 201.888C176.058 202.075 175.582 202.168 175.031 202.168ZM180.594 193.726C180.37 193.726 180.193 193.663 180.062 193.537C179.932 193.406 179.866 193.236 179.866 193.026C179.866 192.821 179.932 192.657 180.062 192.536C180.193 192.415 180.37 192.354 180.594 192.354C180.818 192.354 180.996 192.415 181.126 192.536C181.257 192.657 181.322 192.821 181.322 193.026C181.322 193.236 181.257 193.406 181.126 193.537C180.996 193.663 180.818 193.726 180.594 193.726ZM180.048 202V195.294H181.14V202H180.048ZM186.542 202.168C186.001 202.168 185.504 202.023 185.051 201.734C184.599 201.44 184.237 201.029 183.966 200.502C183.696 199.97 183.56 199.345 183.56 198.626C183.56 197.912 183.693 197.294 183.959 196.771C184.225 196.248 184.578 195.847 185.016 195.567C185.46 195.282 185.945 195.14 186.472 195.14C186.962 195.14 187.392 195.259 187.76 195.497C188.134 195.735 188.423 196.078 188.628 196.526C188.834 196.974 188.936 197.515 188.936 198.15H188.516C188.516 197.707 188.428 197.333 188.25 197.03C188.078 196.727 187.851 196.498 187.571 196.344C187.291 196.185 186.99 196.106 186.668 196.106C186.304 196.106 185.971 196.209 185.667 196.414C185.369 196.615 185.128 196.904 184.946 197.282C184.769 197.655 184.68 198.103 184.68 198.626C184.68 199.158 184.769 199.615 184.946 199.998C185.128 200.381 185.369 200.675 185.667 200.88C185.971 201.085 186.304 201.188 186.668 201.188C186.972 201.188 187.263 201.109 187.543 200.95C187.828 200.791 188.061 200.56 188.243 200.257C188.425 199.949 188.516 199.578 188.516 199.144H188.936C188.936 199.793 188.829 200.343 188.614 200.796C188.404 201.244 188.117 201.585 187.753 201.818C187.394 202.051 186.99 202.168 186.542 202.168ZM188.698 202L188.516 200.432V192.452H189.608V202H188.698ZM194.771 202.168C194.193 202.168 193.675 202.021 193.217 201.727C192.765 201.428 192.405 201.015 192.139 200.488C191.878 199.961 191.747 199.354 191.747 198.668C191.747 197.935 191.878 197.305 192.139 196.778C192.401 196.251 192.758 195.847 193.21 195.567C193.668 195.282 194.188 195.14 194.771 195.14C195.28 195.14 195.714 195.243 196.073 195.448C196.433 195.653 196.722 195.931 196.941 196.281C197.161 196.631 197.312 197.028 197.396 197.471C197.485 197.91 197.511 198.365 197.473 198.836H192.629V198.164H196.752L196.43 198.374C196.444 198.099 196.428 197.823 196.381 197.548C196.339 197.273 196.258 197.021 196.136 196.792C196.015 196.559 195.845 196.372 195.625 196.232C195.406 196.092 195.126 196.022 194.785 196.022C194.356 196.022 193.997 196.132 193.707 196.351C193.418 196.57 193.201 196.86 193.056 197.219C192.912 197.574 192.839 197.959 192.839 198.374V198.822C192.839 199.289 192.909 199.706 193.049 200.075C193.194 200.444 193.409 200.735 193.693 200.95C193.978 201.165 194.337 201.272 194.771 201.272C195.205 201.272 195.562 201.167 195.842 200.957C196.122 200.747 196.293 200.437 196.353 200.026H197.487C197.417 200.469 197.259 200.852 197.011 201.174C196.764 201.491 196.449 201.736 196.066 201.909C195.684 202.082 195.252 202.168 194.771 202.168ZM205.383 202.168C204.781 202.168 204.244 202.035 203.773 201.769C203.306 201.503 202.938 201.109 202.667 200.586C202.396 200.063 202.261 199.419 202.261 198.654C202.261 197.884 202.396 197.24 202.667 196.722C202.938 196.199 203.306 195.805 203.773 195.539C204.244 195.273 204.781 195.14 205.383 195.14C205.98 195.14 206.512 195.273 206.979 195.539C207.45 195.805 207.819 196.199 208.085 196.722C208.356 197.24 208.491 197.884 208.491 198.654C208.491 199.419 208.356 200.063 208.085 200.586C207.819 201.109 207.45 201.503 206.979 201.769C206.512 202.035 205.98 202.168 205.383 202.168ZM205.355 201.216C205.789 201.216 206.158 201.113 206.461 200.908C206.764 200.698 206.993 200.402 207.147 200.019C207.306 199.636 207.385 199.181 207.385 198.654C207.385 197.856 207.219 197.228 206.888 196.771C206.557 196.309 206.064 196.078 205.411 196.078C204.972 196.078 204.601 196.183 204.298 196.393C203.999 196.598 203.771 196.895 203.612 197.282C203.458 197.665 203.381 198.122 203.381 198.654C203.381 199.443 203.547 200.068 203.878 200.53C204.214 200.987 204.706 201.216 205.355 201.216ZM210.981 202V194.272C210.981 193.829 211.065 193.467 211.233 193.187C211.406 192.902 211.634 192.692 211.919 192.557C212.208 192.422 212.53 192.354 212.885 192.354C213.076 192.354 213.27 192.368 213.466 192.396C213.667 192.424 213.865 192.466 214.061 192.522L213.851 193.39C213.711 193.334 213.571 193.292 213.431 193.264C213.296 193.236 213.165 193.222 213.039 193.222C212.89 193.222 212.74 193.25 212.591 193.306C212.442 193.362 212.318 193.467 212.22 193.621C212.122 193.775 212.073 193.997 212.073 194.286V202H210.981ZM209.889 196.064V195.308H213.459V196.064H209.889ZM218.738 202V195.294H219.83V202H218.738ZM219.494 198.976C219.494 198.127 219.576 197.422 219.739 196.862C219.903 196.297 220.141 195.877 220.453 195.602C220.771 195.322 221.156 195.182 221.608 195.182C221.758 195.182 221.893 195.194 222.014 195.217C222.14 195.236 222.266 195.266 222.392 195.308L222.322 196.386C222.192 196.344 222.049 196.309 221.895 196.281C221.741 196.248 221.604 196.232 221.482 196.232C221.086 196.232 220.766 196.346 220.523 196.575C220.281 196.799 220.103 197.116 219.991 197.527C219.884 197.938 219.83 198.421 219.83 198.976H219.494ZM224.413 193.726C224.189 193.726 224.011 193.663 223.881 193.537C223.75 193.406 223.685 193.236 223.685 193.026C223.685 192.821 223.75 192.657 223.881 192.536C224.011 192.415 224.189 192.354 224.413 192.354C224.637 192.354 224.814 192.415 224.945 192.536C225.075 192.657 225.141 192.821 225.141 193.026C225.141 193.236 225.075 193.406 224.945 193.537C224.814 193.663 224.637 193.726 224.413 193.726ZM223.867 202V195.294H224.959V202H223.867ZM230.319 202.168C229.782 202.168 229.28 202.023 228.814 201.734C228.352 201.445 227.978 201.036 227.694 200.509C227.409 199.982 227.267 199.359 227.267 198.64C227.267 197.903 227.409 197.273 227.694 196.75C227.978 196.227 228.352 195.828 228.814 195.553C229.28 195.278 229.782 195.14 230.319 195.14C230.697 195.14 231.035 195.198 231.334 195.315C231.637 195.427 231.901 195.583 232.125 195.784C232.349 195.985 232.533 196.213 232.678 196.47C232.827 196.722 232.937 196.988 233.007 197.268L231.887 197.366C231.77 196.979 231.574 196.673 231.299 196.449C231.028 196.22 230.697 196.106 230.305 196.106C229.973 196.106 229.661 196.202 229.367 196.393C229.077 196.58 228.842 196.862 228.66 197.24C228.478 197.613 228.387 198.08 228.387 198.64C228.387 199.158 228.468 199.608 228.632 199.991C228.8 200.369 229.028 200.663 229.318 200.873C229.607 201.083 229.936 201.188 230.305 201.188C230.823 201.188 231.215 201.062 231.481 200.81C231.751 200.553 231.887 200.199 231.887 199.746H233.007C233.007 200.213 232.897 200.628 232.678 200.992C232.458 201.356 232.146 201.643 231.74 201.853C231.338 202.063 230.865 202.168 230.319 202.168ZM237.509 202.168C236.931 202.168 236.413 202.021 235.955 201.727C235.503 201.428 235.143 201.015 234.877 200.488C234.616 199.961 234.485 199.354 234.485 198.668C234.485 197.935 234.616 197.305 234.877 196.778C235.139 196.251 235.496 195.847 235.948 195.567C236.406 195.282 236.926 195.14 237.509 195.14C238.018 195.14 238.452 195.243 238.811 195.448C239.171 195.653 239.46 195.931 239.679 196.281C239.899 196.631 240.05 197.028 240.134 197.471C240.223 197.91 240.249 198.365 240.211 198.836H235.367V198.164H239.49L239.168 198.374C239.182 198.099 239.166 197.823 239.119 197.548C239.077 197.273 238.996 197.021 238.874 196.792C238.753 196.559 238.583 196.372 238.363 196.232C238.144 196.092 237.864 196.022 237.523 196.022C237.094 196.022 236.735 196.132 236.445 196.351C236.156 196.57 235.939 196.86 235.794 197.219C235.65 197.574 235.577 197.959 235.577 198.374V198.822C235.577 199.289 235.647 199.706 235.787 200.075C235.932 200.444 236.147 200.735 236.431 200.95C236.716 201.165 237.075 201.272 237.509 201.272C237.943 201.272 238.3 201.167 238.58 200.957C238.86 200.747 239.031 200.437 239.091 200.026H240.225C240.155 200.469 239.997 200.852 239.749 201.174C239.502 201.491 239.187 201.736 238.804 201.909C238.422 202.082 237.99 202.168 237.509 202.168ZM248.121 202.168C247.519 202.168 246.982 202.035 246.511 201.769C246.044 201.503 245.676 201.109 245.405 200.586C245.134 200.063 244.999 199.419 244.999 198.654C244.999 197.884 245.134 197.24 245.405 196.722C245.676 196.199 246.044 195.805 246.511 195.539C246.982 195.273 247.519 195.14 248.121 195.14C248.718 195.14 249.25 195.273 249.717 195.539C250.188 195.805 250.557 196.199 250.823 196.722C251.094 197.24 251.229 197.884 251.229 198.654C251.229 199.419 251.094 200.063 250.823 200.586C250.557 201.109 250.188 201.503 249.717 201.769C249.25 202.035 248.718 202.168 248.121 202.168ZM248.093 201.216C248.527 201.216 248.896 201.113 249.199 200.908C249.502 200.698 249.731 200.402 249.885 200.019C250.044 199.636 250.123 199.181 250.123 198.654C250.123 197.856 249.957 197.228 249.626 196.771C249.295 196.309 248.802 196.078 248.149 196.078C247.71 196.078 247.339 196.183 247.036 196.393C246.737 196.598 246.509 196.895 246.35 197.282C246.196 197.665 246.119 198.122 246.119 198.654C246.119 199.443 246.285 200.068 246.616 200.53C246.952 200.987 247.444 201.216 248.093 201.216ZM253.355 202V195.294H254.447V202H253.355ZM254.111 198.976C254.111 198.127 254.193 197.422 254.356 196.862C254.52 196.297 254.758 195.877 255.07 195.602C255.388 195.322 255.773 195.182 256.225 195.182C256.375 195.182 256.51 195.194 256.631 195.217C256.757 195.236 256.883 195.266 257.009 195.308L256.939 196.386C256.809 196.344 256.666 196.309 256.512 196.281C256.358 196.248 256.221 196.232 256.099 196.232C255.703 196.232 255.383 196.346 255.14 196.575C254.898 196.799 254.72 197.116 254.608 197.527C254.501 197.938 254.447 198.421 254.447 198.976H254.111ZM264.802 202.168C264.354 202.168 263.948 202.051 263.584 201.818C263.225 201.585 262.938 201.244 262.723 200.796C262.513 200.343 262.408 199.793 262.408 199.144H262.828C262.828 199.578 262.917 199.949 263.094 200.257C263.276 200.56 263.51 200.791 263.794 200.95C264.079 201.109 264.378 201.188 264.69 201.188C265.05 201.188 265.379 201.085 265.677 200.88C265.976 200.675 266.214 200.381 266.391 199.998C266.573 199.615 266.664 199.158 266.664 198.626C266.664 198.103 266.576 197.655 266.398 197.282C266.221 196.904 265.981 196.615 265.677 196.414C265.379 196.209 265.045 196.106 264.676 196.106C264.359 196.106 264.058 196.185 263.773 196.344C263.493 196.498 263.265 196.727 263.087 197.03C262.915 197.333 262.828 197.707 262.828 198.15H262.408C262.408 197.515 262.511 196.974 262.716 196.526C262.926 196.078 263.216 195.735 263.584 195.497C263.953 195.259 264.382 195.14 264.872 195.14C265.4 195.14 265.883 195.282 266.321 195.567C266.765 195.847 267.119 196.248 267.385 196.771C267.651 197.294 267.784 197.912 267.784 198.626C267.784 199.345 267.649 199.97 267.378 200.502C267.108 201.029 266.746 201.44 266.293 201.734C265.841 202.023 265.344 202.168 264.802 202.168ZM261.736 202V192.452H262.828V200.432L262.506 202H261.736ZM270.035 202V195.294H271.127V202H270.035ZM270.791 198.976C270.791 198.127 270.873 197.422 271.036 196.862C271.199 196.297 271.437 195.877 271.75 195.602C272.067 195.322 272.452 195.182 272.905 195.182C273.054 195.182 273.19 195.194 273.311 195.217C273.437 195.236 273.563 195.266 273.689 195.308L273.619 196.386C273.488 196.344 273.346 196.309 273.192 196.281C273.038 196.248 272.9 196.232 272.779 196.232C272.382 196.232 272.063 196.346 271.82 196.575C271.577 196.799 271.4 197.116 271.288 197.527C271.181 197.938 271.127 198.421 271.127 198.976H270.791ZM277.418 202.168C276.839 202.168 276.321 202.021 275.864 201.727C275.411 201.428 275.052 201.015 274.786 200.488C274.524 199.961 274.394 199.354 274.394 198.668C274.394 197.935 274.524 197.305 274.786 196.778C275.047 196.251 275.404 195.847 275.857 195.567C276.314 195.282 276.834 195.14 277.418 195.14C277.926 195.14 278.36 195.243 278.72 195.448C279.079 195.653 279.368 195.931 279.588 196.281C279.807 196.631 279.959 197.028 280.043 197.471C280.131 197.91 280.157 198.365 280.12 198.836H275.276V198.164H279.399L279.077 198.374C279.091 198.099 279.074 197.823 279.028 197.548C278.986 197.273 278.904 197.021 278.783 196.792C278.661 196.559 278.491 196.372 278.272 196.232C278.052 196.092 277.772 196.022 277.432 196.022C277.002 196.022 276.643 196.132 276.354 196.351C276.064 196.57 275.847 196.86 275.703 197.219C275.558 197.574 275.486 197.959 275.486 198.374V198.822C275.486 199.289 275.556 199.706 275.696 200.075C275.84 200.444 276.055 200.735 276.34 200.95C276.624 201.165 276.984 201.272 277.418 201.272C277.852 201.272 278.209 201.167 278.489 200.957C278.769 200.747 278.939 200.437 279 200.026H280.134C280.064 200.469 279.905 200.852 279.658 201.174C279.41 201.491 279.095 201.736 278.713 201.909C278.33 202.082 277.898 202.168 277.418 202.168ZM286.429 202L286.289 200.53V197.66C286.289 197.058 286.161 196.626 285.904 196.365C285.647 196.099 285.262 195.966 284.749 195.966C284.46 195.966 284.196 196.008 283.958 196.092C283.725 196.176 283.538 196.307 283.398 196.484C283.263 196.657 283.195 196.881 283.195 197.156H281.977C281.977 196.671 282.096 196.281 282.334 195.987C282.572 195.688 282.899 195.474 283.314 195.343C283.734 195.208 284.212 195.14 284.749 195.14C285.262 195.14 285.717 195.226 286.114 195.399C286.511 195.572 286.821 195.847 287.045 196.225C287.269 196.598 287.381 197.086 287.381 197.688V202H286.429ZM284.147 202.168C283.596 202.168 283.141 202.07 282.782 201.874C282.423 201.678 282.154 201.424 281.977 201.111C281.8 200.798 281.711 200.469 281.711 200.124C281.711 199.671 281.823 199.303 282.047 199.018C282.276 198.733 282.586 198.526 282.978 198.395C283.37 198.26 283.811 198.192 284.301 198.192C284.651 198.192 285.001 198.227 285.351 198.297C285.706 198.367 286.051 198.463 286.387 198.584V199.27C286.107 199.158 285.79 199.069 285.435 199.004C285.085 198.939 284.763 198.906 284.469 198.906C284.021 198.906 283.643 198.999 283.335 199.186C283.027 199.368 282.873 199.681 282.873 200.124C282.873 200.451 282.99 200.731 283.223 200.964C283.461 201.197 283.839 201.314 284.357 201.314C284.721 201.314 285.048 201.23 285.337 201.062C285.631 200.889 285.862 200.675 286.03 200.418C286.203 200.161 286.289 199.905 286.289 199.648H286.555C286.555 200.096 286.457 200.511 286.261 200.894C286.07 201.277 285.794 201.585 285.435 201.818C285.076 202.051 284.646 202.168 284.147 202.168ZM292.39 202.168C291.849 202.168 291.352 202.023 290.899 201.734C290.446 201.44 290.085 201.029 289.814 200.502C289.543 199.97 289.408 199.345 289.408 198.626C289.408 197.912 289.541 197.294 289.807 196.771C290.073 196.248 290.425 195.847 290.864 195.567C291.307 195.282 291.793 195.14 292.32 195.14C292.81 195.14 293.239 195.259 293.608 195.497C293.981 195.735 294.271 196.078 294.476 196.526C294.681 196.974 294.784 197.515 294.784 198.15H294.364C294.364 197.707 294.275 197.333 294.098 197.03C293.925 196.727 293.699 196.498 293.419 196.344C293.139 196.185 292.838 196.106 292.516 196.106C292.152 196.106 291.818 196.209 291.515 196.414C291.216 196.615 290.976 196.904 290.794 197.282C290.617 197.655 290.528 198.103 290.528 198.626C290.528 199.158 290.617 199.615 290.794 199.998C290.976 200.381 291.216 200.675 291.515 200.88C291.818 201.085 292.152 201.188 292.516 201.188C292.819 201.188 293.111 201.109 293.391 200.95C293.676 200.791 293.909 200.56 294.091 200.257C294.273 199.949 294.364 199.578 294.364 199.144H294.784C294.784 199.793 294.677 200.343 294.462 200.796C294.252 201.244 293.965 201.585 293.601 201.818C293.242 202.051 292.838 202.168 292.39 202.168ZM294.546 202L294.364 200.432V192.452H295.456V202H294.546ZM297.301 201.349C297.301 201.13 297.378 200.941 297.532 200.782C297.686 200.623 297.88 200.544 298.113 200.544C298.346 200.544 298.545 200.623 298.708 200.782C298.871 200.941 298.953 201.13 298.953 201.349C298.953 201.568 298.871 201.753 298.708 201.902C298.545 202.051 298.346 202.126 298.113 202.126C297.88 202.126 297.686 202.051 297.532 201.902C297.378 201.748 297.301 201.564 297.301 201.349Z" fill="#C1A27F"/>
<path d="M116.883 86.275C114.383 86.275 112.458 85.4417 111.108 83.775C109.775 82.0917 109.108 79.875 109.108 77.125C109.108 74.3583 109.841 72.175 111.308 70.575C112.775 68.9583 114.683 68.15 117.033 68.15C119.4 68.15 121.175 68.9667 122.358 70.6C123.558 72.2333 124.158 74.375 124.158 77.025C124.158 79.6583 123.483 81.8583 122.133 83.625C120.783 85.3917 119.033 86.275 116.883 86.275ZM119.233 83.425C119.65 83.0083 119.975 82.2333 120.208 81.1C120.441 79.95 120.558 78.8167 120.558 77.7C120.558 76.5667 120.491 75.5833 120.358 74.75C120.241 73.9167 120.033 73.15 119.733 72.45C119.116 71 118 70.275 116.383 70.275C115.916 70.275 115.45 70.3417 114.983 70.475C114.533 70.6083 114.208 70.7667 114.008 70.95C113.641 71.4333 113.333 72.2167 113.083 73.3C112.833 74.3667 112.708 75.3583 112.708 76.275C112.708 77.175 112.75 77.9833 112.833 78.7C112.916 79.4 113.058 80.1 113.258 80.8C113.475 81.4833 113.75 82.0667 114.083 82.55C114.833 83.6333 115.883 84.175 117.233 84.175C117.516 84.175 117.866 84.1083 118.283 83.975C118.716 83.8417 119.033 83.6583 119.233 83.425ZM139.063 75.725C139.613 76.1083 140.054 76.6667 140.388 77.4C140.721 78.1167 140.888 78.9667 140.888 79.95C140.888 81.8 140.321 83.3167 139.188 84.5C138.054 85.6667 136.446 86.25 134.363 86.25C132.279 86.25 130.638 85.6583 129.438 84.475C128.254 83.2917 127.663 81.4583 127.663 78.975C127.663 75.4917 128.963 72.7583 131.563 70.775C132.463 70.1083 133.521 69.5417 134.738 69.075C135.971 68.5917 137.121 68.2833 138.188 68.15L138.513 69.575C136.263 70.2583 134.588 71.1833 133.488 72.35C132.688 73.2167 132.088 74.3333 131.688 75.7C132.804 74.9833 134.046 74.625 135.413 74.625C136.796 74.625 138.013 74.9917 139.063 75.725ZM131.263 79.65C131.263 81.3 131.496 82.5167 131.963 83.3C132.446 84.0667 133.288 84.45 134.488 84.45C135.371 84.45 135.996 84.3333 136.363 84.1C136.629 83.7833 136.846 83.2917 137.013 82.625C137.196 81.9583 137.288 81.1333 137.288 80.15C137.288 79.15 137.046 78.35 136.563 77.75C136.079 77.1333 135.371 76.825 134.438 76.825C133.521 76.825 132.479 77.2167 131.313 78C131.279 78.6667 131.263 79.2167 131.263 79.65ZM148.619 82.625C148.786 82.7917 148.902 83.125 148.969 83.625C149.036 84.125 149.069 84.5167 149.069 84.8C149.069 85.0667 149.052 85.3 149.019 85.5L148.769 85.725C148.019 85.9417 146.902 86.1167 145.419 86.25L145.119 86.1C144.969 85.85 144.844 85.4333 144.744 84.85C144.661 84.2667 144.619 83.8667 144.619 83.65C144.619 83.4167 144.619 83.2667 144.619 83.2L144.869 82.975C145.936 82.625 146.994 82.45 148.044 82.45C148.144 82.45 148.236 82.45 148.319 82.45L148.619 82.625ZM156.205 70.975C156.205 70.225 156.163 69.375 156.08 68.425C159.33 68.475 161.763 68.5 163.38 68.5C164.996 68.5 167.43 68.475 170.68 68.425C170.596 69.375 170.555 70.225 170.555 70.975H170.08C168.196 70.5417 166.58 70.3 165.23 70.25C165.163 71.0833 165.13 72.3333 165.13 74V80.55C165.13 82.8167 165.263 84.45 165.53 85.45V86H161.23V85.45C161.463 84.45 161.58 82.8417 161.58 80.625V74.1C161.58 72.3833 161.546 71.1 161.48 70.25C160.23 70.3 158.63 70.5417 156.68 70.975H156.205ZM176.133 86.475C174.2 86.475 172.675 85.9083 171.558 84.775C170.458 83.6417 169.908 82.15 169.908 80.3C169.908 78.45 170.55 76.8667 171.833 75.55C173.116 74.2167 174.75 73.55 176.733 73.55C178.733 73.55 180.258 74.1083 181.308 75.225C182.375 76.325 182.908 77.8083 182.908 79.675C182.908 81.5417 182.266 83.1417 180.983 84.475C179.7 85.8083 178.083 86.475 176.133 86.475ZM179.308 80.3C179.308 78.6833 179.075 77.425 178.608 76.525C178.141 75.6083 177.325 75.15 176.158 75.15C175.408 75.15 174.825 75.3333 174.408 75.7C174.141 76.0833 173.925 76.6583 173.758 77.425C173.591 78.1917 173.508 78.9333 173.508 79.65C173.508 83.1333 174.616 84.875 176.833 84.875C177.5 84.875 178.041 84.7 178.458 84.35C178.741 83.9667 178.95 83.3833 179.083 82.6C179.233 81.8 179.308 81.0333 179.308 80.3ZM190.443 80.8C190.443 81.5833 190.518 82.45 190.668 83.4C190.818 84.35 190.985 85.0333 191.168 85.45V86H186.793V85.45C187.076 84.6167 187.218 83.2583 187.218 81.375V75.725C186.235 75.7583 185.501 75.8 185.018 75.85L185.768 73.75L187.218 73.825V72.475C187.218 71.025 187.585 69.8333 188.318 68.9C189.051 67.9667 190.193 67.5 191.743 67.5C193.293 67.5 194.926 67.8583 196.643 68.575C196.076 69.8583 195.576 70.775 195.143 71.325C193.776 70.1583 192.626 69.575 191.693 69.575C191.326 69.575 191.035 69.6417 190.818 69.775C190.568 70.1583 190.443 71.175 190.443 72.825V73.85C191.176 73.8167 192.476 73.7417 194.343 73.625L193.443 76.075C192.36 75.925 191.36 75.825 190.443 75.775V80.8ZM200.795 86.325C199.095 86.325 197.945 85.9667 197.345 85.25C196.762 84.5167 196.47 83.3333 196.47 81.7V78.725C196.47 77.075 196.22 75.6833 195.72 74.55V74H200.07V74.6C199.82 75.4667 199.695 76.5917 199.695 77.975V81.3C199.695 82.1333 199.837 82.7833 200.12 83.25C200.404 83.7 200.804 83.925 201.32 83.925C202.204 83.925 203.254 83.5 204.47 82.65V78.725C204.47 77.0417 204.229 75.65 203.745 74.55V74H208.07V74.6C207.82 75.4667 207.695 76.5917 207.695 77.975V81.3C207.695 82.05 207.812 82.7833 208.045 83.5C208.295 84.2167 208.587 84.7167 208.92 85L208.995 85.55L205.07 86.55C204.72 85.95 204.52 85.275 204.47 84.525C203.037 85.725 201.812 86.325 200.795 86.325ZM215.702 70.975C215.702 70.225 215.66 69.375 215.577 68.425C218.827 68.475 221.26 68.5 222.877 68.5C224.493 68.5 226.927 68.475 230.177 68.425C230.093 69.375 230.052 70.225 230.052 70.975H229.577C227.693 70.5417 226.077 70.3 224.727 70.25C224.66 71.0833 224.627 72.3333 224.627 74V80.55C224.627 82.8167 224.76 84.45 225.027 85.45V86H220.727V85.45C220.96 84.45 221.077 82.8417 221.077 80.625V74.1C221.077 72.3833 221.043 71.1 220.977 70.25C219.727 70.3 218.127 70.5417 216.177 70.975H215.702ZM232.819 71.9C232.819 71.6667 232.803 71.45 232.769 71.25C232.553 70.6833 232.128 70.1417 231.494 69.625L231.519 69.225C231.819 68.925 232.194 68.65 232.644 68.4C233.094 68.1333 233.503 67.9583 233.869 67.875C234.103 67.9917 234.261 68.0917 234.344 68.175C234.678 68.5417 235.003 69.075 235.319 69.775C235.453 70.0917 235.519 70.4917 235.519 70.975C235.503 72.1583 234.803 73.675 233.419 75.525L231.819 75.1C232.486 73.8833 232.819 72.8167 232.819 71.9ZM242.959 68.075C243.109 68.2083 243.209 68.4917 243.259 68.925C243.325 69.3583 243.359 69.6917 243.359 69.925C243.359 70.1583 243.342 70.3667 243.309 70.55L243.084 70.75C242.35 70.9667 241.392 71.1167 240.209 71.2L239.934 71.075C239.8 70.8583 239.692 70.5 239.609 70C239.542 69.5 239.509 69.1583 239.509 68.975C239.509 68.775 239.509 68.6417 239.509 68.575L239.734 68.375C240.634 68.075 241.525 67.925 242.409 67.925H242.684L242.959 68.075ZM243.434 76.175V81.525C243.434 83.1083 243.675 84.4167 244.159 85.45V86H239.784V85.45C240.067 84.6 240.209 83.475 240.209 82.075V78.375C240.209 77.4583 240.067 76.7 239.784 76.1C239.5 75.4833 239.142 75.0583 238.709 74.825V74.275L243.284 73.425L243.584 73.925C243.484 74.3083 243.434 75.0583 243.434 76.175ZM250.97 83.975C252.153 84.3917 253.12 84.6 253.87 84.6C254.62 84.6 255.103 84.5167 255.32 84.35C255.57 84.0333 255.803 83.4 256.02 82.45C256.237 81.4833 256.345 80.5333 256.345 79.6C256.345 76.7833 255.662 75.375 254.295 75.375C253.412 75.375 252.303 75.7667 250.97 76.55V83.975ZM250.97 69.95V74.825C252.087 73.9583 253.237 73.525 254.42 73.525C256.137 73.525 257.487 74.0917 258.47 75.225C259.453 76.3417 259.945 77.7167 259.945 79.35C259.945 81.3667 259.212 83.0583 257.745 84.425C256.278 85.7917 254.537 86.475 252.52 86.475C251.22 86.475 249.537 86.0833 247.47 85.3V84.75C247.653 84.2833 247.745 83.1833 247.745 81.45V71.75C247.745 70.4833 247.37 69.4917 246.62 68.775V68.225L250.895 67.35L251.095 67.9C251.012 68.35 250.97 69.0333 250.97 69.95ZM267.944 84.375C268.894 84.375 269.369 83.9167 269.369 83C269.369 82.15 268.561 81.5083 266.944 81.075C266.278 80.8917 265.611 80.6833 264.944 80.45C264.278 80.2167 263.711 79.8417 263.244 79.325C262.778 78.8083 262.544 78.15 262.544 77.35C262.544 76.2 263.061 75.3083 264.094 74.675C265.128 74.025 266.386 73.7 267.869 73.7C269.353 73.7 270.903 74.0583 272.519 74.775C272.436 75.5083 271.986 76.3917 271.169 77.425C270.503 76.7583 269.811 76.25 269.094 75.9C268.378 75.55 267.753 75.375 267.219 75.375C266.686 75.375 266.278 75.4333 265.994 75.55C265.744 75.7667 265.619 76.125 265.619 76.625C265.619 77.1083 265.853 77.4833 266.319 77.75C266.803 78.0167 267.386 78.2333 268.069 78.4C268.753 78.55 269.436 78.7417 270.119 78.975C270.803 79.2083 271.378 79.6083 271.844 80.175C272.328 80.725 272.569 81.45 272.569 82.35C272.569 83.65 272.061 84.6333 271.044 85.3C270.044 85.95 268.711 86.275 267.044 86.275C265.378 86.275 263.786 85.8 262.269 84.85C262.336 83.85 262.711 82.925 263.394 82.075C265.044 83.6083 266.561 84.375 267.944 84.375Z" fill="#C1A27F"/>
<path d="M138.386 144.15C138.386 147.183 137.419 149.567 135.486 151.3C133.553 153.033 130.919 154.083 127.586 154.45C127.586 156.517 127.653 158.283 127.786 159.75L123.786 160.55L123.536 159.85C123.736 158.45 123.903 156.7 124.036 154.6C119.936 154.433 116.269 153.267 113.036 151.1C113.136 148.733 114.069 146.483 115.836 144.35C118.369 147.083 121.136 148.933 124.136 149.9V138.5C123.136 138.067 122.419 137.767 121.986 137.6C121.553 137.4 120.886 137.083 119.986 136.65C119.086 136.183 118.419 135.783 117.986 135.45C117.553 135.117 117.019 134.667 116.386 134.1C115.753 133.5 115.286 132.917 114.986 132.35C114.219 130.917 113.836 129.367 113.836 127.7C113.836 124.9 114.786 122.75 116.686 121.25C118.619 119.717 121.103 118.8 124.136 118.5C124.069 116.7 124.003 115.333 123.936 114.4L127.736 113.1L127.986 113.8C127.753 115.8 127.619 117.35 127.586 118.45C130.886 118.683 134.169 119.5 137.436 120.9C137.069 123.367 136.219 125.717 134.886 127.95C132.486 125.783 130.053 124.267 127.586 123.4V133C128.986 133.567 130.019 134 130.686 134.3C131.386 134.6 132.319 135.1 133.486 135.8C134.653 136.5 135.519 137.2 136.086 137.9C136.686 138.567 137.219 139.45 137.686 140.55C138.153 141.65 138.386 142.85 138.386 144.15ZM131.786 145.75C131.786 143.483 130.386 141.6 127.586 140.1V150.4C128.819 150.4 129.903 150.15 130.836 149.65C131.469 148.817 131.786 147.517 131.786 145.75ZM119.986 126.35C119.986 128.383 121.369 130.1 124.136 131.5V122.75C123.069 122.75 121.986 122.983 120.886 123.45C120.286 124.05 119.986 125.017 119.986 126.35ZM156.341 143C156.341 147.6 156.607 150.9 157.141 152.9V154H148.841V152.9C149.374 150.9 149.641 147.6 149.641 143V128.7C149.641 126.433 149.591 125.017 149.491 124.45C147.524 124.85 145.341 125.1 142.941 125.2L142.391 122.35C146.091 121.717 149.141 120.6 151.541 119H156.591L156.341 124.9V143ZM183.233 143.35C183.233 139.383 180.4 137.217 174.733 136.85L168.083 136.4L166.833 135.05C167.4 130.817 168.317 125.5 169.583 119.1L187.283 118.85L188.533 126.15H187.583C186.517 125.217 184.983 124.483 182.983 123.95C181.017 123.383 178.9 123.1 176.633 123.1H174.033C173.333 125.233 172.667 128.367 172.033 132.5C175.767 132.667 178.333 132.85 179.733 133.05C181.167 133.217 182.567 133.533 183.933 134C185.3 134.433 186.4 135 187.233 135.7C189.2 137.3 190.183 139.717 190.183 142.95C190.183 146.15 188.9 148.883 186.333 151.15C183.8 153.417 180.45 154.55 176.283 154.55C172.117 154.55 167.767 153.433 163.233 151.2C163.367 150.5 163.75 149.6 164.383 148.5C165.017 147.367 165.633 146.533 166.233 146C170.5 149.067 174.267 150.6 177.533 150.6C179.067 150.6 180.333 150.383 181.333 149.95C181.933 149.25 182.4 148.267 182.733 147C183.067 145.7 183.233 144.483 183.233 143.35ZM204.186 147.25C204.519 147.583 204.753 148.25 204.886 149.25C205.019 150.25 205.086 151.033 205.086 151.6C205.086 152.133 205.053 152.6 204.986 153L204.486 153.45C202.986 153.883 200.753 154.233 197.786 154.5L197.186 154.2C196.886 153.7 196.636 152.867 196.436 151.7C196.269 150.533 196.186 149.733 196.186 149.3C196.186 148.833 196.186 148.533 196.186 148.4L196.686 147.95C198.819 147.25 200.936 146.9 203.036 146.9C203.236 146.9 203.419 146.9 203.586 146.9L204.186 147.25ZM227.677 154.55C222.677 154.55 218.827 152.883 216.127 149.55C213.46 146.183 212.127 141.75 212.127 136.25C212.127 130.717 213.594 126.35 216.527 123.15C219.46 119.917 223.277 118.3 227.977 118.3C232.71 118.3 236.26 119.933 238.627 123.2C241.027 126.467 242.227 130.75 242.227 136.05C242.227 141.317 240.877 145.717 238.177 149.25C235.477 152.783 231.977 154.55 227.677 154.55ZM232.377 148.85C233.21 148.017 233.86 146.467 234.327 144.2C234.794 141.9 235.027 139.633 235.027 137.4C235.027 135.133 234.894 133.167 234.627 131.5C234.394 129.833 233.977 128.3 233.377 126.9C232.144 124 229.91 122.55 226.677 122.55C225.744 122.55 224.81 122.683 223.877 122.95C222.977 123.217 222.327 123.533 221.927 123.9C221.194 124.867 220.577 126.433 220.077 128.6C219.577 130.733 219.327 132.717 219.327 134.55C219.327 136.35 219.41 137.967 219.577 139.4C219.744 140.8 220.027 142.2 220.427 143.6C220.86 144.967 221.41 146.133 222.077 147.1C223.577 149.267 225.677 150.35 228.377 150.35C228.944 150.35 229.644 150.217 230.477 149.95C231.344 149.683 231.977 149.317 232.377 148.85ZM269.39 143.1C269.39 146.4 268.19 149.133 265.79 151.3C263.424 153.433 260.14 154.5 255.94 154.5C251.774 154.5 247.924 153.583 244.39 151.75V151.45C244.39 149.783 245.074 148.233 246.44 146.8C250.207 149.433 253.39 150.75 255.99 150.75H256.24C257.974 150.75 259.307 150.483 260.24 149.95C261.707 148.583 262.44 146.383 262.44 143.35C262.44 141.05 261.924 139.433 260.89 138.5C259.89 137.533 258.24 137.05 255.94 137.05C253.64 137.05 252.024 137.117 251.09 137.25H250.09L248.94 133.45H254.39C256.057 133.45 257.424 132.817 258.49 131.55C259.557 130.25 260.09 128.767 260.09 127.1C260.09 123.667 258.84 121.95 256.34 121.95C254.107 121.95 251.374 123.217 248.14 125.75C246.84 123.983 246.057 122.083 245.79 120.05C249.657 118.95 253.34 118.4 256.84 118.4C263.474 118.4 266.79 120.9 266.79 125.9C266.79 127.9 266.274 129.633 265.24 131.1C264.24 132.533 263.04 133.6 261.64 134.3C266.807 135.4 269.39 138.333 269.39 143.1Z" fill="#550000"/>
<g filter="url(#filter0_d_174_22)">
<rect x="5.5" y="1.5" width="369" height="282" rx="13.5" stroke="#550000" stroke-opacity="0.5" stroke-width="3" shape-rendering="crispEdges"/>
</g>
<path d="M354.998 253.266C359.486 259.594 356.053 266.842 354.392 269.67C354.149 270.065 353.822 270.403 353.434 270.659C353.047 270.915 352.608 271.083 352.148 271.151C348.894 271.712 340.793 272.34 336.44 266.012C332.153 260.043 332.333 249.54 332.714 244.536C332.73 244.163 332.833 243.799 333.016 243.474C333.199 243.149 333.457 242.872 333.768 242.666C334.079 242.46 334.435 242.331 334.806 242.29C335.177 242.248 335.552 242.295 335.901 242.427C340.726 243.818 350.779 247.296 354.998 253.266Z" stroke="#C1A27F" stroke-width="3" stroke-linecap="round" stroke-linejoin="round"/>
<path d="M339.873 251.179C345.013 257.236 349.525 263.8 353.338 270.769" stroke="#C1A27F" stroke-width="3" stroke-linecap="round" stroke-linejoin="round"/>
<defs>
<filter id="filter0_d_174_22" x="0" y="0" width="380" height="293" filterUnits="userSpaceOnUse" color-interpolation-filters="sRGB">
<feFlood flood-opacity="0" result="BackgroundImageFix"/>
<feColorMatrix in="SourceAlpha" type="matrix" values="0 0 0 0 0 0 0 0 0 0 0 0 0 0 0 0 0 0 127 0" result="hardAlpha"/>
<feOffset dy="4"/>
<feGaussianBlur stdDeviation="2"/>
<feComposite in2="hardAlpha" operator="out"/>
<feColorMatrix type="matrix" values="0 0 0 0 0 0 0 0 0 0 0 0 0 0 0 0 0 0 0.25 0"/>
<feBlend mode="normal" in2="BackgroundImageFix" result="effect1_dropShadow_174_22"/>
<feBlend mode="normal" in="SourceGraphic" in2="effect1_dropShadow_174_22" result="shape"/>
</filter>
</defs>
</svg>
