<svg width="380" height="293" viewBox="0 0 380 293" fill="none" xmlns="http://www.w3.org/2000/svg">
<path d="M61.1965 181V172.208H64.0245C64.9905 172.208 65.7279 172.453 66.2365 172.943C66.7499 173.428 67.0065 174.089 67.0065 174.924C67.0065 175.75 66.7499 176.406 66.2365 176.891C65.7279 177.372 64.9905 177.612 64.0245 177.612H62.3025V181H61.1965ZM62.3025 176.66H64.0245C64.6359 176.66 65.0979 176.504 65.4105 176.191C65.7279 175.878 65.8865 175.456 65.8865 174.924C65.8865 174.383 65.7279 173.951 65.4105 173.629C65.0979 173.307 64.6359 173.146 64.0245 173.146H62.3025V176.66ZM73.1205 181L72.9805 179.53V176.66C72.9805 176.058 72.8522 175.626 72.5955 175.365C72.3388 175.099 71.9538 174.966 71.4405 174.966C71.1512 174.966 70.8875 175.008 70.6495 175.092C70.4162 175.176 70.2295 175.307 70.0895 175.484C69.9542 175.657 69.8865 175.881 69.8865 176.156H68.6685C68.6685 175.671 68.7875 175.281 69.0255 174.987C69.2635 174.688 69.5902 174.474 70.0055 174.343C70.4255 174.208 70.9038 174.14 71.4405 174.14C71.9538 174.14 72.4088 174.226 72.8055 174.399C73.2022 174.572 73.5125 174.847 73.7365 175.225C73.9605 175.598 74.0725 176.086 74.0725 176.688V181H73.1205ZM70.8385 181.168C70.2878 181.168 69.8328 181.07 69.4735 180.874C69.1142 180.678 68.8458 180.424 68.6685 180.111C68.4912 179.798 68.4025 179.469 68.4025 179.124C68.4025 178.671 68.5145 178.303 68.7385 178.018C68.9672 177.733 69.2775 177.526 69.6695 177.395C70.0615 177.26 70.5025 177.192 70.9925 177.192C71.3425 177.192 71.6925 177.227 72.0425 177.297C72.3972 177.367 72.7425 177.463 73.0785 177.584V178.27C72.7985 178.158 72.4812 178.069 72.1265 178.004C71.7765 177.939 71.4545 177.906 71.1605 177.906C70.7125 177.906 70.3345 177.999 70.0265 178.186C69.7185 178.368 69.5645 178.681 69.5645 179.124C69.5645 179.451 69.6812 179.731 69.9145 179.964C70.1525 180.197 70.5305 180.314 71.0485 180.314C71.4125 180.314 71.7392 180.23 72.0285 180.062C72.3225 179.889 72.5535 179.675 72.7215 179.418C72.8942 179.161 72.9805 178.905 72.9805 178.648H73.2465C73.2465 179.096 73.1485 179.511 72.9525 179.894C72.7612 180.277 72.4858 180.585 72.1265 180.818C71.7672 181.051 71.3378 181.168 70.8385 181.168ZM79.0954 181.168C78.4468 181.168 77.9054 181.077 77.4714 180.895C77.0374 180.708 76.7084 180.454 76.4844 180.132C76.2604 179.805 76.1414 179.432 76.1274 179.012H77.1774C77.2008 179.437 77.3711 179.756 77.6884 179.971C78.0104 180.181 78.4468 180.286 78.9974 180.286C79.2868 180.286 79.5528 180.239 79.7954 180.146C80.0381 180.053 80.2318 179.924 80.3764 179.761C80.5211 179.598 80.5934 179.413 80.5934 179.208C80.5934 178.947 80.4978 178.741 80.3064 178.592C80.1151 178.443 79.8094 178.312 79.3894 178.2L78.0874 177.78C77.5228 177.603 77.0888 177.36 76.7854 177.052C76.4868 176.739 76.3374 176.366 76.3374 175.932C76.3374 175.391 76.5754 174.957 77.0514 174.63C77.5274 174.303 78.1528 174.14 78.9274 174.14C79.7488 174.14 80.3858 174.308 80.8384 174.644C81.2911 174.98 81.5268 175.4 81.5454 175.904H80.4674C80.4254 175.61 80.2761 175.388 80.0194 175.239C79.7628 175.085 79.3988 175.008 78.9274 175.008C78.4748 175.008 78.1201 175.111 77.8634 175.316C77.6114 175.517 77.4854 175.741 77.4854 175.988C77.4854 176.45 77.8821 176.791 78.6754 177.01L80.0054 177.458C80.5794 177.631 81.0181 177.857 81.3214 178.137C81.6294 178.417 81.7834 178.774 81.7834 179.208C81.7834 179.544 81.6738 179.861 81.4544 180.16C81.2351 180.459 80.9248 180.701 80.5234 180.888C80.1221 181.075 79.6461 181.168 79.0954 181.168ZM86.1009 181.168C85.7369 181.168 85.4102 181.098 85.1209 180.958C84.8316 180.818 84.6029 180.608 84.4349 180.328C84.2669 180.048 84.1829 179.698 84.1829 179.278V172.446H85.2609V179.25C85.2609 179.941 85.5829 180.286 86.2269 180.286C86.4182 180.286 86.6026 180.265 86.7799 180.223C86.9619 180.181 87.1649 180.118 87.3889 180.034L87.5429 180.818C87.3049 180.921 87.0669 181.005 86.8289 181.07C86.5956 181.135 86.3529 181.168 86.1009 181.168ZM83.1049 175.064V174.308H87.3749V175.064H83.1049ZM89.3066 181V174.294H90.3986V181H89.3066ZM90.0626 177.976C90.0626 177.127 90.1442 176.422 90.3076 175.862C90.4709 175.297 90.7089 174.877 91.0216 174.602C91.3389 174.322 91.7239 174.182 92.1766 174.182C92.3259 174.182 92.4612 174.194 92.5826 174.217C92.7086 174.236 92.8346 174.266 92.9606 174.308L92.8906 175.386C92.7599 175.344 92.6176 175.309 92.4636 175.281C92.3096 175.248 92.1719 175.232 92.0506 175.232C91.6539 175.232 91.3342 175.346 91.0916 175.575C90.8489 175.799 90.6716 176.116 90.5596 176.527C90.4522 176.938 90.3986 177.421 90.3986 177.976H90.0626ZM93.2592 174.308H94.4772L96.6612 180.048H96.4092L98.1032 174.308H99.2232L96.7032 182.344C96.4932 183.016 96.2132 183.534 95.8632 183.898C95.5132 184.262 95.0652 184.444 94.5192 184.444C94.2252 184.444 93.9452 184.402 93.6792 184.318C93.4178 184.234 93.1472 184.113 92.8672 183.954V182.946C93.1145 183.142 93.3525 183.282 93.5812 183.366C93.8145 183.45 94.0572 183.492 94.3092 183.492C94.5892 183.492 94.8225 183.403 95.0092 183.226C95.2005 183.049 95.3592 182.82 95.4852 182.54C95.6112 182.265 95.7185 181.975 95.8072 181.672L96.0032 181L93.2592 174.308ZM103.047 174.308H104.181L105.889 179.894H105.749L107.415 174.63H108.325L109.977 179.908H109.851L111.559 174.308H112.651L110.453 181H109.389L107.765 176.058H107.933L106.323 181H105.259L103.047 174.308ZM114.969 172.726C114.745 172.726 114.568 172.663 114.437 172.537C114.307 172.406 114.241 172.236 114.241 172.026C114.241 171.821 114.307 171.657 114.437 171.536C114.568 171.415 114.745 171.354 114.969 171.354C115.193 171.354 115.371 171.415 115.501 171.536C115.632 171.657 115.697 171.821 115.697 172.026C115.697 172.236 115.632 172.406 115.501 172.537C115.371 172.663 115.193 172.726 114.969 172.726ZM114.423 181V174.294H115.515V181H114.423ZM120.581 181.168C120.217 181.168 119.891 181.098 119.601 180.958C119.312 180.818 119.083 180.608 118.915 180.328C118.747 180.048 118.663 179.698 118.663 179.278V172.446H119.741V179.25C119.741 179.941 120.063 180.286 120.707 180.286C120.899 180.286 121.083 180.265 121.26 180.223C121.442 180.181 121.645 180.118 121.869 180.034L122.023 180.818C121.785 180.921 121.547 181.005 121.309 181.07C121.076 181.135 120.833 181.168 120.581 181.168ZM117.585 175.064V174.308H121.855V175.064H117.585ZM128.547 181V177.066C128.547 176.427 128.393 175.941 128.085 175.61C127.782 175.274 127.366 175.106 126.839 175.106C126.438 175.106 126.09 175.216 125.796 175.435C125.502 175.654 125.276 175.969 125.117 176.38C124.958 176.786 124.879 177.271 124.879 177.836H124.459C124.459 177.057 124.562 176.392 124.767 175.841C124.972 175.29 125.271 174.87 125.663 174.581C126.06 174.287 126.54 174.14 127.105 174.14C127.632 174.14 128.083 174.259 128.456 174.497C128.834 174.73 129.123 175.066 129.324 175.505C129.525 175.944 129.625 176.464 129.625 177.066V181H128.547ZM123.787 181V171.452H124.879V181H123.787ZM137.967 181.168C137.318 181.168 136.777 181.077 136.343 180.895C135.909 180.708 135.58 180.454 135.356 180.132C135.132 179.805 135.013 179.432 134.999 179.012H136.049C136.072 179.437 136.242 179.756 136.56 179.971C136.882 180.181 137.318 180.286 137.869 180.286C138.158 180.286 138.424 180.239 138.667 180.146C138.909 180.053 139.103 179.924 139.248 179.761C139.392 179.598 139.465 179.413 139.465 179.208C139.465 178.947 139.369 178.741 139.178 178.592C138.986 178.443 138.681 178.312 138.261 178.2L136.959 177.78C136.394 177.603 135.96 177.36 135.657 177.052C135.358 176.739 135.209 176.366 135.209 175.932C135.209 175.391 135.447 174.957 135.923 174.63C136.399 174.303 137.024 174.14 137.799 174.14C138.62 174.14 139.257 174.308 139.71 174.644C140.162 174.98 140.398 175.4 140.417 175.904H139.339C139.297 175.61 139.147 175.388 138.891 175.239C138.634 175.085 138.27 175.008 137.799 175.008C137.346 175.008 136.991 175.111 136.735 175.316C136.483 175.517 136.357 175.741 136.357 175.988C136.357 176.45 136.753 176.791 137.547 177.01L138.877 177.458C139.451 177.631 139.889 177.857 140.193 178.137C140.501 178.417 140.655 178.774 140.655 179.208C140.655 179.544 140.545 179.861 140.326 180.16C140.106 180.459 139.796 180.701 139.395 180.888C138.993 181.075 138.517 181.168 137.967 181.168ZM147.058 181L146.918 179.53V176.66C146.918 176.058 146.79 175.626 146.533 175.365C146.276 175.099 145.891 174.966 145.378 174.966C145.089 174.966 144.825 175.008 144.587 175.092C144.354 175.176 144.167 175.307 144.027 175.484C143.892 175.657 143.824 175.881 143.824 176.156H142.606C142.606 175.671 142.725 175.281 142.963 174.987C143.201 174.688 143.528 174.474 143.943 174.343C144.363 174.208 144.841 174.14 145.378 174.14C145.891 174.14 146.346 174.226 146.743 174.399C147.14 174.572 147.45 174.847 147.674 175.225C147.898 175.598 148.01 176.086 148.01 176.688V181H147.058ZM144.776 181.168C144.225 181.168 143.77 181.07 143.411 180.874C143.052 180.678 142.783 180.424 142.606 180.111C142.429 179.798 142.34 179.469 142.34 179.124C142.34 178.671 142.452 178.303 142.676 178.018C142.905 177.733 143.215 177.526 143.607 177.395C143.999 177.26 144.44 177.192 144.93 177.192C145.28 177.192 145.63 177.227 145.98 177.297C146.335 177.367 146.68 177.463 147.016 177.584V178.27C146.736 178.158 146.419 178.069 146.064 178.004C145.714 177.939 145.392 177.906 145.098 177.906C144.65 177.906 144.272 177.999 143.964 178.186C143.656 178.368 143.502 178.681 143.502 179.124C143.502 179.451 143.619 179.731 143.852 179.964C144.09 180.197 144.468 180.314 144.986 180.314C145.35 180.314 145.677 180.23 145.966 180.062C146.26 179.889 146.491 179.675 146.659 179.418C146.832 179.161 146.918 178.905 146.918 178.648H147.184C147.184 179.096 147.086 179.511 146.89 179.894C146.699 180.277 146.423 180.585 146.064 180.818C145.705 181.051 145.275 181.168 144.776 181.168ZM149.463 174.308H150.709L152.809 180.062H152.655L154.755 174.308H156.001L153.327 181H152.137L149.463 174.308ZM160.088 181.168C159.486 181.168 158.949 181.035 158.478 180.769C158.011 180.503 157.643 180.109 157.372 179.586C157.101 179.063 156.966 178.419 156.966 177.654C156.966 176.884 157.101 176.24 157.372 175.722C157.643 175.199 158.011 174.805 158.478 174.539C158.949 174.273 159.486 174.14 160.088 174.14C160.685 174.14 161.217 174.273 161.684 174.539C162.155 174.805 162.524 175.199 162.79 175.722C163.061 176.24 163.196 176.884 163.196 177.654C163.196 178.419 163.061 179.063 162.79 179.586C162.524 180.109 162.155 180.503 161.684 180.769C161.217 181.035 160.685 181.168 160.088 181.168ZM160.06 180.216C160.494 180.216 160.863 180.113 161.166 179.908C161.469 179.698 161.698 179.402 161.852 179.019C162.011 178.636 162.09 178.181 162.09 177.654C162.09 176.856 161.924 176.228 161.593 175.771C161.262 175.309 160.769 175.078 160.116 175.078C159.677 175.078 159.306 175.183 159.003 175.393C158.704 175.598 158.476 175.895 158.317 176.282C158.163 176.665 158.086 177.122 158.086 177.654C158.086 178.443 158.252 179.068 158.583 179.53C158.919 179.987 159.411 180.216 160.06 180.216ZM165.322 181V174.294H166.414V181H165.322ZM166.078 177.976C166.078 177.127 166.16 176.422 166.323 175.862C166.487 175.297 166.725 174.877 167.037 174.602C167.355 174.322 167.74 174.182 168.192 174.182C168.342 174.182 168.477 174.194 168.598 174.217C168.724 174.236 168.85 174.266 168.976 174.308L168.906 175.386C168.776 175.344 168.633 175.309 168.479 175.281C168.325 175.248 168.188 175.232 168.066 175.232C167.67 175.232 167.35 175.346 167.107 175.575C166.865 175.799 166.687 176.116 166.575 176.527C166.468 176.938 166.414 177.421 166.414 177.976H166.078ZM169.275 174.308H170.493L172.677 180.048H172.425L174.119 174.308H175.239L172.719 182.344C172.509 183.016 172.229 183.534 171.879 183.898C171.529 184.262 171.081 184.444 170.535 184.444C170.241 184.444 169.961 184.402 169.695 184.318C169.433 184.234 169.163 184.113 168.883 183.954V182.946C169.13 183.142 169.368 183.282 169.597 183.366C169.83 183.45 170.073 183.492 170.325 183.492C170.605 183.492 170.838 183.403 171.025 183.226C171.216 183.049 171.375 182.82 171.501 182.54C171.627 182.265 171.734 181.975 171.823 181.672L172.019 181L169.275 174.308ZM180.589 181V173.272C180.589 172.829 180.673 172.467 180.841 172.187C181.013 171.902 181.242 171.692 181.527 171.557C181.816 171.422 182.138 171.354 182.493 171.354C182.684 171.354 182.878 171.368 183.074 171.396C183.274 171.424 183.473 171.466 183.669 171.522L183.459 172.39C183.319 172.334 183.179 172.292 183.039 172.264C182.903 172.236 182.773 172.222 182.647 172.222C182.497 172.222 182.348 172.25 182.199 172.306C182.049 172.362 181.926 172.467 181.828 172.621C181.73 172.775 181.681 172.997 181.681 173.286V181H180.589ZM179.497 175.064V174.308H183.067V175.064H179.497ZM185.636 172.726C185.412 172.726 185.234 172.663 185.104 172.537C184.973 172.406 184.908 172.236 184.908 172.026C184.908 171.821 184.973 171.657 185.104 171.536C185.234 171.415 185.412 171.354 185.636 171.354C185.86 171.354 186.037 171.415 186.168 171.536C186.298 171.657 186.364 171.821 186.364 172.026C186.364 172.236 186.298 172.406 186.168 172.537C186.037 172.663 185.86 172.726 185.636 172.726ZM185.09 181V174.294H186.182V181H185.09ZM189.193 181V171.452H190.285V181H189.193ZM193.117 181V171.452H194.209V181H193.117ZM197.657 172.726C197.433 172.726 197.256 172.663 197.125 172.537C196.994 172.406 196.929 172.236 196.929 172.026C196.929 171.821 196.994 171.657 197.125 171.536C197.256 171.415 197.433 171.354 197.657 171.354C197.881 171.354 198.058 171.415 198.189 171.536C198.32 171.657 198.385 171.821 198.385 172.026C198.385 172.236 198.32 172.406 198.189 172.537C198.058 172.663 197.881 172.726 197.657 172.726ZM197.111 181V174.294H198.203V181H197.111ZM205.971 181V177.066C205.971 176.427 205.817 175.941 205.509 175.61C205.206 175.274 204.79 175.106 204.263 175.106C203.862 175.106 203.514 175.216 203.22 175.435C202.926 175.654 202.7 175.969 202.541 176.38C202.382 176.786 202.303 177.271 202.303 177.836H201.883C201.883 177.057 201.986 176.392 202.191 175.841C202.396 175.29 202.695 174.87 203.087 174.581C203.484 174.287 203.964 174.14 204.529 174.14C205.056 174.14 205.507 174.259 205.88 174.497C206.258 174.73 206.547 175.066 206.748 175.505C206.949 175.944 207.049 176.464 207.049 177.066V181H205.971ZM201.211 181V174.308H202.149L202.303 175.848V181H201.211ZM212.026 184.444C211.34 184.444 210.745 184.346 210.241 184.15C209.737 183.959 209.345 183.7 209.065 183.373C208.79 183.051 208.652 182.694 208.652 182.302C208.652 181.784 208.841 181.387 209.219 181.112C209.602 180.841 210.094 180.706 210.696 180.706L211.298 181.084C210.794 181.084 210.404 181.189 210.129 181.399C209.854 181.609 209.716 181.896 209.716 182.26C209.716 182.624 209.912 182.932 210.304 183.184C210.696 183.436 211.27 183.562 212.026 183.562C212.586 183.562 213.076 183.48 213.496 183.317C213.921 183.158 214.25 182.948 214.483 182.687C214.721 182.43 214.84 182.153 214.84 181.854C214.84 181.644 214.763 181.462 214.609 181.308C214.455 181.159 214.219 181.084 213.902 181.084H211.298C210.845 181.084 210.453 181.016 210.122 180.881C209.795 180.741 209.543 180.559 209.366 180.335C209.189 180.111 209.1 179.866 209.1 179.6C209.1 179.32 209.179 179.082 209.338 178.886C209.497 178.69 209.702 178.541 209.954 178.438C210.211 178.335 210.486 178.284 210.78 178.284L210.99 178.69C210.85 178.69 210.708 178.723 210.563 178.788C210.423 178.849 210.304 178.942 210.206 179.068C210.113 179.189 210.066 179.343 210.066 179.53C210.066 179.745 210.155 179.924 210.332 180.069C210.509 180.214 210.831 180.286 211.298 180.286H213.902C214.532 180.286 215.027 180.419 215.386 180.685C215.75 180.951 215.932 181.322 215.932 181.798C215.932 182.237 215.776 182.657 215.463 183.058C215.15 183.464 214.702 183.795 214.119 184.052C213.536 184.313 212.838 184.444 212.026 184.444ZM212.222 179.04C211.709 179.04 211.244 178.937 210.829 178.732C210.418 178.527 210.092 178.24 209.849 177.871C209.611 177.502 209.492 177.075 209.492 176.59C209.492 176.1 209.611 175.671 209.849 175.302C210.092 174.933 210.418 174.649 210.829 174.448C211.244 174.243 211.709 174.14 212.222 174.14C212.721 174.14 213.174 174.243 213.58 174.448C213.991 174.649 214.317 174.933 214.56 175.302C214.803 175.671 214.924 176.1 214.924 176.59C214.924 177.075 214.803 177.502 214.56 177.871C214.317 178.24 213.991 178.527 213.58 178.732C213.174 178.937 212.721 179.04 212.222 179.04ZM212.222 178.256C212.735 178.256 213.134 178.097 213.419 177.78C213.704 177.463 213.846 177.066 213.846 176.59C213.846 176.1 213.704 175.703 213.419 175.4C213.134 175.092 212.735 174.938 212.222 174.938C211.713 174.938 211.312 175.092 211.018 175.4C210.729 175.703 210.584 176.1 210.584 176.59C210.584 177.066 210.729 177.463 211.018 177.78C211.312 178.097 211.713 178.256 212.222 178.256ZM214.42 175.204L213.902 174.994C213.902 174.602 213.979 174.259 214.133 173.965C214.287 173.666 214.506 173.435 214.791 173.272C215.076 173.104 215.414 173.02 215.806 173.02L215.722 174.098C215.302 174.098 214.98 174.189 214.756 174.371C214.532 174.548 214.42 174.826 214.42 175.204ZM223.265 170.822L224.049 171.368C223.517 171.909 223.071 172.472 222.712 173.055C222.357 173.634 222.089 174.229 221.907 174.84C221.729 175.451 221.641 176.072 221.641 176.702C221.641 177.645 221.841 178.566 222.243 179.467C222.649 180.363 223.251 181.215 224.049 182.022L223.265 182.596C222.355 181.761 221.664 180.837 221.193 179.824C220.726 178.811 220.493 177.771 220.493 176.702C220.493 175.624 220.726 174.581 221.193 173.573C221.664 172.565 222.355 171.648 223.265 170.822ZM228.605 181.168C228.167 181.168 227.742 181.107 227.331 180.986C226.925 180.86 226.559 180.678 226.232 180.44C225.91 180.197 225.656 179.899 225.469 179.544C225.283 179.189 225.189 178.779 225.189 178.312H226.309C226.319 178.713 226.426 179.052 226.631 179.327C226.837 179.602 227.11 179.81 227.45 179.95C227.796 180.09 228.181 180.16 228.605 180.16C229.259 180.16 229.765 180.001 230.124 179.684C230.484 179.367 230.663 178.97 230.663 178.494C230.663 178.191 230.589 177.922 230.439 177.689C230.29 177.456 230.052 177.274 229.725 177.143C229.403 177.008 228.979 176.94 228.451 176.94H227.457V176.072H228.129C228.811 176.072 229.347 175.937 229.739 175.666C230.131 175.395 230.327 175.022 230.327 174.546C230.327 174.126 230.169 173.771 229.851 173.482C229.534 173.193 229.081 173.048 228.493 173.048C228.041 173.048 227.637 173.141 227.282 173.328C226.928 173.51 226.687 173.846 226.561 174.336H225.441C225.516 173.79 225.693 173.349 225.973 173.013C226.253 172.677 226.608 172.434 227.037 172.285C227.467 172.131 227.943 172.054 228.465 172.054C229.049 172.054 229.569 172.157 230.026 172.362C230.484 172.567 230.843 172.85 231.104 173.209C231.37 173.568 231.503 173.981 231.503 174.448C231.503 174.91 231.37 175.307 231.104 175.638C230.843 175.965 230.463 176.217 229.963 176.394C230.519 176.553 230.971 176.814 231.321 177.178C231.676 177.542 231.853 178.009 231.853 178.578C231.853 179.082 231.72 179.53 231.454 179.922C231.193 180.309 230.82 180.615 230.334 180.839C229.849 181.058 229.273 181.168 228.605 181.168ZM240.493 181.168C240.003 181.168 239.576 181.056 239.212 180.832C238.853 180.608 238.575 180.281 238.379 179.852C238.183 179.418 238.085 178.891 238.085 178.27H238.547C238.547 178.685 238.633 179.035 238.806 179.32C238.979 179.605 239.203 179.822 239.478 179.971C239.758 180.116 240.054 180.188 240.367 180.188C240.703 180.188 241.025 180.092 241.333 179.901C241.641 179.705 241.893 179.418 242.089 179.04C242.285 178.662 242.383 178.195 242.383 177.64C242.383 177.108 242.292 176.653 242.11 176.275C241.933 175.897 241.692 175.608 241.389 175.407C241.086 175.206 240.75 175.106 240.381 175.106C240.064 175.106 239.765 175.183 239.485 175.337C239.205 175.491 238.979 175.717 238.806 176.016C238.633 176.31 238.547 176.674 238.547 177.108H238.085C238.085 176.459 238.192 175.916 238.407 175.477C238.622 175.034 238.913 174.7 239.282 174.476C239.651 174.252 240.064 174.14 240.521 174.14C241.044 174.14 241.531 174.28 241.984 174.56C242.437 174.84 242.803 175.241 243.083 175.764C243.363 176.287 243.503 176.912 243.503 177.64C243.503 178.377 243.361 179.01 243.076 179.537C242.796 180.064 242.427 180.468 241.97 180.748C241.513 181.028 241.02 181.168 240.493 181.168ZM237.455 184.29V174.308H238.365L238.547 175.876V184.29H237.455ZM247.996 181.168C247.46 181.168 246.958 181.023 246.491 180.734C246.029 180.445 245.656 180.036 245.371 179.509C245.087 178.982 244.944 178.359 244.944 177.64C244.944 176.903 245.087 176.273 245.371 175.75C245.656 175.227 246.029 174.828 246.491 174.553C246.958 174.278 247.46 174.14 247.996 174.14C248.374 174.14 248.713 174.198 249.011 174.315C249.315 174.427 249.578 174.583 249.802 174.784C250.026 174.985 250.211 175.213 250.355 175.47C250.505 175.722 250.614 175.988 250.684 176.268L249.564 176.366C249.448 175.979 249.252 175.673 248.976 175.449C248.706 175.22 248.374 175.106 247.982 175.106C247.651 175.106 247.338 175.202 247.044 175.393C246.755 175.58 246.519 175.862 246.337 176.24C246.155 176.613 246.064 177.08 246.064 177.64C246.064 178.158 246.146 178.608 246.309 178.991C246.477 179.369 246.706 179.663 246.995 179.873C247.285 180.083 247.614 180.188 247.982 180.188C248.5 180.188 248.892 180.062 249.158 179.81C249.429 179.553 249.564 179.199 249.564 178.746H250.684C250.684 179.213 250.575 179.628 250.355 179.992C250.136 180.356 249.823 180.643 249.417 180.853C249.016 181.063 248.542 181.168 247.996 181.168ZM255.271 181.168C254.623 181.168 254.081 181.077 253.647 180.895C253.213 180.708 252.884 180.454 252.66 180.132C252.436 179.805 252.317 179.432 252.303 179.012H253.353C253.377 179.437 253.547 179.756 253.864 179.971C254.186 180.181 254.623 180.286 255.173 180.286C255.463 180.286 255.729 180.239 255.971 180.146C256.214 180.053 256.408 179.924 256.552 179.761C256.697 179.598 256.769 179.413 256.769 179.208C256.769 178.947 256.674 178.741 256.482 178.592C256.291 178.443 255.985 178.312 255.565 178.2L254.263 177.78C253.699 177.603 253.265 177.36 252.961 177.052C252.663 176.739 252.513 176.366 252.513 175.932C252.513 175.391 252.751 174.957 253.227 174.63C253.703 174.303 254.329 174.14 255.103 174.14C255.925 174.14 256.562 174.308 257.014 174.644C257.467 174.98 257.703 175.4 257.721 175.904H256.643C256.601 175.61 256.452 175.388 256.195 175.239C255.939 175.085 255.575 175.008 255.103 175.008C254.651 175.008 254.296 175.111 254.039 175.316C253.787 175.517 253.661 175.741 253.661 175.988C253.661 176.45 254.058 176.791 254.851 177.01L256.181 177.458C256.755 177.631 257.194 177.857 257.497 178.137C257.805 178.417 257.959 178.774 257.959 179.208C257.959 179.544 257.85 179.861 257.63 180.16C257.411 180.459 257.101 180.701 256.699 180.888C256.298 181.075 255.822 181.168 255.271 181.168ZM259.995 182.596L259.197 182.022C259.995 181.215 260.597 180.363 261.003 179.467C261.413 178.566 261.619 177.645 261.619 176.702C261.619 176.072 261.528 175.451 261.346 174.84C261.164 174.229 260.893 173.634 260.534 173.055C260.174 172.472 259.729 171.909 259.197 171.368L259.995 170.822C260.9 171.648 261.588 172.565 262.06 173.573C262.531 174.581 262.767 175.624 262.767 176.702C262.767 177.416 262.662 178.118 262.452 178.809C262.242 179.5 261.929 180.165 261.514 180.804C261.103 181.443 260.597 182.041 259.995 182.596ZM264.201 180.349C264.201 180.13 264.278 179.941 264.432 179.782C264.586 179.623 264.78 179.544 265.013 179.544C265.247 179.544 265.445 179.623 265.608 179.782C265.772 179.941 265.853 180.13 265.853 180.349C265.853 180.568 265.772 180.753 265.608 180.902C265.445 181.051 265.247 181.126 265.013 181.126C264.78 181.126 264.586 181.051 264.432 180.902C264.278 180.748 264.201 180.564 264.201 180.349ZM272.111 172.208V180.048H276.031V181H271.019V172.208H272.111ZM279.892 181.168C279.314 181.168 278.796 181.021 278.338 180.727C277.886 180.428 277.526 180.015 277.26 179.488C276.999 178.961 276.868 178.354 276.868 177.668C276.868 176.935 276.999 176.305 277.26 175.778C277.522 175.251 277.879 174.847 278.331 174.567C278.789 174.282 279.309 174.14 279.892 174.14C280.401 174.14 280.835 174.243 281.194 174.448C281.554 174.653 281.843 174.931 282.062 175.281C282.282 175.631 282.433 176.028 282.517 176.471C282.606 176.91 282.632 177.365 282.594 177.836H277.75V177.164H281.873L281.551 177.374C281.565 177.099 281.549 176.823 281.502 176.548C281.46 176.273 281.379 176.021 281.257 175.792C281.136 175.559 280.966 175.372 280.746 175.232C280.527 175.092 280.247 175.022 279.906 175.022C279.477 175.022 279.118 175.132 278.828 175.351C278.539 175.57 278.322 175.86 278.177 176.219C278.033 176.574 277.96 176.959 277.96 177.374V177.822C277.96 178.289 278.03 178.706 278.17 179.075C278.315 179.444 278.53 179.735 278.814 179.95C279.099 180.165 279.458 180.272 279.892 180.272C280.326 180.272 280.683 180.167 280.963 179.957C281.243 179.747 281.414 179.437 281.474 179.026H282.608C282.538 179.469 282.38 179.852 282.132 180.174C281.885 180.491 281.57 180.736 281.187 180.909C280.805 181.082 280.373 181.168 279.892 181.168ZM289.52 181V177.066C289.52 176.427 289.366 175.941 289.058 175.61C288.754 175.274 288.339 175.106 287.812 175.106C287.41 175.106 287.063 175.216 286.769 175.435C286.475 175.654 286.248 175.969 286.09 176.38C285.931 176.786 285.852 177.271 285.852 177.836H285.432C285.432 177.057 285.534 176.392 285.74 175.841C285.945 175.29 286.244 174.87 286.636 174.581C287.032 174.287 287.513 174.14 288.078 174.14C288.605 174.14 289.055 174.259 289.429 174.497C289.807 174.73 290.096 175.066 290.297 175.505C290.497 175.944 290.598 176.464 290.598 177.066V181H289.52ZM284.76 181V174.308H285.698L285.852 175.848V181H284.76ZM295.267 181.168C294.903 181.168 294.576 181.098 294.287 180.958C293.998 180.818 293.769 180.608 293.601 180.328C293.433 180.048 293.349 179.698 293.349 179.278V172.446H294.427V179.25C294.427 179.941 294.749 180.286 295.393 180.286C295.584 180.286 295.769 180.265 295.946 180.223C296.128 180.181 296.331 180.118 296.555 180.034L296.709 180.818C296.471 180.921 296.233 181.005 295.995 181.07C295.762 181.135 295.519 181.168 295.267 181.168ZM292.271 175.064V174.308H296.541V175.064H292.271ZM299.089 172.726C298.865 172.726 298.687 172.663 298.557 172.537C298.426 172.406 298.361 172.236 298.361 172.026C298.361 171.821 298.426 171.657 298.557 171.536C298.687 171.415 298.865 171.354 299.089 171.354C299.313 171.354 299.49 171.415 299.621 171.536C299.751 171.657 299.817 171.821 299.817 172.026C299.817 172.236 299.751 172.406 299.621 172.537C299.49 172.663 299.313 172.726 299.089 172.726ZM298.543 181V174.294H299.635V181H298.543ZM302.643 181V171.452H303.735V181H302.643ZM312.311 181.168C311.709 181.168 311.172 181.035 310.701 180.769C310.234 180.503 309.865 180.109 309.595 179.586C309.324 179.063 309.189 178.419 309.189 177.654C309.189 176.884 309.324 176.24 309.595 175.722C309.865 175.199 310.234 174.805 310.701 174.539C311.172 174.273 311.709 174.14 312.311 174.14C312.908 174.14 313.44 174.273 313.907 174.539C314.378 174.805 314.747 175.199 315.013 175.722C315.283 176.24 315.419 176.884 315.419 177.654C315.419 178.419 315.283 179.063 315.013 179.586C314.747 180.109 314.378 180.503 313.907 180.769C313.44 181.035 312.908 181.168 312.311 181.168ZM312.283 180.216C312.717 180.216 313.085 180.113 313.389 179.908C313.692 179.698 313.921 179.402 314.075 179.019C314.233 178.636 314.313 178.181 314.313 177.654C314.313 176.856 314.147 176.228 313.816 175.771C313.484 175.309 312.992 175.078 312.339 175.078C311.9 175.078 311.529 175.183 311.226 175.393C310.927 175.598 310.698 175.895 310.54 176.282C310.386 176.665 310.309 177.122 310.309 177.654C310.309 178.443 310.474 179.068 310.806 179.53C311.142 179.987 311.634 180.216 312.283 180.216ZM317.545 181V174.294H318.637V181H317.545ZM318.301 177.976C318.301 177.127 318.383 176.422 318.546 175.862C318.709 175.297 318.947 174.877 319.26 174.602C319.577 174.322 319.962 174.182 320.415 174.182C320.564 174.182 320.7 174.194 320.821 174.217C320.947 174.236 321.073 174.266 321.199 174.308L321.129 175.386C320.998 175.344 320.856 175.309 320.702 175.281C320.548 175.248 320.41 175.232 320.289 175.232C319.892 175.232 319.573 175.346 319.33 175.575C319.087 175.799 318.91 176.116 318.798 176.527C318.691 176.938 318.637 177.421 318.637 177.976H318.301ZM97.3816 197V193.066C97.3816 192.427 97.2276 191.941 96.9196 191.61C96.6162 191.274 96.2056 191.106 95.6876 191.106C95.0809 191.106 94.6166 191.342 94.2946 191.813C93.9726 192.28 93.8116 192.926 93.8116 193.752H93.3076C93.3076 193.15 93.3659 192.623 93.4826 192.17C93.6039 191.717 93.7789 191.342 94.0076 191.043C94.2362 190.74 94.5139 190.513 94.8406 190.364C95.1672 190.215 95.5382 190.14 95.9536 190.14C96.4809 190.14 96.9312 190.259 97.3046 190.497C97.6826 190.73 97.9719 191.066 98.1726 191.505C98.3732 191.944 98.4736 192.464 98.4736 193.066V197H97.3816ZM87.9736 197V190.308H88.9116L89.0376 191.652C89.2476 191.167 89.5416 190.793 89.9196 190.532C90.3022 190.271 90.7596 190.14 91.2916 190.14C91.8189 190.14 92.2692 190.259 92.6426 190.497C93.0206 190.73 93.3099 191.066 93.5106 191.505C93.7112 191.944 93.8116 192.464 93.8116 193.066V197H92.7336V193.066C92.7336 192.427 92.5796 191.941 92.2716 191.61C91.9682 191.274 91.5529 191.106 91.0256 191.106C90.6242 191.106 90.2766 191.216 89.9826 191.435C89.6886 191.654 89.4622 191.969 89.3036 192.38C89.1449 192.786 89.0656 193.271 89.0656 193.836V197H87.9736ZM103.395 197.168C102.817 197.168 102.299 197.021 101.841 196.727C101.389 196.428 101.029 196.015 100.763 195.488C100.502 194.961 100.371 194.354 100.371 193.668C100.371 192.935 100.502 192.305 100.763 191.778C101.025 191.251 101.382 190.847 101.834 190.567C102.292 190.282 102.812 190.14 103.395 190.14C103.904 190.14 104.338 190.243 104.697 190.448C105.057 190.653 105.346 190.931 105.565 191.281C105.785 191.631 105.936 192.028 106.02 192.471C106.109 192.91 106.135 193.365 106.097 193.836H101.253V193.164H105.376L105.054 193.374C105.068 193.099 105.052 192.823 105.005 192.548C104.963 192.273 104.882 192.021 104.76 191.792C104.639 191.559 104.469 191.372 104.249 191.232C104.03 191.092 103.75 191.022 103.409 191.022C102.98 191.022 102.621 191.132 102.331 191.351C102.042 191.57 101.825 191.86 101.68 192.219C101.536 192.574 101.463 192.959 101.463 193.374V193.822C101.463 194.289 101.533 194.706 101.673 195.075C101.818 195.444 102.033 195.735 102.317 195.95C102.602 196.165 102.961 196.272 103.395 196.272C103.829 196.272 104.186 196.167 104.466 195.957C104.746 195.747 104.917 195.437 104.977 195.026H106.111C106.041 195.469 105.883 195.852 105.635 196.174C105.388 196.491 105.073 196.736 104.69 196.909C104.308 197.082 103.876 197.168 103.395 197.168ZM112.407 197L112.267 195.53V192.66C112.267 192.058 112.138 191.626 111.882 191.365C111.625 191.099 111.24 190.966 110.727 190.966C110.437 190.966 110.174 191.008 109.936 191.092C109.702 191.176 109.516 191.307 109.376 191.484C109.24 191.657 109.173 191.881 109.173 192.156H107.955C107.955 191.671 108.074 191.281 108.312 190.987C108.55 190.688 108.876 190.474 109.292 190.343C109.712 190.208 110.19 190.14 110.727 190.14C111.24 190.14 111.695 190.226 112.092 190.399C112.488 190.572 112.799 190.847 113.023 191.225C113.247 191.598 113.359 192.086 113.359 192.688V197H112.407ZM110.125 197.168C109.574 197.168 109.119 197.07 108.76 196.874C108.4 196.678 108.132 196.424 107.955 196.111C107.777 195.798 107.689 195.469 107.689 195.124C107.689 194.671 107.801 194.303 108.025 194.018C108.253 193.733 108.564 193.526 108.956 193.395C109.348 193.26 109.789 193.192 110.279 193.192C110.629 193.192 110.979 193.227 111.329 193.297C111.683 193.367 112.029 193.463 112.365 193.584V194.27C112.085 194.158 111.767 194.069 111.413 194.004C111.063 193.939 110.741 193.906 110.447 193.906C109.999 193.906 109.621 193.999 109.313 194.186C109.005 194.368 108.851 194.681 108.851 195.124C108.851 195.451 108.967 195.731 109.201 195.964C109.439 196.197 109.817 196.314 110.335 196.314C110.699 196.314 111.025 196.23 111.315 196.062C111.609 195.889 111.84 195.675 112.008 195.418C112.18 195.161 112.267 194.905 112.267 194.648H112.533C112.533 195.096 112.435 195.511 112.239 195.894C112.047 196.277 111.772 196.585 111.413 196.818C111.053 197.051 110.624 197.168 110.125 197.168ZM118.032 197.168C117.668 197.168 117.341 197.098 117.052 196.958C116.762 196.818 116.534 196.608 116.366 196.328C116.198 196.048 116.114 195.698 116.114 195.278V188.446H117.192V195.25C117.192 195.941 117.514 196.286 118.158 196.286C118.349 196.286 118.533 196.265 118.711 196.223C118.893 196.181 119.096 196.118 119.32 196.034L119.474 196.818C119.236 196.921 118.998 197.005 118.76 197.07C118.526 197.135 118.284 197.168 118.032 197.168ZM115.036 191.064V190.308H119.306V191.064H115.036ZM128.704 197L128.564 195.53V192.66C128.564 192.058 128.435 191.626 128.179 191.365C127.922 191.099 127.537 190.966 127.024 190.966C126.734 190.966 126.471 191.008 126.233 191.092C125.999 191.176 125.813 191.307 125.673 191.484C125.537 191.657 125.47 191.881 125.47 192.156H124.252C124.252 191.671 124.371 191.281 124.609 190.987C124.847 190.688 125.173 190.474 125.589 190.343C126.009 190.208 126.487 190.14 127.024 190.14C127.537 190.14 127.992 190.226 128.389 190.399C128.785 190.572 129.096 190.847 129.32 191.225C129.544 191.598 129.656 192.086 129.656 192.688V197H128.704ZM126.422 197.168C125.871 197.168 125.416 197.07 125.057 196.874C124.697 196.678 124.429 196.424 124.252 196.111C124.074 195.798 123.986 195.469 123.986 195.124C123.986 194.671 124.098 194.303 124.322 194.018C124.55 193.733 124.861 193.526 125.253 193.395C125.645 193.26 126.086 193.192 126.576 193.192C126.926 193.192 127.276 193.227 127.626 193.297C127.98 193.367 128.326 193.463 128.662 193.584V194.27C128.382 194.158 128.064 194.069 127.71 194.004C127.36 193.939 127.038 193.906 126.744 193.906C126.296 193.906 125.918 193.999 125.61 194.186C125.302 194.368 125.148 194.681 125.148 195.124C125.148 195.451 125.264 195.731 125.498 195.964C125.736 196.197 126.114 196.314 126.632 196.314C126.996 196.314 127.322 196.23 127.612 196.062C127.906 195.889 128.137 195.675 128.305 195.418C128.477 195.161 128.564 194.905 128.564 194.648H128.83C128.83 195.096 128.732 195.511 128.536 195.894C128.344 196.277 128.069 196.585 127.71 196.818C127.35 197.051 126.921 197.168 126.422 197.168ZM131.108 190.308H132.354L134.454 196.062H134.3L136.4 190.308H137.646L134.972 197H133.782L131.108 190.308ZM143.455 197L143.315 195.53V192.66C143.315 192.058 143.187 191.626 142.93 191.365C142.674 191.099 142.289 190.966 141.775 190.966C141.486 190.966 141.222 191.008 140.984 191.092C140.751 191.176 140.564 191.307 140.424 191.484C140.289 191.657 140.221 191.881 140.221 192.156H139.003C139.003 191.671 139.122 191.281 139.36 190.987C139.598 190.688 139.925 190.474 140.34 190.343C140.76 190.208 141.239 190.14 141.775 190.14C142.289 190.14 142.744 190.226 143.14 190.399C143.537 190.572 143.847 190.847 144.071 191.225C144.295 191.598 144.407 192.086 144.407 192.688V197H143.455ZM141.173 197.168C140.623 197.168 140.168 197.07 139.808 196.874C139.449 196.678 139.181 196.424 139.003 196.111C138.826 195.798 138.737 195.469 138.737 195.124C138.737 194.671 138.849 194.303 139.073 194.018C139.302 193.733 139.612 193.526 140.004 193.395C140.396 193.26 140.837 193.192 141.327 193.192C141.677 193.192 142.027 193.227 142.377 193.297C142.732 193.367 143.077 193.463 143.413 193.584V194.27C143.133 194.158 142.816 194.069 142.461 194.004C142.111 193.939 141.789 193.906 141.495 193.906C141.047 193.906 140.669 193.999 140.361 194.186C140.053 194.368 139.899 194.681 139.899 195.124C139.899 195.451 140.016 195.731 140.249 195.964C140.487 196.197 140.865 196.314 141.383 196.314C141.747 196.314 142.074 196.23 142.363 196.062C142.657 195.889 142.888 195.675 143.056 195.418C143.229 195.161 143.315 194.905 143.315 194.648H143.581C143.581 195.096 143.483 195.511 143.287 195.894C143.096 196.277 142.821 196.585 142.461 196.818C142.102 197.051 141.673 197.168 141.173 197.168ZM147.638 188.726C147.414 188.726 147.237 188.663 147.106 188.537C146.976 188.406 146.91 188.236 146.91 188.026C146.91 187.821 146.976 187.657 147.106 187.536C147.237 187.415 147.414 187.354 147.638 187.354C147.862 187.354 148.04 187.415 148.17 187.536C148.301 187.657 148.366 187.821 148.366 188.026C148.366 188.236 148.301 188.406 148.17 188.537C148.04 188.663 147.862 188.726 147.638 188.726ZM147.092 197V190.294H148.184V197H147.092ZM151.192 197V187.452H152.284V197H151.192ZM159.26 197L159.12 195.53V192.66C159.12 192.058 158.992 191.626 158.735 191.365C158.478 191.099 158.093 190.966 157.58 190.966C157.291 190.966 157.027 191.008 156.789 191.092C156.556 191.176 156.369 191.307 156.229 191.484C156.094 191.657 156.026 191.881 156.026 192.156H154.808C154.808 191.671 154.927 191.281 155.165 190.987C155.403 190.688 155.73 190.474 156.145 190.343C156.565 190.208 157.043 190.14 157.58 190.14C158.093 190.14 158.548 190.226 158.945 190.399C159.342 190.572 159.652 190.847 159.876 191.225C160.1 191.598 160.212 192.086 160.212 192.688V197H159.26ZM156.978 197.168C156.427 197.168 155.972 197.07 155.613 196.874C155.254 196.678 154.985 196.424 154.808 196.111C154.631 195.798 154.542 195.469 154.542 195.124C154.542 194.671 154.654 194.303 154.878 194.018C155.107 193.733 155.417 193.526 155.809 193.395C156.201 193.26 156.642 193.192 157.132 193.192C157.482 193.192 157.832 193.227 158.182 193.297C158.537 193.367 158.882 193.463 159.218 193.584V194.27C158.938 194.158 158.621 194.069 158.266 194.004C157.916 193.939 157.594 193.906 157.3 193.906C156.852 193.906 156.474 193.999 156.166 194.186C155.858 194.368 155.704 194.681 155.704 195.124C155.704 195.451 155.821 195.731 156.054 195.964C156.292 196.197 156.67 196.314 157.188 196.314C157.552 196.314 157.879 196.23 158.168 196.062C158.462 195.889 158.693 195.675 158.861 195.418C159.034 195.161 159.12 194.905 159.12 194.648H159.386C159.386 195.096 159.288 195.511 159.092 195.894C158.901 196.277 158.625 196.585 158.266 196.818C157.907 197.051 157.477 197.168 156.978 197.168ZM165.893 197.168C165.445 197.168 165.039 197.051 164.675 196.818C164.316 196.585 164.029 196.244 163.814 195.796C163.604 195.343 163.499 194.793 163.499 194.144H163.919C163.919 194.578 164.008 194.949 164.185 195.257C164.367 195.56 164.6 195.791 164.885 195.95C165.17 196.109 165.468 196.188 165.781 196.188C166.14 196.188 166.469 196.085 166.768 195.88C167.067 195.675 167.305 195.381 167.482 194.998C167.664 194.615 167.755 194.158 167.755 193.626C167.755 193.103 167.666 192.655 167.489 192.282C167.312 191.904 167.071 191.615 166.768 191.414C166.469 191.209 166.136 191.106 165.767 191.106C165.45 191.106 165.149 191.185 164.864 191.344C164.584 191.498 164.355 191.727 164.178 192.03C164.005 192.333 163.919 192.707 163.919 193.15H163.499C163.499 192.515 163.602 191.974 163.807 191.526C164.017 191.078 164.306 190.735 164.675 190.497C165.044 190.259 165.473 190.14 165.963 190.14C166.49 190.14 166.973 190.282 167.412 190.567C167.855 190.847 168.21 191.248 168.476 191.771C168.742 192.294 168.875 192.912 168.875 193.626C168.875 194.345 168.74 194.97 168.469 195.502C168.198 196.029 167.837 196.44 167.384 196.734C166.931 197.023 166.434 197.168 165.893 197.168ZM162.827 197V187.452H163.919V195.432L163.597 197H162.827ZM171.126 197V187.452H172.218V197H171.126ZM177.374 197.168C176.795 197.168 176.277 197.021 175.82 196.727C175.367 196.428 175.008 196.015 174.742 195.488C174.48 194.961 174.35 194.354 174.35 193.668C174.35 192.935 174.48 192.305 174.742 191.778C175.003 191.251 175.36 190.847 175.813 190.567C176.27 190.282 176.79 190.14 177.374 190.14C177.882 190.14 178.316 190.243 178.676 190.448C179.035 190.653 179.324 190.931 179.544 191.281C179.763 191.631 179.915 192.028 179.999 192.471C180.087 192.91 180.113 193.365 180.076 193.836H175.232V193.164H179.355L179.033 193.374C179.047 193.099 179.03 192.823 178.984 192.548C178.942 192.273 178.86 192.021 178.739 191.792C178.617 191.559 178.447 191.372 178.228 191.232C178.008 191.092 177.728 191.022 177.388 191.022C176.958 191.022 176.599 191.132 176.31 191.351C176.02 191.57 175.803 191.86 175.659 192.219C175.514 192.574 175.442 192.959 175.442 193.374V193.822C175.442 194.289 175.512 194.706 175.652 195.075C175.796 195.444 176.011 195.735 176.296 195.95C176.58 196.165 176.94 196.272 177.374 196.272C177.808 196.272 178.165 196.167 178.445 195.957C178.725 195.747 178.895 195.437 178.956 195.026H180.09C180.02 195.469 179.861 195.852 179.614 196.174C179.366 196.491 179.051 196.736 178.669 196.909C178.286 197.082 177.854 197.168 177.374 197.168ZM189.707 197L189.567 195.53V192.66C189.567 192.058 189.439 191.626 189.182 191.365C188.926 191.099 188.541 190.966 188.027 190.966C187.738 190.966 187.474 191.008 187.236 191.092C187.003 191.176 186.816 191.307 186.676 191.484C186.541 191.657 186.473 191.881 186.473 192.156H185.255C185.255 191.671 185.374 191.281 185.612 190.987C185.85 190.688 186.177 190.474 186.592 190.343C187.012 190.208 187.491 190.14 188.027 190.14C188.541 190.14 188.996 190.226 189.392 190.399C189.789 190.572 190.099 190.847 190.323 191.225C190.547 191.598 190.659 192.086 190.659 192.688V197H189.707ZM187.425 197.168C186.875 197.168 186.42 197.07 186.06 196.874C185.701 196.678 185.433 196.424 185.255 196.111C185.078 195.798 184.989 195.469 184.989 195.124C184.989 194.671 185.101 194.303 185.325 194.018C185.554 193.733 185.864 193.526 186.256 193.395C186.648 193.26 187.089 193.192 187.579 193.192C187.929 193.192 188.279 193.227 188.629 193.297C188.984 193.367 189.329 193.463 189.665 193.584V194.27C189.385 194.158 189.068 194.069 188.713 194.004C188.363 193.939 188.041 193.906 187.747 193.906C187.299 193.906 186.921 193.999 186.613 194.186C186.305 194.368 186.151 194.681 186.151 195.124C186.151 195.451 186.268 195.731 186.501 195.964C186.739 196.197 187.117 196.314 187.635 196.314C187.999 196.314 188.326 196.23 188.615 196.062C188.909 195.889 189.14 195.675 189.308 195.418C189.481 195.161 189.567 194.905 189.567 194.648H189.833C189.833 195.096 189.735 195.511 189.539 195.894C189.348 196.277 189.073 196.585 188.713 196.818C188.354 197.051 187.925 197.168 187.425 197.168ZM195.682 197.168C195.034 197.168 194.492 197.077 194.058 196.895C193.624 196.708 193.295 196.454 193.071 196.132C192.847 195.805 192.728 195.432 192.714 195.012H193.764C193.788 195.437 193.958 195.756 194.275 195.971C194.597 196.181 195.034 196.286 195.584 196.286C195.874 196.286 196.14 196.239 196.382 196.146C196.625 196.053 196.819 195.924 196.963 195.761C197.108 195.598 197.18 195.413 197.18 195.208C197.18 194.947 197.085 194.741 196.893 194.592C196.702 194.443 196.396 194.312 195.976 194.2L194.674 193.78C194.11 193.603 193.676 193.36 193.372 193.052C193.074 192.739 192.924 192.366 192.924 191.932C192.924 191.391 193.162 190.957 193.638 190.63C194.114 190.303 194.74 190.14 195.514 190.14C196.336 190.14 196.973 190.308 197.425 190.644C197.878 190.98 198.114 191.4 198.132 191.904H197.054C197.012 191.61 196.863 191.388 196.606 191.239C196.35 191.085 195.986 191.008 195.514 191.008C195.062 191.008 194.707 191.111 194.45 191.316C194.198 191.517 194.072 191.741 194.072 191.988C194.072 192.45 194.469 192.791 195.262 193.01L196.592 193.458C197.166 193.631 197.605 193.857 197.908 194.137C198.216 194.417 198.37 194.774 198.37 195.208C198.37 195.544 198.261 195.861 198.041 196.16C197.822 196.459 197.512 196.701 197.11 196.888C196.709 197.075 196.233 197.168 195.682 197.168ZM204.316 197V189.272C204.316 188.829 204.4 188.467 204.568 188.187C204.741 187.902 204.969 187.692 205.254 187.557C205.543 187.422 205.865 187.354 206.22 187.354C206.411 187.354 206.605 187.368 206.801 187.396C207.002 187.424 207.2 187.466 207.396 187.522L207.186 188.39C207.046 188.334 206.906 188.292 206.766 188.264C206.631 188.236 206.5 188.222 206.374 188.222C206.225 188.222 206.075 188.25 205.926 188.306C205.777 188.362 205.653 188.467 205.555 188.621C205.457 188.775 205.408 188.997 205.408 189.286V197H204.316ZM203.224 191.064V190.308H206.794V191.064H203.224ZM209.363 188.726C209.139 188.726 208.962 188.663 208.831 188.537C208.7 188.406 208.635 188.236 208.635 188.026C208.635 187.821 208.7 187.657 208.831 187.536C208.962 187.415 209.139 187.354 209.363 187.354C209.587 187.354 209.764 187.415 209.895 187.536C210.026 187.657 210.091 187.821 210.091 188.026C210.091 188.236 210.026 188.406 209.895 188.537C209.764 188.663 209.587 188.726 209.363 188.726ZM208.817 197V190.294H209.909V197H208.817ZM212.921 197V187.452H214.013V197H212.921ZM216.845 197V187.452H217.937V197H216.845ZM221.384 188.726C221.16 188.726 220.983 188.663 220.852 188.537C220.722 188.406 220.656 188.236 220.656 188.026C220.656 187.821 220.722 187.657 220.852 187.536C220.983 187.415 221.16 187.354 221.384 187.354C221.608 187.354 221.786 187.415 221.916 187.536C222.047 187.657 222.112 187.821 222.112 188.026C222.112 188.236 222.047 188.406 221.916 188.537C221.786 188.663 221.608 188.726 221.384 188.726ZM220.838 197V190.294H221.93V197H220.838ZM229.698 197V193.066C229.698 192.427 229.544 191.941 229.236 191.61C228.933 191.274 228.518 191.106 227.99 191.106C227.589 191.106 227.241 191.216 226.947 191.435C226.653 191.654 226.427 191.969 226.268 192.38C226.11 192.786 226.03 193.271 226.03 193.836H225.61C225.61 193.057 225.713 192.392 225.918 191.841C226.124 191.29 226.422 190.87 226.814 190.581C227.211 190.287 227.692 190.14 228.256 190.14C228.784 190.14 229.234 190.259 229.607 190.497C229.985 190.73 230.275 191.066 230.475 191.505C230.676 191.944 230.776 192.464 230.776 193.066V197H229.698ZM224.938 197V190.308H225.876L226.03 191.848V197H224.938ZM235.754 200.444C235.068 200.444 234.473 200.346 233.969 200.15C233.465 199.959 233.073 199.7 232.793 199.373C232.517 199.051 232.38 198.694 232.38 198.302C232.38 197.784 232.569 197.387 232.947 197.112C233.329 196.841 233.822 196.706 234.424 196.706L235.026 197.084C234.522 197.084 234.132 197.189 233.857 197.399C233.581 197.609 233.444 197.896 233.444 198.26C233.444 198.624 233.64 198.932 234.032 199.184C234.424 199.436 234.998 199.562 235.754 199.562C236.314 199.562 236.804 199.48 237.224 199.317C237.648 199.158 237.977 198.948 238.211 198.687C238.449 198.43 238.568 198.153 238.568 197.854C238.568 197.644 238.491 197.462 238.337 197.308C238.183 197.159 237.947 197.084 237.63 197.084H235.026C234.573 197.084 234.181 197.016 233.85 196.881C233.523 196.741 233.271 196.559 233.094 196.335C232.916 196.111 232.828 195.866 232.828 195.6C232.828 195.32 232.907 195.082 233.066 194.886C233.224 194.69 233.43 194.541 233.682 194.438C233.938 194.335 234.214 194.284 234.508 194.284L234.718 194.69C234.578 194.69 234.435 194.723 234.291 194.788C234.151 194.849 234.032 194.942 233.934 195.068C233.84 195.189 233.794 195.343 233.794 195.53C233.794 195.745 233.882 195.924 234.06 196.069C234.237 196.214 234.559 196.286 235.026 196.286H237.63C238.26 196.286 238.754 196.419 239.114 196.685C239.478 196.951 239.66 197.322 239.66 197.798C239.66 198.237 239.503 198.657 239.191 199.058C238.878 199.464 238.43 199.795 237.847 200.052C237.263 200.313 236.566 200.444 235.754 200.444ZM235.95 195.04C235.436 195.04 234.972 194.937 234.557 194.732C234.146 194.527 233.819 194.24 233.577 193.871C233.339 193.502 233.22 193.075 233.22 192.59C233.22 192.1 233.339 191.671 233.577 191.302C233.819 190.933 234.146 190.649 234.557 190.448C234.972 190.243 235.436 190.14 235.95 190.14C236.449 190.14 236.902 190.243 237.308 190.448C237.718 190.649 238.045 190.933 238.288 191.302C238.53 191.671 238.652 192.1 238.652 192.59C238.652 193.075 238.53 193.502 238.288 193.871C238.045 194.24 237.718 194.527 237.308 194.732C236.902 194.937 236.449 195.04 235.95 195.04ZM235.95 194.256C236.463 194.256 236.862 194.097 237.147 193.78C237.431 193.463 237.574 193.066 237.574 192.59C237.574 192.1 237.431 191.703 237.147 191.4C236.862 191.092 236.463 190.938 235.95 190.938C235.441 190.938 235.04 191.092 234.746 191.4C234.456 191.703 234.312 192.1 234.312 192.59C234.312 193.066 234.456 193.463 234.746 193.78C235.04 194.097 235.441 194.256 235.95 194.256ZM238.148 191.204L237.63 190.994C237.63 190.602 237.707 190.259 237.861 189.965C238.015 189.666 238.234 189.435 238.519 189.272C238.803 189.104 239.142 189.02 239.534 189.02L239.45 190.098C239.03 190.098 238.708 190.189 238.484 190.371C238.26 190.548 238.148 190.826 238.148 191.204ZM247.034 197.168C246.432 197.168 245.896 197.035 245.424 196.769C244.958 196.503 244.589 196.109 244.318 195.586C244.048 195.063 243.912 194.419 243.912 193.654C243.912 192.884 244.048 192.24 244.318 191.722C244.589 191.199 244.958 190.805 245.424 190.539C245.896 190.273 246.432 190.14 247.034 190.14C247.632 190.14 248.164 190.273 248.63 190.539C249.102 190.805 249.47 191.199 249.736 191.722C250.007 192.24 250.142 192.884 250.142 193.654C250.142 194.419 250.007 195.063 249.736 195.586C249.47 196.109 249.102 196.503 248.63 196.769C248.164 197.035 247.632 197.168 247.034 197.168ZM247.006 196.216C247.44 196.216 247.809 196.113 248.112 195.908C248.416 195.698 248.644 195.402 248.798 195.019C248.957 194.636 249.036 194.181 249.036 193.654C249.036 192.856 248.871 192.228 248.539 191.771C248.208 191.309 247.716 191.078 247.062 191.078C246.624 191.078 246.253 191.183 245.949 191.393C245.651 191.598 245.422 191.895 245.263 192.282C245.109 192.665 245.032 193.122 245.032 193.654C245.032 194.443 245.198 195.068 245.529 195.53C245.865 195.987 246.358 196.216 247.006 196.216ZM255.306 197.168C254.816 197.168 254.389 197.056 254.025 196.832C253.666 196.608 253.388 196.281 253.192 195.852C252.996 195.418 252.898 194.891 252.898 194.27H253.36C253.36 194.685 253.447 195.035 253.619 195.32C253.792 195.605 254.016 195.822 254.291 195.971C254.571 196.116 254.868 196.188 255.18 196.188C255.516 196.188 255.838 196.092 256.146 195.901C256.454 195.705 256.706 195.418 256.902 195.04C257.098 194.662 257.196 194.195 257.196 193.64C257.196 193.108 257.105 192.653 256.923 192.275C256.746 191.897 256.506 191.608 256.202 191.407C255.899 191.206 255.563 191.106 255.194 191.106C254.877 191.106 254.578 191.183 254.298 191.337C254.018 191.491 253.792 191.717 253.619 192.016C253.447 192.31 253.36 192.674 253.36 193.108H252.898C252.898 192.459 253.006 191.916 253.22 191.477C253.435 191.034 253.727 190.7 254.095 190.476C254.464 190.252 254.877 190.14 255.334 190.14C255.857 190.14 256.345 190.28 256.797 190.56C257.25 190.84 257.616 191.241 257.896 191.764C258.176 192.287 258.316 192.912 258.316 193.64C258.316 194.377 258.174 195.01 257.889 195.537C257.609 196.064 257.241 196.468 256.783 196.748C256.326 197.028 255.834 197.168 255.306 197.168ZM252.268 200.29V190.308H253.178L253.36 191.876V200.29H252.268ZM262.516 197.168C262.152 197.168 261.825 197.098 261.536 196.958C261.247 196.818 261.018 196.608 260.85 196.328C260.682 196.048 260.598 195.698 260.598 195.278V188.446H261.676V195.25C261.676 195.941 261.998 196.286 262.642 196.286C262.833 196.286 263.018 196.265 263.195 196.223C263.377 196.181 263.58 196.118 263.804 196.034L263.958 196.818C263.72 196.921 263.482 197.005 263.244 197.07C263.011 197.135 262.768 197.168 262.516 197.168ZM259.52 191.064V190.308H263.79V191.064H259.52ZM266.338 188.726C266.114 188.726 265.936 188.663 265.806 188.537C265.675 188.406 265.61 188.236 265.61 188.026C265.61 187.821 265.675 187.657 265.806 187.536C265.936 187.415 266.114 187.354 266.338 187.354C266.562 187.354 266.739 187.415 266.87 187.536C267 187.657 267.066 187.821 267.066 188.026C267.066 188.236 267 188.406 266.87 188.537C266.739 188.663 266.562 188.726 266.338 188.726ZM265.792 197V190.294H266.884V197H265.792ZM272.314 197.168C271.712 197.168 271.175 197.035 270.704 196.769C270.237 196.503 269.868 196.109 269.598 195.586C269.327 195.063 269.192 194.419 269.192 193.654C269.192 192.884 269.327 192.24 269.598 191.722C269.868 191.199 270.237 190.805 270.704 190.539C271.175 190.273 271.712 190.14 272.314 190.14C272.911 190.14 273.443 190.273 273.91 190.539C274.381 190.805 274.75 191.199 275.016 191.722C275.286 192.24 275.422 192.884 275.422 193.654C275.422 194.419 275.286 195.063 275.016 195.586C274.75 196.109 274.381 196.503 273.91 196.769C273.443 197.035 272.911 197.168 272.314 197.168ZM272.286 196.216C272.72 196.216 273.088 196.113 273.392 195.908C273.695 195.698 273.924 195.402 274.078 195.019C274.236 194.636 274.316 194.181 274.316 193.654C274.316 192.856 274.15 192.228 273.819 191.771C273.487 191.309 272.995 191.078 272.342 191.078C271.903 191.078 271.532 191.183 271.229 191.393C270.93 191.598 270.701 191.895 270.543 192.282C270.389 192.665 270.312 193.122 270.312 193.654C270.312 194.443 270.477 195.068 270.809 195.53C271.145 195.987 271.637 196.216 272.286 196.216ZM282.308 197V193.066C282.308 192.427 282.154 191.941 281.846 191.61C281.542 191.274 281.127 191.106 280.6 191.106C280.198 191.106 279.851 191.216 279.557 191.435C279.263 191.654 279.036 191.969 278.878 192.38C278.719 192.786 278.64 193.271 278.64 193.836H278.22C278.22 193.057 278.322 192.392 278.528 191.841C278.733 191.29 279.032 190.87 279.424 190.581C279.82 190.287 280.301 190.14 280.866 190.14C281.393 190.14 281.843 190.259 282.217 190.497C282.595 190.73 282.884 191.066 283.085 191.505C283.285 191.944 283.386 192.464 283.386 193.066V197H282.308ZM277.548 197V190.308H278.486L278.64 191.848V197H277.548ZM288.405 197.168C287.756 197.168 287.215 197.077 286.781 196.895C286.347 196.708 286.018 196.454 285.794 196.132C285.57 195.805 285.451 195.432 285.437 195.012H286.487C286.51 195.437 286.681 195.756 286.998 195.971C287.32 196.181 287.756 196.286 288.307 196.286C288.596 196.286 288.862 196.239 289.105 196.146C289.348 196.053 289.541 195.924 289.686 195.761C289.831 195.598 289.903 195.413 289.903 195.208C289.903 194.947 289.807 194.741 289.616 194.592C289.425 194.443 289.119 194.312 288.699 194.2L287.397 193.78C286.832 193.603 286.398 193.36 286.095 193.052C285.796 192.739 285.647 192.366 285.647 191.932C285.647 191.391 285.885 190.957 286.361 190.63C286.837 190.303 287.462 190.14 288.237 190.14C289.058 190.14 289.695 190.308 290.148 190.644C290.601 190.98 290.836 191.4 290.855 191.904H289.777C289.735 191.61 289.586 191.388 289.329 191.239C289.072 191.085 288.708 191.008 288.237 191.008C287.784 191.008 287.43 191.111 287.173 191.316C286.921 191.517 286.795 191.741 286.795 191.988C286.795 192.45 287.192 192.791 287.985 193.01L289.315 193.458C289.889 193.631 290.328 193.857 290.631 194.137C290.939 194.417 291.093 194.774 291.093 195.208C291.093 195.544 290.983 195.861 290.764 196.16C290.545 196.459 290.234 196.701 289.833 196.888C289.432 197.075 288.956 197.168 288.405 197.168ZM292.358 196.349C292.358 196.13 292.435 195.941 292.589 195.782C292.743 195.623 292.937 195.544 293.17 195.544C293.404 195.544 293.602 195.623 293.765 195.782C293.929 195.941 294.01 196.13 294.01 196.349C294.01 196.568 293.929 196.753 293.765 196.902C293.602 197.051 293.404 197.126 293.17 197.126C292.937 197.126 292.743 197.051 292.589 196.902C292.435 196.748 292.358 196.564 292.358 196.349Z" fill="#C1A27F"/>
<path d="M107.984 86.275C105.484 86.275 103.559 85.4417 102.209 83.775C100.876 82.0917 100.209 79.875 100.209 77.125C100.209 74.3583 100.942 72.175 102.409 70.575C103.876 68.9583 105.784 68.15 108.134 68.15C110.501 68.15 112.276 68.9667 113.459 70.6C114.659 72.2333 115.259 74.375 115.259 77.025C115.259 79.6583 114.584 81.8583 113.234 83.625C111.884 85.3917 110.134 86.275 107.984 86.275ZM110.334 83.425C110.751 83.0083 111.076 82.2333 111.309 81.1C111.542 79.95 111.659 78.8167 111.659 77.7C111.659 76.5667 111.592 75.5833 111.459 74.75C111.342 73.9167 111.134 73.15 110.834 72.45C110.217 71 109.101 70.275 107.484 70.275C107.017 70.275 106.551 70.3417 106.084 70.475C105.634 70.6083 105.309 70.7667 105.109 70.95C104.742 71.4333 104.434 72.2167 104.184 73.3C103.934 74.3667 103.809 75.3583 103.809 76.275C103.809 77.175 103.851 77.9833 103.934 78.7C104.017 79.4 104.159 80.1 104.359 80.8C104.576 81.4833 104.851 82.0667 105.184 82.55C105.934 83.6333 106.984 84.175 108.334 84.175C108.617 84.175 108.967 84.1083 109.384 83.975C109.817 83.8417 110.134 83.6583 110.334 83.425ZM128.841 80.55C128.841 82.2 128.241 83.5667 127.041 84.65C125.857 85.7167 124.216 86.25 122.116 86.25C120.032 86.25 118.107 85.7917 116.341 84.875V84.725C116.341 83.8917 116.682 83.1167 117.366 82.4C119.249 83.7167 120.841 84.375 122.141 84.375H122.266C123.132 84.375 123.799 84.2417 124.266 83.975C124.999 83.2917 125.366 82.1917 125.366 80.675C125.366 79.525 125.107 78.7167 124.591 78.25C124.091 77.7667 123.266 77.525 122.116 77.525C120.966 77.525 120.157 77.5583 119.691 77.625H119.191L118.616 75.725H121.341C122.174 75.725 122.857 75.4083 123.391 74.775C123.924 74.125 124.191 73.3833 124.191 72.55C124.191 70.8333 123.566 69.975 122.316 69.975C121.199 69.975 119.832 70.6083 118.216 71.875C117.566 70.9917 117.174 70.0417 117.041 69.025C118.974 68.475 120.816 68.2 122.566 68.2C125.882 68.2 127.541 69.45 127.541 71.95C127.541 72.95 127.282 73.8167 126.766 74.55C126.266 75.2667 125.666 75.8 124.966 76.15C127.549 76.7 128.841 78.1667 128.841 80.55ZM136.278 82.625C136.444 82.7917 136.561 83.125 136.628 83.625C136.694 84.125 136.728 84.5167 136.728 84.8C136.728 85.0667 136.711 85.3 136.678 85.5L136.428 85.725C135.678 85.9417 134.561 86.1167 133.078 86.25L132.778 86.1C132.628 85.85 132.503 85.4333 132.403 84.85C132.319 84.2667 132.278 83.8667 132.278 83.65C132.278 83.4167 132.278 83.2667 132.278 83.2L132.528 82.975C133.594 82.625 134.653 82.45 135.703 82.45C135.803 82.45 135.894 82.45 135.978 82.45L136.278 82.625ZM149.538 73.575C149.972 73.9583 150.447 74.275 150.963 74.525C151.48 74.7583 151.938 74.9667 152.338 75.15C152.755 75.3333 153.022 75.4583 153.138 75.525C153.255 75.575 153.53 75.7 153.963 75.9C154.413 76.1 154.697 76.2333 154.813 76.3C154.93 76.35 155.188 76.4917 155.588 76.725C155.988 76.9583 156.263 77.15 156.413 77.3C156.563 77.45 156.78 77.675 157.063 77.975C157.347 78.2583 157.547 78.5333 157.663 78.8C157.98 79.55 158.138 80.3083 158.138 81.075C158.138 82.7917 157.522 84.0917 156.288 84.975C155.072 85.8583 153.397 86.3 151.263 86.3C149.147 86.3 147.213 85.7167 145.463 84.55C145.513 83.35 145.972 82.225 146.838 81.175C147.638 82.0583 148.538 82.7833 149.538 83.35C150.538 83.9167 151.447 84.2 152.263 84.2C153.097 84.2 153.83 84.0167 154.463 83.65C154.78 83.2333 154.938 82.5833 154.938 81.7C154.938 81.0333 154.747 80.5 154.363 80.1C154.13 79.8833 153.93 79.7083 153.763 79.575C153.613 79.425 153.338 79.25 152.938 79.05C152.538 78.8333 151.722 78.4583 150.488 77.925C149.272 77.375 148.422 76.9417 147.938 76.625C146.555 75.6917 145.863 74.4417 145.863 72.875C145.863 71.2917 146.455 70.1167 147.638 69.35C148.838 68.5833 150.322 68.2 152.088 68.2C153.855 68.2 155.713 68.6167 157.663 69.45C157.463 70.6 157.038 71.7167 156.388 72.8C155.538 72.0167 154.638 71.3833 153.688 70.9C152.738 70.4 151.88 70.15 151.113 70.15C150.347 70.15 149.738 70.275 149.288 70.525C149.022 70.8417 148.888 71.3333 148.888 72C148.888 72.6667 149.105 73.1917 149.538 73.575ZM168.139 81C167.539 80.7833 166.873 80.675 166.139 80.675C165.423 80.675 164.873 80.8083 164.489 81.075C164.239 81.3917 164.114 81.8083 164.114 82.325C164.114 83.625 164.681 84.275 165.814 84.275C166.748 84.275 167.523 83.8917 168.139 83.125V81ZM164.789 86.45C163.739 86.45 162.814 86.1333 162.014 85.5C161.214 84.8667 160.814 83.95 160.814 82.75C160.814 80.4333 162.506 79.275 165.889 79.275L168.114 79.375V77.85C168.114 76.9833 167.898 76.2833 167.464 75.75C167.031 75.2167 166.364 74.95 165.464 74.95C165.264 74.95 165.006 75.0583 164.689 75.275C164.373 75.475 164.106 75.6833 163.889 75.9C163.206 76.55 162.656 77.0833 162.239 77.5C161.406 76.5167 160.956 75.525 160.889 74.525C163.023 73.8583 164.823 73.525 166.289 73.525C167.756 73.525 168.981 73.8667 169.964 74.55C170.948 75.2333 171.439 76.3083 171.439 77.775V81.7C171.439 82.45 171.564 83.1667 171.814 83.85C172.064 84.5333 172.373 84.9917 172.739 85.225L172.789 85.775L169.214 86.525C168.948 86.025 168.698 85.325 168.464 84.425C168.031 84.8917 167.681 85.2417 167.414 85.475C167.148 85.6917 166.773 85.9083 166.289 86.125C165.823 86.3417 165.323 86.45 164.789 86.45ZM183.408 73.525C184.992 73.525 186.042 74.225 186.558 75.625C187.108 75.175 187.55 74.825 187.883 74.575C188.233 74.325 188.667 74.0917 189.183 73.875C189.7 73.6417 190.192 73.525 190.658 73.525C191.908 73.525 192.875 73.9167 193.558 74.7C194.242 75.4667 194.583 76.5833 194.583 78.05V81.475C194.583 82.9583 194.833 84.2833 195.333 85.45V86H190.933V85.45C191.217 84.6667 191.358 83.6 191.358 82.25V78.95C191.358 78 191.242 77.2917 191.008 76.825C190.775 76.3583 190.283 76.125 189.533 76.125C188.8 76.125 187.917 76.4167 186.883 77C186.917 77.4333 186.933 77.7833 186.933 78.05V81.475C186.933 82.9583 187.183 84.2833 187.683 85.45V86H183.533V85.45C183.817 84.6667 183.958 83.6 183.958 82.25V78.95C183.958 78 183.85 77.2917 183.633 76.825C183.417 76.3583 182.958 76.125 182.258 76.125C181.575 76.125 180.658 76.475 179.508 77.175V81.525C179.508 83.1083 179.75 84.4167 180.233 85.45V86H175.858V85.45C176.142 84.6 176.283 83.475 176.283 82.075V78.375C176.283 76.5083 175.783 75.325 174.783 74.825V74.275L178.833 73.5L179.083 73.975C179.217 74.3083 179.317 74.8417 179.383 75.575C180.167 74.875 180.85 74.3583 181.433 74.025C182.033 73.6917 182.692 73.525 183.408 73.525ZM202.276 83.975C203.46 84.3917 204.426 84.6 205.176 84.6C205.926 84.6 206.41 84.5167 206.626 84.35C206.876 84.0333 207.11 83.4 207.326 82.45C207.543 81.4833 207.651 80.5333 207.651 79.6C207.651 76.7833 206.968 75.375 205.601 75.375C204.718 75.375 203.61 75.7667 202.276 76.55V83.975ZM202.276 69.95V74.825C203.393 73.9583 204.543 73.525 205.726 73.525C207.443 73.525 208.793 74.0917 209.776 75.225C210.76 76.3417 211.251 77.7167 211.251 79.35C211.251 81.3667 210.518 83.0583 209.051 84.425C207.585 85.7917 205.843 86.475 203.826 86.475C202.526 86.475 200.843 86.0833 198.776 85.3V84.75C198.96 84.2833 199.051 83.1833 199.051 81.45V71.75C199.051 70.4833 198.676 69.4917 197.926 68.775V68.225L202.201 67.35L202.401 67.9C202.318 68.35 202.276 69.0333 202.276 69.95ZM219.676 86.475C217.742 86.475 216.217 85.9083 215.101 84.775C214.001 83.6417 213.451 82.15 213.451 80.3C213.451 78.45 214.092 76.8667 215.376 75.55C216.659 74.2167 218.292 73.55 220.276 73.55C222.276 73.55 223.801 74.1083 224.851 75.225C225.917 76.325 226.451 77.8083 226.451 79.675C226.451 81.5417 225.809 83.1417 224.526 84.475C223.242 85.8083 221.626 86.475 219.676 86.475ZM222.851 80.3C222.851 78.6833 222.617 77.425 222.151 76.525C221.684 75.6083 220.867 75.15 219.701 75.15C218.951 75.15 218.367 75.3333 217.951 75.7C217.684 76.0833 217.467 76.6583 217.301 77.425C217.134 78.1917 217.051 78.9333 217.051 79.65C217.051 83.1333 218.159 84.875 220.376 84.875C221.042 84.875 221.584 84.7 222.001 84.35C222.284 83.9667 222.492 83.3833 222.626 82.6C222.776 81.8 222.851 81.0333 222.851 80.3ZM234.011 86.325C232.311 86.325 231.161 85.9667 230.561 85.25C229.977 84.5167 229.686 83.3333 229.686 81.7V78.725C229.686 77.075 229.436 75.6833 228.936 74.55V74H233.286V74.6C233.036 75.4667 232.911 76.5917 232.911 77.975V81.3C232.911 82.1333 233.052 82.7833 233.336 83.25C233.619 83.7 234.019 83.925 234.536 83.925C235.419 83.925 236.469 83.5 237.686 82.65V78.725C237.686 77.0417 237.444 75.65 236.961 74.55V74H241.286V74.6C241.036 75.4667 240.911 76.5917 240.911 77.975V81.3C240.911 82.05 241.027 82.7833 241.261 83.5C241.511 84.2167 241.802 84.7167 242.136 85L242.211 85.55L238.286 86.55C237.936 85.95 237.736 85.275 237.686 84.525C236.252 85.725 235.027 86.325 234.011 86.325ZM250.452 84.375C251.402 84.375 251.877 83.9167 251.877 83C251.877 82.15 251.068 81.5083 249.452 81.075C248.785 80.8917 248.118 80.6833 247.452 80.45C246.785 80.2167 246.218 79.8417 245.752 79.325C245.285 78.8083 245.052 78.15 245.052 77.35C245.052 76.2 245.568 75.3083 246.602 74.675C247.635 74.025 248.893 73.7 250.377 73.7C251.86 73.7 253.41 74.0583 255.027 74.775C254.943 75.5083 254.493 76.3917 253.677 77.425C253.01 76.7583 252.318 76.25 251.602 75.9C250.885 75.55 250.26 75.375 249.727 75.375C249.193 75.375 248.785 75.4333 248.502 75.55C248.252 75.7667 248.127 76.125 248.127 76.625C248.127 77.1083 248.36 77.4833 248.827 77.75C249.31 78.0167 249.893 78.2333 250.577 78.4C251.26 78.55 251.943 78.7417 252.627 78.975C253.31 79.2083 253.885 79.6083 254.352 80.175C254.835 80.725 255.077 81.45 255.077 82.35C255.077 83.65 254.568 84.6333 253.552 85.3C252.552 85.95 251.218 86.275 249.552 86.275C247.885 86.275 246.293 85.8 244.777 84.85C244.843 83.85 245.218 82.925 245.902 82.075C247.552 83.6083 249.068 84.375 250.452 84.375ZM263.049 84.375C263.999 84.375 264.474 83.9167 264.474 83C264.474 82.15 263.666 81.5083 262.049 81.075C261.383 80.8917 260.716 80.6833 260.049 80.45C259.383 80.2167 258.816 79.8417 258.349 79.325C257.883 78.8083 257.649 78.15 257.649 77.35C257.649 76.2 258.166 75.3083 259.199 74.675C260.233 74.025 261.491 73.7 262.974 73.7C264.458 73.7 266.008 74.0583 267.624 74.775C267.541 75.5083 267.091 76.3917 266.274 77.425C265.608 76.7583 264.916 76.25 264.199 75.9C263.483 75.55 262.858 75.375 262.324 75.375C261.791 75.375 261.383 75.4333 261.099 75.55C260.849 75.7667 260.724 76.125 260.724 76.625C260.724 77.1083 260.958 77.4833 261.424 77.75C261.908 78.0167 262.491 78.2333 263.174 78.4C263.858 78.55 264.541 78.7417 265.224 78.975C265.908 79.2083 266.483 79.6083 266.949 80.175C267.433 80.725 267.674 81.45 267.674 82.35C267.674 83.65 267.166 84.6333 266.149 85.3C265.149 85.95 263.816 86.275 262.149 86.275C260.483 86.275 258.891 85.8 257.374 84.85C257.441 83.85 257.816 82.925 258.499 82.075C260.149 83.6083 261.666 84.375 263.049 84.375ZM277.197 81C276.597 80.7833 275.93 80.675 275.197 80.675C274.48 80.675 273.93 80.8083 273.547 81.075C273.297 81.3917 273.172 81.8083 273.172 82.325C273.172 83.625 273.739 84.275 274.872 84.275C275.805 84.275 276.58 83.8917 277.197 83.125V81ZM273.847 86.45C272.797 86.45 271.872 86.1333 271.072 85.5C270.272 84.8667 269.872 83.95 269.872 82.75C269.872 80.4333 271.564 79.275 274.947 79.275L277.172 79.375V77.85C277.172 76.9833 276.955 76.2833 276.522 75.75C276.089 75.2167 275.422 74.95 274.522 74.95C274.322 74.95 274.064 75.0583 273.747 75.275C273.43 75.475 273.164 75.6833 272.947 75.9C272.264 76.55 271.714 77.0833 271.297 77.5C270.464 76.5167 270.014 75.525 269.947 74.525C272.08 73.8583 273.88 73.525 275.347 73.525C276.814 73.525 278.039 73.8667 279.022 74.55C280.005 75.2333 280.497 76.3083 280.497 77.775V81.7C280.497 82.45 280.622 83.1667 280.872 83.85C281.122 84.5333 281.43 84.9917 281.797 85.225L281.847 85.775L278.272 86.525C278.005 86.025 277.755 85.325 277.522 84.425C277.089 84.8917 276.739 85.2417 276.472 85.475C276.205 85.6917 275.83 85.9083 275.347 86.125C274.88 86.3417 274.38 86.45 273.847 86.45Z" fill="#C1A27F"/>
<path d="M152.46 144.15C152.46 147.183 151.493 149.567 149.56 151.3C147.627 153.033 144.993 154.083 141.66 154.45C141.66 156.517 141.727 158.283 141.86 159.75L137.86 160.55L137.61 159.85C137.81 158.45 137.977 156.7 138.11 154.6C134.01 154.433 130.343 153.267 127.11 151.1C127.21 148.733 128.143 146.483 129.91 144.35C132.443 147.083 135.21 148.933 138.21 149.9V138.5C137.21 138.067 136.493 137.767 136.06 137.6C135.627 137.4 134.96 137.083 134.06 136.65C133.16 136.183 132.493 135.783 132.06 135.45C131.627 135.117 131.093 134.667 130.46 134.1C129.827 133.5 129.36 132.917 129.06 132.35C128.293 130.917 127.91 129.367 127.91 127.7C127.91 124.9 128.86 122.75 130.76 121.25C132.693 119.717 135.177 118.8 138.21 118.5C138.143 116.7 138.077 115.333 138.01 114.4L141.81 113.1L142.06 113.8C141.827 115.8 141.693 117.35 141.66 118.45C144.96 118.683 148.243 119.5 151.51 120.9C151.143 123.367 150.293 125.717 148.96 127.95C146.56 125.783 144.127 124.267 141.66 123.4V133C143.06 133.567 144.093 134 144.76 134.3C145.46 134.6 146.393 135.1 147.56 135.8C148.727 136.5 149.593 137.2 150.16 137.9C150.76 138.567 151.293 139.45 151.76 140.55C152.227 141.65 152.46 142.85 152.46 144.15ZM145.86 145.75C145.86 143.483 144.46 141.6 141.66 140.1V150.4C142.893 150.4 143.977 150.15 144.91 149.65C145.543 148.817 145.86 147.517 145.86 145.75ZM134.06 126.35C134.06 128.383 135.443 130.1 138.21 131.5V122.75C137.143 122.75 136.06 122.983 134.96 123.45C134.36 124.05 134.06 125.017 134.06 126.35ZM168.015 119L180.865 118.95L181.015 119.55C180.348 120.683 177.948 126.467 173.815 136.9C171.082 143.8 169.332 149.55 168.565 154.15H159.515L159.315 153.05C162.682 147.45 165.682 141.9 168.315 136.4C170.948 130.867 172.915 126.5 174.215 123.3C171.815 123.2 170.098 123.15 169.065 123.15C164.332 123.15 160.915 124.117 158.815 126.05H157.965L156.515 118.8C161.182 118.933 165.015 119 168.015 119ZM190.77 147.25C191.103 147.583 191.337 148.25 191.47 149.25C191.603 150.25 191.67 151.033 191.67 151.6C191.67 152.133 191.637 152.6 191.57 153L191.07 153.45C189.57 153.883 187.337 154.233 184.37 154.5L183.77 154.2C183.47 153.7 183.22 152.867 183.02 151.7C182.853 150.533 182.77 149.733 182.77 149.3C182.77 148.833 182.77 148.533 182.77 148.4L183.27 147.95C185.403 147.25 187.52 146.9 189.62 146.9C189.82 146.9 190.003 146.9 190.17 146.9L190.77 147.25ZM217.669 143.35C217.669 139.383 214.835 137.217 209.169 136.85L202.519 136.4L201.269 135.05C201.835 130.817 202.752 125.5 204.019 119.1L221.719 118.85L222.969 126.15H222.019C220.952 125.217 219.419 124.483 217.419 123.95C215.452 123.383 213.335 123.1 211.069 123.1H208.469C207.769 125.233 207.102 128.367 206.469 132.5C210.202 132.667 212.769 132.85 214.169 133.05C215.602 133.217 217.002 133.533 218.369 134C219.735 134.433 220.835 135 221.669 135.7C223.635 137.3 224.619 139.717 224.619 142.95C224.619 146.15 223.335 148.883 220.769 151.15C218.235 153.417 214.885 154.55 210.719 154.55C206.552 154.55 202.202 153.433 197.669 151.2C197.802 150.5 198.185 149.6 198.819 148.5C199.452 147.367 200.069 146.533 200.669 146C204.935 149.067 208.702 150.6 211.969 150.6C213.502 150.6 214.769 150.383 215.769 149.95C216.369 149.25 216.835 148.267 217.169 147C217.502 145.7 217.669 144.483 217.669 143.35ZM250.348 144.65C250.348 147.65 250.548 150.4 250.948 152.9V154H243.298V152.9C243.698 150.433 243.898 147.85 243.898 145.15V144.65C236.598 144.65 231.698 144.667 229.198 144.7L227.798 141.95C231.631 135.483 236.615 127.85 242.748 119.05L250.498 118.3C250.331 121.867 250.248 129.2 250.248 140.3L255.948 140L254.898 144.65H250.348ZM243.998 140.4C244.031 136.5 244.048 133.3 244.048 130.8C244.048 128.267 244.048 126.233 244.048 124.7C239.315 131.5 235.848 136.783 233.648 140.55C237.281 140.55 240.731 140.5 243.998 140.4Z" fill="#550000"/>
<g filter="url(#filter0_d_174_22)">
<rect x="5.5" y="1.5" width="369" height="282" rx="13.5" stroke="#550000" stroke-opacity="0.5" stroke-width="3" shape-rendering="crispEdges"/>
</g>
<path d="M354.998 253.266C359.486 259.594 356.053 266.842 354.392 269.67C354.149 270.065 353.822 270.403 353.434 270.659C353.047 270.915 352.608 271.083 352.148 271.151C348.894 271.712 340.793 272.34 336.44 266.012C332.153 260.043 332.333 249.54 332.714 244.536C332.73 244.163 332.833 243.799 333.016 243.474C333.199 243.149 333.457 242.872 333.768 242.666C334.079 242.46 334.435 242.331 334.806 242.29C335.177 242.248 335.552 242.295 335.901 242.427C340.726 243.818 350.779 247.296 354.998 253.266Z" stroke="#C1A27F" stroke-width="3" stroke-linecap="round" stroke-linejoin="round"/>
<path d="M339.873 251.179C345.013 257.236 349.525 263.8 353.338 270.769" stroke="#C1A27F" stroke-width="3" stroke-linecap="round" stroke-linejoin="round"/>
<defs>
<filter id="filter0_d_174_22" x="0" y="0" width="380" height="293" filterUnits="userSpaceOnUse" color-interpolation-filters="sRGB">
<feFlood flood-opacity="0" result="BackgroundImageFix"/>
<feColorMatrix in="SourceAlpha" type="matrix" values="0 0 0 0 0 0 0 0 0 0 0 0 0 0 0 0 0 0 127 0" result="hardAlpha"/>
<feOffset dy="4"/>
<feGaussianBlur stdDeviation="2"/>
<feComposite in2="hardAlpha" operator="out"/>
<feColorMatrix type="matrix" values="0 0 0 0 0 0 0 0 0 0 0 0 0 0 0 0 0 0 0.25 0"/>
<feBlend mode="normal" in2="BackgroundImageFix" result="effect1_dropShadow_174_22"/>
<feBlend mode="normal" in="SourceGraphic" in2="effect1_dropShadow_174_22" result="shape"/>
</filter>
</defs>
</svg>
