<svg width="380" height="293" viewBox="0 0 380 293" fill="none" xmlns="http://www.w3.org/2000/svg">
<path d="M119.971 86.275C117.471 86.275 115.546 85.4417 114.196 83.775C112.863 82.0917 112.196 79.875 112.196 77.125C112.196 74.3583 112.93 72.175 114.396 70.575C115.863 68.9583 117.771 68.15 120.121 68.15C122.488 68.15 124.263 68.9667 125.446 70.6C126.646 72.2333 127.246 74.375 127.246 77.025C127.246 79.6583 126.571 81.8583 125.221 83.625C123.871 85.3917 122.121 86.275 119.971 86.275ZM122.321 83.425C122.738 83.0083 123.063 82.2333 123.296 81.1C123.53 79.95 123.646 78.8167 123.646 77.7C123.646 76.5667 123.58 75.5833 123.446 74.75C123.33 73.9167 123.121 73.15 122.821 72.45C122.205 71 121.088 70.275 119.471 70.275C119.005 70.275 118.538 70.3417 118.071 70.475C117.621 70.6083 117.296 70.7667 117.096 70.95C116.73 71.4333 116.421 72.2167 116.171 73.3C115.921 74.3667 115.796 75.3583 115.796 76.275C115.796 77.175 115.838 77.9833 115.921 78.7C116.005 79.4 116.146 80.1 116.346 80.8C116.563 81.4833 116.838 82.0667 117.171 82.55C117.921 83.6333 118.971 84.175 120.321 84.175C120.605 84.175 120.955 84.1083 121.371 83.975C121.805 83.8417 122.121 83.6583 122.321 83.425ZM135.988 80.5C135.988 82.8 136.121 84.45 136.388 85.45V86H132.238V85.45C132.504 84.45 132.638 82.8 132.638 80.5V73.35C132.638 72.2167 132.613 71.5083 132.563 71.225C131.579 71.425 130.488 71.55 129.288 71.6L129.013 70.175C130.863 69.8583 132.388 69.3 133.588 68.5H136.113L135.988 71.45V80.5ZM145.384 82.625C145.551 82.7917 145.667 83.125 145.734 83.625C145.801 84.125 145.834 84.5167 145.834 84.8C145.834 85.0667 145.817 85.3 145.784 85.5L145.534 85.725C144.784 85.9417 143.667 86.1167 142.184 86.25L141.884 86.1C141.734 85.85 141.609 85.4333 141.509 84.85C141.426 84.2667 141.384 83.8667 141.384 83.65C141.384 83.4167 141.384 83.2667 141.384 83.2L141.634 82.975C142.701 82.625 143.759 82.45 144.809 82.45C144.909 82.45 145.001 82.45 145.084 82.45L145.384 82.625ZM158.445 86H155.02V85.45C155.286 84.45 155.42 82.5583 155.42 79.775V74.7C155.42 72.2167 155.311 70.3417 155.095 69.075V68.525L159.045 68.25L167.845 80.6V74.025C167.845 73.175 167.786 72.2417 167.67 71.225C167.553 70.1917 167.42 69.4667 167.27 69.05V68.5H170.795V69.05C170.695 69.4667 170.603 70.2833 170.52 71.5C170.436 72.7 170.395 73.775 170.395 74.725V80.675C170.395 81.6417 170.445 82.7 170.545 83.85C170.645 85 170.728 85.7 170.795 85.95L167.52 86.275L157.97 72.9V80.5C157.97 82.6 158.128 84.25 158.445 85.45V86ZM179.549 86.475C178.099 86.475 176.799 85.9333 175.649 84.85C174.499 83.7667 173.924 82.3083 173.924 80.475C173.924 78.625 174.533 77.0083 175.749 75.625C176.966 74.225 178.541 73.525 180.474 73.525C182.108 73.525 183.324 74.05 184.124 75.1C184.924 76.15 185.324 77.6 185.324 79.45L184.374 80.425H177.524C177.541 81.625 177.858 82.55 178.474 83.2C179.108 83.85 179.858 84.175 180.724 84.175C181.608 84.175 182.933 83.7167 184.699 82.8L185.324 83.75C185.008 84.05 184.649 84.3583 184.249 84.675C183.849 84.9917 183.174 85.375 182.224 85.825C181.291 86.2583 180.399 86.475 179.549 86.475ZM179.899 75.125C179.283 75.125 178.791 75.25 178.424 75.5C178.158 75.9167 177.949 76.4667 177.799 77.15C177.649 77.8333 177.566 78.4417 177.549 78.975L181.924 78.725C181.924 76.325 181.249 75.125 179.899 75.125ZM196.35 73.525C197.6 73.525 198.567 73.9167 199.25 74.7C199.934 75.4667 200.275 76.5833 200.275 78.05V81.225C200.275 82.875 200.525 84.2833 201.025 85.45V86H196.625V85.45C196.909 84.6667 197.05 83.5417 197.05 82.075V78.95C197.05 77.9833 196.934 77.275 196.7 76.825C196.467 76.3583 195.967 76.125 195.2 76.125C194.434 76.125 193.459 76.475 192.275 77.175V81.275C192.275 83.025 192.517 84.4167 193 85.45V86H188.625V85.45C188.909 84.6 189.05 83.4167 189.05 81.9V78.55C189.05 76.5667 188.55 75.325 187.55 74.825V74.275L191.6 73.5L191.875 73.975C192.009 74.375 192.1 74.9083 192.15 75.575C193 74.8917 193.734 74.3833 194.35 74.05C194.984 73.7 195.65 73.525 196.35 73.525ZM209.115 86.475C207.665 86.475 206.365 85.9333 205.215 84.85C204.065 83.7667 203.49 82.3083 203.49 80.475C203.49 78.625 204.098 77.0083 205.315 75.625C206.531 74.225 208.106 73.525 210.04 73.525C211.673 73.525 212.89 74.05 213.69 75.1C214.49 76.15 214.89 77.6 214.89 79.45L213.94 80.425H207.09C207.106 81.625 207.423 82.55 208.04 83.2C208.673 83.85 209.423 84.175 210.29 84.175C211.173 84.175 212.498 83.7167 214.265 82.8L214.89 83.75C214.573 84.05 214.215 84.3583 213.815 84.675C213.415 84.9917 212.74 85.375 211.79 85.825C210.856 86.2583 209.965 86.475 209.115 86.475ZM209.465 75.125C208.848 75.125 208.356 75.25 207.99 75.5C207.723 75.9167 207.515 76.4667 207.365 77.15C207.215 77.8333 207.131 78.4417 207.115 78.975L211.49 78.725C211.49 76.325 210.815 75.125 209.465 75.125ZM218.916 71.9C218.916 71.6667 218.899 71.45 218.866 71.25C218.649 70.6833 218.224 70.1417 217.591 69.625L217.616 69.225C217.916 68.925 218.291 68.65 218.741 68.4C219.191 68.1333 219.599 67.9583 219.966 67.875C220.199 67.9917 220.357 68.0917 220.441 68.175C220.774 68.5417 221.099 69.075 221.416 69.775C221.549 70.0917 221.616 70.4917 221.616 70.975C221.599 72.1583 220.899 73.675 219.516 75.525L217.916 75.1C218.582 73.8833 218.916 72.8167 218.916 71.9ZM227.655 74.05C227.655 74.4333 228.013 75.675 228.73 77.775L230.23 82.025C230.763 80.525 231.197 79.3417 231.53 78.475C231.847 77.6583 232.138 76.7667 232.405 75.8C232.055 75.05 231.797 74.6083 231.63 74.475V73.925L235.43 73.75V74.125C235.43 74.5917 235.797 75.8667 236.53 77.95L238.005 82.025C239.072 78.6917 239.688 76.725 239.855 76.125C240.038 75.5083 240.13 74.8333 240.13 74.1V73.85H243.53L243.505 74.425C243.055 74.7417 242.622 75.5583 242.205 76.875L239.605 84.875L239.28 86.225L236.38 86.275L235.93 84.825L233.755 79.25L231.73 84.9L231.455 86.225L228.63 86.275L228.18 84.825L224.905 76.75C224.672 76.1833 224.413 75.6917 224.13 75.275C223.863 74.8583 223.647 74.6083 223.48 74.525V73.975L227.655 73.675V74.05ZM250.277 86.475C248.827 86.475 247.527 85.9333 246.377 84.85C245.227 83.7667 244.652 82.3083 244.652 80.475C244.652 78.625 245.26 77.0083 246.477 75.625C247.693 74.225 249.268 73.525 251.202 73.525C252.835 73.525 254.052 74.05 254.852 75.1C255.652 76.15 256.052 77.6 256.052 79.45L255.102 80.425H248.252C248.268 81.625 248.585 82.55 249.202 83.2C249.835 83.85 250.585 84.175 251.452 84.175C252.335 84.175 253.66 83.7167 255.427 82.8L256.052 83.75C255.735 84.05 255.377 84.3583 254.977 84.675C254.577 84.9917 253.902 85.375 252.952 85.825C252.018 86.2583 251.127 86.475 250.277 86.475ZM250.627 75.125C250.01 75.125 249.518 75.25 249.152 75.5C248.885 75.9167 248.677 76.4667 248.527 77.15C248.377 77.8333 248.293 78.4417 248.277 78.975L252.652 78.725C252.652 76.325 251.977 75.125 250.627 75.125ZM263.778 86.475C262.328 86.475 261.028 85.9333 259.878 84.85C258.728 83.7667 258.153 82.3083 258.153 80.475C258.153 78.625 258.761 77.0083 259.978 75.625C261.194 74.225 262.769 73.525 264.703 73.525C266.336 73.525 267.553 74.05 268.353 75.1C269.153 76.15 269.553 77.6 269.553 79.45L268.603 80.425H261.753C261.769 81.625 262.086 82.55 262.703 83.2C263.336 83.85 264.086 84.175 264.953 84.175C265.836 84.175 267.161 83.7167 268.928 82.8L269.553 83.75C269.236 84.05 268.878 84.3583 268.478 84.675C268.078 84.9917 267.403 85.375 266.453 85.825C265.519 86.2583 264.628 86.475 263.778 86.475ZM264.128 75.125C263.511 75.125 263.019 75.25 262.653 75.5C262.386 75.9167 262.178 76.4667 262.028 77.15C261.878 77.8333 261.794 78.4417 261.778 78.975L266.153 78.725C266.153 76.325 265.478 75.125 264.128 75.125Z" fill="#C1A27F"/>
<path d="M59.096 189V180.208H61.924C62.89 180.208 63.6273 180.453 64.136 180.943C64.6493 181.428 64.906 182.089 64.906 182.924C64.906 183.75 64.6493 184.406 64.136 184.891C63.6273 185.372 62.89 185.612 61.924 185.612H60.202V189H59.096ZM60.202 184.66H61.924C62.5353 184.66 62.9973 184.504 63.31 184.191C63.6273 183.878 63.786 183.456 63.786 182.924C63.786 182.383 63.6273 181.951 63.31 181.629C62.9973 181.307 62.5353 181.146 61.924 181.146H60.202V184.66ZM67.4919 180.726C67.2679 180.726 67.0906 180.663 66.9599 180.537C66.8292 180.406 66.7639 180.236 66.7639 180.026C66.7639 179.821 66.8292 179.657 66.9599 179.536C67.0906 179.415 67.2679 179.354 67.4919 179.354C67.7159 179.354 67.8932 179.415 68.0239 179.536C68.1546 179.657 68.2199 179.821 68.2199 180.026C68.2199 180.236 68.1546 180.406 68.0239 180.537C67.8932 180.663 67.7159 180.726 67.4919 180.726ZM66.9459 189V182.294H68.0379V189H66.9459ZM73.3978 189.168C72.8612 189.168 72.3595 189.023 71.8928 188.734C71.4308 188.445 71.0575 188.036 70.7728 187.509C70.4882 186.982 70.3458 186.359 70.3458 185.64C70.3458 184.903 70.4882 184.273 70.7728 183.75C71.0575 183.227 71.4308 182.828 71.8928 182.553C72.3595 182.278 72.8612 182.14 73.3978 182.14C73.7758 182.14 74.1142 182.198 74.4128 182.315C74.7162 182.427 74.9798 182.583 75.2038 182.784C75.4278 182.985 75.6122 183.213 75.7568 183.47C75.9062 183.722 76.0158 183.988 76.0858 184.268L74.9658 184.366C74.8492 183.979 74.6532 183.673 74.3778 183.449C74.1072 183.22 73.7758 183.106 73.3838 183.106C73.0525 183.106 72.7398 183.202 72.4458 183.393C72.1565 183.58 71.9208 183.862 71.7388 184.24C71.5568 184.613 71.4658 185.08 71.4658 185.64C71.4658 186.158 71.5475 186.608 71.7108 186.991C71.8788 187.369 72.1075 187.663 72.3968 187.873C72.6862 188.083 73.0152 188.188 73.3838 188.188C73.9018 188.188 74.2938 188.062 74.5598 187.81C74.8305 187.553 74.9658 187.199 74.9658 186.746H76.0858C76.0858 187.213 75.9762 187.628 75.7568 187.992C75.5375 188.356 75.2248 188.643 74.8188 188.853C74.4175 189.063 73.9438 189.168 73.3978 189.168ZM78.2646 189V179.452H79.3566V189H78.2646ZM79.1886 185.164L82.6046 182.308H84.1306L79.1886 186.326V185.164ZM82.9406 189L79.7626 184.772L80.8686 184.576L84.2846 189H82.9406ZM93.6195 189L93.4795 187.53V184.66C93.4795 184.058 93.3512 183.626 93.0945 183.365C92.8379 183.099 92.4529 182.966 91.9395 182.966C91.6502 182.966 91.3865 183.008 91.1485 183.092C90.9152 183.176 90.7285 183.307 90.5885 183.484C90.4532 183.657 90.3855 183.881 90.3855 184.156H89.1675C89.1675 183.671 89.2865 183.281 89.5245 182.987C89.7625 182.688 90.0892 182.474 90.5045 182.343C90.9245 182.208 91.4029 182.14 91.9395 182.14C92.4529 182.14 92.9079 182.226 93.3045 182.399C93.7012 182.572 94.0115 182.847 94.2355 183.225C94.4595 183.598 94.5715 184.086 94.5715 184.688V189H93.6195ZM91.3375 189.168C90.7869 189.168 90.3319 189.07 89.9725 188.874C89.6132 188.678 89.3449 188.424 89.1675 188.111C88.9902 187.798 88.9015 187.469 88.9015 187.124C88.9015 186.671 89.0135 186.303 89.2375 186.018C89.4662 185.733 89.7765 185.526 90.1685 185.395C90.5605 185.26 91.0015 185.192 91.4915 185.192C91.8415 185.192 92.1915 185.227 92.5415 185.297C92.8962 185.367 93.2415 185.463 93.5775 185.584V186.27C93.2975 186.158 92.9802 186.069 92.6255 186.004C92.2755 185.939 91.9535 185.906 91.6595 185.906C91.2115 185.906 90.8335 185.999 90.5255 186.186C90.2175 186.368 90.0635 186.681 90.0635 187.124C90.0635 187.451 90.1802 187.731 90.4135 187.964C90.6515 188.197 91.0295 188.314 91.5475 188.314C91.9115 188.314 92.2382 188.23 92.5275 188.062C92.8215 187.889 93.0525 187.675 93.2205 187.418C93.3932 187.161 93.4795 186.905 93.4795 186.648H93.7455C93.7455 187.096 93.6475 187.511 93.4515 187.894C93.2602 188.277 92.9849 188.585 92.6255 188.818C92.2662 189.051 91.8369 189.168 91.3375 189.168ZM101.946 189V185.066C101.946 184.427 101.792 183.941 101.484 183.61C101.181 183.274 100.766 183.106 100.238 183.106C99.8371 183.106 99.4895 183.216 99.1955 183.435C98.9015 183.654 98.6751 183.969 98.5165 184.38C98.3578 184.786 98.2785 185.271 98.2785 185.836H97.8585C97.8585 185.057 97.9611 184.392 98.1665 183.841C98.3718 183.29 98.6705 182.87 99.0625 182.581C99.4591 182.287 99.9398 182.14 100.504 182.14C101.032 182.14 101.482 182.259 101.855 182.497C102.233 182.73 102.523 183.066 102.723 183.505C102.924 183.944 103.024 184.464 103.024 185.066V189H101.946ZM97.1865 189V182.308H98.1245L98.2785 183.848V189H97.1865ZM104.53 182.308H105.748L107.932 188.048H107.68L109.374 182.308H110.494L107.974 190.344C107.764 191.016 107.484 191.534 107.134 191.898C106.784 192.262 106.336 192.444 105.79 192.444C105.496 192.444 105.216 192.402 104.95 192.318C104.688 192.234 104.418 192.113 104.138 191.954V190.946C104.385 191.142 104.623 191.282 104.852 191.366C105.085 191.45 105.328 191.492 105.58 191.492C105.86 191.492 106.093 191.403 106.28 191.226C106.471 191.049 106.63 190.82 106.756 190.54C106.882 190.265 106.989 189.975 107.078 189.672L107.274 189L104.53 182.308ZM115.843 189V181.272C115.843 180.829 115.927 180.467 116.095 180.187C116.268 179.902 116.497 179.692 116.781 179.557C117.071 179.422 117.393 179.354 117.747 179.354C117.939 179.354 118.132 179.368 118.328 179.396C118.529 179.424 118.727 179.466 118.923 179.522L118.713 180.39C118.573 180.334 118.433 180.292 118.293 180.264C118.158 180.236 118.027 180.222 117.901 180.222C117.752 180.222 117.603 180.25 117.453 180.306C117.304 180.362 117.18 180.467 117.082 180.621C116.984 180.775 116.935 180.997 116.935 181.286V189H115.843ZM114.751 183.064V182.308H118.321V183.064H114.751ZM120.89 180.726C120.666 180.726 120.489 180.663 120.358 180.537C120.228 180.406 120.162 180.236 120.162 180.026C120.162 179.821 120.228 179.657 120.358 179.536C120.489 179.415 120.666 179.354 120.89 179.354C121.114 179.354 121.292 179.415 121.422 179.536C121.553 179.657 121.618 179.821 121.618 180.026C121.618 180.236 121.553 180.406 121.422 180.537C121.292 180.663 121.114 180.726 120.89 180.726ZM120.344 189V182.294H121.436V189H120.344ZM123.286 182.308H124.532L126.632 188.062H126.478L128.578 182.308H129.824L127.15 189H125.96L123.286 182.308ZM133.813 189.168C133.235 189.168 132.717 189.021 132.259 188.727C131.807 188.428 131.447 188.015 131.181 187.488C130.92 186.961 130.789 186.354 130.789 185.668C130.789 184.935 130.92 184.305 131.181 183.778C131.443 183.251 131.8 182.847 132.252 182.567C132.71 182.282 133.23 182.14 133.813 182.14C134.322 182.14 134.756 182.243 135.115 182.448C135.475 182.653 135.764 182.931 135.983 183.281C136.203 183.631 136.354 184.028 136.438 184.471C136.527 184.91 136.553 185.365 136.515 185.836H131.671V185.164H135.794L135.472 185.374C135.486 185.099 135.47 184.823 135.423 184.548C135.381 184.273 135.3 184.021 135.178 183.792C135.057 183.559 134.887 183.372 134.667 183.232C134.448 183.092 134.168 183.022 133.827 183.022C133.398 183.022 133.039 183.132 132.749 183.351C132.46 183.57 132.243 183.86 132.098 184.219C131.954 184.574 131.881 184.959 131.881 185.374V185.822C131.881 186.289 131.951 186.706 132.091 187.075C132.236 187.444 132.451 187.735 132.735 187.95C133.02 188.165 133.379 188.272 133.813 188.272C134.247 188.272 134.604 188.167 134.884 187.957C135.164 187.747 135.335 187.437 135.395 187.026H136.529C136.459 187.469 136.301 187.852 136.053 188.174C135.806 188.491 135.491 188.736 135.108 188.909C134.726 189.082 134.294 189.168 133.813 189.168ZM142.367 189V181.272C142.367 180.829 142.451 180.467 142.619 180.187C142.792 179.902 143.02 179.692 143.305 179.557C143.594 179.422 143.916 179.354 144.271 179.354C144.462 179.354 144.656 179.368 144.852 179.396C145.053 179.424 145.251 179.466 145.447 179.522L145.237 180.39C145.097 180.334 144.957 180.292 144.817 180.264C144.682 180.236 144.551 180.222 144.425 180.222C144.276 180.222 144.126 180.25 143.977 180.306C143.828 180.362 143.704 180.467 143.606 180.621C143.508 180.775 143.459 180.997 143.459 181.286V189H142.367ZM141.275 183.064V182.308H144.845V183.064H141.275ZM146.802 189V182.294H147.894V189H146.802ZM147.558 185.976C147.558 185.127 147.639 184.422 147.803 183.862C147.966 183.297 148.204 182.877 148.517 182.602C148.834 182.322 149.219 182.182 149.672 182.182C149.821 182.182 149.956 182.194 150.078 182.217C150.204 182.236 150.33 182.266 150.456 182.308L150.386 183.386C150.255 183.344 150.113 183.309 149.959 183.281C149.805 183.248 149.667 183.232 149.546 183.232C149.149 183.232 148.829 183.346 148.587 183.575C148.344 183.799 148.167 184.116 148.055 184.527C147.947 184.938 147.894 185.421 147.894 185.976H147.558ZM154.282 189.168C153.68 189.168 153.144 189.035 152.672 188.769C152.206 188.503 151.837 188.109 151.566 187.586C151.296 187.063 151.16 186.419 151.16 185.654C151.16 184.884 151.296 184.24 151.566 183.722C151.837 183.199 152.206 182.805 152.672 182.539C153.144 182.273 153.68 182.14 154.282 182.14C154.88 182.14 155.412 182.273 155.878 182.539C156.35 182.805 156.718 183.199 156.984 183.722C157.255 184.24 157.39 184.884 157.39 185.654C157.39 186.419 157.255 187.063 156.984 187.586C156.718 188.109 156.35 188.503 155.878 188.769C155.412 189.035 154.88 189.168 154.282 189.168ZM154.254 188.216C154.688 188.216 155.057 188.113 155.36 187.908C155.664 187.698 155.892 187.402 156.046 187.019C156.205 186.636 156.284 186.181 156.284 185.654C156.284 184.856 156.119 184.228 155.787 183.771C155.456 183.309 154.964 183.078 154.31 183.078C153.872 183.078 153.501 183.183 153.197 183.393C152.899 183.598 152.67 183.895 152.511 184.282C152.357 184.665 152.28 185.122 152.28 185.654C152.28 186.443 152.446 187.068 152.777 187.53C153.113 187.987 153.606 188.216 154.254 188.216ZM168.925 189V185.066C168.925 184.427 168.771 183.941 168.463 183.61C168.159 183.274 167.749 183.106 167.231 183.106C166.624 183.106 166.16 183.342 165.838 183.813C165.516 184.28 165.355 184.926 165.355 185.752H164.851C164.851 185.15 164.909 184.623 165.026 184.17C165.147 183.717 165.322 183.342 165.551 183.043C165.779 182.74 166.057 182.513 166.384 182.364C166.71 182.215 167.081 182.14 167.497 182.14C168.024 182.14 168.474 182.259 168.848 182.497C169.226 182.73 169.515 183.066 169.716 183.505C169.916 183.944 170.017 184.464 170.017 185.066V189H168.925ZM159.517 189V182.308H160.455L160.581 183.652C160.791 183.167 161.085 182.793 161.463 182.532C161.845 182.271 162.303 182.14 162.835 182.14C163.362 182.14 163.812 182.259 164.186 182.497C164.564 182.73 164.853 183.066 165.054 183.505C165.254 183.944 165.355 184.464 165.355 185.066V189H164.277V185.066C164.277 184.427 164.123 183.941 163.815 183.61C163.511 183.274 163.096 183.106 162.569 183.106C162.167 183.106 161.82 183.216 161.526 183.435C161.232 183.654 161.005 183.969 160.847 184.38C160.688 184.786 160.609 185.271 160.609 185.836V189H159.517ZM178.358 189.168C177.756 189.168 177.22 189.035 176.748 188.769C176.282 188.503 175.913 188.109 175.642 187.586C175.372 187.063 175.236 186.419 175.236 185.654C175.236 184.884 175.372 184.24 175.642 183.722C175.913 183.199 176.282 182.805 176.748 182.539C177.22 182.273 177.756 182.14 178.358 182.14C178.956 182.14 179.488 182.273 179.954 182.539C180.426 182.805 180.794 183.199 181.06 183.722C181.331 184.24 181.466 184.884 181.466 185.654C181.466 186.419 181.331 187.063 181.06 187.586C180.794 188.109 180.426 188.503 179.954 188.769C179.488 189.035 178.956 189.168 178.358 189.168ZM178.33 188.216C178.764 188.216 179.133 188.113 179.436 187.908C179.74 187.698 179.968 187.402 180.122 187.019C180.281 186.636 180.36 186.181 180.36 185.654C180.36 184.856 180.195 184.228 179.863 183.771C179.532 183.309 179.04 183.078 178.386 183.078C177.948 183.078 177.577 183.183 177.273 183.393C176.975 183.598 176.746 183.895 176.587 184.282C176.433 184.665 176.356 185.122 176.356 185.654C176.356 186.443 176.522 187.068 176.853 187.53C177.189 187.987 177.682 188.216 178.33 188.216ZM188.143 182.294H189.235V189H188.143V182.294ZM183.397 182.294H184.489V186.466C184.489 187.026 184.624 187.451 184.895 187.74C185.17 188.029 185.562 188.174 186.071 188.174C186.491 188.174 186.855 188.062 187.163 187.838C187.475 187.614 187.716 187.306 187.884 186.914C188.056 186.517 188.143 186.065 188.143 185.556H188.549C188.549 186.307 188.439 186.949 188.22 187.481C188.005 188.013 187.699 188.421 187.303 188.706C186.911 188.986 186.449 189.126 185.917 189.126C185.413 189.126 184.972 189.033 184.594 188.846C184.216 188.659 183.922 188.377 183.712 187.999C183.502 187.616 183.397 187.133 183.397 186.55V182.294ZM192.069 189V182.294H193.161V189H192.069ZM192.825 185.976C192.825 185.127 192.907 184.422 193.07 183.862C193.234 183.297 193.472 182.877 193.784 182.602C194.102 182.322 194.487 182.182 194.939 182.182C195.089 182.182 195.224 182.194 195.345 182.217C195.471 182.236 195.597 182.266 195.723 182.308L195.653 183.386C195.523 183.344 195.38 183.309 195.226 183.281C195.072 183.248 194.935 183.232 194.813 183.232C194.417 183.232 194.097 183.346 193.854 183.575C193.612 183.799 193.434 184.116 193.322 184.527C193.215 184.938 193.161 185.421 193.161 185.976H192.825ZM199.288 182.308H200.534L202.634 188.062H202.48L204.58 182.308H205.826L203.152 189H201.962L199.288 182.308ZM209.815 189.168C209.236 189.168 208.718 189.021 208.261 188.727C207.808 188.428 207.449 188.015 207.183 187.488C206.922 186.961 206.791 186.354 206.791 185.668C206.791 184.935 206.922 184.305 207.183 183.778C207.444 183.251 207.801 182.847 208.254 182.567C208.711 182.282 209.232 182.14 209.815 182.14C210.324 182.14 210.758 182.243 211.117 182.448C211.476 182.653 211.766 182.931 211.985 183.281C212.204 183.631 212.356 184.028 212.44 184.471C212.529 184.91 212.554 185.365 212.517 185.836H207.673V185.164H211.796L211.474 185.374C211.488 185.099 211.472 184.823 211.425 184.548C211.383 184.273 211.301 184.021 211.18 183.792C211.059 183.559 210.888 183.372 210.669 183.232C210.45 183.092 210.17 183.022 209.829 183.022C209.4 183.022 209.04 183.132 208.751 183.351C208.462 183.57 208.245 183.86 208.1 184.219C207.955 184.574 207.883 184.959 207.883 185.374V185.822C207.883 186.289 207.953 186.706 208.093 187.075C208.238 187.444 208.452 187.735 208.737 187.95C209.022 188.165 209.381 188.272 209.815 188.272C210.249 188.272 210.606 188.167 210.886 187.957C211.166 187.747 211.336 187.437 211.397 187.026H212.531C212.461 187.469 212.302 187.852 212.055 188.174C211.808 188.491 211.493 188.736 211.11 188.909C210.727 189.082 210.296 189.168 209.815 189.168ZM217.049 192.444C216.363 192.444 215.768 192.346 215.264 192.15C214.76 191.959 214.368 191.7 214.088 191.373C213.812 191.051 213.675 190.694 213.675 190.302C213.675 189.784 213.864 189.387 214.242 189.112C214.624 188.841 215.117 188.706 215.719 188.706L216.321 189.084C215.817 189.084 215.427 189.189 215.152 189.399C214.876 189.609 214.739 189.896 214.739 190.26C214.739 190.624 214.935 190.932 215.327 191.184C215.719 191.436 216.293 191.562 217.049 191.562C217.609 191.562 218.099 191.48 218.519 191.317C218.943 191.158 219.272 190.948 219.506 190.687C219.744 190.43 219.863 190.153 219.863 189.854C219.863 189.644 219.786 189.462 219.632 189.308C219.478 189.159 219.242 189.084 218.925 189.084H216.321C215.868 189.084 215.476 189.016 215.145 188.881C214.818 188.741 214.566 188.559 214.389 188.335C214.211 188.111 214.123 187.866 214.123 187.6C214.123 187.32 214.202 187.082 214.361 186.886C214.519 186.69 214.725 186.541 214.977 186.438C215.233 186.335 215.509 186.284 215.803 186.284L216.013 186.69C215.873 186.69 215.73 186.723 215.586 186.788C215.446 186.849 215.327 186.942 215.229 187.068C215.135 187.189 215.089 187.343 215.089 187.53C215.089 187.745 215.177 187.924 215.355 188.069C215.532 188.214 215.854 188.286 216.321 188.286H218.925C219.555 188.286 220.049 188.419 220.409 188.685C220.773 188.951 220.955 189.322 220.955 189.798C220.955 190.237 220.798 190.657 220.486 191.058C220.173 191.464 219.725 191.795 219.142 192.052C218.558 192.313 217.861 192.444 217.049 192.444ZM217.245 187.04C216.731 187.04 216.267 186.937 215.852 186.732C215.441 186.527 215.114 186.24 214.872 185.871C214.634 185.502 214.515 185.075 214.515 184.59C214.515 184.1 214.634 183.671 214.872 183.302C215.114 182.933 215.441 182.649 215.852 182.448C216.267 182.243 216.731 182.14 217.245 182.14C217.744 182.14 218.197 182.243 218.603 182.448C219.013 182.649 219.34 182.933 219.583 183.302C219.825 183.671 219.947 184.1 219.947 184.59C219.947 185.075 219.825 185.502 219.583 185.871C219.34 186.24 219.013 186.527 218.603 186.732C218.197 186.937 217.744 187.04 217.245 187.04ZM217.245 186.256C217.758 186.256 218.157 186.097 218.442 185.78C218.726 185.463 218.869 185.066 218.869 184.59C218.869 184.1 218.726 183.703 218.442 183.4C218.157 183.092 217.758 182.938 217.245 182.938C216.736 182.938 216.335 183.092 216.041 183.4C215.751 183.703 215.607 184.1 215.607 184.59C215.607 185.066 215.751 185.463 216.041 185.78C216.335 186.097 216.736 186.256 217.245 186.256ZM219.443 183.204L218.925 182.994C218.925 182.602 219.002 182.259 219.156 181.965C219.31 181.666 219.529 181.435 219.814 181.272C220.098 181.104 220.437 181.02 220.829 181.02L220.745 182.098C220.325 182.098 220.003 182.189 219.779 182.371C219.555 182.548 219.443 182.826 219.443 183.204ZM224.909 189.168C224.33 189.168 223.812 189.021 223.355 188.727C222.902 188.428 222.543 188.015 222.277 187.488C222.016 186.961 221.885 186.354 221.885 185.668C221.885 184.935 222.016 184.305 222.277 183.778C222.538 183.251 222.895 182.847 223.348 182.567C223.805 182.282 224.326 182.14 224.909 182.14C225.418 182.14 225.852 182.243 226.211 182.448C226.57 182.653 226.86 182.931 227.079 183.281C227.298 183.631 227.45 184.028 227.534 184.471C227.623 184.91 227.648 185.365 227.611 185.836H222.767V185.164H226.89L226.568 185.374C226.582 185.099 226.566 184.823 226.519 184.548C226.477 184.273 226.395 184.021 226.274 183.792C226.153 183.559 225.982 183.372 225.763 183.232C225.544 183.092 225.264 183.022 224.923 183.022C224.494 183.022 224.134 183.132 223.845 183.351C223.556 183.57 223.339 183.86 223.194 184.219C223.049 184.574 222.977 184.959 222.977 185.374V185.822C222.977 186.289 223.047 186.706 223.187 187.075C223.332 187.444 223.546 187.735 223.831 187.95C224.116 188.165 224.475 188.272 224.909 188.272C225.343 188.272 225.7 188.167 225.98 187.957C226.26 187.747 226.43 187.437 226.491 187.026H227.625C227.555 187.469 227.396 187.852 227.149 188.174C226.902 188.491 226.587 188.736 226.204 188.909C225.821 189.082 225.39 189.168 224.909 189.168ZM231.834 189.168C231.47 189.168 231.144 189.098 230.854 188.958C230.565 188.818 230.336 188.608 230.168 188.328C230 188.048 229.916 187.698 229.916 187.278V180.446H230.994V187.25C230.994 187.941 231.316 188.286 231.96 188.286C232.152 188.286 232.336 188.265 232.513 188.223C232.695 188.181 232.898 188.118 233.122 188.034L233.276 188.818C233.038 188.921 232.8 189.005 232.562 189.07C232.329 189.135 232.086 189.168 231.834 189.168ZM228.838 183.064V182.308H233.108V183.064H228.838ZM239.184 189L239.044 187.53V184.66C239.044 184.058 238.916 183.626 238.659 183.365C238.402 183.099 238.017 182.966 237.504 182.966C237.215 182.966 236.951 183.008 236.713 183.092C236.48 183.176 236.293 183.307 236.153 183.484C236.018 183.657 235.95 183.881 235.95 184.156H234.732C234.732 183.671 234.851 183.281 235.089 182.987C235.327 182.688 235.654 182.474 236.069 182.343C236.489 182.208 236.967 182.14 237.504 182.14C238.017 182.14 238.472 182.226 238.869 182.399C239.266 182.572 239.576 182.847 239.8 183.225C240.024 183.598 240.136 184.086 240.136 184.688V189H239.184ZM236.902 189.168C236.351 189.168 235.896 189.07 235.537 188.874C235.178 188.678 234.909 188.424 234.732 188.111C234.555 187.798 234.466 187.469 234.466 187.124C234.466 186.671 234.578 186.303 234.802 186.018C235.031 185.733 235.341 185.526 235.733 185.395C236.125 185.26 236.566 185.192 237.056 185.192C237.406 185.192 237.756 185.227 238.106 185.297C238.461 185.367 238.806 185.463 239.142 185.584V186.27C238.862 186.158 238.545 186.069 238.19 186.004C237.84 185.939 237.518 185.906 237.224 185.906C236.776 185.906 236.398 185.999 236.09 186.186C235.782 186.368 235.628 186.681 235.628 187.124C235.628 187.451 235.745 187.731 235.978 187.964C236.216 188.197 236.594 188.314 237.112 188.314C237.476 188.314 237.803 188.23 238.092 188.062C238.386 187.889 238.617 187.675 238.785 187.418C238.958 187.161 239.044 186.905 239.044 186.648H239.31C239.31 187.096 239.212 187.511 239.016 187.894C238.825 188.277 238.549 188.585 238.19 188.818C237.831 189.051 237.401 189.168 236.902 189.168ZM242.751 189V182.294H243.843V189H242.751ZM243.507 185.976C243.507 185.127 243.589 184.422 243.752 183.862C243.915 183.297 244.153 182.877 244.466 182.602C244.783 182.322 245.168 182.182 245.621 182.182C245.77 182.182 245.906 182.194 246.027 182.217C246.153 182.236 246.279 182.266 246.405 182.308L246.335 183.386C246.204 183.344 246.062 183.309 245.908 183.281C245.754 183.248 245.616 183.232 245.495 183.232C245.098 183.232 244.779 183.346 244.536 183.575C244.293 183.799 244.116 184.116 244.004 184.527C243.897 184.938 243.843 185.421 243.843 185.976H243.507ZM248.426 180.726C248.202 180.726 248.024 180.663 247.894 180.537C247.763 180.406 247.698 180.236 247.698 180.026C247.698 179.821 247.763 179.657 247.894 179.536C248.024 179.415 248.202 179.354 248.426 179.354C248.65 179.354 248.827 179.415 248.958 179.536C249.088 179.657 249.154 179.821 249.154 180.026C249.154 180.236 249.088 180.406 248.958 180.537C248.827 180.663 248.65 180.726 248.426 180.726ZM247.88 189V182.294H248.972V189H247.88ZM256.123 189L255.983 187.53V184.66C255.983 184.058 255.855 183.626 255.598 183.365C255.342 183.099 254.957 182.966 254.443 182.966C254.154 182.966 253.89 183.008 253.652 183.092C253.419 183.176 253.232 183.307 253.092 183.484C252.957 183.657 252.889 183.881 252.889 184.156H251.671C251.671 183.671 251.79 183.281 252.028 182.987C252.266 182.688 252.593 182.474 253.008 182.343C253.428 182.208 253.907 182.14 254.443 182.14C254.957 182.14 255.412 182.226 255.808 182.399C256.205 182.572 256.515 182.847 256.739 183.225C256.963 183.598 257.075 184.086 257.075 184.688V189H256.123ZM253.841 189.168C253.291 189.168 252.836 189.07 252.476 188.874C252.117 188.678 251.849 188.424 251.671 188.111C251.494 187.798 251.405 187.469 251.405 187.124C251.405 186.671 251.517 186.303 251.741 186.018C251.97 185.733 252.28 185.526 252.672 185.395C253.064 185.26 253.505 185.192 253.995 185.192C254.345 185.192 254.695 185.227 255.045 185.297C255.4 185.367 255.745 185.463 256.081 185.584V186.27C255.801 186.158 255.484 186.069 255.129 186.004C254.779 185.939 254.457 185.906 254.163 185.906C253.715 185.906 253.337 185.999 253.029 186.186C252.721 186.368 252.567 186.681 252.567 187.124C252.567 187.451 252.684 187.731 252.917 187.964C253.155 188.197 253.533 188.314 254.051 188.314C254.415 188.314 254.742 188.23 255.031 188.062C255.325 187.889 255.556 187.675 255.724 187.418C255.897 187.161 255.983 186.905 255.983 186.648H256.249C256.249 187.096 256.151 187.511 255.955 187.894C255.764 188.277 255.489 188.585 255.129 188.818C254.77 189.051 254.341 189.168 253.841 189.168ZM264.45 189V185.066C264.45 184.427 264.296 183.941 263.988 183.61C263.685 183.274 263.27 183.106 262.742 183.106C262.341 183.106 261.993 183.216 261.699 183.435C261.405 183.654 261.179 183.969 261.02 184.38C260.862 184.786 260.782 185.271 260.782 185.836H260.362C260.362 185.057 260.465 184.392 260.67 183.841C260.876 183.29 261.174 182.87 261.566 182.581C261.963 182.287 262.444 182.14 263.008 182.14C263.536 182.14 263.986 182.259 264.359 182.497C264.737 182.73 265.027 183.066 265.227 183.505C265.428 183.944 265.528 184.464 265.528 185.066V189H264.45ZM259.69 189V182.308H260.628L260.782 183.848V189H259.69ZM273.884 189.168C273.282 189.168 272.745 189.035 272.274 188.769C271.807 188.503 271.439 188.109 271.168 187.586C270.897 187.063 270.762 186.419 270.762 185.654C270.762 184.884 270.897 184.24 271.168 183.722C271.439 183.199 271.807 182.805 272.274 182.539C272.745 182.273 273.282 182.14 273.884 182.14C274.481 182.14 275.013 182.273 275.48 182.539C275.951 182.805 276.32 183.199 276.586 183.722C276.857 184.24 276.992 184.884 276.992 185.654C276.992 186.419 276.857 187.063 276.586 187.586C276.32 188.109 275.951 188.503 275.48 188.769C275.013 189.035 274.481 189.168 273.884 189.168ZM273.856 188.216C274.29 188.216 274.659 188.113 274.962 187.908C275.265 187.698 275.494 187.402 275.648 187.019C275.807 186.636 275.886 186.181 275.886 185.654C275.886 184.856 275.72 184.228 275.389 183.771C275.058 183.309 274.565 183.078 273.912 183.078C273.473 183.078 273.102 183.183 272.799 183.393C272.5 183.598 272.272 183.895 272.113 184.282C271.959 184.665 271.882 185.122 271.882 185.654C271.882 186.443 272.048 187.068 272.379 187.53C272.715 187.987 273.207 188.216 273.856 188.216ZM282.156 189.168C281.666 189.168 281.239 189.056 280.875 188.832C280.516 188.608 280.238 188.281 280.042 187.852C279.846 187.418 279.748 186.891 279.748 186.27H280.21C280.21 186.685 280.296 187.035 280.469 187.32C280.642 187.605 280.866 187.822 281.141 187.971C281.421 188.116 281.717 188.188 282.03 188.188C282.366 188.188 282.688 188.092 282.996 187.901C283.304 187.705 283.556 187.418 283.752 187.04C283.948 186.662 284.046 186.195 284.046 185.64C284.046 185.108 283.955 184.653 283.773 184.275C283.596 183.897 283.355 183.608 283.052 183.407C282.749 183.206 282.413 183.106 282.044 183.106C281.727 183.106 281.428 183.183 281.148 183.337C280.868 183.491 280.642 183.717 280.469 184.016C280.296 184.31 280.21 184.674 280.21 185.108H279.748C279.748 184.459 279.855 183.916 280.07 183.477C280.285 183.034 280.576 182.7 280.945 182.476C281.314 182.252 281.727 182.14 282.184 182.14C282.707 182.14 283.194 182.28 283.647 182.56C284.1 182.84 284.466 183.241 284.746 183.764C285.026 184.287 285.166 184.912 285.166 185.64C285.166 186.377 285.024 187.01 284.739 187.537C284.459 188.064 284.09 188.468 283.633 188.748C283.176 189.028 282.683 189.168 282.156 189.168ZM279.118 192.29V182.308H280.028L280.21 183.876V192.29H279.118ZM289.366 189.168C289.002 189.168 288.675 189.098 288.386 188.958C288.096 188.818 287.868 188.608 287.7 188.328C287.532 188.048 287.448 187.698 287.448 187.278V180.446H288.526V187.25C288.526 187.941 288.848 188.286 289.492 188.286C289.683 188.286 289.867 188.265 290.045 188.223C290.227 188.181 290.43 188.118 290.654 188.034L290.808 188.818C290.57 188.921 290.332 189.005 290.094 189.07C289.86 189.135 289.618 189.168 289.366 189.168ZM286.37 183.064V182.308H290.64V183.064H286.37ZM293.187 180.726C292.963 180.726 292.786 180.663 292.655 180.537C292.525 180.406 292.459 180.236 292.459 180.026C292.459 179.821 292.525 179.657 292.655 179.536C292.786 179.415 292.963 179.354 293.187 179.354C293.411 179.354 293.589 179.415 293.719 179.536C293.85 179.657 293.915 179.821 293.915 180.026C293.915 180.236 293.85 180.406 293.719 180.537C293.589 180.663 293.411 180.726 293.187 180.726ZM292.641 189V182.294H293.733V189H292.641ZM299.163 189.168C298.561 189.168 298.024 189.035 297.553 188.769C297.086 188.503 296.718 188.109 296.447 187.586C296.176 187.063 296.041 186.419 296.041 185.654C296.041 184.884 296.176 184.24 296.447 183.722C296.718 183.199 297.086 182.805 297.553 182.539C298.024 182.273 298.561 182.14 299.163 182.14C299.76 182.14 300.292 182.273 300.759 182.539C301.23 182.805 301.599 183.199 301.865 183.722C302.136 184.24 302.271 184.884 302.271 185.654C302.271 186.419 302.136 187.063 301.865 187.586C301.599 188.109 301.23 188.503 300.759 188.769C300.292 189.035 299.76 189.168 299.163 189.168ZM299.135 188.216C299.569 188.216 299.938 188.113 300.241 187.908C300.544 187.698 300.773 187.402 300.927 187.019C301.086 186.636 301.165 186.181 301.165 185.654C301.165 184.856 300.999 184.228 300.668 183.771C300.337 183.309 299.844 183.078 299.191 183.078C298.752 183.078 298.381 183.183 298.078 183.393C297.779 183.598 297.551 183.895 297.392 184.282C297.238 184.665 297.161 185.122 297.161 185.654C297.161 186.443 297.327 187.068 297.658 187.53C297.994 187.987 298.486 188.216 299.135 188.216ZM309.157 189V185.066C309.157 184.427 309.003 183.941 308.695 183.61C308.392 183.274 307.977 183.106 307.449 183.106C307.048 183.106 306.7 183.216 306.406 183.435C306.112 183.654 305.886 183.969 305.727 184.38C305.569 184.786 305.489 185.271 305.489 185.836H305.069C305.069 185.057 305.172 184.392 305.377 183.841C305.583 183.29 305.881 182.87 306.273 182.581C306.67 182.287 307.151 182.14 307.715 182.14C308.243 182.14 308.693 182.259 309.066 182.497C309.444 182.73 309.734 183.066 309.934 183.505C310.135 183.944 310.235 184.464 310.235 185.066V189H309.157ZM304.397 189V182.308H305.335L305.489 183.848V189H304.397ZM315.255 189.168C314.606 189.168 314.065 189.077 313.631 188.895C313.197 188.708 312.868 188.454 312.644 188.132C312.42 187.805 312.301 187.432 312.287 187.012H313.337C313.36 187.437 313.53 187.756 313.848 187.971C314.17 188.181 314.606 188.286 315.157 188.286C315.446 188.286 315.712 188.239 315.955 188.146C316.197 188.053 316.391 187.924 316.536 187.761C316.68 187.598 316.753 187.413 316.753 187.208C316.753 186.947 316.657 186.741 316.466 186.592C316.274 186.443 315.969 186.312 315.549 186.2L314.247 185.78C313.682 185.603 313.248 185.36 312.945 185.052C312.646 184.739 312.497 184.366 312.497 183.932C312.497 183.391 312.735 182.957 313.211 182.63C313.687 182.303 314.312 182.14 315.087 182.14C315.908 182.14 316.545 182.308 316.998 182.644C317.45 182.98 317.686 183.4 317.705 183.904H316.627C316.585 183.61 316.435 183.388 316.179 183.239C315.922 183.085 315.558 183.008 315.087 183.008C314.634 183.008 314.279 183.111 314.023 183.316C313.771 183.517 313.645 183.741 313.645 183.988C313.645 184.45 314.041 184.791 314.835 185.01L316.165 185.458C316.739 185.631 317.177 185.857 317.481 186.137C317.789 186.417 317.943 186.774 317.943 187.208C317.943 187.544 317.833 187.861 317.614 188.16C317.394 188.459 317.084 188.701 316.683 188.888C316.281 189.075 315.805 189.168 315.255 189.168ZM319.208 188.349C319.208 188.13 319.285 187.941 319.439 187.782C319.593 187.623 319.787 187.544 320.02 187.544C320.253 187.544 320.452 187.623 320.615 187.782C320.778 187.941 320.86 188.13 320.86 188.349C320.86 188.568 320.778 188.753 320.615 188.902C320.452 189.051 320.253 189.126 320.02 189.126C319.787 189.126 319.593 189.051 319.439 188.902C319.285 188.748 319.208 188.564 319.208 188.349Z" fill="#C1A27F"/>
<path d="M138.386 144.15C138.386 147.183 137.419 149.567 135.486 151.3C133.553 153.033 130.919 154.083 127.586 154.45C127.586 156.517 127.653 158.283 127.786 159.75L123.786 160.55L123.536 159.85C123.736 158.45 123.903 156.7 124.036 154.6C119.936 154.433 116.269 153.267 113.036 151.1C113.136 148.733 114.069 146.483 115.836 144.35C118.369 147.083 121.136 148.933 124.136 149.9V138.5C123.136 138.067 122.419 137.767 121.986 137.6C121.553 137.4 120.886 137.083 119.986 136.65C119.086 136.183 118.419 135.783 117.986 135.45C117.553 135.117 117.019 134.667 116.386 134.1C115.753 133.5 115.286 132.917 114.986 132.35C114.219 130.917 113.836 129.367 113.836 127.7C113.836 124.9 114.786 122.75 116.686 121.25C118.619 119.717 121.103 118.8 124.136 118.5C124.069 116.7 124.003 115.333 123.936 114.4L127.736 113.1L127.986 113.8C127.753 115.8 127.619 117.35 127.586 118.45C130.886 118.683 134.169 119.5 137.436 120.9C137.069 123.367 136.219 125.717 134.886 127.95C132.486 125.783 130.053 124.267 127.586 123.4V133C128.986 133.567 130.019 134 130.686 134.3C131.386 134.6 132.319 135.1 133.486 135.8C134.653 136.5 135.519 137.2 136.086 137.9C136.686 138.567 137.219 139.45 137.686 140.55C138.153 141.65 138.386 142.85 138.386 144.15ZM131.786 145.75C131.786 143.483 130.386 141.6 127.586 140.1V150.4C128.819 150.4 129.903 150.15 130.836 149.65C131.469 148.817 131.786 147.517 131.786 145.75ZM119.986 126.35C119.986 128.383 121.369 130.1 124.136 131.5V122.75C123.069 122.75 121.986 122.983 120.886 123.45C120.286 124.05 119.986 125.017 119.986 126.35ZM156.341 143C156.341 147.6 156.607 150.9 157.141 152.9V154H148.841V152.9C149.374 150.9 149.641 147.6 149.641 143V128.7C149.641 126.433 149.591 125.017 149.491 124.45C147.524 124.85 145.341 125.1 142.941 125.2L142.391 122.35C146.091 121.717 149.141 120.6 151.541 119H156.591L156.341 124.9V143ZM183.233 143.35C183.233 139.383 180.4 137.217 174.733 136.85L168.083 136.4L166.833 135.05C167.4 130.817 168.317 125.5 169.583 119.1L187.283 118.85L188.533 126.15H187.583C186.517 125.217 184.983 124.483 182.983 123.95C181.017 123.383 178.9 123.1 176.633 123.1H174.033C173.333 125.233 172.667 128.367 172.033 132.5C175.767 132.667 178.333 132.85 179.733 133.05C181.167 133.217 182.567 133.533 183.933 134C185.3 134.433 186.4 135 187.233 135.7C189.2 137.3 190.183 139.717 190.183 142.95C190.183 146.15 188.9 148.883 186.333 151.15C183.8 153.417 180.45 154.55 176.283 154.55C172.117 154.55 167.767 153.433 163.233 151.2C163.367 150.5 163.75 149.6 164.383 148.5C165.017 147.367 165.633 146.533 166.233 146C170.5 149.067 174.267 150.6 177.533 150.6C179.067 150.6 180.333 150.383 181.333 149.95C181.933 149.25 182.4 148.267 182.733 147C183.067 145.7 183.233 144.483 183.233 143.35ZM204.186 147.25C204.519 147.583 204.753 148.25 204.886 149.25C205.019 150.25 205.086 151.033 205.086 151.6C205.086 152.133 205.053 152.6 204.986 153L204.486 153.45C202.986 153.883 200.753 154.233 197.786 154.5L197.186 154.2C196.886 153.7 196.636 152.867 196.436 151.7C196.269 150.533 196.186 149.733 196.186 149.3C196.186 148.833 196.186 148.533 196.186 148.4L196.686 147.95C198.819 147.25 200.936 146.9 203.036 146.9C203.236 146.9 203.419 146.9 203.586 146.9L204.186 147.25ZM227.677 154.55C222.677 154.55 218.827 152.883 216.127 149.55C213.46 146.183 212.127 141.75 212.127 136.25C212.127 130.717 213.594 126.35 216.527 123.15C219.46 119.917 223.277 118.3 227.977 118.3C232.71 118.3 236.26 119.933 238.627 123.2C241.027 126.467 242.227 130.75 242.227 136.05C242.227 141.317 240.877 145.717 238.177 149.25C235.477 152.783 231.977 154.55 227.677 154.55ZM232.377 148.85C233.21 148.017 233.86 146.467 234.327 144.2C234.794 141.9 235.027 139.633 235.027 137.4C235.027 135.133 234.894 133.167 234.627 131.5C234.394 129.833 233.977 128.3 233.377 126.9C232.144 124 229.91 122.55 226.677 122.55C225.744 122.55 224.81 122.683 223.877 122.95C222.977 123.217 222.327 123.533 221.927 123.9C221.194 124.867 220.577 126.433 220.077 128.6C219.577 130.733 219.327 132.717 219.327 134.55C219.327 136.35 219.41 137.967 219.577 139.4C219.744 140.8 220.027 142.2 220.427 143.6C220.86 144.967 221.41 146.133 222.077 147.1C223.577 149.267 225.677 150.35 228.377 150.35C228.944 150.35 229.644 150.217 230.477 149.95C231.344 149.683 231.977 149.317 232.377 148.85ZM269.39 143.1C269.39 146.4 268.19 149.133 265.79 151.3C263.424 153.433 260.14 154.5 255.94 154.5C251.774 154.5 247.924 153.583 244.39 151.75V151.45C244.39 149.783 245.074 148.233 246.44 146.8C250.207 149.433 253.39 150.75 255.99 150.75H256.24C257.974 150.75 259.307 150.483 260.24 149.95C261.707 148.583 262.44 146.383 262.44 143.35C262.44 141.05 261.924 139.433 260.89 138.5C259.89 137.533 258.24 137.05 255.94 137.05C253.64 137.05 252.024 137.117 251.09 137.25H250.09L248.94 133.45H254.39C256.057 133.45 257.424 132.817 258.49 131.55C259.557 130.25 260.09 128.767 260.09 127.1C260.09 123.667 258.84 121.95 256.34 121.95C254.107 121.95 251.374 123.217 248.14 125.75C246.84 123.983 246.057 122.083 245.79 120.05C249.657 118.95 253.34 118.4 256.84 118.4C263.474 118.4 266.79 120.9 266.79 125.9C266.79 127.9 266.274 129.633 265.24 131.1C264.24 132.533 263.04 133.6 261.64 134.3C266.807 135.4 269.39 138.333 269.39 143.1Z" fill="#550000"/>
<g filter="url(#filter0_d_174_20)">
<rect x="5.5" y="1.5" width="369" height="282" rx="13.5" stroke="#550000" stroke-opacity="0.5" stroke-width="3" shape-rendering="crispEdges"/>
</g>
<path d="M360.466 253.266C364.954 259.594 361.52 266.842 359.86 269.67C359.616 270.065 359.289 270.403 358.901 270.659C358.514 270.915 358.075 271.083 357.616 271.151C354.362 271.712 346.26 272.34 341.907 266.012C337.621 260.043 337.8 249.54 338.182 244.536C338.197 244.163 338.3 243.799 338.483 243.474C338.667 243.149 338.924 242.872 339.235 242.666C339.547 242.46 339.902 242.331 340.273 242.29C340.644 242.248 341.019 242.295 341.368 242.427C346.193 243.818 356.247 247.296 360.466 253.266Z" stroke="#C1A27F" stroke-width="3" stroke-linecap="round" stroke-linejoin="round"/>
<path d="M345.34 251.179C350.481 257.236 354.992 263.8 358.805 270.769" stroke="#C1A27F" stroke-width="3" stroke-linecap="round" stroke-linejoin="round"/>
<defs>
<filter id="filter0_d_174_20" x="0" y="0" width="380" height="293" filterUnits="userSpaceOnUse" color-interpolation-filters="sRGB">
<feFlood flood-opacity="0" result="BackgroundImageFix"/>
<feColorMatrix in="SourceAlpha" type="matrix" values="0 0 0 0 0 0 0 0 0 0 0 0 0 0 0 0 0 0 127 0" result="hardAlpha"/>
<feOffset dy="4"/>
<feGaussianBlur stdDeviation="2"/>
<feComposite in2="hardAlpha" operator="out"/>
<feColorMatrix type="matrix" values="0 0 0 0 0 0 0 0 0 0 0 0 0 0 0 0 0 0 0.25 0"/>
<feBlend mode="normal" in2="BackgroundImageFix" result="effect1_dropShadow_174_20"/>
<feBlend mode="normal" in="SourceGraphic" in2="effect1_dropShadow_174_20" result="shape"/>
</filter>
</defs>
</svg>
