<svg width="28" height="27" viewBox="0 0 28 27" fill="none" xmlns="http://www.w3.org/2000/svg">
<path d="M22.8849 17.076C22.6956 16.8544 22.4614 16.6766 22.1981 16.5547C21.9349 16.4329 21.6488 16.3698 21.3594 16.3698C21.0699 16.3698 20.7839 16.4329 20.5207 16.5547C20.2574 16.6766 20.0232 16.8544 19.8339 17.076C19.1211 17.7886 18.4084 18.5099 17.7043 19.2401C17.6381 19.3313 17.5397 19.3931 17.4296 19.4128C17.3196 19.4325 17.2063 19.4084 17.1132 19.3457C16.6525 19.0906 16.1571 18.8883 15.7138 18.6067C13.6795 17.2724 11.8763 15.6079 10.3767 13.6801C9.59375 12.7459 8.94685 11.7031 8.45571 10.5834C8.4023 10.4906 8.3843 10.3812 8.40512 10.2758C8.42594 10.1705 8.48413 10.0765 8.56871 10.0116C9.28148 9.30778 9.97685 8.59519 10.6809 7.87379C10.9107 7.68061 11.0956 7.43857 11.2225 7.16488C11.3495 6.89119 11.4153 6.59259 11.4153 6.29026C11.4153 5.98792 11.3495 5.6893 11.2225 5.41561C11.0956 5.14192 10.9107 4.89987 10.6809 4.70669L9.00332 3.00878C8.42963 2.42815 7.85594 1.83872 7.26487 1.24928C7.07399 1.03023 6.83925 0.854806 6.57623 0.734638C6.31322 0.614471 6.02794 0.552315 5.73937 0.552315C5.45079 0.552315 5.16552 0.614471 4.9025 0.734638C4.63949 0.854806 4.40474 1.03023 4.21387 1.24928C3.49241 1.96188 2.80572 2.70085 2.06687 3.40465C1.4164 4.02557 1.02728 4.87627 0.980353 5.77999C0.918432 7.2621 1.17959 8.73986 1.74528 10.1084C2.82944 12.9532 4.39091 15.5872 6.36086 17.8941C8.95371 21.0454 12.1808 23.6007 15.8268 25.3896C17.4469 26.2483 19.2199 26.7716 21.0421 26.9292C21.6525 26.9986 22.2705 26.9199 22.8449 26.6996C23.4193 26.4793 23.9336 26.1238 24.3452 25.6623C24.9537 24.9673 25.6404 24.3339 26.2923 23.6741C26.5177 23.48 26.6988 23.2387 26.8229 22.9667C26.9471 22.6948 27.0114 22.3989 27.0114 22.0993C27.0114 21.7998 26.9471 21.5038 26.8229 21.2319C26.6988 20.96 26.5177 20.7187 26.2923 20.5246C25.1681 19.3751 24.0323 18.2255 22.8849 17.076Z" fill="white"/>
<path d="M27.3961 12.0527C25.1329 6.70191 20.9078 2.4478 15.6094 0.18488C15.396 0.104259 15.1599 0.111612 14.9518 0.205391C14.7437 0.29917 14.5803 0.471861 14.4968 0.686316C14.4513 0.79363 14.4273 0.909049 14.4263 1.02583C14.4253 1.14262 14.4473 1.25844 14.491 1.36653C14.5347 1.47463 14.5992 1.57282 14.6808 1.65541C14.7624 1.73801 14.8594 1.80334 14.9662 1.84759C19.8502 3.93597 23.7446 7.85862 25.8315 12.7917C25.9248 13.0009 26.0952 13.1649 26.3063 13.2487C26.5174 13.3325 26.7525 13.3295 26.9615 13.2404C27.0685 13.193 27.165 13.1242 27.2451 13.0382C27.3253 12.9523 27.3875 12.8508 27.4281 12.74C27.4687 12.6291 27.4867 12.5111 27.4812 12.393C27.4758 12.275 27.4468 12.1592 27.3961 12.0527Z" fill="white"/>
<path d="M14.5142 6.6246C17.4747 7.88668 19.8365 10.2612 21.103 13.2491C21.1703 13.3965 21.2765 13.5222 21.41 13.6123C21.5434 13.7023 21.6989 13.7532 21.8592 13.7594C21.9766 13.7585 22.0923 13.7315 22.1982 13.6802C22.3981 13.5811 22.5528 13.4081 22.6304 13.197C22.7081 12.9858 22.7027 12.7526 22.6154 12.5453C21.1798 9.15307 18.5001 6.45667 15.1401 5.02348C14.9332 4.94914 14.7061 4.95681 14.5046 5.04493C14.303 5.13306 14.1419 5.29509 14.0536 5.49853C13.9718 5.71011 13.9742 5.94549 14.06 6.15538C14.1459 6.36528 14.3087 6.53342 14.5142 6.6246Z" fill="white"/>
</svg>
