<svg width="38" height="44" viewBox="0 0 38 44" fill="none" xmlns="http://www.w3.org/2000/svg">
<path d="M32.2309 16.7899C38.2705 25.3056 33.6502 35.0595 31.4156 38.8644C31.0879 39.3966 30.6478 39.8508 30.1262 40.195C29.6046 40.5393 29.014 40.7654 28.3958 40.8575C24.0171 41.6124 13.1158 42.4579 7.25739 33.9422C1.48962 25.9096 1.73121 11.777 2.24457 5.04294C2.26481 4.54123 2.40392 4.0515 2.65044 3.61406C2.89695 3.17662 3.24384 2.80398 3.66253 2.52681C4.08123 2.24965 4.55976 2.07589 5.05874 2.01982C5.55773 1.96376 6.06289 2.02701 6.53265 2.20436C13.0252 4.07662 26.5538 8.75727 32.2309 16.7899Z" stroke="#C1A27F" stroke-width="4" stroke-linecap="round" stroke-linejoin="round"/>
<path d="M11.8777 13.9815C18.7946 22.1327 24.8653 30.9656 29.9963 40.3441" stroke="#C1A27F" stroke-width="4" stroke-linecap="round" stroke-linejoin="round"/>
</svg>
